<?xml version="1.0" encoding="UTF-8"?><svg id="Layer_2" xmlns="http://www.w3.org/2000/svg" viewBox="0 0 413.1571 77.1688"><path d="M270.6043,35.8493c.21-.2627,.4199-.2764,.6309-.04,.21,.2373,.21,.4619,0,.6709-.5791,.5801-1.1709,1.1582-1.7754,1.7373-.6055,.5791-1.2236,1.1318-1.8545,1.6572-1.1582,1-2.3291,1.9336-3.5127,2.8018s-2.3818,1.6973-3.5918,2.4863c-1.0527,.6846-2.1182,1.3555-3.1963,2.0127-1.0791,.6582-2.1445,1.3291-3.1963,2.0127l-.7109,1.9736c-.2637,.5791-.5127,1.1836-.75,1.8154-.2363,.6309-.4863,1.2363-.749,1.8154-.2646,.5791-.4873,1.1045-.6709,1.5781-.1855,.4736-.3555,.9209-.5137,1.3418-.1055,.2637-.1973,.5127-.2764,.75-.0781,.2363-.1709,.4336-.2754,.5918l-.2373,.4736c-.1064,.2627-.2109,.5127-.3154,.75-.1064,.2363-.2109,.4854-.3164,.75-.21,.4736-.4209,.9473-.6309,1.4199-.2109,.4736-.4219,.9209-.6318,1.3418,0,.1582-.0527,.2891-.1572,.3955-.2109,.5254-.4219,1.0381-.6318,1.5391-.2109,.499-.4219,.9863-.6318,1.46-.21,.4209-.3945,.8154-.5518,1.1836-.1582,.3682-.3428,.7627-.5527,1.1846-.0527,.1572-.2246,.5381-.5127,1.1445-.29,.6035-.6191,1.2881-.9873,2.0518-.3682,.7617-.75,1.5-1.1445,2.21s-.7236,1.2236-.9863,1.5391c-.0527,.0518-.0791,.0918-.0791,.1182s-.0273,.0654-.0791,.1191h-.0781c-.1582,.209-.501,.3154-1.0264,.3154-.0527,0-.1318-.0527-.2373-.1582-.1572,0-.1846-.0791-.0781-.2363v-.0791c.3672-.3691,.6572-.7773,.8682-1.2236,.209-.4473,.4199-.9072,.6309-1.3809l.4736-1.1846c.2627-.5264,.5-1.0527,.7109-1.5781,.209-.5264,.4463-1.0537,.71-1.5791,.21-.4736,.4072-.96,.5918-1.46,.1836-.501,.4072-.9863,.6709-1.46,.21-.5801,.4209-1.1182,.6318-1.6182,.209-.501,.4199-1.0137,.6309-1.5391,.2627-.5801,.5254-1.1836,.79-1.8154l2.6836-6.709c.1045-.2627,.1973-.5254,.2754-.7891,.0791-.2627,.1709-.5254,.2764-.7891l1.1846-3.3154c-2.21,.9473-4.499,1.7363-6.8672,2.3682-1.6846,.4736-3.3818,.8955-5.0908,1.2627-1.7109,.3682-3.4336,.71-5.1699,1.0264v.0781c-.2637,.2646-.501,.5527-.71,.8682-.2109,.3164-.4219,.6064-.6318,.8691-.1582,.21-.3037,.4082-.4346,.5918-.1318,.1846-.2754,.3818-.4336,.5918-.0527,0-.0791,.0273-.0791,.0791l-.1582,.1572-2.21,2.8418c-.1055,.1045-.1973,.21-.2764,.3154-.0781,.1055-.1709,.21-.2754,.3164-.2646,.2627-.501,.5518-.7109,.8682-.2109,.3154-.4473,.6035-.71,.8682-.2109,.2627-.4219,.499-.6318,.71-.2109,.21-.4219,.4463-.6309,.7109-.2646,.2627-.5137,.5254-.75,.7891-.2373,.2627-.4873,.5254-.75,.7891-.2109,.2627-.4219,.4863-.6318,.6709-.2109,.1836-.4219,.4072-.6309,.6709-.2637,.21-.501,.4209-.7109,.6318-.2109,.209-.4473,.4463-.71,.71l-1.4209,1.1836c-.4219,.3682-.8682,.7109-1.3418,1.0264s-.9473,.6318-1.4209,.9473c-.3682,.2627-.7236,.499-1.0654,.71-.3428,.21-.7236,.3682-1.1445,.4736-.2109,.1055-.5264,.21-.9473,.3164-.4219,.1045-.8818,.1836-1.3809,.2363-.501,.0518-1.0127,.0264-1.5391-.0791-.5254-.1055-.9736-.3428-1.3418-.71l-.4736-.7109-.0791-.0781c-.1045-.1064-.1699-.2246-.1973-.3555-.0254-.1318-.0908-.2764-.1973-.4346-.4209-1.1572-.499-2.2891-.2363-3.3936,.2637-1.1055,.71-2.1445,1.3418-3.1182,.6309-.9736,1.3809-1.8818,2.249-2.7227,.8682-.8428,1.749-1.5527,2.6445-2.1309,2.0518-1.4209,4.2617-2.5127,6.6299-3.2754,2.3672-.7627,4.7871-1.4072,7.2617-1.9346,.6309-.1045,1.2744-.2227,1.9336-.3545,.6572-.1309,1.3281-.249,2.0127-.3555,.1045-.1582,.2227-.3154,.3545-.4736,.1309-.1582,.25-.3418,.3555-.5527,.21-.2627,.4209-.5518,.6318-.8682,.209-.3154,.4199-.6045,.6309-.8682,.2627-.3672,.5-.71,.7109-1.0264,.209-.3154,.4463-.6309,.71-.9463,.2627-.3164,.4863-.6318,.6709-.9473,.1836-.3164,.4072-.6045,.6709-.8682,.2627-.3682,.5-.7109,.7109-1.0264,.209-.3154,.4463-.6572,.71-1.0264l1.1836-1.6572c.2627-.3672,.5137-.7363,.75-1.1055,.2373-.3672,.4863-.7363,.75-1.1045,.21-.3154,.4209-.6318,.6318-.9473,.209-.3154,.4199-.6318,.6309-.9473l1.4209-2.1309c.2627-.3154,.4863-.6436,.6709-.9863,.1836-.3418,.4072-.6973,.6709-1.0664,.2627-.3672,.499-.7227,.71-1.0654,.21-.3408,.4209-.6963,.6318-1.0654,.2627-.3672,.4863-.71,.6709-1.0264,.1836-.3154,.4072-.6572,.6709-1.0254,.4209-.7891,.8682-1.5254,1.3418-2.21,.21-.3682,.4209-.7109,.6318-1.0264,.209-.3154,.4199-.6572,.6309-1.0264l1.4209-2.3672c.4209-.79,.8682-1.5264,1.3418-2.21,.4209-.8418,.8682-1.6582,1.3418-2.4473,.4736-.8408,.8945-1.6836,1.2627-2.5254,.2627-.4736,.5-.9473,.7109-1.4209,.209-.4736,.4199-.9473,.6309-1.4209,.4736-.999,.7627-2.0518,.8682-3.1572,.1055-.3672,.0791-.71-.0791-1.0264-.1572-.2627-.2891-.5127-.3945-.749-.1055-.2373-.2109-.4863-.3154-.75-.2637-.3682-.54-.7363-.8291-1.1055-.2891-.3672-.5654-.7363-.8281-1.1045-.4736-.5254-.9746-1.0264-1.5-1.5-.4736-.3672-.9609-.71-1.46-1.0264-.501-.3154-1.0137-.6045-1.5391-.8682-.4736-.2627-.9473-.4736-1.4209-.6309-.4736-.1582-.9473-.3418-1.4209-.5527-1.5781-.4736-3.1846-.7891-4.8145-.9473-.7373-.1045-1.4482-.1582-2.1309-.1582-.6846,0-1.3955,.0273-2.1318,.0791-1.4736,.1064-2.8154,.29-4.0254,.5527-1.4199,.4219-2.8408,.8955-4.2617,1.4209-.4736,.2637-.9473,.5127-1.4209,.75-.4736,.2363-.9209,.4863-1.3418,.749-.2637,.1582-.501,.3164-.71,.4736-.2109,.1582-.4219,.3164-.6318,.4736-1.0527,.7373-2,1.5273-2.8418,2.3682-.2637,.2637-.5,.5264-.71,.7891-.2109,.2637-.4473,.5264-.71,.7891-.2646,.2646-.4873,.541-.6709,.8291-.1855,.29-.4082,.5918-.6709,.9082-.2646,.3154-.4873,.6445-.6709,.9863-.1855,.3428-.4082,.6709-.6709,.9863-.2646,.4219-.4873,.8682-.6709,1.3418-.1855,.4736-.4082,.9219-.6709,1.3418-.2646,.5801-.501,1.1973-.7109,1.8555-.2109,.6582-.3945,1.3018-.5527,1.9336-.2109,.6309-.3545,1.2764-.4336,1.9336-.0791,.6582-.1455,1.3291-.1973,2.0127-.1582,2.4736,.1836,4.8418,1.0264,7.1035,.209,.5801,.4336,1.1318,.6709,1.6572,.2363,.5273,.5381,1.0264,.9072,1.5,.5254,.7891,1.0264,1.4209,1.5,1.8945,.2627,.2637,.499,.4873,.71,.6709,.21,.1846,.4463,.3818,.71,.5918,.999,.7373,2,1.3418,3,1.8154,1.8945,.8418,3.8398,1.4736,5.8408,1.8945,.7363,.1572,1.4854,.2637,2.249,.3154,.7627,.0527,1.5117,.0791,2.25,.0791,.5781-.0518,1.1172-.1055,1.6182-.1582,.499-.0518,1.0117-.1582,1.5391-.3154h.7891c.1582,0,.2363,.0791,.2363,.2363,0,.1582-.0781,.2373-.2363,.2373-.2637,.1055-.6592,.2109-1.1846,.3154-1.5781,.3154-3.1309,.3945-4.6562,.2373-.6318-.0527-1.2627-.1191-1.8945-.1982-.6309-.0781-1.2627-.1973-1.8945-.3545-1.4199-.3164-2.8945-.7891-4.4199-1.4209-.4736-.21-.9609-.4346-1.46-.6709-.501-.2373-.9609-.5127-1.3809-.8291-.2646-.1572-.5273-.3281-.79-.5127-.2637-.1836-.5264-.3809-.7891-.5918-.2637-.21-.501-.4209-.71-.6318-.2109-.21-.4482-.4463-.7109-.71-.3682-.3164-.6709-.6436-.9072-.9873-.2373-.3408-.4873-.7227-.75-1.1445-.3691-.5244-.6582-1.0771-.8682-1.6572-.2109-.5781-.4219-1.1562-.6318-1.7363-.3154-.8408-.54-1.6973-.6709-2.5654-.1318-.8682-.2236-1.748-.2764-2.6436-.1055-1.5791,0-3.0254,.3164-4.3418,.1572-.7363,.3281-1.4463,.5127-2.1309,.1836-.6826,.4072-1.3672,.6709-2.0518,.21-.5254,.4209-1.0264,.6318-1.5,.209-.4736,.4463-.9473,.71-1.4209,.21-.4199,.4209-.8018,.6318-1.1445,.209-.3408,.4463-.6963,.71-1.0654,.21-.3154,.4072-.6309,.5918-.9473,.1836-.3154,.4072-.6309,.6709-.9473,.2627-.2627,.4863-.5127,.6709-.749,.1836-.2373,.4072-.4863,.6709-.75,.2627-.2627,.5-.5137,.7109-.75,.209-.2363,.4463-.4863,.71-.75,.2627-.21,.4863-.4072,.6709-.5918,.1836-.1836,.4072-.3809,.6709-.5918,.4736-.3682,.9336-.7227,1.3818-1.0654,.4463-.3418,.9336-.6445,1.46-.9082,.4736-.2627,.9473-.5127,1.4209-.75,.4736-.2363,.9463-.46,1.4199-.6709,1.8418-.7891,3.8408-1.3418,5.999-1.6572,1.8408-.2627,3.71-.3418,5.6045-.2363,1.2627,.0527,2.6299,.2637,4.1035,.6309,.7363,.1582,1.4727,.3691,2.21,.6318,.7363,.2637,1.4727,.5527,2.21,.8682,.5254,.2637,1.0391,.5264,1.54,.7891,.499,.2637,.959,.5801,1.3809,.9473,.2627,.1582,.4863,.3154,.6709,.4736,.1836,.1582,.4072,.3154,.6709,.4736,.3672,.2637,.6709,.54,.9072,.8291,.2373,.2891,.4863,.5654,.75,.8281,.3164,.3154,.6045,.6455,.8682,.9863,.2627,.3438,.5254,.7246,.79,1.1445,.3154,.4219,.5918,.8955,.8281,1.4209,.2373,.5264,.4863,1.0537,.75,1.5791,.999,2.3672,1.3809,4.8535,1.1445,7.459-.2373,2.6045-.6191,5.1172-1.1445,7.5371-.3691,1.6846-.7773,3.3545-1.2236,5.0117-.4473,1.6582-.9346,3.3027-1.46,4.9336-.3691,1.1582-.7236,2.2891-1.0654,3.3936-.3428,1.1055-.7236,2.21-1.1445,3.3154l-1.5791,4.3408c.5791-.4199,1.2363-.8408,1.9736-1.2627,1.21-.7891,2.4336-1.5781,3.6699-2.3682,1.2363-.7891,2.46-1.6299,3.6709-2.5254,1.21-.8945,2.3535-1.8154,3.4326-2.7627,1.0781-.9473,2.1436-1.9463,3.1973-2.999Zm-37.8076,19.1797c-.5791,.1064-1.1445,.2246-1.6963,.3555-.5527,.1318-1.1191,.25-1.6973,.3545-2.4209,.4736-4.8027,1.0928-7.1436,1.8555-2.3418,.7617-4.5117,1.8809-6.5117,3.3545-.9463,.6826-1.8154,1.4463-2.6045,2.2891-.7891,.8408-1.4727,1.7881-2.0518,2.8408-.3682,.6318-.6318,1.3281-.7891,2.0918-.1582,.7627-.1846,1.5117-.0791,2.25,0,.1572,.0273,.3154,.0791,.4736,.0527,.1572,.1055,.3154,.1572,.4736,.1064,.1045,.1719,.2227,.1973,.3545,.0273,.1309,.0928,.249,.1973,.3555,.4736,.6318,1.0654,.9727,1.7764,1.0264,.71,.0518,1.3936-.0273,2.0518-.2373,.6572-.2109,1.25-.4609,1.7764-.75,.5254-.2891,.8682-.4863,1.0264-.5918l.0781-.0791c.1055-.0527,.1846-.1055,.2373-.1572,.0518-.0537,.1309-.1064,.2363-.1582,.4209-.3691,.8682-.7236,1.3418-1.0654,.4736-.3428,.9199-.7236,1.3418-1.1445,.2627-.2109,.5-.4082,.7109-.5918,.209-.1855,.4463-.4082,.71-.6709,.2627-.2637,.5391-.5264,.8291-.7891,.2881-.2646,.5645-.5273,.8281-.79,.1582-.2109,.3281-.4082,.5137-.5918,.1836-.1846,.3545-.3818,.5127-.5918,.2627-.2637,.5391-.5527,.8291-.8682,.2881-.3154,.5645-.6318,.8281-.9473,.1055-.1064,.21-.2246,.3164-.3555,.1045-.1318,.209-.25,.3154-.3545,0-.0537,.0264-.1064,.0791-.1582l.3154-.3154v-.0791c.2627-.3154,.5654-.6982,.9082-1.1445,.3408-.4473,.6826-.8818,1.0254-1.3027,.3418-.4219,.6445-.7891,.9082-1.1045,.2627-.3154,.4199-.5254,.4736-.6318,.1572-.1572,.3945-.4463,.71-.8682,.21-.2627,.4072-.5391,.5918-.8281,.1836-.2891,.4072-.5654,.6709-.8291v-.0791Zm18.9434-5.8408c.1582-.5781,.3281-1.1172,.5127-1.6182,.1846-.499,.3555-1.0381,.5137-1.6182,.2627-.6826,.4854-1.3418,.6709-1.9727,.1836-.6318,.3809-1.2891,.5918-1.9736,.2627-.6309,.4854-1.2754,.6709-1.9336,.1836-.6572,.3809-1.3027,.5918-1.9336,.2627-.7363,.4863-1.4473,.6709-2.1309,.1836-.6836,.3809-1.3936,.5918-2.1318,.2627-.6826,.4863-1.3672,.6709-2.0518,.1836-.6836,.3809-1.3936,.5918-2.1309l1.1846-4.7363c.1045-.4736,.209-.9473,.3154-1.4209,.1045-.4736,.21-.9463,.3154-1.4199,.1055-.6318,.1846-1.25,.2373-1.8555,.0518-.6045,.1309-1.2236,.2363-1.8545,.0518-.21,.0791-.4209,.0791-.6318v-.6309c.0518-.999,0-2.1045-.1582-3.3154-.0527,.0527-.1318,.1855-.2363,.3945-.2109,.5264-.4219,1.0537-.6318,1.5791-.2109,.5264-.4473,1.0527-.71,1.5781-.2109,.4219-.4082,.8291-.5918,1.2236-.1855,.3945-.4082,.8027-.6709,1.2236-.2109,.4219-.4219,.8418-.6318,1.2627-.2109,.4219-.4473,.8418-.71,1.2627-.2637,.4219-.4873,.8164-.6709,1.1836-.1855,.3691-.4082,.7637-.6709,1.1846-.2637,.3682-.4873,.7373-.6709,1.1045-.1855,.3691-.4082,.7373-.6709,1.1055-.2109,.3682-.4219,.7236-.6318,1.0654-.2109,.3428-.4473,.6982-.71,1.0654-.2109,.4219-.4219,.8027-.6318,1.1445-.2109,.3428-.4473,.6982-.71,1.0654-.2637,.3691-.4873,.7236-.6709,1.0654-.1855,.3428-.4082,.6982-.6709,1.0654-.2637,.3691-.4873,.7246-.6709,1.0654-.1855,.3438-.4082,.6709-.6709,.9873-.2109,.3682-.4219,.7236-.6318,1.0654-.2109,.3428-.4473,.6982-.71,1.0654-.4736,.7373-.9219,1.3945-1.3418,1.9736-.2637,.3682-.501,.7236-.7109,1.0654-.2109,.3428-.4473,.6709-.71,.9863-.2109,.3154-.4082,.6318-.5918,.9473-.1855,.3154-.4082,.6318-.6709,.9473-.2637,.4219-.5264,.8027-.7891,1.1445-.2646,.3428-.5273,.7236-.79,1.1445-.2109,.2637-.3945,.5264-.5518,.7891-.1582,.2637-.3438,.5264-.5527,.7891-.2637,.3154-.501,.6455-.7109,.9863-.2109,.3438-.4473,.6709-.71,.9873-.2109,.2637-.4219,.5527-.6318,.8682-.2109,.3154-.4219,.6309-.6309,.9473l-1.4209,1.8936c-.1064,.1064-.2109,.2373-.3154,.3955-.1064,.1572-.2109,.2891-.3164,.3945,1.6836-.3164,3.3408-.6445,4.9727-.9873,1.6309-.3408,3.2881-.749,4.9727-1.2227,1.1572-.3682,2.3018-.75,3.4336-1.1445,1.1309-.3945,2.249-.8291,3.3545-1.3027Z" style="fill:#b15026;"/><path d="M291.4402,6.8034c.1055,.6309,.0918,1.3418-.0391,2.1309-.1318,.7891-.3291,1.5791-.5918,2.3682-.2646,.7891-.5527,1.5664-.8682,2.3281-.3164,.7637-.6318,1.4082-.9473,1.9336-.2109,.3164-.3945,.6191-.5527,.9082s-.3154,.5654-.4736,.8281c-1.5264,2.6318-3.0127,4.8418-4.46,6.6309s-2.4336,2.9727-2.959,3.5518c-1.0537,1.1572-2.2373,2.3672-3.5527,3.6299-1.3154,1.2637-2.7617,2.5791-4.3408,3.9473-.1572,.4736-.3154,.9736-.4736,1.499-.2637,1.001-.4736,2.1055-.6309,3.3154-.1064,.5791-.1855,1.1445-.2373,1.6973-.0527,.5518-.1055,1.1182-.1572,1.6963,0,.8955,.0781,1.7637,.2363,2.6055,.21,.6836,.4736,1.1836,.7891,1.499,.3164,.2109,.6045,.2637,.8682,.1582,.2627-.1055,.5254-.21,.79-.3154,.2627-.1055,.5254-.21,.7891-.3164,.6826-.3154,1.3418-.6963,1.9727-1.1445,.6318-.4463,1.2363-.9072,1.8154-1.3809,1.1055-.9473,2.1709-1.96,3.1973-3.0391,1.0254-1.0781,1.9854-2.1699,2.8809-3.2754,.2627-.3672,.5391-.71,.8281-1.0264,.2891-.3154,.5654-.6309,.8291-.9473,.3154-.4199,.71-.5254,1.1836-.3154,.0518,.0527,.0918,.1582,.1191,.3154,.0254,.1582-.1719,.501-.5928,1.0264-1.0527,1.2627-2.1045,2.5-3.1572,3.71-1.0527,1.2109-2.1582,2.3682-3.3145,3.4727-1.2109,1.2109-2.5,2.2373-3.8672,3.0781-.5273,.3154-1.0537,.5801-1.5791,.7891-.5264,.2109-1.0791,.3691-1.6572,.4736-.8955,.1582-1.6973,.0273-2.4072-.3945-.7109-.4199-1.1963-1.0518-1.4609-1.8945-.209-.7891-.3154-1.6572-.3154-2.6045,0-.7363,.0527-1.499,.1582-2.2891,.1055-.7891,.2363-1.5508,.3945-2.2881,.4219-2.1572,.9727-4.249,1.6572-6.2754,.6836-2.0254,1.3936-4.0381,2.1309-6.0381,.6836-1.8408,1.3936-3.6826,2.1318-5.5254,.7363-1.8408,1.5508-3.6826,2.4463-5.5244,.5254-1.1572,1.0918-2.2891,1.6973-3.3945,.6045-1.1045,1.2754-2.1826,2.0127-3.2354,.4209-.5791,.8408-1.1445,1.2627-1.6973,.4209-.5527,.8945-1.0654,1.4209-1.5391,.7891-.6836,1.709-1.2363,2.7627-1.6582,.9473-.3154,1.7754-.2754,2.4863,.1191,.71,.3945,1.1963,.9346,1.46,1.6182,.1045,.1055,.1699,.2363,.1973,.3945,.0254,.1572,.0654,.2891,.1182,.3945Zm-.9473,.9473c0-.7363-.1055-1.3936-.3154-1.9736-.2637-.5254-.6582-.7891-1.1836-.7891-.1582,.0527-.3301,.0791-.5137,.0791-.1846,0-.3291,.0527-.4336,.1572-1.2109,.3691-2.2891,1.0791-3.2363,2.1318-.8955,.9463-1.6846,1.9727-2.3682,3.0781-.6846,1.0527-1.29,2.1309-1.8154,3.2354-.5264,1.1055-1.0527,2.2373-1.5781,3.3945-.7373,1.6846-1.4346,3.3818-2.0918,5.0908-.6582,1.7109-1.2764,3.4336-1.8545,5.1699-.1064,.3154-.2646,.7773-.4736,1.3809-.2109,.6055-.4219,1.2236-.6318,1.8555-.2109,.6309-.3945,1.2227-.5527,1.7754-.1572,.5527-.2637,.9082-.3154,1.0654,.3672-.3672,.7754-.7617,1.2236-1.1836,.4463-.4209,.8545-.8018,1.2236-1.1445,.3672-.3418,.6826-.6436,.9473-.9072,.2627-.2627,.4199-.4209,.4727-.4736,1.5264-1.5264,3.0654-3.1836,4.6182-4.9727,1.5508-1.7881,2.9062-3.6035,4.0645-5.4463,.4736-.7363,.8945-1.4209,1.2627-2.0518,1.1055-1.9463,2.0527-3.999,2.8418-6.1572,.21-.5254,.3809-1.0654,.5127-1.6182,.1309-.5518,.1973-1.1172,.1973-1.6963Z" style="fill:#b15026;"/><path d="M302.6472,35.8493c.21,.1064,.2363,.2363,.0791,.3945l-.1582,.1582c-.7891,.9473-1.5918,1.8818-2.4072,2.8018-.8164,.9209-1.6455,1.8291-2.4863,2.7227-.7373,.8428-1.5127,1.6455-2.3281,2.4072-.8164,.7637-1.6709,1.4873-2.5654,2.1709-1.2109,.8428-2.4209,1.4482-3.6309,1.8154-1.2627,.3154-2.4736,.2637-3.6309-.1582-.1045-.0518-.1699-.0781-.1973-.0781-.0254,0-.0908-.0264-.1973-.0791-.6836-.3164-1.1836-.7627-1.5-1.3418-.3154-.5791-.5127-1.1846-.5918-1.8154-.0791-.6318-.0654-1.249,.04-1.8555,.1055-.6035,.2109-1.1172,.3154-1.5391,.5264-2.1035,1.5527-3.998,3.0781-5.6826,.7363-.7363,1.5-1.1836,2.2891-1.3418,.6836-.1045,1.3145,0,1.8945,.3154,.8408,.4219,1.0518,1.0791,.6309,1.9736-.2637,.5264-.6846,.8818-1.2627,1.0654-.5791,.1855-1.1582,.1455-1.7363-.1182-.0527-.0518-.0928-.0791-.1182-.0791-.0273,0-.0664-.0254-.1182-.0791-.0537,.0537-.0791,.0928-.0791,.1182,0,.0273-.0273,.0674-.0791,.1191-.4219,.8418-.7891,1.6846-1.1055,2.5254-.3154,.8428-.5518,1.7363-.71,2.6836-.1045,.4219-.1836,.8555-.2363,1.3027s-.0264,.8818,.0781,1.3018c.0537,.3691,.1855,.7373,.3945,1.1055,.2646,.5264,.6582,.7373,1.1846,.6309,.4199,0,.8281-.0654,1.2236-.1973,.3945-.1309,.8008-.2764,1.2227-.4336,.8418-.3682,1.6182-.8154,2.3291-1.3418,.71-.5254,1.3809-1.0781,2.0127-1.6582,.6309-.5781,1.2354-1.1699,1.8154-1.7754,.5781-.6045,1.1562-1.2236,1.7363-1.8545l3.5518-3.7891c.0518-.1045,.1045-.1699,.1572-.1973,.0518-.0264,.1309-.0908,.2373-.1973,.2627-.2627,.5527-.2627,.8682,0Zm-12.7861-.5527c-.5801,.2637-1.0264,.7373-1.3418,1.4209l.1572,.1582c.2627,.3154,.5254,.3682,.7891,.1572,.4209-.209,.6318-.5781,.6318-1.1045,.1045-.2627,.0264-.4736-.2363-.6318Z" style="fill:#b15026;"/><path d="M319.3006,35.8493c.21-.2627,.4346-.2627,.6709,0,.2373,.2637,.249,.5264,.04,.7891-.5273,.6846-1.0791,1.3418-1.6582,1.9736-.5791,.6309-1.1572,1.2627-1.7363,1.8945-1,1-2.0127,1.96-3.0381,2.8809-1.0264,.9209-2.0664,1.8281-3.1182,2.7227-.0527,.0527-.1064,.0928-.1582,.1182-.0527,.0273-.1055,.0664-.1572,.1182-.5801,.4736-1.1982,.9219-1.8555,1.3418-.6582,.4219-1.3555,.7637-2.0908,1.0264-.3164,.1064-.6709,.1973-1.0664,.2764-.3945,.0791-.7764,.0664-1.1445-.0391-.7891-.2627-1.3418-.8154-1.6572-1.6582-.2637-.4736-.4082-.9863-.4336-1.5391-.0273-.5518-.0654-1.0908-.1191-1.6182-.5254,.5273-1.0518,1.0664-1.5781,1.6182-.5254,.5527-1.0264,1.1191-1.5,1.6973-.209,.4219-.4736,.6582-.7891,.71-.1582,.0537-.3281,.0273-.5127-.0781-.1836-.1055-.249-.2627-.1973-.4736,.0527-.0518,.0781-.0918,.0781-.1191,0-.0254,.0273-.0654,.0791-.1182,.5801-.7363,1.1846-1.46,1.8154-2.1699,.6318-.7109,1.29-1.4336,1.9736-2.1709,.2637-.2627,.4736-.5527,.6309-.8682,.0537-.1582,.0791-.3682,.0791-.6318,.0518-.4736,.1182-.9727,.1973-1.499,.0791-.5254,.1191-1.0527,.1191-1.5791,0-.5254-.04-1.0381-.1191-1.5391-.0791-.499-.249-.9072-.5127-1.2236,.0527-.1572,.1846-.2627,.3945-.3154,.21-.0518,.3945-.0518,.5527,0,.4199,.1582,.7617,.4082,1.0264,.75,.2627,.3428,.4463,.7236,.5518,1.1445,.1582,.6846,.1836,1.5264,.0791,2.5254,1.3682-1.4209,2.71-2.6562,4.0254-3.71,.21-.209,.4463-.3672,.7109-.4736,.4199,0,.6826,.0791,.7891,.2373,.1045,.2109,.1309,.3691,.0791,.4736-.1064,.1055-.1855,.1572-.2373,.1572-.9473,.7383-1.8428,1.5137-2.6836,2.3291-.8418,.8164-1.6572,1.6709-2.4463,2.5654-.1582,.1572-.2646,.2891-.3164,.3945-.0527,.1055-.0791,.1846-.0791,.2363,0,.0527-.0264,.1318-.0781,.2373-.0537,.5791-.0928,1.1836-.1191,1.8154-.0264,.6309-.0391,1.2363-.0391,1.8154,.0518,.21,.0791,.4209,.0791,.6309,0,.2109,.0254,.4219,.0791,.6318,.0518,.1055,.0908,.1973,.1182,.2764,.0254,.0781,.0654,.1455,.1182,.1973,.3154,.3154,.7109,.4082,1.1836,.2764,.4736-.1309,.8691-.2764,1.1846-.4346,.7891-.3672,1.5781-.8408,2.3682-1.4209,.8408-.6309,1.6572-1.2891,2.4463-1.9727s1.5518-1.3936,2.2891-2.1318c1.0518-.9473,2.0381-1.9199,2.96-2.9199,.9199-.999,1.8271-2.0527,2.7227-3.1572Z" style="fill:#b15026;"/><path d="M321.7469,41.6902c-.1055,.1582-.2109,.3037-.3154,.4336-.1064,.1328-.2109,.2764-.3154,.4346-.6846,.7891-1.3955,1.3945-2.1318,1.8154-.4736,.3154-1.0254,.3945-1.6572,.2363-.6836-.209-1.0781-.71-1.1836-1.499,0-.4209,.0264-.8018,.0781-1.1445,.0537-.3418,.1328-.6709,.2373-.9873,.5264-1.7881,1.3945-3.3936,2.6045-4.8145,.8408-.999,1.9736-1.4463,3.3945-1.3418,.1572,0,.3945,.0537,.71,.1582l.4736,.2363c.3672,.3691,.3945,.7637,.0791,1.1846-.1064,.1055-.2373,.1709-.3945,.1973-.1582,.0273-.29-.0127-.3955-.1191v-.2363c0-.1045,.0127-.1699,.04-.1973,.0254-.0264,.0391-.0908,.0391-.1973,.0518-.1582,.0264-.2764-.0791-.3555s-.21-.0654-.3154,.04c-.3682,.2109-.6846,.5-.9473,.8682-.6846,.7891-1.2627,1.6445-1.7363,2.5645-.4736,.9219-.8936,1.9082-1.2627,2.96-.1045,.2646-.1836,.54-.2363,.8291-.0518,.29-.1055,.5664-.1582,.8291,.0527,0,.0273,.0527-.0791,.1572l.3154-.1572c.79-.4209,1.3936-.9199,1.8154-1.5,.4209-.5254,.8418-1.0518,1.2627-1.5781,.4209-.5254,.8418-1.0781,1.2637-1.6582,.3154-.5254,.7363-1.1309,1.2627-1.8154,.0518-.1045,.1572-.2363,.3154-.3945,.1582-.3154,.4209-.4199,.7891-.3154,.3164,.1055,.5254,.1846,.6318,.2363,.3672,.2109,.499,.5273,.3945,.9473-.1064,.3691-.2246,.7373-.3555,1.1055-.1318,.3682-.2764,.7373-.4336,1.1045-.4219,1.0537-.8564,2.0527-1.3027,3-.4473,.9463-.8818,1.9473-1.3018,2.999-.3164,.6309-.5801,1.2764-.79,1.9336-.2109,.6582-.4209,1.3555-.6309,2.0918-.0527,.2109-.0791,.4082-.0791,.5918,0,.1846-.0273,.3555-.0791,.5127,0,.1064,.0127,.1719,.04,.1973,.0254,.0273,.0391,.0928,.0391,.1982,.21-.1055,.3418-.1846,.3945-.2373,.4209-.2627,.7891-.5527,1.1055-.8682,.3154-.3154,.6572-.6318,1.0254-.9473,1.2637-1.21,2.499-2.4463,3.71-3.71,1.21-1.2627,2.4199-2.5254,3.6309-3.7881,.7363-.7363,1.46-1.5,2.1709-2.2891,.71-.7891,1.4326-1.5518,2.1699-2.2891,.2627-.2627,.5-.4854,.7109-.6709,.209-.1836,.4463-.4072,.71-.6709,.1045-.1045,.2627-.1045,.4736,0,.21,.1064,.3418,.2109,.3945,.3154,0,.1064-.0791,.2373-.2363,.3945l-1.5,1.5c-.3691,.4219-.7373,.8027-1.1045,1.1445-.3691,.3428-.7383,.7236-1.1055,1.1445-.8955,.9473-1.7891,1.8818-2.6836,2.8018-.8955,.9219-1.7891,1.8818-2.6836,2.8809-1.5791,1.6318-3.1846,3.2363-4.8145,4.8154-.3164,.4209-.7109,.7627-1.1846,1.0254-.6846,.4736-1.3945,.501-2.1309,.0791-.5791-.3154-.9209-.8682-1.0264-1.6572-.0518-.8408,.0273-1.6836,.2373-2.5264,.21-.8936,.46-1.748,.75-2.5645,.2881-.8154,.6172-1.6182,.9863-2.4072,.1045-.1582,.1699-.3164,.1973-.4736,.0264-.1582,.0918-.3164,.1973-.4736v-.0791Z" style="fill:#b15026;"/><path d="M349.7654,42.5583l-.1572,.0791c-.6846,.5791-1.3418,1.1836-1.9736,1.8154-.6318,.6309-1.29,1.2363-1.9736,1.8154l-.9473,.71c-.4209,.3154-.8555,.4082-1.3018,.2764-.4482-.1309-.7773-.3281-.9863-.5918-.1582-.2627-.2109-.5254-.1582-.7891,0-.3682,.0518-.7363,.1582-1.1055,.1045-.3672,.209-.7363,.3154-1.1055,.3154-.7354,.6309-1.499,.9473-2.2881,.3154-.79,.6045-1.5791,.8682-2.3682,.1045-.3154,.21-.6318,.3154-.9473,.1045-.3154,.21-.6572,.3154-1.0264,.0518-.0518,.0791-.1836,.0791-.3945l-.3154,.1582c-.3691,.2637-.7236,.54-1.0654,.8281-.3428,.29-.6709,.5664-.9863,.8291-.7383,.7373-1.4346,1.5-2.0918,2.2891-.6592,.7891-1.3027,1.6055-1.9336,2.4473-.4219,.4727-.8037,.96-1.1445,1.46-.3438,.5-.7246,.9863-1.1445,1.46-.3164,.4219-.6318,.6318-.9473,.6318-.4736,.1055-.8682,.0264-1.1846-.2373-.3154-.2627-.4736-.6309-.4736-1.1045,.0537-.4209,.1328-.8154,.2373-1.1846,.1064-.3672,.2109-.7617,.3154-1.1836,.2637-.8945,.5527-1.8018,.8682-2.7236,.3164-.9199,.6318-1.8271,.9473-2.7227,.1064-.2627,.2109-.5527,.3154-.8682,.1064-.3154,.2109-.6045,.3164-.8682,.0518-.2627,.2363-.3945,.5527-.3945,.8408,.1055,1.2354,.5527,1.1836,1.3418-.0527,.8418-.2637,1.7891-.6318,2.8408-.2637,.7383-.5264,1.4746-.7891,2.2109-.2637,.7373-.5254,1.4736-.7891,2.21,0,.0527-.0127,.0918-.04,.1182-.0254,.0273-.0391,.0664-.0391,.1182l.9473-1.1836c.6309-.79,1.2627-1.5654,1.8945-2.3291,.6309-.7617,1.3145-1.5117,2.0518-2.249,.4209-.4209,.8408-.8018,1.2627-1.1445,.4209-.3418,.8682-.6973,1.3418-1.0654,.3164-.2627,.6572-.4209,1.0264-.4736,.3672-.1045,.7227-.0654,1.0654,.1182,.3418,.1855,.5645,.4873,.6709,.9082,.1045,.2637,.1582,.5518,.1582,.8682,0,.3154-.0273,.6309-.0791,.9473-.1064,.6309-.25,1.2363-.4346,1.8154s-.3818,1.1572-.5918,1.7363c-.2109,.5791-.4082,1.1445-.5918,1.6963-.1846,.5527-.3818,1.1191-.5918,1.6973-.0527,0-.0791,.0527-.0791,.1582,.1045-.1055,.1699-.1582,.1973-.1582,.0264,0,.0918-.0518,.1973-.1582,.7363-.6309,1.4727-1.2627,2.21-1.8936,.7363-.6318,1.4727-1.2637,2.21-1.8945,1.1572-1.0518,2.3154-2.0781,3.4727-3.0781,1.1572-.999,2.3682-1.9463,3.6309-2.8418h.0791c.0518,0,.0918-.0127,.1182-.0391s.0918-.04,.1973-.04c.0527,0,.1582,.0791,.3164,.2373v.1973c0,.0791-.0537,.1709-.1582,.2764l-7.1826,6.1562Z" style="fill:#b15026;"/><path d="M360.4998,46.8992c-.2637,1.2627-.501,2.5137-.7109,3.749-.21,1.2373-.3682,2.4863-.4727,3.749-.0537,.4219-.0928,.8564-.1191,1.3027-.0264,.4473-.0137,.8818,.04,1.3027,0,.2637,.0518,.54,.1572,.8281,.1055,.29,.2891,.3818,.5527,.2764h.0791v-.0791h.0791c.3154-.1572,.6436-.3809,.9863-.6709,.3418-.2881,.6436-.5645,.9082-.8281,.2627-.2627,.4854-.5,.6709-.7109,.1836-.209,.4062-.4463,.6709-.71,2.8408-2.999,5.5107-6.1172,8.0107-9.3535,2.499-3.2354,4.9336-6.5117,7.3008-9.8262,.21-.2627,.46-.3164,.75-.1582,.2891,.1582,.3281,.3691,.1182,.6318-.7373,1.0527-1.46,2.0654-2.1699,3.0381-.7109,.9746-1.4346,1.9609-2.1709,2.96-1.3154,1.79-2.6572,3.54-4.0254,5.249-1.3691,1.7109-2.7627,3.3818-4.1836,5.0117-.7373,.8428-1.4736,1.6455-2.21,2.4072-.7373,.7637-1.4736,1.5137-2.21,2.25-.2637,.2637-.6055,.5791-1.0254,.9473-.4219,.3672-.8682,.71-1.3418,1.0264-1.0537,.6826-1.8154,.8545-2.2891,.5127-.4736-.3428-.79-.7236-.9473-1.1445-.1064-.2637-.1719-.5527-.1973-.8682-.0273-.3154-.0664-.6045-.1182-.8682-.0537-.999-.04-1.9736,.0391-2.9209s.1699-1.9199,.2764-2.9199c.21-1.7363,.5254-3.4727,.9473-5.209,0-.0527,.0117-.0791,.0391-.0791,.0264,0,.04-.0518,.04-.1582l-.9473,.71c-.3164,.2646-.6592,.4873-1.0264,.6709-.3672,.1855-.7617,.3037-1.1836,.3555-.79,.1064-1.4727-.0117-2.0527-.3555-.5781-.3408-.9473-.959-1.1045-1.8545-.1582-1.21,.0527-2.5381,.6309-3.9854,.5801-1.4473,1.2373-2.6709,1.9736-3.6709,.4219-.5781,.8955-1.0908,1.4209-1.5391,.5264-.4463,1.1562-.75,1.8936-.9072,.4209-.1055,.8809-.0918,1.3818,.0391,.499,.1318,.8809,.3291,1.1445,.5918,.3154,.2646,.4463,.5801,.3945,.9473,.1045-.2627,.1973-.5254,.2764-.7891,.0791-.2627,.1699-.5254,.2764-.7891,.7891-2.3682,1.6182-4.6963,2.4863-6.9854s1.748-4.5908,2.6436-6.9062c.7363-1.7881,1.4863-3.5781,2.25-5.3672,.7617-1.7881,1.5645-3.5518,2.4072-5.2881,.5781-1.1572,1.1836-2.3018,1.8154-3.4336,.6309-1.1309,1.3418-2.2227,2.1309-3.2754,.8408-1.21,1.7881-2.1836,2.8418-2.9209,.3672-.2627,.71-.46,1.0254-.5918,.3164-.1309,.6836-.1973,1.1055-.1973,.5781-.0518,1.1309,.0791,1.6572,.3945,.3682,.2637,.6045,.7373,.7109,1.4209,0,.7891-.1328,1.6572-.3955,2.6045-.4209,1.6846-.96,3.3545-1.6172,5.0117-.6592,1.6582-1.3555,3.2754-2.0918,4.8545-.6318,1.3691-1.2764,2.6973-1.9336,3.9854-.6592,1.29-1.3027,2.6191-1.9346,3.9863-.4219,.8428-.8418,1.6709-1.2627,2.4863-.4219,.8164-.8418,1.6182-1.2627,2.4072-.7373,1.4736-1.5264,2.9209-2.3682,4.3408-.8418,1.4209-1.7637,2.8164-2.7617,4.1836-.1582,.2637-.3301,.4873-.5137,.6709-.1846,.1855-.3555,.3828-.5127,.5918-.1582,.1582-.3037,.3291-.4346,.5137-.1318,.1846-.2764,.3545-.4336,.5127-.4219,.5264-.8291,1.0264-1.2236,1.5s-.8027,.9473-1.2236,1.4199c-.1055,.1582-.2109,.3955-.3154,.7109-.2637,.8955-.4873,1.7637-.6709,2.6045-.1855,.8428-.4082,1.7109-.6709,2.6045Zm-2.0527-3.3936c.2627-.8945,.5254-1.7764,.79-2.6445,.2627-.8682,.5254-1.749,.7891-2.6436,.0518-.2627,.1045-.5,.1582-.7109,.0518-.209,.1299-.4463,.2363-.71-.2637,.2109-.5264,.2637-.7891,.1572-.2109-.0518-.3154-.1836-.3154-.3945,.0518-.209,0-.3672-.1582-.4736-.1064-.1045-.1855-.1299-.2373-.0781-.0527,.0527-.1318,.1055-.2363,.1572-.3154,.1582-.5918,.3691-.8291,.6318-.2363,.2637-.4609,.5264-.6709,.7891-.4219,.5264-.7627,1.0654-1.0254,1.6182s-.5254,1.1182-.79,1.6973c-.2627,.6309-.499,1.2764-.71,1.9336-.21,.6582-.3418,1.3555-.3945,2.0918v.6309c0,.2109,.0527,.4219,.1572,.6318,.1064,.1572,.2109,.2109,.3164,.1572l.9473-.4727c.4736-.2627,.9336-.5654,1.3809-.9082,.4463-.3418,.8809-.7227,1.3027-1.1445,.0518-.0518,.0781-.1582,.0781-.3154Zm4.1836-4.499l.0791,.0791c0-.0518,.0127-.0791,.0391-.0791s.04-.0264,.04-.0791c.3154-.3672,.6172-.7363,.9072-1.1055,.2891-.3672,.5918-.7354,.9082-1.1045,1.0518-1.3145,2.0244-2.6836,2.9199-4.1045,.4209-.5781,.7891-1.1836,1.1055-1.8154,.3154-.6309,.6309-1.2627,.9473-1.8945,.8408-1.5781,1.6826-3.1826,2.5254-4.8145,.6318-1.3145,1.249-2.6309,1.8545-3.9463,.6045-1.3145,1.2236-2.6309,1.8555-3.9463,.8408-1.8945,1.6436-3.7891,2.4072-5.6826,.7617-1.8945,1.4072-3.8408,1.9336-5.8408,.1045-.4209,.21-.8555,.3154-1.3027,.1055-.4463,.1582-.8809,.1582-1.3027,0-.4199-.0527-.7363-.1582-.9473-.1055,.0537-.1973,.1064-.2764,.1582-.0781,.0527-.1709,.1064-.2754,.1582-.4219,.2109-.7637,.4609-1.0264,.75-.2637,.2891-.5264,.5918-.7891,.9072-.5801,.7891-1.1191,1.5791-1.6182,2.3682-.501,.7891-.9609,1.6055-1.3818,2.4463-.7373,1.3691-1.4082,2.751-2.0127,4.1445-.6055,1.3945-1.1973,2.7754-1.7754,4.1436-1.5273,3.5791-2.9736,7.1309-4.3418,10.6553-1.3682,3.5264-2.6572,7.1035-3.8672,10.7344l-.4736,1.4209Z" style="fill:#b15026;"/><path d="M396.2537,36.7966c-.3154,.3682-.6055,.71-.8682,1.0254-.2637,.2646-.5264,.5664-.7891,.9082-.2637,.3428-.5264,.6445-.7891,.9072-.5273,.5801-1.04,1.1582-1.5391,1.7373-.501,.5791-.9873,1.1572-1.4609,1.7363-1,1.1045-2.0127,2.1582-3.0381,3.1572-1.0264,1-2.1445,1.9473-3.3545,2.8408-.4219,.3164-.8682,.6191-1.3418,.9082-.4736,.29-.9746,.5127-1.5,.6709-.6846,.2637-1.3418,.3154-1.9736,.1572-1.1045-.2627-1.6826-.8936-1.7363-1.8936-.1045-.4209-.1299-.8555-.0781-1.3027,.0527-.4463,.1318-.8809,.2363-1.3027,.2637-1.0518,.5801-2.0771,.9473-3.0781,.3672-.999,.7891-1.999,1.2627-2.999,.2627-.5254,.5127-1.0264,.75-1.5,.2363-.4736,.5391-.9199,.9072-1.3418v-.0781c-.2637-.0518-.6055-.1309-1.0254-.2373-.8955-.1582-1.5664-.3555-2.0127-.5918-.4463-.2373-.7764-.4346-.9873-.5918-.4199-.4209-.6963-.9199-.8281-1.5-.1309-.5781-.1709-1.1562-.1191-1.7363,.0537-1.6836,.7109-3.1572,1.9736-4.4199,.2627-.21,.5127-.3945,.75-.5527,.2363-.1582,.5127-.2881,.8291-.3945,.5781-.1045,1.1045,0,1.5781,.3154,.4736,.3164,.7617,.7891,.8682,1.4209,.1582,.7891,.0518,1.6572-.3154,2.6045-.3691,.8955-.8027,1.6846-1.3027,2.3682-.501,.6846-1.0391,1.3945-1.6182,2.1309,.4736,.1582,.96,.2764,1.4609,.3555,.499,.0791,.9863,.1973,1.46,.3555,.1572,0,.3418,.0664,.5527,.1973,.209,.1318,.3672,.25,.4727,.3545,.1582,.2646,.21,.5273,.1582,.79-.1582,.2637-.3037,.5518-.4336,.8682-.1328,.3154-.2764,.6055-.4346,.8682-.5264,1.0527-1.0137,2.1182-1.46,3.1963-.4482,1.0791-.8818,2.1982-1.3027,3.3545-.1055,.4219-.2109,.8428-.3154,1.2627-.1064,.4219-.1582,.8428-.1582,1.2627,0,.1582,.0518,.4482,.1582,.8691,0,.1572,.1045,.2363,.3154,.2363,.999-.1582,1.9209-.5781,2.7627-1.2627,2.3682-1.6309,4.5254-3.5518,6.4727-5.7617,.7891-.8945,1.5908-1.8018,2.4072-2.7236,.8145-.9199,1.6182-1.8271,2.4072-2.7227l1.5-1.7363,.1572-.1582c.0518-.0518,.1836-.0518,.3945,0,.1582,.1064,.2373,.2637,.2373,.4736,0,.1064-.0273,.1846-.0791,.2363-.0527,0-.0791,.0273-.0791,.0791,0,.0537-.0137,.0928-.0391,.1191-.0273,.0264-.04,.0664-.04,.1182Zm-17.4434-1.2627c.21-.2627,.4209-.5527,.6318-.8682,.21-.3164,.4199-.6318,.6309-.9473,.3682-.5254,.6973-1.0654,.9873-1.6182,.2881-.5527,.5391-1.1445,.75-1.7764,.2627-.6826,.2881-1.3418,.0781-1.9727-.1572-.21-.3428-.3164-.5518-.3164-.4219,.1064-.79,.2646-1.1055,.4736-.7373,.5801-1.3154,1.3691-1.7363,2.3682-.2627,.5801-.4346,1.1582-.5127,1.7363-.0791,.5801-.04,1.1582,.1182,1.7363,.0527,.2646,.1055,.501,.1572,.7109,.0537,.2109,.1855,.4219,.3955,.6309l.1572-.1572Z" style="fill:#b15026;"/><path d="M412.9861,35.8493c.0518,.0527,.1045,.1318,.1582,.2363,.0518,.1064-.0537,.29-.3164,.5527-.2637,.2637-.5518,.501-.8682,.7109-.3154,.2109-.6309,.3945-.9473,.5518-1.2627,.79-2.6572,1.2637-4.1826,1.4209-.1064,0-.1973,.0137-.2764,.04s-.1719,.0391-.2764,.0391c-.6846,.0527-1.3691,.0527-2.0518,0-.6846-.0518-1.3955-.1836-2.1318-.3945,0,.0527-.0137,.0791-.0391,.0791-.0273,0-.04,.0264-.04,.0791-.4209,.8945-.8809,1.7363-1.3809,2.5254-.501,.7891-1.04,1.5781-1.6182,2.3682-.3154,.4209-.6582,.8164-1.0264,1.1836-.3682,.3691-.7627,.6846-1.1836,.9473-.4219,.3682-.8955,.5791-1.4209,.6309-.6309,.1064-1.249-.0391-1.8545-.4336-.6045-.3945-.96-1.0381-1.0654-1.9336-.0518-.5791-.0127-1.1572,.1182-1.7363,.1318-.5791,.2764-1.1572,.4346-1.7373,.1055-.2627,.2109-.5254,.3154-.7891,.1055-.2627,.2109-.5254,.3154-.7891,.1064-.2627,.2246-.5127,.3555-.75,.1318-.2363,.25-.4854,.3555-.75,.1572-.3154,.3291-.6172,.5127-.9072,.1846-.2891,.3818-.5654,.5918-.8291,.1064-.1572,.25-.3555,.4346-.5918,.1836-.2363,.4062-.3281,.6709-.2764,.0518,0,.0908,.0137,.1182,.04,.0254,.0264,.0908,.0391,.1973,.0391-.1064-.2627-.2109-.6572-.3154-1.1836-.2109-1.1572,.0518-2.2363,.7891-3.2363,.6836-.999,1.6299-1.709,2.8418-2.1309,.8936-.2627,1.709-.1846,2.4463,.2363,.7363,.4219,1.2354,1.0791,1.5,1.9736,.3154,1.1045,.2627,2.2373-.1582,3.3936-.1582,.4736-.3291,.9473-.5127,1.4209-.1855,.4736-.3828,.9473-.5918,1.4209,0,.0527-.0273,.1318-.0791,.2363-.0537,.1064-.1064,.2109-.1582,.3154-.0527,.1064-.1064,.2109-.1582,.3164l.2373,.0791c.7363,.1572,1.5,.2236,2.2891,.1973s1.5508-.0918,2.2891-.1973c.7363-.1055,1.46-.3027,2.1699-.5928,.7109-.2881,1.3545-.6436,1.9346-1.0654l.9463-.71c.1055-.1045,.2627-.1309,.4736-.0791,.0518,0,.0791,.0137,.0791,.0391,0,.0273,.0264,.04,.0791,.04Zm-12.5498,2.6045c-.4736-.1045-.8955-.2764-1.2627-.5127-.3691-.2373-.6846-.4863-.9473-.75-.3154-.2627-.5801-.5254-.7891-.7891-.5273,.8955-1,1.8027-1.4209,2.7227-.4209,.9209-.8154,1.9082-1.1836,2.96-.1055,.4736-.21,.9609-.3164,1.46-.1045,.501-.1309,1.0137-.0791,1.5391,0,.1064,.0137,.2109,.04,.3164,.0273,.1055,.0664,.2363,.1182,.3945,.1064-.1055,.2109-.1709,.3154-.1973,.1064-.0264,.2109-.0654,.3164-.1191,.4219-.2627,.7891-.5518,1.1045-.8682,.3154-.3154,.6045-.6572,.8682-1.0254,.6318-.79,1.1963-1.6045,1.6973-2.4473,.499-.8408,1.0127-1.709,1.5391-2.6045v-.0791Zm1.1836-2.1309c.1055-.21,.1973-.4072,.2764-.5918,.0791-.1836,.1709-.3818,.2764-.5928,.21-.4727,.3945-.959,.5527-1.46,.1582-.499,.2881-1.0381,.3945-1.6182,.1045-.7363,0-1.3672-.3154-1.8936-.1064-.3164-.3164-.4736-.6318-.4736-.1055,0-.2363-.0127-.3945-.04-.1582-.0254-.29-.0117-.3945,.04-.6846,.1572-1.3691,.5264-2.0527,1.1045-1.0527,.9473-1.5781,2.0264-1.5781,3.2363,0,.2637,.0264,.4473,.0791,.5527,0,.2637,.0518,.5518,.1572,.8682,.1055,.2109,.3164,.5264,.6318,.9473,.3154,.4219,.8408,.8164,1.5791,1.1836,.1045,0,.2627,.0527,.4727,.1582,.0527,0,.1055,.0264,.1582,.0781l.7891-1.499Z" style="fill:#b15026;"/></svg>