<?xml version="1.0" encoding="UTF-8"?><svg id="Layer_1" xmlns="http://www.w3.org/2000/svg" viewBox="0 0 156.0905 35.2295"><path d="M27.8189,34.7227c.0908,.0127,.1299,.0586,.1172,.1372-.0137,.0908-.0586,.1304-.1367,.1172-1.3584-.0781-2.6436-.3394-3.8564-.7827l-.4707-.1958-.2148-.0981-.2354-.1172c-.0127,0-.0752-.0293-.1855-.0884-.1113-.0586-.1992-.1011-.2646-.127l-.4307-.2549c-.626-.3911-1.1611-.7827-1.6045-1.1743-.9668-.8613-1.7949-1.8989-2.4863-3.1123-.3262-.5874-.6133-1.188-.8613-1.8013-.0137-.0264-.0459-.1172-.0977-.2739-.5098,.4043-1.0186,.75-1.5273,1.0376-.6006,.3521-1.207,.6196-1.8203,.8022-.0137,0-.1826,.0396-.5088,.1177l-.2549,.0391c-.0918,.0259-.1758,.0391-.2549,.0391l-.2539,.0195-.2549,.02h-.1367l-.1367-.02c-.1055,0-.1895-.0063-.2549-.0195-.3525-.0522-.6914-.1631-1.0176-.3325-.3135-.1567-.6074-.3657-.8809-.6265-.457-.4307-.8555-.9922-1.1943-1.6836-.2871-.6006-.5088-1.2397-.666-1.9185-.1562-.7046-.2344-1.3765-.2344-2.0161,.0127-1.0049,.0391-1.6704,.0781-1.9971,.1172-1.3828,.3525-2.688,.7051-3.915,.3779-1.2788,.8672-2.5122,1.4678-3.6997,.5869-1.1616,1.292-2.2837,2.1143-3.3672,1.292-1.6963,2.8184-3.2104,4.5811-4.5415-.248-.0913-.4961-.189-.7441-.2935l-1.8008-.7637c-.7051-.2998-1.3057-.5415-1.8018-.7241-.1172-.0522-.29-.1206-.5186-.2056s-.3555-.1274-.3818-.1274c-.0908-.0391-.1895-.0747-.293-.1074-.1045-.0327-.2158-.0688-.333-.1079s-.2158-.0713-.2939-.0977c-.835-.248-1.4551-.4043-1.8594-.4697-.6787-.1177-1.3115-.1694-1.8994-.1567-.248,0-.5605,.0195-.9395,.0586-.3652,.0522-.6719,.1177-.9199,.1958-.6523,.1699-1.2334,.418-1.7422,.7441-.2607,.1694-.5088,.3589-.7441,.5674-.2217,.209-.4238,.4438-.6064,.7046-.1562,.2222-.3066,.4966-.4502,.8223-.1309,.2744-.2285,.5679-.2939,.8809-.1436,.5874-.1504,1.2012-.0195,1.8403,.0908,.3525,.1963,.646,.3135,.8809,.1436,.3003,.3066,.5483,.4893,.7441,.3916,.4565,.874,.7896,1.4482,.998,.1045,.0391,.1797,.1079,.2256,.2056,.0459,.0981,.0488,.1992,.0098,.3037s-.1074,.1792-.2061,.2251c-.0977,.0459-.1982,.0488-.3027,.0098-.0137,0-.0264-.0063-.0391-.0195-.3662,0-.7119-.0132-1.0381-.0396-.248-.0127-.4697-.0322-.665-.0586-.2871-.0518-.5225-.104-.7051-.1567-.1045-.0391-.1826-.1074-.2344-.2056-.0527-.0977-.0596-.1987-.0205-.3032,.04-.1045,.1084-.1826,.2061-.2349s.1992-.0586,.3037-.0195c.0127,.0132,.0322,.0195,.0586,.0195,.1172,.0781,.293,.1504,.5283,.2153,.1826,.0522,.3848,.1045,.6064,.1567,.0137,0,.0195,.0063,.0195,.0195-.2607-.2349-.4893-.4829-.6846-.7441-.3916-.5215-.6533-1.1548-.7832-1.8989-.0527-.3521-.0723-.6914-.0586-1.0176,0-.3525,.0459-.6919,.1367-1.0181,.0781-.3394,.1895-.6587,.333-.959,.1436-.3262,.3135-.6201,.5088-.8813,.1963-.2739,.4141-.5249,.6562-.7534,.2412-.228,.5049-.4336,.793-.6167,.5479-.3652,1.1611-.6392,1.8398-.8223,1.2139-.3394,2.5381-.4043,3.9736-.1958,.418,.0522,1.0576,.1958,1.9189,.4307,.6387,.1831,1.2656,.3853,1.8789,.6069,.5605,.209,1.1748,.4502,1.8398,.7241l1.8008,.7441c.5488,.2222,.9209,.3721,1.1162,.4502,.209-.1567,.3975-.2871,.5674-.3916,.1963-.1304,.4766-.3062,.8418-.5283,.5225-.3003,.8154-.4634,.8809-.4897,.4961-.2739,1.1025-.5479,1.8213-.8218,.665-.2349,1.3115-.4043,1.9375-.5093,.1045-.0127,.2744-.0322,.5088-.0586h.5293l.2539,.0195c.0264,0,.0557,.0034,.0879,.0098,.0332,.0068,.0625,.0098,.0889,.0098,.0254,0,.0518,.0068,.0781,.0195,.3125,.0654,.4824,.0981,.5088,.0981,.3135,.0913,.6289,.2251,.9492,.4014,.3193,.1758,.584,.4077,.793,.6948,.248,.313,.3779,.646,.3916,.998v.2744c0,.0132-.0264,.1045-.0781,.2739,0,.0132-.0332,.0981-.0986,.2544l-.1562,.2349c-.1826,.2612-.4375,.4961-.7637,.7051-.2871,.1826-.5938,.3325-.9199,.4502-.6396,.2217-1.292,.3521-1.957,.3916-1.1094,.0781-2.4209-.0981-3.9355-.5288-.626-.1826-1.3115-.4175-2.0547-.7046-1.8271,1.3311-3.4258,2.9038-4.7969,4.7178-1.5791,2.0879-2.7207,4.3457-3.4248,6.7729-.3525,1.188-.5879,2.4409-.7051,3.7588-.0391,.3003-.0781,.9331-.1172,1.8989,0,.5869,.0713,1.207,.2148,1.8594,.1436,.6396,.3389,1.2266,.5869,1.7617,.2744,.6265,.6006,1.1357,.9795,1.5273,.4434,.4565,.9463,.7368,1.5068,.8418,.0518,.0127,.124,.0259,.2158,.0391h.2344l.2158,.0195,.2344-.0195c.0654,0,.1436-.0068,.2354-.0195l.2148-.0195c.0137,0,.0791-.0132,.1963-.0396s.208-.0459,.2734-.0586c1.1094-.2739,2.2256-.8486,3.3477-1.7227-.1436-.4048-.2676-.8159-.3721-1.2334-.3262-1.3311-.4766-2.6553-.4502-3.9736,.0137-.3262,.0332-.6592,.0596-.9985l.0586-.4893,.0781-.5093c.0127-.104,.0713-.4307,.1758-.9785,.0127-.0649,.0391-.1597,.0781-.2837,.04-.124,.0596-.1924,.0596-.2056l.0781-.2349c0-.0396,.0127-.0884,.0391-.147,.0254-.0586,.0391-.0947,.0391-.1079,.2217-.6782,.5283-1.2852,.9199-1.8203,.457-.6392,.998-1.0894,1.625-1.3506l.2539-.0981c.0137,0,.1045-.0195,.2744-.0586,.1963-.0259,.3848-.0259,.5674,0,.4043,.0522,.7441,.2153,1.0186,.4893,.2344,.2349,.417,.5483,.5479,.9399,.0908,.2871,.1504,.6196,.1758,.998,.04,.5483,0,1.2139-.1172,1.9966-.0908,.6528-.2412,1.292-.4502,1.9185-.4043,1.2529-.9854,2.4341-1.7422,3.5435-.6523,.9395-1.3896,1.7744-2.2119,2.5059,.0654,.1826,.124,.3521,.1758,.5088,.2354,.6133,.4961,1.1943,.7832,1.7422,.6396,1.1748,1.4033,2.1792,2.29,3.0146,.9141,.835,1.9775,1.52,3.1914,2.0557,1.1357,.4697,2.375,.7827,3.7197,.9395Zm-10.9238-13.3506c-.0391,1.2397,.0908,2.499,.3916,3.7778,.0781,.3135,.1631,.6201,.2549,.9204,.7695-.6919,1.4551-1.4619,2.0547-2.3101,.7314-1.0439,1.292-2.1924,1.6836-3.4453,.1963-.6001,.333-1.2266,.4111-1.8794,.0264-.1172,.0459-.2739,.0586-.4697,.0264-.2607,.04-.4175,.04-.4697,.0127-.3262,.0059-.646-.0205-.9595-.0391-.3521-.1045-.6523-.1953-.9004-.1172-.313-.2676-.5479-.4502-.7046-.209-.1826-.457-.2808-.7441-.2935-.1299-.0132-.2676-.0068-.4111,.0195-.0127,0-.042,.0063-.0879,.0195s-.082,.0264-.1074,.0391l-.1963,.0781c-.4824,.248-.9072,.646-1.2725,1.1943-.0127,.0264-.0293,.0586-.0488,.0977s-.0391,.0718-.0586,.0981-.0391,.0586-.0586,.0977-.0361,.0718-.0488,.0981l-.2158,.4111-.1758,.4307c-.0264,.0522-.0586,.1338-.0977,.2446s-.0625,.1729-.0684,.186c-.0068,.0127-.0137,.0356-.0195,.0684-.0068,.0327-.0166,.062-.0293,.0879-.0137,.0264-.0205,.0459-.0205,.0591l-.0586,.2349c-.0127,.0132-.0322,.0781-.0586,.1958-.0264,.1172-.0459,.2021-.0586,.2544-.1172,.5352-.1826,.8481-.1953,.9395l-.0791,.4697-.0391,.4702c-.0391,.313-.0654,.626-.0781,.9395Zm2.1924-17.1875c-.3525,.2222-.6201,.3979-.8027,.5283-.0127,.0132-.0322,.0293-.0586,.0493-.0264,.0195-.0459,.0293-.0586,.0293,.2744,.1045,.502,.189,.6855,.2544l.4502,.1763,.4697,.1367c1.4355,.4702,2.6748,.6855,3.7188,.646,.6787-.0259,1.2988-.1304,1.8604-.313,.6914-.2349,1.1943-.5679,1.5068-.9985,.1826-.2476,.2676-.5088,.2549-.7827-.0137-.2744-.1172-.5288-.3135-.7637-.1699-.2217-.4014-.4077-.6943-.5581-.2939-.1499-.5781-.2573-.8516-.3228l-.4502-.0586c-.0264,0-.0527-.0034-.0791-.0098-.0264-.0068-.0557-.0098-.0879-.0098h-.3037c-.2734,.0132-.4238,.0195-.4502,.0195-.2217,.0391-.3711,.0654-.4502,.0781-.5869,.1309-1.1875,.3262-1.8008,.5874-.0518,.0264-.1338,.0654-.2441,.1172-.1113,.0522-.1738,.0786-.1865,.0786-.1953,.0913-.3389,.1631-.4307,.2153l-.4307,.1958-.4111,.2349c-.1699,.0913-.3135,.1694-.4307,.2349l-.4111,.2349Z" style="fill:#b15026; stroke:#b15026; stroke-linecap:round; stroke-linejoin:round; stroke-width:.5px;"/><path d="M30.2261,18.2007c.0645,.0522,.0713,.1113,.0195,.1763-.1836,.209-.3594,.3784-.5283,.5088-.209,.1567-.4307,.2744-.666,.3525-.4961,.1831-.9785,.1567-1.4482-.0781-.248-.1045-.6338-.3916-1.1553-.8613l-.0195-.02-.0195-.0195c.0127,.0918,.0254,.1831,.0391,.2744,.0127,.1694,.0127,.3589,0,.5674-.0264,.3789-.1309,.731-.3135,1.0571-.1045,.1831-.2285,.333-.3721,.4502-.1826,.1567-.3721,.2549-.5674,.2939-.1045,.0132-.2148,.0063-.333-.0195-.1172-.0132-.2285-.0522-.333-.1177-.1689-.1172-.3057-.2803-.4111-.4893-.1689-.3262-.2275-.7178-.1758-1.1748,.0391-.3652,.1436-.7241,.3135-1.0767,.1045-.1958,.208-.3589,.3135-.4893,.0781-.0913,.1562-.1631,.2344-.2153,.1172-.0913,.2354-.1499,.3525-.1763l.0391,.0195c.0908-.0518,.1758-.0518,.2549,0l.1172,.0591c.0127,.0127,.0361,.0259,.0684,.0391s.0557,.0264,.0684,.0391c.0918,.0522,.1768,.1108,.2549,.1763,.0645,.0654,.1299,.1436,.1953,.2349,.1826,.1436,.333,.2808,.4502,.4111,.457,.4438,.8154,.731,1.0771,.8613,.4307,.209,.8672,.2285,1.3115,.0586,.1953-.0649,.3848-.1763,.5674-.333,.1699-.1299,.333-.2935,.4893-.4893,.0527-.0649,.1113-.0713,.1768-.0195Zm-4.1113,.8613c.0391-.3784-.0068-.6851-.1367-.9199-.0781-.1304-.1768-.2349-.2939-.3135-.0654-.0518-.124-.0845-.1758-.0977-.0137,0-.0527-.0127-.1182-.0391h-.0586c-.0264,.0781-.0391,.1304-.0391,.1562-.0654,.144-.1436,.2681-.2344,.3721-.0781,.1045-.1836,.209-.3135,.3135-.0391,.0132-.0781,.0391-.1172,.0781-.0781,.1958-.1309,.3853-.1572,.5679-.0391,.3394-.0068,.6265,.0986,.8613,.1299,.2871,.3193,.4243,.5674,.4111,.1172-.0132,.2412-.0654,.3721-.1567,.1172-.0781,.2217-.189,.3125-.333,.1699-.2607,.2676-.561,.2939-.9004Zm-1.1152-1.1743c-.0791,.0913-.1572,.209-.2354,.3521,.0518-.0391,.0977-.0845,.1367-.1367,.0527-.0786,.0986-.1631,.1377-.2549h-.0195l-.0195,.0396Zm0-.3916c-.0137-.0127-.0332-.0259-.0596-.0391l.0596,.0391Z" style="fill:#b15026; stroke:#b15026; stroke-linecap:round; stroke-linejoin:round; stroke-width:.5px;"/><path d="M35.7847,18.2202c.0518,.0654,.0459,.1245-.0195,.1763v.0195c-1.1875,.8486-1.9512,1.3701-2.29,1.5659-.457,.2744-.8877,.4766-1.292,.6069-.2354,.0654-.4697,.1113-.7051,.1372l-.1953,.0195h-.1963c-.1299-.0127-.2607-.0391-.3916-.0781-.2607-.0913-.4824-.2451-.665-.4604s-.2939-.4663-.333-.7534c-.0391-.2607-.0195-.522,.0586-.7832,.0654-.2349,.1768-.4629,.333-.6851,.1562-.2217,.3193-.4111,.4893-.5679,.1963-.1826,.3984-.3257,.6074-.4307,.1426-.0649,.2734-.1104,.3906-.1367h.2354c.0908,.0132,.1689,.0391,.2354,.0781,.1689,.1045,.2734,.2544,.3125,.4502,.0264,.1309,.0127,.2808-.0391,.4502-.0127,.0527-.0361,.0952-.0684,.1274-.0332,.0327-.0723,.0557-.1172,.0684-.0459,.0132-.0918,.0132-.1377,0-.0459-.0127-.085-.0356-.1172-.0684-.0322-.0322-.0557-.0684-.0684-.1079-.0137-.0391-.0137-.0845,0-.1367,0-.0127,.0068-.0259,.0195-.0391,.0391-.0913,.0518-.1694,.0391-.2349,0-.0522-.0195-.0913-.0586-.1177-.0137-.0127-.0332-.0259-.0586-.0391h-.1172c-.0791,0-.1699,.0264-.2744,.0781-.3916,.1831-.6924,.4697-.9004,.8613-.1172,.1958-.1895,.3853-.2158,.5679-.0391,.209-.0459,.4048-.0195,.5874,.0527,.4043,.2676,.6919,.6465,.8613,.0908,.0391,.1826,.0654,.2734,.0781h.2939c.2217,0,.4434-.0195,.666-.0586,.4043-.0913,.8223-.2549,1.2529-.4897,.6387-.3521,1.3828-.874,2.2314-1.5659,.0781-.0518,.1436-.0454,.1953,.0195Z" style="fill:#b15026; stroke:#b15026; stroke-linecap:round; stroke-linejoin:round; stroke-width:.5px;"/><path d="M41.7652,18.1909c.0723,.0459,.082,.1079,.0293,.186-.3389,.5742-.8223,1.0835-1.4482,1.5269-.3008,.209-.6064,.3853-.9199,.5288-.3789,.1694-.7314,.2676-1.0576,.2935-.417,.0391-.7891-.0454-1.1152-.2544-.1699-.1304-.3066-.2871-.4111-.4702-.0918-.1821-.1367-.3779-.1367-.5869-.0137-.1045-.0068-.2021,.0195-.2939-.1445,.1177-.2285,.1958-.2549,.2349-.248,.2485-.4834,.5225-.7051,.8223-.1953,.248-.3975,.5483-.6064,.9009v.0195c-.0908,.1436-.209,.1694-.3525,.0781-.1299-.0649-.1689-.1631-.1172-.2935,.0518-.1694,.4434-1.2988,1.1748-3.3867,.4307-1.2529,.8154-2.375,1.1543-3.3672,.1436-.3916,.3301-.9424,.5586-1.6543,.2275-.7109,.4209-1.2983,.5771-1.7617,.1562-.4629,.3555-1.0049,.5967-1.6245s.4863-1.1846,.7344-1.6934c.1699-.3394,.3262-.6069,.4697-.8027,.0654-.0781,.1172-.1436,.1562-.1958,.0918-.0913,.1826-.1567,.2744-.1958,.0908-.0391,.1826-.0454,.2744-.0195,.0908,.0264,.1631,.0786,.2148,.1567,.0527,.0781,.085,.1826,.0977,.313,.0264,.144,.0332,.3135,.0205,.5093-.0137,.1436-.0332,.2935-.0596,.4502-.0391,.2871-.1045,.5874-.1953,.9004-.1562,.5742-.3594,1.1484-.6064,1.7227-.1182,.2871-.3662,.8291-.7441,1.625-.5352,1.1094-1.0771,2.1729-1.625,3.1904-.3262,.6138-.751,1.3774-1.2725,2.2905-.0127,.0391-.0322,.0981-.0586,.1763s-.0459,.1304-.0586,.1567c-.0391,.1172-.2354,.6655-.5879,1.644,.1309-.1431,.2354-.2544,.3135-.3325,.2744-.2744,.5615-.5352,.8613-.7832,.3262-.2476,.6465-.4629,.959-.646l.1182-.0586c.1689-.0913,.2998-.0557,.3916,.1074,.0908,.1636,.0518,.2905-.1182,.3818-.0391,.0264-.085,.0391-.1367,.0391-.3008,.1567-.5352,.3462-.7051,.5679-.209,.2612-.3125,.5283-.3125,.8027,0,.1436,.0322,.2808,.0977,.4111,.0518,.1172,.1367,.2217,.2539,.313,.2217,.1567,.5029,.2285,.8418,.2153,.2871-.0127,.6006-.0913,.9404-.2349,.2998-.1177,.5938-.2739,.8809-.4697,.5996-.3916,1.0693-.8545,1.4092-1.3901,.0518-.0781,.1143-.0942,.1855-.0488Zm-3.6504-5.5889c-.209,.6528-.3984,1.2202-.5674,1.7031-.0664,.1831-.1963,.5679-.3916,1.1548,.7041-1.3701,1.3174-2.6294,1.8398-3.7778,.3135-.6787,.5547-1.2202,.7246-1.625,.2344-.561,.4238-1.1157,.5674-1.6641,.0781-.2998,.1367-.5801,.1758-.8413,.0391-.3525,.0459-.6265,.0195-.8223-.0391,.0391-.0781,.0913-.1172,.1562-.1172,.1699-.2549,.418-.4111,.7441-.3916,.7959-.8223,1.8926-1.292,3.2886-.0918,.248-.2744,.8096-.5479,1.6836Z" style="fill:#b15026; stroke:#b15026; stroke-linecap:round; stroke-linejoin:round; stroke-width:.5px;"/><path d="M50.2906,12.5044c.0781,.0132,.1172,.0654,.1172,.1562-.0127,.0786-.0586,.1177-.1367,.1177h-.0195c-1.2012-.1567-3.0469-.2153-5.54-.1763-.3525,.8745-.5674,1.4028-.6455,1.5854-.2617,.6787-.5225,1.3579-.7832,2.0361-.3008,.7832-.542,1.4619-.7246,2.0356-.1309,.3916-.2412,.7378-.333,1.0376-.1172,.418-.1895,.7573-.2148,1.0181-.0137,.0913-.0195,.1763-.0195,.2544,0,.0132,.0059,.0459,.0195,.0981v.0391l.0195,.0391c.0391,.1436,.1045,.2544,.1953,.333,.0918,.0913,.2158,.1436,.3721,.1562,.1572,0,.3262-.0259,.5088-.0781,.2744-.0781,.5811-.2412,.9209-.4893,.2861-.1958,.5605-.4243,.8213-.6855,.4834-.5088,.9014-1.0894,1.2529-1.7422,.0391-.0781,.0986-.0977,.1768-.0586s.0977,.0977,.0586,.1763v.0195c-.4043,.6528-.8545,1.2334-1.3506,1.7422-.2871,.3003-.5615,.5483-.8223,.7441-.3262,.248-.6533,.437-.9785,.5674-.209,.0786-.3984,.124-.5684,.1372-.248,.0391-.4629,0-.6455-.1177-.209-.1172-.3525-.2935-.4307-.5283l-.0391-.0786c-.0127-.0518-.0195-.0845-.0195-.0977,0-.0522-.0068-.1108-.0195-.1763,0-.0913,.0059-.189,.0195-.2935,.0264-.2871,.0977-.6592,.2148-1.1157,.0908-.3135,.1963-.666,.3135-1.0571,.0127-.0264,.0254-.0557,.0391-.0884,.0127-.0322,.0195-.0552,.0195-.0684-.1045,.1958-.1826,.313-.2354,.3525-.0127,.0259-.0391,.0391-.0781,.0391s-.0713-.0132-.0977-.0391c-.0518-.0786-.0459-.1436,.0195-.1958,.1309-.1304,.6855-1.3379,1.6641-3.6216,.0127-.0391,.042-.1177,.0879-.2349,.0459-.1177,.0811-.209,.1074-.2744,.1436-.3521,.3262-.8086,.5488-1.3701-.9531,.0264-2.1865,.0654-3.7002,.1177-.7441,.0391-1.1807,.0586-1.3115,.0586-.0781,0-.124-.0391-.1367-.1177-.0127-.0781,.0195-.1304,.0977-.1562l.9004-.2349c.0918-.0264,.1504,0,.1758,.0781,.0137,.0522,0,.0977-.0391,.1372,.0391-.0132,.0918-.02,.1572-.02h.1367c1.5664-.0649,2.8389-.104,3.8174-.1172,.0781-.1958,.1855-.4531,.3232-.7734,.1367-.3193,.2607-.6133,.3721-.8809,.1104-.2671,.2119-.5186,.3027-.7534,.0654-.1694,.1826-.2153,.3525-.1372,.1562,.0522,.2021,.1636,.1367,.333-.2217,.5869-.5088,1.3179-.8613,2.1924,2.4668-.0391,4.2939,.0195,5.4814,.1763Z" style="fill:#b15026; stroke:#b15026; stroke-linecap:round; stroke-linejoin:round; stroke-width:.5px;"/><path d="M52.7954,18.2202c.0654,.0522,.0791,.1113,.04,.1763-.3398,.4697-.7188,.8486-1.1357,1.1353-.5225,.3525-1.0371,.5356-1.5469,.5483-.1562,.0132-.2998,0-.4307-.0391-.1436-.0396-.2803-.1045-.4111-.1958-.2734-.1694-.457-.4043-.5479-.7051-.0781-.2349-.1113-.5088-.0977-.8218-.6006,.6655-.9531,1.0503-1.0576,1.1548-.1689,.1699-.3193,.3066-.4502,.4111-.2217,.1567-.4238,.2612-.6064,.313-.1436,.0396-.2744,.0396-.3916,0-.1436-.0391-.2676-.1235-.3721-.2544-.0654-.104-.1104-.228-.1367-.3721-.0127-.0781-.0195-.1494-.0195-.2153,.0127-.0649,.0195-.1172,.0195-.1562,.0654-.4043,.2412-.8027,.5283-1.1943,.2354-.313,.5352-.6069,.9004-.8809s.7305-.4761,1.0967-.6069c.2217-.0908,.4307-.1436,.626-.1562,.1572-.0132,.2803,.0063,.3721,.0586,.0781,.0391,.1367,.0977,.1758,.1763,.0264,.0654,.0332,.1436,.0205,.2349-.0137,.0781-.0664,.1108-.1572,.0977-.0654,0-.1045-.0391-.1172-.1172v-.0195c0-.0264-.0068-.0459-.0195-.0591,0-.0127-.0137-.0259-.0391-.0391-.0391-.0127-.1045-.0127-.1963,0-.1436,.0264-.3125,.0913-.5088,.1958-.3262,.1567-.6455,.3589-.959,.6069-.2871,.248-.542,.522-.7637,.8223-.2344,.313-.3848,.6328-.4502,.959,0,.0132-.0068,.0522-.0195,.1177v.0977c0,.0654,.0127,.124,.0391,.1763,.0391,.0522,.0781,.0913,.1172,.1172,.0527,.0132,.1113,.02,.1768,.02,.1436-.0264,.3066-.0913,.4893-.1958,.1436-.0913,.2939-.209,.4502-.3525,.6133-.5483,1.083-1.1743,1.4092-1.8794,.1045-.1436,.2285-.1631,.3721-.0586,.0908,.0654,.124,.1567,.0977,.2739-.0781,.2744-.124,.5156-.1367,.7246-.0264,.2612-.0127,.4893,.0391,.6851,.0518,.209,.1699,.3721,.3525,.4893,.1826,.1309,.3848,.1958,.6064,.1958,.4307,0,.8877-.1436,1.3711-.4307,.3906-.2607,.7559-.6001,1.0957-1.0181,.0518-.0649,.1104-.0713,.1758-.0195Z" style="fill:#b15026; stroke:#b15026; stroke-linecap:round; stroke-linejoin:round; stroke-width:.5px;"/><path d="M57.5132,18.1519c.0654,.0586,.0723,.1206,.0195,.186-.457,.457-1.0049,.9072-1.6436,1.3506-.3008,.209-.6074,.3984-.9209,.5679-.3779,.1958-.7109,.3325-.998,.4111-.209,.0522-.4043,.0718-.5869,.0586-.2227-.0127-.4248-.0718-.6074-.1763-.1172-.0781-.2021-.1826-.2539-.313-.0391-.1045-.0586-.2222-.0586-.3525,0-.1567,.0264-.3525,.0781-.5874,.0781-.2476,.1758-.5151,.293-.8027-.0781,.0132-.1367,0-.1758-.0391-.0781-.0908-.085-.1826-.0195-.2739,.2744-.3394,.5215-.6523,.7441-.9395,.1172-.1436,.2471-.1631,.3916-.0591,.0908,.0654,.1299,.1504,.1172,.2549v.0195c-.0137,.0522-.0332,.1172-.0586,.1958-.0137,.0259-.0332,.0718-.0586,.1367-.0264,.0654-.0586,.1504-.0986,.2544-.0264,.0527-.0654,.1309-.1172,.2349-.0518,.105-.085,.1831-.0977,.2354-.1963,.4307-.3262,.7437-.3916,.9395-.0527,.1567-.085,.3003-.0977,.4307,0,.0781,.0059,.1372,.0195,.1763,.0127,.0391,.0322,.0718,.0586,.0977,.1953,.1567,.4766,.209,.8418,.1567,.2998-.0391,.6191-.1436,.959-.3135,.2744-.1172,.5742-.2866,.9004-.5088,.2607-.1567,.542-.3589,.8418-.6069,.2871-.2349,.5352-.4761,.7441-.7241,.0518-.0649,.1104-.0684,.1758-.0098Zm-3.543-1.1846c-.1172,.0654-.209,.0396-.2744-.0781-.0391-.0781-.0322-.1499,.0205-.2153l.0195-.0391c.0391-.0522,.0713-.124,.0977-.2153,.0254-.0654,.0449-.1567,.0586-.2739,.0127-.0913,.0586-.1631,.1367-.2153s.1631-.0718,.2549-.0591c.0908,.0132,.1631,.0591,.2148,.1372,.0527,.0781,.0723,.1631,.0586,.2544-.0127,.0391-.0254,.0781-.0391,.1177l-.0195,.0195c-.0781,.1172-.1494,.2153-.2148,.2935-.1045,.1177-.209,.209-.3135,.2739Z" style="fill:#b15026; stroke:#b15026; stroke-linecap:round; stroke-linejoin:round; stroke-width:.5px;"/><path d="M57.4058,18.5532c-.0713-.0522-.0811-.1108-.0293-.1763,.6523-.9526,1.292-2.0098,1.9189-3.1714,.6387-1.1875,1.1475-2.3101,1.5264-3.3672,.2354-.6128,.4111-1.2002,.5283-1.7617,.0781-.313,.1377-.6069,.1768-.8809,.0127-.1567,.0195-.2998,.0195-.4307,.0127-.1694,.0059-.3062-.0195-.4111-.0137-.0649-.0264-.0977-.0391-.0977l.0195,.0195h.0195c-.0264,.0132-.0586,.0391-.0986,.0781-.0391,.0264-.085,.0654-.1367,.1177-.1562,.1694-.333,.4048-.5283,.7046-.2617,.4307-.5479,.9727-.8613,1.625s-.5674,1.2134-.7637,1.6836c-.209,.522-.4111,1.1025-.6064,1.7422-.418,1.3184-.666,2.5054-.7441,3.5625-.0391,.6787,0,1.2725,.1172,1.7812,.0127,.0786,.0322,.144,.0586,.1958,.04,.1309,.0596,.2026,.0596,.2153,.0518,.1309,.1104,.2417,.1758,.333,.0781,.1045,.1631,.1831,.2549,.2349,.1035,.0522,.2275,.0718,.3711,.0586,.2354-.0127,.4961-.1172,.7832-.313,.2354-.1567,.4629-.3589,.6855-.6069,.4043-.4043,.7764-.8872,1.1152-1.4487v-.0195c.0527-.0649,.1143-.0747,.1865-.0293,.0713,.0459,.0879,.1079,.0488,.186h-.0195c-.457,.6528-.8418,1.1421-1.1553,1.4683-.2344,.2612-.4697,.4766-.7041,.646-.3271,.2349-.627,.3848-.9004,.4502-.1963,.0391-.3789,.0391-.5488,0-.1826-.0654-.3457-.1694-.4893-.3135-.1045-.1172-.1953-.2671-.2744-.4502-.0127-.0259-.0459-.1104-.0977-.2544-.0127-.0391-.0322-.1172-.0586-.2349-.1436-.5483-.1953-1.1875-.1562-1.9185,.0518-1.0698,.2998-2.3101,.7432-3.7192,.1699-.561,.3848-1.1553,.6465-1.7812,.1953-.4829,.4502-1.0508,.7637-1.7031,.3389-.6787,.6455-1.2334,.9199-1.6641,.2217-.3394,.417-.6001,.5869-.7832,.0654-.0781,.1309-.1436,.1963-.1958,.1045-.0781,.208-.1304,.3125-.1562,.0791-.0132,.1572-.0068,.2354,.0195,.0908,.0132,.1689,.0586,.2354,.1367,.0645,.0786,.1104,.1831,.1367,.3135,.0391,.1436,.0518,.3198,.0391,.5283,0,.1567-.0137,.3198-.0391,.4893-.0391,.2876-.0977,.6006-.1768,.9399-.1436,.561-.3389,1.1616-.5869,1.8008-.3916,1.0444-.9336,2.1729-1.625,3.3867-.6133,1.0962-1.292,2.147-2.0352,3.1519-.0527,.0654-.1152,.0718-.1865,.0195Z" style="fill:#b15026; stroke:#b15026; stroke-linecap:round; stroke-linejoin:round; stroke-width:.5px;"/><path d="M65.8423,18.2788c.0723,.0527,.082,.1177,.0293,.1958h-.0195c-.248,.3008-.4824,.542-.7041,.7246-.2744,.2349-.5557,.4175-.8418,.5479-.3135,.144-.6396,.2349-.9795,.2744-.0781,.0132-.4111,.0391-.998,.0781h-.0391c.0127,.1831-.0068,.3525-.0586,.5088-.0391,.0918-.085,.1831-.1367,.2744-.0654,.0913-.1309,.1694-.1963,.2349-.0918,.0781-.1895,.1367-.2939,.1763-.1436,.0522-.2803,.0522-.4111,0-.0781-.0264-.1426-.0718-.1953-.1372-.0391-.0654-.0713-.1372-.0977-.2153-.0127-.1045,0-.2217,.0391-.3525,.0391-.0781,.0879-.1597,.1465-.2446,.0586-.0845,.127-.1597,.2061-.2251,.1172-.1045,.2607-.1763,.4307-.2153-.0137-.0913-.0332-.189-.0586-.2935-.0264-.0786-.0693-.2285-.1279-.4502-.0586-.2222-.1045-.395-.1367-.519s-.0654-.2837-.0977-.4795-.043-.3784-.0293-.5483c0-.1958,.0195-.3784,.0586-.5479,.0518-.1958,.1104-.3652,.1758-.5093,.1572-.3779,.3652-.6782,.627-.9004,.1562-.1304,.3262-.228,.5088-.2935,.0391,0,.0713-.0063,.0977-.0195h.0977c.0781,0,.1504,.0195,.2158,.0586,.1172,.0781,.1953,.1831,.2344,.3135,.0264,.0913,.0264,.1953,0,.313-.0127,.0781-.0391,.1699-.0781,.2739-.0518,.144-.1309,.3003-.2344,.4697-.3008,.4307-.666,.8745-1.0967,1.3315,.0127,.1304,.0391,.2739,.0781,.4307,.0127,.0654,.0322,.1401,.0586,.2251s.0488,.1631,.0693,.2349c.0195,.0718,.0391,.1533,.0586,.2446s.042,.1699,.0684,.2349c.0254,.1436,.0449,.2676,.0586,.3721l.0586-.0195c.4824,0,.8027-.0132,.959-.0396,.3398-.0391,.6465-.1201,.9199-.2446,.2744-.1235,.542-.2964,.8027-.5186,.2354-.2217,.4502-.4565,.6465-.7046,.0518-.0786,.1143-.0913,.1855-.0396Zm-4.1885,2.3296c.0322-.0518,.0586-.1074,.0781-.166,.0195-.0591,.0293-.1338,.0293-.2251-.1045,.0391-.1836,.0913-.2354,.1562-.0391,.0522-.0781,.1079-.1172,.1665s-.0654,.1177-.0781,.1763-.0127,.1074,0,.147h.0391c.0127,0,.0322-.0068,.0586-.02,.0264-.0127,.0654-.0454,.1172-.0977,.0391-.0391,.0752-.085,.1084-.1372Zm.2441-3.4062c-.0391,.1309-.0586,.2744-.0586,.4307v.1567c.3525-.3394,.6592-.7241,.9199-1.1548,.0908-.1436,.1562-.2808,.1963-.4111,.0127-.0781,.0195-.1499,.0195-.2153,0-.0781-.0137-.1372-.0391-.1763-.0137-.0391-.0332-.0586-.0596-.0586h-.0391c-.0127,.0132-.0264,.0195-.0391,.0195-.1045,.0654-.209,.1499-.3135,.2544-.1953,.1831-.3516,.4243-.4697,.7241-.0391,.0918-.0781,.2354-.1172,.4307Z" style="fill:#b15026; stroke:#b15026; stroke-linecap:round; stroke-linejoin:round; stroke-width:.5px;"/><path d="M78.9868,18.2202c.0654,.0522,.0791,.1113,.04,.1763-.3398,.4697-.7188,.8486-1.1357,1.1353-.5225,.3525-1.0371,.5356-1.5469,.5483-.1562,.0132-.2998,0-.4307-.0391-.1436-.0396-.2803-.1045-.4111-.1958-.2734-.1694-.457-.4043-.5479-.7051-.0781-.2349-.1113-.5088-.0977-.8218-.6006,.6655-.9531,1.0503-1.0576,1.1548-.1689,.1699-.3193,.3066-.4502,.4111-.2217,.1567-.4238,.2612-.6064,.313-.1436,.0396-.2744,.0396-.3916,0-.1436-.0391-.2676-.1235-.3721-.2544-.0654-.104-.1104-.228-.1367-.3721-.0127-.0781-.0195-.1494-.0195-.2153,.0127-.0649,.0195-.1172,.0195-.1562,.0654-.4043,.2412-.8027,.5283-1.1943,.2354-.313,.5352-.6069,.9004-.8809s.7305-.4761,1.0967-.6069c.2217-.0908,.4307-.1436,.626-.1562,.1572-.0132,.2803,.0063,.3721,.0586,.0781,.0391,.1367,.0977,.1758,.1763,.0264,.0654,.0332,.1436,.0205,.2349-.0137,.0781-.0664,.1108-.1572,.0977-.0654,0-.1045-.0391-.1172-.1172v-.0195c0-.0264-.0068-.0459-.0195-.0591,0-.0127-.0137-.0259-.0391-.0391-.0391-.0127-.1045-.0127-.1963,0-.1436,.0264-.3125,.0913-.5088,.1958-.3262,.1567-.6455,.3589-.959,.6069-.2871,.248-.542,.522-.7637,.8223-.2344,.313-.3848,.6328-.4502,.959,0,.0132-.0068,.0522-.0195,.1177v.0977c0,.0654,.0127,.124,.0391,.1763,.0391,.0522,.0781,.0913,.1172,.1172,.0527,.0132,.1113,.02,.1768,.02,.1436-.0264,.3066-.0913,.4893-.1958,.1436-.0913,.2939-.209,.4502-.3525,.6133-.5483,1.083-1.1743,1.4092-1.8794,.1045-.1436,.2285-.1631,.3721-.0586,.0908,.0654,.124,.1567,.0977,.2739-.0781,.2744-.124,.5156-.1367,.7246-.0264,.2612-.0127,.4893,.0391,.6851,.0518,.209,.1699,.3721,.3525,.4893,.1826,.1309,.3848,.1958,.6064,.1958,.4307,0,.8877-.1436,1.3711-.4307,.3906-.2607,.7559-.6001,1.0957-1.0181,.0518-.0649,.1104-.0713,.1758-.0195Z" style="fill:#b15026; stroke:#b15026; stroke-linecap:round; stroke-linejoin:round; stroke-width:.5px;"/><path d="M85.604,18.377h-.0195c-.1836,.2739-.333,.4766-.4502,.6069-.1836,.209-.3721,.3848-.5684,.5283-.2344,.1699-.4629,.2871-.6846,.3525-.2354,.0781-.4961,.1108-.7832,.0977-.2871-.0127-.5479-.0908-.7832-.2349-.2217-.1304-.418-.3193-.5869-.5674-.1182-.1826-.2422-.4111-.3721-.6855-.0781-.1562-.1309-.2544-.1562-.2935-.0264-.0391-.0527-.0718-.0791-.0977l-.0195-.02h-.0195l.0195-.0195c-.0127,0-.0264,.0068-.0391,.0195-.0391,.0132-.085,.0332-.1367,.0591-.0918,.0391-.1895,.0977-.2939,.1763-.1953,.1304-.3848,.2808-.5674,.4502-.0918,.0781-.2676,.2544-.5283,.5283-.2744,.3003-.4443,.4829-.5098,.5483-.0391,.0391-.0713,.0654-.0977,.0781-.0127,0-.0264,.0068-.0391,.0195h-.0391c-.0127,.0132-.0322,.0132-.0586,0-.0264-.0127-.0459-.0259-.0586-.0391-.0264-.0127-.0459-.0322-.0586-.0586v-.0396c0-.0127,.0068-.0454,.0195-.0977l.0586-.1958c.0391-.1172,.0781-.2349,.1172-.3525,.1045-.3389,.1699-.5737,.1963-.7046,.1562-.5215,.2803-.998,.3711-1.4287l.4902,.1758c-.1055,.248-.1895,.4307-.2549,.5483-.0527,.1172-.1045,.2153-.1562,.2935l-.1768,.2544c-.1045,.144-.2285,.1665-.3721,.0688-.1436-.0981-.1631-.2183-.0586-.3623l.1572-.2544c.0518-.0654,.0977-.1436,.1367-.2349,.0518-.1045,.1299-.2808,.2344-.5288l.0195-.0195c.0654-.1562,.1768-.2021,.333-.1367,.1572,.0654,.209,.1758,.1572,.3325-.1445,.3789-.3203,.8486-.5293,1.4097l-.2539,.7046-.1377,.3525-.0586,.1562v-.0195l-.0195-.0195c0-.0259-.0098-.0454-.0293-.0586-.0195-.0127-.0361-.0195-.0488-.0195h-.0781l.0391-.0391c.0654-.0522,.2354-.2217,.5088-.5093,.0518-.0518,.1113-.1104,.1768-.1763,.0645-.0649,.127-.1299,.1855-.1953s.1143-.124,.166-.1763c.0264-.0259,.1016-.1079,.2256-.2446,.124-.1372,.2188-.2451,.2842-.3232,.1172-.1172,.2148-.2085,.293-.2739,.0781-.0522,.1436-.0913,.1963-.1177,.0391-.0127,.084-.0259,.1367-.0391,.0654-.0127,.1299-.0127,.1963,0,.1035,.0132,.2021,.0654,.293,.1567,.0518,.0522,.0977,.1172,.1377,.1958,.0645,.0913,.1299,.209,.1953,.3521,.1689,.4307,.2607,.6528,.2744,.6655,.1172,.2354,.2539,.4111,.4111,.5288,.1689,.1304,.3711,.209,.6064,.2349,.4824,.0522,.9199-.0649,1.3115-.3525,.1826-.1431,.3584-.313,.5283-.5088,.1572-.1958,.2939-.3916,.4111-.5874,.0391-.0781,.0977-.0942,.1768-.0488,.0781,.0459,.0977,.1079,.0586,.186Z" style="fill:#b15026; stroke:#b15026; stroke-linecap:round; stroke-linejoin:round; stroke-width:.5px;"/><path d="M94.0015,8.1582c.0908,.209,.1367,.4702,.1367,.7832,0,.2222-.0322,.4697-.0977,.7437-.0527,.1958-.124,.4243-.2148,.6855-.1309,.3911-.3135,.8218-.5488,1.292-.3389,.6655-.8096,1.4683-1.4092,2.4077-.5225,.7959-1.0576,1.5596-1.6055,2.2905-.2998,.4043-.5869,.77-.8613,1.0962-.0781,.0913-.1953,.2217-.3525,.3911-.1045,.5747-.1826,1.0967-.2344,1.5664-.0137,.2349-.0195,.457-.0195,.6655,0,.2349,.0195,.4438,.0586,.6265,.0908,.4829,.2871,.7896,.5869,.9199,.0654,.0264,.1572,.0522,.2744,.0781,.0908,.0132,.1826,.02,.2744,.02,.208-.0264,.4043-.085,.5869-.1763,.3389-.1694,.6719-.4634,.998-.8809,.2744-.3652,.5156-.7505,.7246-1.1553,.1953-.3784,.3779-.7959,.5479-1.2529,.0391-.0908,.0977-.1201,.1768-.0879,.0781,.0327,.1035,.0879,.0781,.1665v.0195c-.4834,1.0835-.9268,1.9053-1.3311,2.4663-.3398,.457-.6787,.7964-1.0186,1.0181-.2217,.1567-.4502,.2544-.6846,.2935-.1309,.0264-.2676,.0396-.4111,.0396-.1436-.0132-.2812-.0396-.4111-.0786-.248-.0908-.457-.2739-.627-.5479-.1299-.209-.2285-.4502-.293-.7246-.0527-.2217-.0781-.4697-.0781-.7437,0-.2217,.0059-.4634,.0195-.7246,.0254-.2217,.0518-.4629,.0781-.7241-.2871,.3135-.5742,.6006-.8613,.8613-.4307,.3789-.8096,.6655-1.1357,.8613l-.1562,.0981-.0781,.0391c-.0137,.0132-.0332,.0264-.0596,.0391-.0264,0-.0518,.0068-.0781,.0195-.0908,.0264-.1855,.0327-.2832,.0195-.0986-.0127-.1934-.0518-.2842-.1172-.1436-.1045-.2354-.2549-.2744-.4507-.0127-.0391-.0254-.104-.0391-.1953v-.1958c0-.4438,.1113-.9268,.333-1.4487,.1953-.4565,.4434-.874,.7441-1.2529,.3525-.4434,.7168-.77,1.0957-.9785,.0918-.0522,.209-.1045,.3525-.1567,.1045-.0259,.1699-.0391,.1963-.0391,.1035-.0132,.1826-.0195,.2344-.0195,.1699,.0127,.3135,.0913,.4307,.2349,.0781,.0913,.1504,.2085,.2158,.3521,.0254,.0786,.0449,.1699,.0586,.2744,.4561-1.7622,1.083-3.5107,1.8789-5.2466,.4824-1.0181,.9395-1.8398,1.3701-2.4663,.1572-.2222,.3066-.4111,.4502-.5679,.0918-.1045,.1826-.1958,.2744-.2739,.1299-.1045,.248-.1826,.3525-.2349,.0908-.0264,.1758-.0459,.2539-.0591,.0527,0,.1045,.0068,.1572,.0195,.0518,.0132,.0977,.0264,.1367,.0396,.1562,.0654,.2803,.189,.3721,.3716Zm-5.834,10.0425c.0391-.0391,.1377-.1436,.2939-.313,.0264-.1177,.0518-.248,.0781-.3916v-.0981c0-.104-.0127-.2153-.0391-.3325-.0264-.2349-.0781-.4434-.1562-.6265-.0391-.0913-.0879-.1665-.1475-.2251-.0586-.0586-.1201-.0884-.1855-.0884-.0527,0-.1367,.02-.2549,.0591-.1045,.0522-.1895,.0977-.2539,.1367-.3135,.1958-.6201,.4961-.9199,.9009-.2617,.3652-.4766,.7505-.6465,1.1548-.1826,.4307-.2803,.8418-.2939,1.2334v.1562c.0137,.0654,.0205,.105,.0205,.1177,.0127,.0654,.0391,.1108,.0781,.1372,.0254,.0132,.0518,.0195,.0781,.0195l.0195-.0195h.0195l.0781-.0396,.1367-.0781c.6006-.3652,1.2988-.9331,2.0947-1.7031Zm5.4033-8.6133c.0518-.2349,.0713-.4502,.0586-.646,0-.2349-.0322-.4175-.0977-.5483-.0264-.0649-.0586-.104-.0977-.1172-.0137-.0127-.0264-.0195-.0391-.0195h-.0205c-.0254,0-.0518,.0068-.0781,.0195-.1299,.0522-.2803,.1763-.4502,.3721-.1172,.1436-.248,.3198-.3916,.5283-.418,.6006-.8486,1.3965-1.292,2.3882-.3779,.7964-.7236,1.6445-1.0371,2.5449-.3262,.9268-.5938,1.8008-.8027,2.623-.0391,.1177-.0723,.2349-.0977,.3525,.9131-1.0049,1.7158-2.0557,2.4072-3.1519,.2617-.4043,.4961-.8022,.7051-1.1938,.2354-.457,.4375-.8677,.6064-1.2334,.1963-.4565,.3525-.8809,.4707-1.2725,.0518-.2085,.1035-.4238,.1562-.646Z" style="fill:#b15026; stroke:#b15026; stroke-linecap:round; stroke-linejoin:round; stroke-width:.5px;"/><path d="M124.187,16.7715v.7246c0,.0522-.0068,.1045-.0205,.1567l-.0391,.5869c0,.0786-.0127,.1763-.0391,.2939l-.0391,.2935-.0391,.2739c-.0127,.0391-.0264,.0947-.0391,.1665s-.0195,.1143-.0195,.1274l-.1367,.5674-.1572,.5679c-.4434,1.501-1.168,2.8774-2.1729,4.1304-1.0176,1.2656-2.2119,2.2446-3.582,2.9365-.7051,.3394-1.4424,.6001-2.2119,.7832-.7441,.1694-1.5146,.2476-2.3105,.2349-1.4355,0-2.9355-.3135-4.502-.9399-.0527-.0264-.2285-.1045-.5283-.2349-.0391-.0132-.082-.0293-.1279-.0488s-.0908-.0391-.1367-.0586-.0879-.0361-.127-.0493c-.209,.3916-.4053,.7568-.5879,1.0967-.4824,.8481-.9912,1.6372-1.5264,2.3687-.0391,.0518-.0781,.104-.1172,.1562-.04,.0522-.0723,.0981-.0986,.1372s-.0615,.0845-.1074,.1372c-.0459,.0518-.082,.0977-.1074,.1367-.0264,.0259-.0527,.0557-.0781,.0884-.0264,.0322-.0557,.0684-.0889,.1074-.0322,.0391-.0557,.0654-.0684,.0781l-.1172,.1372-.1172,.1372c-.3262,.3521-.6924,.6719-1.0967,.959-.3916,.3003-.8154,.5352-1.2725,.7046-.1172,.0522-.3525,.1304-.7041,.2354-.3789,.0518-.6201,.0845-.7246,.0977-.0781,0-.3262-.0068-.7441-.0195-.4307-.0654-.665-.1045-.7041-.1177-.3525-.0781-.8027-.248-1.3516-.5088-.1172-.0654-.1494-.1567-.0977-.2739,.0527-.1045,.1367-.1372,.2549-.0981l.0195,.0195c.5215,.2222,.9463,.3652,1.2725,.4307,.0254,0,.2412,.0264,.6455,.0786h.666c.0781-.0132,.293-.0522,.6455-.1177,.3262-.1045,.5352-.1763,.627-.2153,.417-.1694,.7959-.3916,1.1348-.6655,.3652-.2871,.6924-.5938,.9795-.9199l.1172-.1177,.0977-.1367c.0127-.0132,.0459-.0493,.0977-.1079,.0527-.0586,.0918-.1074,.1182-.147,.0254-.0391,.0684-.0977,.127-.1758,.0586-.0786,.1104-.147,.1562-.2056,.0459-.0591,.082-.1211,.1084-.186,.5088-.7178,.9912-1.4946,1.4482-2.3296,.1826-.3262,.3721-.6851,.5674-1.0767-.2217-.1177-.3984-.209-.5283-.2739-.7568-.3525-1.4619-.542-2.1143-.5679-.8223-.0654-1.4678,.1108-1.9375,.5283-.4697,.418-.6855,1.0244-.6465,1.8208,.0127,.1045-.0166,.1987-.0879,.2837-.0723,.085-.1631,.1304-.2744,.1372-.1104,.0063-.2051-.0264-.2832-.0981-.0791-.0718-.125-.166-.1377-.2837v-.0391c.0264-.457,.1113-.8745,.2549-1.2529,.1826-.4307,.4434-.7764,.7832-1.0376,.1826-.1304,.3652-.2349,.5479-.313,.0264-.0132,.1299-.0522,.3135-.1177,.1689-.0391,.2666-.0654,.293-.0781,.3789-.0781,.7832-.0913,1.2139-.0391,.3525,.0259,.7373,.104,1.1553,.2349,.3652,.1172,.7305,.2607,1.0957,.4307l.5488,.2935c.9131-1.8794,2.1143-4.8022,3.6016-8.77,.8486-2.2705,1.5078-4.0063,1.9775-5.207,.8223-2.0488,1.5791-3.7651,2.2705-5.1484,.2354-.4565,.4697-.8936,.7051-1.3115-.1699-.0781-.3271-.1436-.4697-.1958-.7051-.2866-1.417-.4956-2.1338-.6265-.7051-.1172-1.4424-.1631-2.2129-.1367-.7822,.0259-1.5137,.124-2.1924,.2935-.7568,.1958-1.4414,.4766-2.0547,.8418-.627,.3784-1.1816,.855-1.6641,1.4292-.4697,.5742-.8418,1.2134-1.1162,1.918-.2744,.7441-.4111,1.4619-.4111,2.1533,0,.0132,.0127,.1958,.0391,.5483,.0518,.3003,.085,.4766,.0977,.5288,.0137,.0654,.0791,.228,.1963,.4893,.1299,.248,.2148,.4048,.2539,.4697,.2354,.313,.4902,.5483,.7637,.7046l.2354,.1177c.1172,.0522,.2021,.085,.2539,.0977l.2549,.0786,.2549,.0586c.0645,.0132,.1104,.0195,.1367,.0195l.1172,.0195,.2744,.0195h.2734c0-.0127,.0166-.0195,.0498-.0195h.0684l.1367-.0195c.2998-.0259,.6396-.1177,1.0176-.2739l.2549-.1177,.2158-.1367c.0518-.0264,.1299-.0718,.2344-.1372,.0127-.0127,.0361-.0293,.0684-.0488s.0615-.0396,.0879-.0591,.0459-.0356,.0596-.0488c.2344-.1958,.4951-.4502,.7822-.7632,.2217-.2612,.4375-.5483,.6465-.8613,.1689-.3003,.333-.6265,.4893-.979,.0391-.1045,.1104-.1763,.2158-.2153,.1035-.0391,.2051-.0356,.3027,.0098,.0977,.0459,.167,.1177,.2061,.2153,.0391,.0981,.0391,.1992,0,.3032,0,.0132-.0039,.0229-.0098,.0298-.0068,.0063-.0137,.0132-.0195,.0195-.0068,.0068-.0098,.0166-.0098,.0293-.0918,.2871-.1445,.6006-.1572,.9395-.0264,.3267-.0195,.6982,.0195,1.1157,0,.0264-.0029,.0557-.0098,.0884s-.0127,.062-.0195,.0879c-.0068,.0264-.0195,.0522-.0391,.0786-.0195,.0259-.0391,.0488-.0586,.0684s-.043,.0361-.0684,.0488l-.0781,.0391c-.0264,.0132-.0527,.0195-.0791,.0195-.1172,.0132-.2178-.0161-.3027-.0879s-.1279-.1665-.1279-.2837c-.0127-.0132-.0127-.0327,0-.0591,.0137-.2607,.04-.5088,.0791-.7437-.1699,.2222-.333,.418-.4893,.5874-.627,.6396-1.2861,1.0962-1.9775,1.3701-.418,.1567-.8096,.248-1.1748,.2739l-.1562,.0195h-.4502l-.2939-.0195-.1562-.0195c-.0264,0-.0586-.0063-.0986-.0195-.0254-.0127-.0449-.0195-.0586-.0195l-.293-.0586-.2939-.0981c-.0527-.0259-.1436-.0713-.2744-.1367-.1689-.0913-.2607-.1372-.2734-.1372-.3262-.1958-.6201-.4824-.8809-.8613-.0654-.0781-.1641-.2544-.2939-.5283-.1172-.2871-.1826-.4766-.1953-.5679-.0137-.0391-.0527-.2349-.1182-.5874-.0264-.3521-.0391-.5479-.0391-.5874,0-.7437,.1572-1.5073,.4697-2.29,.2744-.7441,.6592-1.4224,1.1553-2.0361,.5215-.6265,1.1094-1.1416,1.7617-1.5464,.6133-.3916,1.3242-.6978,2.1338-.9199,.7178-.2085,1.4873-.3394,2.3096-.3916,.8096-.0518,1.5859-.0195,2.3301,.0981,.7568,.1172,1.5137,.313,2.2705,.5869,.1826,.0654,.3789,.144,.5869,.2349,.1309-.2085,.248-.3911,.3525-.5479,.5488-.8613,1.1221-1.6182,1.7227-2.271,.3262-.3389,.6719-.6655,1.0381-.9785,.3916-.3135,.7891-.5806,1.1934-.8027,.8613-.4697,1.7881-.7114,2.7803-.7241,.1299,0,.2021,.0654,.2148,.1953,0,.1309-.0654,.2026-.1953,.2153-.457,.0264-.8975,.1016-1.3213,.2256s-.832,.3032-1.2236,.5381c-.3652,.209-.7305,.4697-1.0957,.7832-.2881,.2612-.6074,.5806-.96,.959-.5605,.6265-1.0957,1.3638-1.6045,2.2119-.0791,.1309-.1768,.2939-.2939,.4897,1.2139,.6001,2.3096,1.377,3.2891,2.3296,.9785,.9526,1.7871,2.0229,2.4268,3.21,.0127,.0396,.0361,.0854,.0684,.1372,.0332,.0522,.0586,.0947,.0791,.1274,.0195,.0327,.0391,.0752,.0586,.127,.0195,.0522,.042,.0981,.0684,.1372l.2344,.5283,.2158,.5483c.0254,.0654,.0488,.1274,.0684,.186s.0391,.127,.0586,.2056c.0195,.0781,.0361,.1367,.0488,.1763l.0986,.2739,.0781,.2935c.0781,.3657,.1172,.5552,.1172,.5679l.1172,.5874,.0586,.5869,.0391,.5874,.0205,.2935Zm-1.1748,3.5825c.4043-1.4614,.5283-2.9233,.3721-4.3848l-.0791-.5483-.0977-.5479c-.0127-.0396-.0225-.0815-.0293-.1274-.0068-.0454-.0166-.0879-.0293-.1274-.0127-.0391-.0264-.0845-.0391-.1367s-.0264-.0981-.0391-.1372l-.0586-.2739-.0977-.2544c0-.0264-.0205-.1045-.0596-.2349s-.0781-.2285-.1172-.2939l-.1953-.5088-.2158-.5088c-.0391-.0654-.0908-.1597-.1562-.2842-.0654-.124-.0977-.1924-.0977-.2056-.6006-1.1221-1.3613-2.1367-2.2812-3.0439-.9199-.9067-1.9473-1.6606-3.083-2.2607-.2344,.4175-.4629,.8613-.6846,1.3311-.6396,1.292-1.3711,2.9888-2.1934,5.0894-.1953,.5093-.4043,1.0571-.626,1.6445s-.4639,1.2305-.7246,1.9282c-.2607,.6982-.4629,1.25-.6064,1.6543-.8486,2.2578-1.5342,3.9932-2.0557,5.207-.5742,1.3438-1.1289,2.5381-1.6641,3.5825,.0391,.0259,.0977,.0552,.1768,.0879,.0781,.0322,.1367,.062,.1758,.0879,.2998,.1304,.4697,.2026,.5088,.2153,1.5137,.6133,2.9688,.9136,4.3652,.9009,1.5537,0,2.9824-.3462,4.2871-1.0376,1.3047-.6787,2.4277-1.6382,3.3672-2.8779,.9268-1.2002,1.5859-2.5117,1.9775-3.9346Z" style="fill:#b15026; stroke:#b15026; stroke-linecap:round; stroke-linejoin:round; stroke-width:.5px;"/><path d="M131.5464,18.1519c.0654,.0586,.0723,.1206,.0195,.186-.457,.457-1.0049,.9072-1.6436,1.3506-.3008,.209-.6074,.3984-.9209,.5679-.3779,.1958-.7109,.3325-.998,.4111-.209,.0522-.4043,.0718-.5869,.0586-.2227-.0127-.4248-.0718-.6074-.1763-.1172-.0781-.2021-.1826-.2539-.313-.0391-.1045-.0586-.2222-.0586-.3525,0-.1567,.0264-.3525,.0781-.5874,.0781-.2476,.1758-.5151,.293-.8027-.0781,.0132-.1367,0-.1758-.0391-.0781-.0908-.085-.1826-.0195-.2739,.2744-.3394,.5215-.6523,.7441-.9395,.1172-.1436,.2471-.1631,.3916-.0591,.0908,.0654,.1299,.1504,.1172,.2549v.0195c-.0137,.0522-.0332,.1172-.0586,.1958-.0137,.0259-.0332,.0718-.0586,.1367-.0264,.0654-.0586,.1504-.0986,.2544-.0264,.0527-.0654,.1309-.1172,.2349-.0518,.105-.085,.1831-.0977,.2354-.1963,.4307-.3262,.7437-.3916,.9395-.0527,.1567-.085,.3003-.0977,.4307,0,.0781,.0059,.1372,.0195,.1763,.0127,.0391,.0322,.0718,.0586,.0977,.1953,.1567,.4766,.209,.8418,.1567,.2998-.0391,.6191-.1436,.959-.3135,.2744-.1172,.5742-.2866,.9004-.5088,.2607-.1567,.542-.3589,.8418-.6069,.2871-.2349,.5352-.4761,.7441-.7241,.0518-.0649,.1104-.0684,.1758-.0098Zm-3.543-1.1846c-.1172,.0654-.209,.0396-.2744-.0781-.0391-.0781-.0322-.1499,.0205-.2153l.0195-.0391c.0391-.0522,.0713-.124,.0977-.2153,.0254-.0654,.0449-.1567,.0586-.2739,.0127-.0913,.0586-.1631,.1367-.2153s.1631-.0718,.2549-.0591c.0908,.0132,.1631,.0591,.2148,.1372,.0527,.0781,.0723,.1631,.0586,.2544-.0127,.0391-.0254,.0781-.0391,.1177l-.0195,.0195c-.0781,.1172-.1494,.2153-.2148,.2935-.1045,.1177-.209,.209-.3135,.2739Z" style="fill:#b15026; stroke:#b15026; stroke-linecap:round; stroke-linejoin:round; stroke-width:.5px;"/><path d="M138.1636,18.377h-.0195c-.1836,.2739-.333,.4766-.4502,.6069-.1836,.209-.3721,.3848-.5684,.5283-.2344,.1699-.4629,.2871-.6846,.3525-.2354,.0781-.4961,.1108-.7832,.0977-.2871-.0127-.5479-.0908-.7832-.2349-.2217-.1304-.418-.3193-.5869-.5674-.1182-.1826-.2422-.4111-.3721-.6855-.0781-.1562-.1309-.2544-.1562-.2935-.0264-.0391-.0527-.0718-.0791-.0977l-.0195-.02h-.0195l.0195-.0195c-.0127,0-.0264,.0068-.0391,.0195-.0391,.0132-.085,.0332-.1367,.0591-.0918,.0391-.1895,.0977-.2939,.1763-.1953,.1304-.3848,.2808-.5674,.4502-.0918,.0781-.2676,.2544-.5283,.5283-.2744,.3003-.4443,.4829-.5098,.5483-.0391,.0391-.0713,.0654-.0977,.0781-.0127,0-.0264,.0068-.0391,.0195h-.0391c-.0127,.0132-.0322,.0132-.0586,0-.0264-.0127-.0459-.0259-.0586-.0391-.0264-.0127-.0459-.0322-.0586-.0586v-.0396c0-.0127,.0068-.0454,.0195-.0977l.0586-.1958c.0391-.1172,.0781-.2349,.1172-.3525,.1045-.3389,.1699-.5737,.1963-.7046,.1562-.5215,.2803-.998,.3711-1.4287l.4902,.1758c-.1055,.248-.1895,.4307-.2549,.5483-.0527,.1172-.1045,.2153-.1562,.2935l-.1768,.2544c-.1045,.144-.2285,.1665-.3721,.0688-.1436-.0981-.1631-.2183-.0586-.3623l.1572-.2544c.0518-.0654,.0977-.1436,.1367-.2349,.0518-.1045,.1299-.2808,.2344-.5288l.0195-.0195c.0654-.1562,.1768-.2021,.333-.1367,.1572,.0654,.209,.1758,.1572,.3325-.1445,.3789-.3203,.8486-.5293,1.4097l-.2539,.7046-.1377,.3525-.0586,.1562v-.0195l-.0195-.0195c0-.0259-.0098-.0454-.0293-.0586-.0195-.0127-.0361-.0195-.0488-.0195h-.0781l.0391-.0391c.0654-.0522,.2354-.2217,.5088-.5093,.0518-.0518,.1113-.1104,.1768-.1763,.0645-.0649,.127-.1299,.1855-.1953s.1143-.124,.166-.1763c.0264-.0259,.1016-.1079,.2256-.2446,.124-.1372,.2188-.2451,.2842-.3232,.1172-.1172,.2148-.2085,.293-.2739,.0781-.0522,.1436-.0913,.1963-.1177,.0391-.0127,.084-.0259,.1367-.0391,.0654-.0127,.1299-.0127,.1963,0,.1035,.0132,.2021,.0654,.293,.1567,.0518,.0522,.0977,.1172,.1377,.1958,.0645,.0913,.1299,.209,.1953,.3521,.1689,.4307,.2607,.6528,.2744,.6655,.1172,.2354,.2539,.4111,.4111,.5288,.1689,.1304,.3711,.209,.6064,.2349,.4824,.0522,.9199-.0649,1.3115-.3525,.1826-.1431,.3584-.313,.5283-.5088,.1572-.1958,.2939-.3916,.4111-.5874,.0391-.0781,.0977-.0942,.1768-.0488,.0781,.0459,.0977,.1079,.0586,.186Z" style="fill:#b15026; stroke:#b15026; stroke-linecap:round; stroke-linejoin:round; stroke-width:.5px;"/><path d="M144.7798,18.377h-.0195c-.1836,.2739-.333,.4766-.4502,.6069-.1836,.209-.3721,.3848-.5684,.5283-.2344,.1699-.4629,.2871-.6846,.3525-.2354,.0781-.4961,.1108-.7832,.0977-.2871-.0127-.5479-.0908-.7832-.2349-.2217-.1304-.418-.3193-.5869-.5674-.1182-.1826-.2422-.4111-.3721-.6855-.0781-.1562-.1309-.2544-.1562-.2935-.0264-.0391-.0527-.0718-.0791-.0977l-.0195-.02h-.0195l.0195-.0195c-.0127,0-.0264,.0068-.0391,.0195-.0391,.0132-.085,.0332-.1367,.0591-.0918,.0391-.1895,.0977-.2939,.1763-.1953,.1304-.3848,.2808-.5674,.4502-.0918,.0781-.2676,.2544-.5283,.5283-.2744,.3003-.4443,.4829-.5098,.5483-.0391,.0391-.0713,.0654-.0977,.0781-.0127,0-.0264,.0068-.0391,.0195h-.0391c-.0127,.0132-.0322,.0132-.0586,0-.0264-.0127-.0459-.0259-.0586-.0391-.0264-.0127-.0459-.0322-.0586-.0586v-.0396c0-.0127,.0068-.0454,.0195-.0977l.0586-.1958c.0391-.1172,.0781-.2349,.1172-.3525,.1045-.3389,.1699-.5737,.1963-.7046,.1562-.5215,.2803-.998,.3711-1.4287l.4902,.1758c-.1055,.248-.1895,.4307-.2549,.5483-.0527,.1172-.1045,.2153-.1562,.2935l-.1768,.2544c-.1045,.144-.2285,.1665-.3721,.0688-.1436-.0981-.1631-.2183-.0586-.3623l.1572-.2544c.0518-.0654,.0977-.1436,.1367-.2349,.0518-.1045,.1299-.2808,.2344-.5288l.0195-.0195c.0654-.1562,.1768-.2021,.333-.1367,.1572,.0654,.209,.1758,.1572,.3325-.1445,.3789-.3203,.8486-.5293,1.4097l-.2539,.7046-.1377,.3525-.0586,.1562v-.0195l-.0195-.0195c0-.0259-.0098-.0454-.0293-.0586-.0195-.0127-.0361-.0195-.0488-.0195h-.0781l.0391-.0391c.0654-.0522,.2354-.2217,.5088-.5093,.0518-.0518,.1113-.1104,.1768-.1763,.0645-.0649,.127-.1299,.1855-.1953s.1143-.124,.166-.1763c.0264-.0259,.1016-.1079,.2256-.2446,.124-.1372,.2188-.2451,.2842-.3232,.1172-.1172,.2148-.2085,.293-.2739,.0781-.0522,.1436-.0913,.1963-.1177,.0391-.0127,.084-.0259,.1367-.0391,.0654-.0127,.1299-.0127,.1963,0,.1035,.0132,.2021,.0654,.293,.1567,.0518,.0522,.0977,.1172,.1377,.1958,.0645,.0913,.1299,.209,.1953,.3521,.1689,.4307,.2607,.6528,.2744,.6655,.1172,.2354,.2539,.4111,.4111,.5288,.1689,.1304,.3711,.209,.6064,.2349,.4824,.0522,.9199-.0649,1.3115-.3525,.1826-.1431,.3584-.313,.5283-.5088,.1572-.1958,.2939-.3916,.4111-.5874,.0391-.0781,.0977-.0942,.1768-.0488,.0781,.0459,.0977,.1079,.0586,.186Z" style="fill:#b15026; stroke:#b15026; stroke-linecap:round; stroke-linejoin:round; stroke-width:.5px;"/><path d="M150.3775,18.2397c.0654,.0654,.0654,.1309,0,.1958-.3125,.2739-.5215,.4502-.626,.5288-.1826,.1562-.3984,.3198-.6465,.4893-.457,.3394-.9268,.6069-1.4092,.8027-.6006,.248-1.1484,.3652-1.6445,.3521-.1436,0-.2871-.0127-.4307-.0391-.0908-.0259-.1631-.0454-.2148-.0586-.0781-.0259-.1572-.0654-.2354-.1177-.2871-.1694-.4961-.3979-.626-.6851-.0781-.1436-.1309-.2935-.1572-.4502-.0127-.1436-.0195-.2935-.0195-.4502,.0137-.3003,.0918-.5938,.2354-.8809,.1436-.2612,.3262-.4893,.5479-.6851,.248-.2222,.5029-.3784,.7637-.4702,.0908-.0259,.1699-.0454,.2354-.0586,.1299-.0127,.2412-.0063,.332,.0195,.1045,.0522,.1895,.1309,.2549,.2349,.0518,.0918,.0781,.1958,.0781,.3135,0,.0781-.0195,.1631-.0586,.2544s-.0723,.1636-.0977,.2153c-.0781,.1436-.1768,.2612-.2939,.3525-.209,.1958-.4697,.3325-.7832,.4111-.209,.0522-.4307,.0718-.665,.0586-.0137,.0913-.0195,.1763-.0195,.2544-.0137,.1177-.0068,.2349,.0195,.3525,.0127,.1045,.0449,.2021,.0977,.2935,.0781,.1831,.2217,.3462,.4307,.4893,.1299,.105,.3457,.1763,.6455,.2153,.4834,.0522,.9854-.0063,1.5078-.1763,.9004-.3257,1.7617-.9131,2.584-1.7617,.0654-.0649,.1299-.0649,.1953,0Zm-4.2871-1.0176c-.4697,.1953-.8086,.5088-1.0176,.9395-.0264,.0264-.0459,.0654-.0586,.1172,.1689-.0127,.3262-.0391,.4697-.0781,.248-.0781,.4502-.2021,.6064-.3721,.0791-.0781,.1436-.1694,.1963-.2739,.0127-.0391,.0322-.0913,.0586-.1567,.0127-.0518,.0195-.0977,.0195-.1367s-.0195-.0718-.0586-.0981c-.0137,0-.0391,.0068-.0781,.0195-.0391,0-.085,.0132-.1377,.0396Z" style="fill:#b15026; stroke:#b15026; stroke-linecap:round; stroke-linejoin:round; stroke-width:.5px;"/><path d="M155.771,18.23c.0713,.0459,.0879,.1016,.0488,.1665v.0195c-.2744,.4048-.5547,.7637-.8418,1.0767-.3008,.3394-.6201,.6528-.959,.9399-.3789,.3262-.7441,.6001-1.0967,.8218-.418,.248-.835,.4375-1.2529,.5679-.2734,.0781-.5156,.1108-.7236,.0977-.1445,0-.2744-.0322-.3916-.0977-.0654-.0259-.1309-.0718-.1963-.1372-.0264-.0259-.0518-.0518-.0781-.0781-.0127-.0259-.0225-.0488-.0293-.0684s-.0166-.0361-.0293-.0493c-.0518-.1299-.0654-.2803-.0391-.4502,.0127-.1304,.0459-.2544,.0977-.3716,.0654-.1826,.1699-.3979,.3135-.646,.0781-.1304,.1953-.3232,.3525-.5776,.1562-.2544,.2734-.4404,.3516-.5581,.0527-.1172,.0986-.2085,.1377-.2739,.0391-.1045,.0645-.1826,.0781-.2349h-.1562c-.04,0-.0859,.0068-.1377,.0195-.0781,.0132-.1367,.0195-.1758,.0195-.1172,.0132-.2354,.0264-.3525,.0391-.2744,0-.5215-.0259-.7441-.0781-.1436-.0259-.2734-.0718-.3916-.1372-.1562-.0781-.2734-.1763-.3516-.2935-.1182-.1567-.1699-.3262-.1572-.5088,.0137-.1436,.0391-.2744,.0781-.3916,.1309-.4043,.3789-.8223,.7441-1.2529,.3262-.3525,.6787-.6587,1.0576-.9199,.1172-.0786,.2217-.1436,.3125-.1958,.0654-.0264,.1309-.0522,.1963-.0786,.0781-.0259,.1494-.0454,.2148-.0586,.1699-.0127,.3203,.0068,.4502,.0586,.1572,.0654,.2803,.1763,.3721,.333,.0654,.1304,.0908,.2739,.0781,.4307-.0127,.1304-.0459,.2612-.0977,.3916-.0918,.1826-.2217,.3848-.3916,.6069-.1172,.1436-.5615,.646-1.3311,1.5073,.0908-.0132,.1699-.02,.2354-.02,.0391-.0127,.0908-.0225,.1562-.0293,.0654-.0063,.1299-.0161,.1953-.0293h.2158c.1045,.0132,.1895,.0391,.2549,.0786,.1299,.0522,.2217,.1436,.2734,.2739,.0264,.0913,.0322,.1958,.0195,.313-.0264,.105-.0713,.2349-.1367,.3916-.0391,.0913-.0977,.1958-.1758,.3135-.0791,.1436-.1992,.3394-.3623,.5869-.1641,.248-.2842,.4307-.3623,.5483-.1309,.2222-.2285,.4048-.2939,.5479-.0918,.2222-.1309,.3853-.1172,.4897,.0254,.1304,.1436,.209,.3525,.2349,.1689,.0391,.3721,.0327,.6064-.0195,.3525-.0786,.7568-.248,1.2139-.5093,.3779-.2217,.7344-.4761,1.0664-.7632,.333-.2871,.6494-.6001,.9502-.9399,.2998-.3652,.5537-.7241,.7627-1.0767,.0527-.0649,.1143-.0747,.1865-.0293Zm-6.0977-.6362c.0654,.0918,.2021,.1636,.4111,.2153,.0908,.0264,.2021,.0391,.332,.0391,.2217-.2217,.418-.4307,.5879-.626,.3652-.3916,.6523-.731,.8613-1.0181,.1436-.1958,.2344-.3848,.2734-.5679,.0527-.2085,.0332-.3652-.0586-.4697-.0781-.0913-.2021-.124-.3721-.0977-.0264,0-.0586,.0063-.0977,.0195-.0391,.0259-.0781,.0459-.1172,.0586-.0781,.0522-.1631,.1108-.2549,.1763-.3389,.2349-.6523,.5156-.9395,.8418-.3135,.3784-.5156,.731-.6064,1.0571-.0264,.0654-.0459,.1499-.0586,.2544,0,.0391,.0127,.0781,.0391,.1172Z" style="fill:#b15026; stroke:#b15026; stroke-linecap:round; stroke-linejoin:round; stroke-width:.5px;"/></svg>