<?xml version="1.0" encoding="UTF-8"?><svg id="Layer_1" xmlns="http://www.w3.org/2000/svg" viewBox="0 0 120.4375 113.085"><g style="opacity:.5;"><g><path d="M105.8736,41.1879c-.0195,.0333-.112,.0986-.2011,.1423-.2988,.1464-.8246,.5641-1.3462,1.0693-1.3595,1.3171-4.018,4.0279-4.4524,4.5399-1.1518,1.3578-1.8938,2.4844-2.7656,4.1993-.6505,1.2796-2.1687,4.9702-2.3679,5.756-.0184,.0725-.2276,.4133-.4642,.7563-1.0256,1.4865-1.865,3.0077-2.5598,4.6391l-.1386,.3254,.029-.2309c.016-.1274,.058-.4595,.0938-.741,.1067-.8399,.1293-1.6577,.0739-2.6779-.1133-2.0887-.222-2.6447-.8564-4.384-.1663-.456-.4664-1.3411-.6649-1.9612-.3618-1.1301-.491-1.4353-.7223-1.7061-.1164-.1363-.1302-.1407-.2265-.0727-.1462,.1033-.2619,.4508-.4546,1.3655-.0934,.4435-.3165,1.4027-.4969,2.137-1.14,4.6391-1.281,5.9467-.9116,8.4558,.1243,.8442,.2973,1.5516,.5422,2.2162,.2372,.6439,.8815,1.8556,1.3723,2.5811,.244,.3606,.4904,.758,.548,.8839,.1289,.2815,.1348,.6244,.0256,1.4995-.189,1.5143-.3791,4.3444-.4515,6.7189-.0746,2.4493-.1049,2.996-.1509,2.7219-.2357-1.4071-.4079-2.0113-.8608-3.0209-.4085-.9107-.864-1.7149-1.5166-2.6779-1.0818-1.5962-1.9823-2.6624-2.4951-2.9542-.1337-.0761-.313-.2103-.4034-.3019-.0911-.0924-.1803-.1649-.2028-.1649-.0846,0-.1739,.3342-.1739,.6508,0,.3213,.2365,2.9417,.3309,3.6673,.0754,.5794,.2161,1.2576,.4889,2.3569,.455,1.8337,.7665,2.5536,1.6933,3.9135,.6293,.9234,.9503,1.3568,1.3741,1.8556,.5226,.615,.8153,1.1213,1.0778,1.8644,.1507,.4266,.1516,.4348,.0944,.8091-.2304,1.5082-.652,3.5605-.8545,4.1598-.1303,.3856-.6775,1.4819-1.0163,2.0359-.1551,.2536-.5186,.7431-.8067,1.0861-.7459,.8882-.8144,1.0477-.5454,1.27,.3219,.2661,.3296,.2646,.7162-.14,.318-.3327,.3952-.4573,.9999-1.6138,.361-.6904,.7078-1.4092,.7723-1.6006,.2456-.7286,.8477-3.2671,1.1879-5.0084,.0498-.255,.1374-.5601,.1957-.6816,.1859-.3874,.6745-.7736,1.8825-1.4879,2.0103-1.1887,3.0837-1.9371,4.4352-3.0927,.8599-.7352,2.2752-2.2263,3.069-3.2333,.3224-.4089,1.7828-2.4927,2.0217-2.8846,.1635-.2682,.1962-.4828,.08-.5263-.1028-.0385-2.4382,.4871-3.0266,.6811-1.3774,.4542-3.031,1.3535-4.2212,2.2957-.6767,.5357-1.2249,1.0936-2.0033,2.039-.9377,1.1389-1.2976,1.6363-1.7307,2.3921l-.2243,.3913v-.1847c0-.1011,.0201-.4353,.0444-.7387,.0462-.5766,.1548-2.6296,.2383-4.5028,.0429-.9627,.1377-2.4229,.2262-3.4826,.0297-.3562,.0338-.3659,.1709-.4023,.078-.0208,.2831-.1505,.4613-.2918,.3832-.3038,.4859-.3626,1.8543-1.062,1.15-.5878,1.8945-1.0517,2.5229-1.5722,.7832-.6487,2.6664-2.6123,4.0277-4.1997,.3695-.431,.9214-1.0696,1.2195-1.4115,.7286-.8354,2.4139-2.8748,2.6054-3.1528,.4881-.7083-.1501-.8179-1.7325-.2975-1.3743,.4519-2.5764,.9959-3.9538,1.7893-2.2867,1.3172-3.6047,2.3023-4.5226,3.3803-.5298,.6222-1.3725,1.8688-1.8489,2.7351-.4337,.7886-.4217,.8311-.1621-.576,.2702-1.4643,.611-2.8504,.9642-3.9223,.5969-1.8111,1.6308-3.8476,2.9424-5.7955,.681-1.0114,.9431-1.2973,1.6641-1.8155,1.1188-.804,3.0985-2.3988,3.6304-2.9247,.6724-.6647,1.3598-1.6138,2.1338-2.9461,1.9158-3.2979,3.4167-6.2417,3.8809-7.6116,.1833-.5409,.2241-1.0066,.1007-1.1477-.0385-.044-.0868-.121-.1021-.1627-.0355-.0967-.1064-.1046-.1576-.0176h0Zm.0568,.7299c-.1036,.4844-.4285,1.2312-1.2012,2.7615-.6654,1.3176-2.1986,4.0938-3.0478,5.5185-.5871,.985-1.241,1.8796-1.8352,2.5108-.231,.2455-1.6311,1.4347-2.3176,1.9687-.1948,.1515-.5394,.4296-.7711,.6225-.5572,.4635-.5986,.4823-.3457,.1571,.1163-.1495,.5781-.7431,1.0229-1.3147,.8828-1.1345,1.186-1.5593,1.3749-1.926,.254-.493,.1269-.4529-.2929,.0924-.1807,.2346-.6572,.8113-1.0594,1.2818-.4022,.4705-1.0288,1.2232-1.3929,1.6731-.363,.4485-.6679,.8119-.675,.8047-.0448-.0451,1.5576-3.7684,2.0495-4.7622,1.2101-2.4448,2.1876-3.7917,4.4389-6.1165,2.9594-3.056,3.1377-3.2302,3.6209-3.5355,.1807-.1141-.6503,1.1391-1.2713,1.9174-.823,1.0315-1.6341,2.1502-2.3527,3.2451-.3867,.5892-1.0161,1.5209-1.3961,2.0667-.9185,1.3192-1.0777,1.566-1.0777,1.671,0,.0483,.0221,.0744,.049,.0578,.1442-.0885,1.8343-2.4235,2.69-3.7163,.535-.8083,1.4944-2.1502,2.1912-3.0648,.2307-.3028,.5869-.8113,.7932-1.1323,.2063-.321,.4715-.7317,.5906-.9146,.1747-.2682,.2222-.3155,.2474-.2462,.0172,.0474,.003,.2177-.0318,.3804h0Zm-15.1259,13.6357c.1552,.4397,.2994,.9541,.3562,1.2708,.2271,1.2664,.3399,3.4356,.2387,4.5907-.1121,1.2796-.93,5.5654-1.0002,5.2415-.0136-.0627-.0487-.5628-.0778-1.1081-.0535-1.0018-.111-1.583-.279-2.8186-.1303-.9578-.1871-1.7369-.2358-3.232-.0268-.8223-.0771-1.5651-.1342-1.9831-.0502-.3667-.1388-1.1169-.1964-1.6621-.1102-1.0428-.1092-1.1433,.0358-3.5793l.0246-.4134,.5037,1.4775c.2773,.8135,.6209,1.8095,.7645,2.2162h0Zm-1.5066-2.4712c-.0281,.4441-.063,1.0491-.0773,1.3411-.0259,.5293,.0555,1.9744,.1892,3.3639,.0379,.3933,.0686,1.1477,.0686,1.6841,0,1.3971,.0545,2.0843,.328,4.1378,.0525,.3941,.1376,1.3609,.1891,2.148,.0515,.7871,.1147,1.647,.1404,1.9106,.0258,.2638,.0358,.4902,.0223,.5035-.0134,.0132-.0245,.0022-.0245-.0242,0-.0266-.1712-.3254-.3805-.664-.4376-.7079-1.0752-1.9783-1.3219-2.6339-.6173-1.6404-.8929-4.0147-.6665-5.7428,.1187-.9067,.4942-2.6823,.9373-4.4324,.2182-.8619,.4457-1.7988,.5044-2.0777,.0593-.2814,.115-.4667,.1248-.4155,.0098,.0507-.0053,.4573-.0334,.9014h0Zm13.1206,7.1048c-.1147,.1041-1.6627,1.1712-2.7458,1.893-1.0609,.7069-1.3358,.9267-1.159,.9267,.1895,0,2.2198-1.2747,3.615-2.2697,.3566-.2543,.6543-.4541,.6642-.4456,.0098,.0084-.1314,.1825-.312,.3847-.1822,.2041-.5932,.6794-.9182,1.0619-.3228,.38-.9817,1.1411-1.4598,1.6863-.4781,.5453-1.1787,1.3471-1.5522,1.7765-1.4647,1.6841-3.2582,3.4999-3.9952,4.0448-.5896,.4359-1.1144,.7569-2.0103,1.2296-.3878,.2046-.8926,.4815-1.1233,.6162-.3716,.2169-.5082,.3196-.9718,.7312-.1248,.1108-.1293,.1114-.1293,.018,0-.0527,.0324-.1287,.0713-.1671,.0378-.0372,.0713-.1055,.0713-.1451,0-.1965,.6198-1.2312,1.1933-1.9919,1.1001-1.4594,2.4262-2.729,6.3221-6.0523,.1516-.1293,.2627-.2497,.2461-.2665-.0652-.0662-1.4808,.9986-2.9428,2.2135-1.0743,.8927-2.5408,2.2768-3.1337,2.9576-.5031,.5776-.9897,1.2356-1.3431,1.8161l-.2972,.4881,.0223-.2748c.0121-.1499,.0334-.4287,.0468-.6134,.0238-.3288,.0396-.365,.5455-1.2488,1.6862-2.9462,2.8623-4.1477,5.8666-5.9936,1.7072-1.0489,2.5608-1.4781,3.9672-1.9947,.8648-.3176,1.6051-.5104,1.4621-.3806h0Zm-12.0285,10.5786c-.0181,.1275-.0426,.2262-.0535,.2155-.0111-.011-.0062-.1253,.0111-.2572,.0173-.1319,.0411-.2277,.0535-.2155,.0121,.0119,.007,.1297-.0111,.2572h0Zm-5.784,1.2686c.3776,1.0254,.4157,1.1565,.6385,2.1942,.1715,.7987,.4326,1.5434,.8744,2.4932,1.0288,2.2118,1.5015,3.2724,1.758,3.9443,.3643,.9542,.6469,1.8002,.7582,2.269,.0845,.3562,.2033,1.2673,.1697,1.3016-.0095,.0097-.0432-.0616-.0749-.1583-.1271-.388-.5331-1.0773-.9194-1.561-.5618-.7035-1.7289-2.4487-2.0438-3.0561-.1436-.277-.3326-.7078-.4224-.963-.2785-.7915-.8098-2.9445-.917-3.7156-.0601-.4327-.3165-2.9681-.357-3.5309l-.0301-.4178,.0958,.0924c.0535,.0516,.261,.5409,.4698,1.1081h0Zm.8916,.3474c1.2836,1.6665,2.2405,3.2196,2.8559,4.6347,.3187,.7327,.4337,1.1389,.7076,2.4976,.2844,1.4108,.2854,1.4599,.0802,3.8344l-.0596,.6904-.0342-.365c-.0723-.7701-.3252-1.693-.8293-3.0253-.3498-.9247-.6717-1.6358-1.5363-3.3947-.91-1.8512-1.0997-2.3509-1.3468-3.5485-.0749-.3628-.2371-.9015-.4172-1.3851-.4077-1.0949-.4049-1.0733-.0943-.7475,.1463,.1534,.4471,.5145,.674,.8091h0Zm14.9819,1.6358c0,.012-.0958,.0867-.2117,.1649-.1157,.078-.4413,.3255-.7176,.5453-.2764,.2198-.7325,.559-1.0052,.7476-.4992,.3453-.5966,.4594-.3922,.4594,.1271,0,1.0609-.5929,1.5913-1.0104,.205-.1614,.3533-.2637,.3324-.2296-.093,.1525-1.0018,1.4423-1.2828,1.8204-.3842,.5172-.9244,1.1521-1.6873,1.9831-.7411,.8074-1.1467,1.1905-2.0115,1.8999-1.1374,.9329-1.6582,1.2964-3.2985,2.3019-1.1678,.7159-1.6878,1.0587-1.939,1.2782-.1115,.0974-.2132,.1712-.2229,.1617-.0099-.0098,.0466-.1693,.127-.3584,.0802-.1887,.2284-.5782,.3321-.8729,.1037-.2946,.3057-.7479,.4528-1.0158,.5011-.9125,1.4684-1.7437,3.9868-3.4259,1.569-1.048,2.583-1.7947,2.4828-1.8284-.0296-.0099-.205,.094-.3922,.2324-.5704,.4215-1.4576,1.005-2.5809,1.6974-1.5824,.9754-2.4984,1.6508-3.1432,2.3176-.4648,.4806-.9112,1.2576-1.1671,2.0315-.0742,.2242-.1433,.3947-.1552,.3825-.0212-.0218,.2347-1.1037,.3401-1.4379,.1656-.525,.7258-1.3588,1.8321-2.7263,1.57-1.9407,2.7034-2.8582,4.8207-3.9025,1.0762-.5308,1.4665-.6629,3.04-1.0288,.4636-.1078,.8485-.1988,.8558-.2025,.008-.0039,.0134,.0022,.0134,.0154h0Zm-13.3412,17.6636c-.028,.0528-.0596,.0923-.0736,.0923-.014,0-.0025-.0395,.0267-.0923s.0608-.0924,.0736-.0924c.0127,0,.0013,.0396-.0267,.0924h0Zm-.3438,.6332c-.2174,.4266-.9113,1.4462-1.0069,1.4797-.0166,.0059-.0624-.0089-.0981-.0317-.1181-.0753-.013-.252,.5347-.8984,.2981-.3518,.5984-.7334,.6643-.8442,.2097-.3526,.1659-.2155-.0941,.2946h0Z" style="fill:#b15026; stroke:#b15026; stroke-linecap:round; stroke-linejoin:round; stroke-width:.5px;"/><path d="M62.5859,69.8989c.0533,.2526,1.2366,2.674,1.534,3.1392,.1475,.2307,.7075,1.0105,1.249,1.7391,.5415,.7287,1.1657,1.5764,1.3922,1.8906,.4168,.5784,1.2404,1.6021,1.6115,2.0032,.1118,.1208,.1995,.23,.1949,.2425-.0046,.0124-.2271,.0492-.4905,.0811-1.0386,.1258-2.8277,.5529-3.5043,.8366-.3546,.1486-1.7209,.9791-1.9613,1.192-.1314,.1164-.1873,.3148-.1341,.476,.0797,.2414,1.3916,1.229,2.5908,1.9504,2.3673,1.424,4.1469,2.1265,6.4589,2.5496,2.4001,.4392,4.176,.4809,6.7192,.1576,.4741-.0603,1.5091-.1916,2.301-.292,1.6933-.2146,2.3675-.3302,3.9026-.669,1.5146-.3343,1.7731-.4044,1.8046-.4893,.042-.1133-.0221-.2093-.177-.2652-.0796-.0287-.1422-.0771-.142-.1098,.0002-.0357-.1399-.1218-.3595-.221-.2236-.101-.4677-.252-.6448-.3988-.1558-.1292-.4962-.409-.7512-.6175-.2549-.2085-.6094-.5315-.7822-.713-.1736-.1822-.5422-.541-.8179-.796-.2761-.2555-1.0308-.9833-1.6782-1.6184-1.9943-1.9565-3.1832-2.9535-4.4644-3.7433-1.5575-.9602-6.2801-3.4544-8.4939-4.4859-1.4974-.6977-3.8878-1.7271-4.6699-2.011-.4601-.167-.5006-.1744-.5973-.1089q-.1308,.0886-.0902,.2812h0Zm.9905,.3995c.2302,.1011,1.1193,.4696,1.9768,.8193,3.0962,1.263,5.1396,2.2395,7.7695,3.713,.8489,.4756,2.4617,1.4403,2.9175,1.745,.9216,.6161,2.4097,1.8731,3.5638,3.0104,.9003,.8873,1.8768,1.8119,2.4908,2.3585,.3212,.2859,.6705,.6107,.7801,.7252,.1082,.1131,.3073,.2977,.438,.4061,.1307,.1085,.2322,.2013,.2233,.2043-.0247,.0084-1.6886-.8095-2.2281-1.0953-.2626-.1391-1.0156-.5764-1.6793-.9753-1.5875-.9542-1.832-1.0717-3.1864-1.5318-1.2225-.4152-1.6182-.5012-2.8374-.6168-.9124-.0865-3.6915-.1924-4.4601-.17l-.2543,.0074-.4547-.5082c-.2517-.2813-.5956-.6769-.7703-.8862-.3747-.4488-3.0509-4.0503-3.3438-4.4999-.2208-.3389-1.4035-2.782-1.3789-2.8484,.0093-.025,.1806,.0313,.4337,.1424h0Zm-.3871,10.8677c.1652-.0958,.4493-.2687,.6231-.3792,.7702-.4897,1.2051-.6574,2.4674-.9515,1.0442-.2432,1.7633-.3735,2.3251-.4212l.4263-.0362,.4876,.4899c1.7698,1.7782,3.3971,2.743,6.5486,3.8824,1.3183,.4767,1.8457,.6177,3.0832,.8244,1.6851,.2815,2.509,.3374,4.5231,.3072,.1957-.0029,.3253,.0072,.2906,.0228-.1722,.0774-1.776,.3226-3.4867,.5331-3.9337,.4841-4.2458,.5119-5.5657,.4951-2.3147-.0295-5.161-.5974-6.9604-1.3887-1.616-.7107-3.3877-1.762-4.5556-2.7034-.2229-.1797-.4317-.3465-.4687-.3744-.0994-.0751-.0714-.1071,.2621-.3005h0Zm8.1258-1.7775c3.1026,.0932,3.9228,.2106,5.5346,.7921,.9186,.3314,1.1689,.4573,2.5801,1.2981,1.6019,.9544,2.5159,1.42,4.9663,2.5301,.4714,.2135,.8796,.4077,.9119,.4338,.0937,.0757-.0614,.076-3.0919,.0056-1.1959-.0277-2.6314-.2123-4.0818-.5248-.8454-.1821-3.4555-1.1258-4.4447-1.6069-1.3551-.6591-2.3057-1.2754-3.2066-2.0791-.6884-.6141-.9247-.8684-.821-.8836,.047-.0069,.7894,.0087,1.6531,.0346h0Z" style="fill:#b15026; stroke:#b15026; stroke-linecap:round; stroke-linejoin:round; stroke-width:.5px;"/><g><path d="M105.1866,.2777c-.5473-.0703-1.2283-.0018-1.4902,.1498-.2146,.1242-.3798,.3542-.5522,.7688-.1394,.3354-.3678,1.1541-.3539,1.2686,.0062,.0511-.0402,.0756-.173,.0913-.1669,.0198-.2062,.0554-.4893,.4432-.2143,.2936-.3551,.5491-.4634,.8409l-.1556,.4192-.0492-.1713c-.0748-.2602-.5246-.8945-.9272-1.3075-.5574-.5718-1.0886-.9678-1.4641-1.0914-.4817-.1587-1.0377-.2312-1.437-.1875-.3259,.0357-.377,.0562-.7428,.2974l-.3928,.259-.2394-.1227c-.5075-.2602-1.2284-.3446-1.676-.1962-.3193,.1059-.706,.3987-.937,.7095-.2587,.3483-.8584,1.5055-1.0465,2.0193-.3266,.8926-.4557,1.8343-.3824,2.7911,.052,.6799,.1773,1.2412,.4428,1.9848,.0956,.2677,.1682,.4954,.1606,.5036-.0077,.0083-.1017-.0743-.2111-.1854-.1087-.1104-.5879-.497-1.0677-.8613-.6331-.4807-.9539-.6925-1.1764-.7766-.4423-.1673-1.2641-.3561-1.6349-.3757-.8133-.0429-1.523,.4531-1.7831,1.2465-.0634,.1935-.1746,.4205-.2483,.5075-.2263,.2666-.5691,.8913-.6812,1.2411-.1565,.4883-.31,1.4007-.327,1.9431-.0185,.5912,.1191,1.8412,.244,2.2165,.1489,.4474,.5953,1.3776,.8307,1.7308,.1185,.1778,.3703,.492,.5576,.6957l.3415,.3715-.0118,.3601c-.0133,.4069,.0945,.9233,.3349,1.6034,.076,.215,.2459,.7592,.3773,1.2087,.2774,.9485,.4231,1.3184,1.2436,3.1566,.4164,.9329,2.3534,2.8969,4.506,4.5687,1.1628,.9031,1.7272,1.2534,2.6049,1.6167,1.0858,.4495,3.3188,.895,4.394,.8768l.3047-.0052,.2851,.3693c.1567,.2029,.3519,.4591,.4333,.5687,.3206,.4314,1.1611,.9313,1.7586,1.046,.1885,.0362,.343,.0886,.3465,.1177,.0097,.0799,.4551,.3834,.6363,.4336,.1564,.0433,.1591,.048,.269,.4868,.1572,.627,.4612,1.2253,1.993,3.9227,1.1712,2.0625,2.0816,4.0466,2.4979,5.4441,.4537,1.5233,.5067,1.8178,.876,4.8698,.4305,3.5585,.5158,4.6063,.5251,6.4525,.0135,2.6822-.0979,4.5682-.369,6.2483-.0823,.5102-.182,1.1798-.2221,1.4922-.1231,.9579-.3752,2.2902-.5719,3.0216-.3337,1.2411-.5478,2.2571-.7742,3.6744-.137,.8577-.3328,1.8073-.5007,2.4286-.0934,.3455-.2087,1.0876-.4711,3.0319-.065,.4816-.1694,1.0997-.2329,1.3783-.119,.5227-.2519,1.7127-.3783,3.3885-.1311,1.7383-.1514,2.642-.0896,3.9876,.0425,.925,.4933,4.6516,.6571,5.4316,.0731,.3482,.3045,1.1464,.5349,1.8455,.4466,1.3552,.5189,1.595,.9531,3.1645,.1649,.5961,.4122,1.391,.5515,1.7727,.1394,.3821,.3113,.8616,.3838,1.0706,.0719,.2073,.24,.6293,.3715,.9326,.1323,.3051,.4871,1.1315,.7898,1.8397,.704,1.6469,1.1042,2.4291,2.6237,5.128,.3249,.5771,.7759,1.4095,1.0056,1.8562,.5365,1.0433,1.1547,2.153,2.3329,4.1881,.2784,.4808,.7378,1.1723,.8349,1.2564,.0449,.039,.1126,.0708,.1429,.0673,.0324-.0038,.087,.0207,.1248,.0561,.1211,.1132,.1565,.0568,.042-.067-.0614-.0664-.2005-.273-.312-.4635-.1105-.1888-.5156-.8734-.8989-1.519-1.0712-1.8042-1.3955-2.3842-2.0485-3.6638-.3325-.6515-.8265-1.5828-1.1007-2.0753-.8352-1.4999-2.2225-4.2294-2.1785-4.2861,.0192-.0247,.4965,.8181,.9661,1.7059,.1915,.362,.6308,1.0857,.9755,1.6073,.3448,.5216,.7514,1.1534,.9031,1.4033,.3211,.5289,1.1793,2.1049,1.16,2.1302-.0081,.0106-.0516-.047-.0953-.126-.3653-.6609-.9851-1.5281-.9631-1.3475,.0012,.0096,.1592,.2735,.3493,.5832,.1914,.3119,.5582,.9658,.8176,1.4577,.6498,1.232,.8718,1.6196,1.7672,3.0859,.8651,1.4167,1.1961,1.9256,1.2772,1.9634,.0333,.0156,.074,.0044,.0977-.0269,.0278-.0366-.126-.3128-.4858-.8726-.6403-.996-1.2193-1.9247-1.5454-2.4788-.2778-.472-1.1948-2.1482-1.1823-2.1612,.0173-.018,1.2646,1.9123,1.756,2.7178,.2747,.4502,.52,.8318,.5424,.8437,.0225,.012,.1965,.3045,.3889,.6537,.4879,.8856,.8133,1.3918,.889,1.3828,.0348-.0041,.0583-.0379,.0535-.0772-.0135-.1108-.3577-.7327-.789-1.4257-.2182-.3506-.4183-.7-.4466-.7798-.0279-.0787-.1295-.2836-.223-.4497-.0935-.1661-.1647-.3141-.1562-.3247,.0326-.041,1.2941,1.8221,1.6907,2.497,.1533,.2609,.2523,.2639,.1779,.0055-.1232-.4281-.5559-1.1654-1.9226-3.2756-1.2034-1.8581-1.8997-3.0835-3.6009-6.3366-1.1694-2.2361-1.6668-3.3015-2.6336-5.6406-.5532-1.3384-1.7664-4.4937-1.9855-5.1637-.5797-1.7732-.8971-3.3394-1.233-6.0853-.2249-1.8379-.2784-2.595-.2834-4.0099-.0015-.4205-.0128-1.0282-.025-1.3478-.0478-1.2453,.0698-2.3688,.4152-3.9686,.1011-.4681,.2011-1.0506,.2212-1.2884,.0545-.6442,.1481-1.3112,.252-1.7969,.0508-.2373,.1571-.7803,.2361-1.206,.0879-.4734,.2551-1.1196,.4302-1.6629,.56-1.7375,.6948-2.3453,1.0488-4.73,.1157-.7795,.3461-2.2111,.5107-3.1738,.6393-3.7382,.7665-4.8251,.7725-6.6017,.0049-1.4577-.0198-1.7382-.4763-5.4087-.5423-4.3601-.8329-6.1816-1.165-7.3024-.4301-1.4518-1.5515-3.8067-2.6513-5.5676-.8782-1.4063-1.4299-2.3779-2.0098-3.5399l-.1148-.23,.1974-.075c.2103-.0798,.5184-.3762,.5478-.527,.0118-.0606,.0872-.121,.2074-.1663,.1044-.0393,.333-.1415,.511-.2284,.5211-.2546,.8918-.7436,1.1991-1.5816,.1562-.4259,.48-.8808,.7556-1.0615,.4557-.2987,1.3969-1.195,1.8349-1.7473,.3731-.4703,1.4208-2.0813,1.6788-2.5813,.4221-.818,1.054-2.4764,1.3058-3.4274,.1962-.7407,.4703-2.1251,.5182-2.6167,.0463-.4751,.0339-1.1289-.0387-2.0415-.1429-1.7989-.1529-2.2588-.0769-3.5516,.0658-1.1194,.0322-1.7737-.1393-2.7072-.2609-1.4205-.5023-2.1106-1.3356-3.819-.5699-1.1682-.9038-1.747-1.576-2.732-1.2165-1.7825-2.073-2.5919-3.4992-3.3063-1.1186-.5604-1.9961-.8583-2.8518-.9681h0Zm-1.161,.3472c.3121-.1285,.3811-.113,.5729,.1292,.2713,.3426,.4025,.5857,.5865,1.0865,.4257,1.1587,.4772,1.6093,.2979,2.6087-.1493,.8326-.1729,1.3102-.0961,1.9423,.1157,.9512,.3372,1.4968,1.0244,2.5227,.3903,.5827,.3966,.5962,.2313,.4937-1.0613-.6585-1.1249-.6856-3.1954-1.3568-.7758-.2515-1.6242-.4717-1.7569-.456-.072,.0085-.0838-.0476-.1228-.5878-.0711-.9837,.0822-2.2327,.3706-3.02,.1017-.2778,.4518-.8867,.5154-.8967,.02-.0031,.0422,.0513,.0512,.1255,.022,.1811,.4607,1.9251,.5549,2.2063,.0428,.1278,.1006,.2317,.1272,.2285,.0285-.0034,.0319-.0569,.0082-.1294-.1005-.307-.6011-2.6412-.5737-2.6751,.0736-.0913,.2315,.1779,.3847,.6558,.2052,.6401,.2858,.8342,.3434,.8274,.0245-.0029,.0278-.0498,.0074-.105-.0202-.0548-.112-.3853-.2036-.7332l-.1668-.6335,.0718-.3096c.1489-.6421,.4471-1.3802,.6841-1.693,.0677-.0894,.198-.1953,.2835-.2305h0Zm1.0063,.0868c-.0917-.1043-.1399-.1906-.1079-.1932,.0318-.0026,.2878,.0409,.5684,.0965,1.196,.2368,2.7839,1.0006,3.7722,1.8146,.8831,.7274,2.0934,2.3387,3.0122,4.0103,.4,.7277,1.1734,2.3791,1.362,2.9079,.4802,1.3471,.7014,2.7344,.6263,3.9295l-.0216,.3436-.0976-.7635c-.1523-1.191-.5171-2.9358-.6325-3.0253-.0659-.0511-.0507,.0724,.07,.5675,.0729,.299,.2383,1.2074,.3686,2.0246,.2253,1.4127,.2368,1.5248,.2456,2.389,.0051,.4983,.0462,1.3852,.0912,1.9688,.1084,1.4044,.1255,1.7632,.1082,2.2725-.0172,.506-.2051,1.561-.4513,2.5335-.2913,1.1505-1.0199,3.0596-1.4905,3.9054-.2823,.5073-1.3615,2.1284-1.6214,2.4354l-.1766,.2087,.161-.2538c.8095-1.2759,1.7366-3.2037,2.2516-4.6819,.523-1.5012,.8617-2.7688,.8235-3.0824-.0229-.188-.0591-.0949-.1786,.4596-.1996,.9256-.8806,2.8456-1.4544,4.1004-.987,2.1584-1.7177,3.3453-2.7358,4.4437-.2811,.3033-.48,.4456-1.586,1.1344l-.1753,.1092,.1024-.1361c.1243-.1653,.3343-.314,.4402-.3119,.0853,.0017,.4511-.3884,1.3472-1.4366,.7232-.8459,1.0385-1.2666,1.3514-1.8027,.8178-1.4013,1.2882-2.6281,1.8502-4.8248,.5395-2.1088,.6284-2.8158,.718-5.7095,.0733-2.3692-.1018-4.1311-.6261-6.2988-.0812-.3359-.1702-.6287-.1974-.6498-.0661-.0513-.0596-.0107,.1374,.8518,.2147,.94,.5554,3.6071,.5579,4.3671,.0048,1.483-.1052,4.1725-.2026,4.9532-.1406,1.1264-.7089,3.3169-1.2387,4.7746-.1884,.5183-.3606,.9671-.3818,.9952-.0212,.028,.095-.3323,.2576-.7989,.6631-1.9019,.9618-3.5461,.9926-5.463,.0122-.76-.1502-2.3959-.3376-3.4012-.282-1.5123-.8722-3.8043-1.0039-3.8984-.0702-.0501-.076-.0793,.2943,1.4712,.8723,3.6524,1.0182,5.6443,.611,8.3423-.2783,1.8443-1.0425,4.0568-1.9217,5.564-.3267,.5602-1.0301,1.4642-1.5728,2.0217l-.3193,.328,.2975-.4072c.8783-1.2023,1.8976-2.9811,2.2404-3.91,.1829-.4955,.7926-2.4942,.855-2.8027,.3693-1.8257-.0186-5.2459-.8183-7.215-.2546-.627-.3731-.8505-1.0631-2.0044-.9496-1.5883-1.0179-1.6707-2.086-2.5167-.4183-.3314-.7861-.6554-.8132-.7164-.0274-.0616-.2566-.4457-.5122-.8584-.7645-1.2337-.9433-1.71-1.0146-2.7011-.0432-.6011-.0216-.8256,.1614-1.6799,.2111-.9851,.1457-1.6514-.2703-2.7537-.1935-.513-.3262-.7534-.5664-1.0269h0Zm-8.0605,1.379c.2338-.1444,.5007-.281,.5917-.3029,.3125-.0752,1.1848,.0704,1.5718,.2624,.2442,.1212,.83,.6163,1.284,1.0851,.3616,.3735,.6966,.8636,.8597,1.2579l.1397,.3378-.0663,.5836c-.0892,.7856-.0921,.9056-.0398,1.6212l.0449,.6147-.7469,.0972-.7469,.0973-.4099,.2655c-.2248,.1456-.5117,.3716-.635,.5003-.1235,.1288-.2688,.2419-.3219,.2507-1.2236,.2007-1.7061,.4398-2.295,1.137-.1701,.2014-.458,.5164-.6379,.6981-.1799,.1817-.3763,.4077-.4351,.501-.0605,.0957-.1189,.1713-.1338,.173-.0145,.0017-.1048-.1559-.1995-.3484-.0947-.1925-.193-.3492-.2172-.3463-.049,.0058-.0337,.0483,.1975,.548,.1496,.3233,.1545,.3475,.0994,.4909-.0321,.0835-.0647,.1447-.0731,.1371-.0083-.0075-.2611-.4142-.5603-.9014-.7885-1.284-1.1739-2.0842-1.5719-3.264-.1365-.4046-.1452-.461-.126-.8222,.0217-.41,.1215-1.0883,.1994-1.3566,.0439-.151,.0534-.1215,.1599,.4948,.198,1.146,.4248,1.8231,1.0828,3.2333,.2605,.5582,.3723,.7393,.3517,.5696-.0053-.0433-.1746-.4709-.3769-.9519-.6069-1.4428-.8016-2.1312-.9515-3.364l-.0796-.6549,.1275-.3339c.1204-.3154,.7466-1.5669,.8075-1.6136,.0158-.0122,.076,.3399,.1341,.7847,.1935,1.4829,1.0507,4.672,1.2494,4.6485,.0264-.0031,.0294-.0522,.0067-.1071-.3608-.8697-1.1674-4.3583-1.1932-5.16-.013-.4059,.0075-.4466,.335-.6647,.2851-.1899,.6443-.2393,1.1216-.1544l.3442,.0613,.1477,1.0299c.1105,.7708,.1645,1.0424,.2143,1.0796,.0547,.0408,.0497-.0568-.0279-.5436-.052-.326-.1057-.7926-.1192-1.0355l-.0246-.4422,.1578,.0424c.1888,.0507,.1817,.0326,.418,1.072,.1715,.7547,.2228,.9177,.2702,.8582,.0182-.0229-.1652-1.0478-.2863-1.6003l-.0662-.3022,.4259-.263h0Zm-8.8046,5.827c.318-.1227,.3661-.127,.7861-.07,.585,.0794,.6474,.1109,1.2308,.622,1.1623,1.0184,2.2156,2.1676,2.8269,3.0845,.3585,.5378,.4988,.6457,.2544,.1958-.5122-.9429-1.8808-2.4789-3.0233-3.3934-.4146-.3318-.4198-.3383-.2291-.2853,.3986,.1107,.6273,.2482,1.6081,.967,.8182,.5996,1.0506,.7954,1.248,1.0514,.1346,.1745,.294,.3814,.3582,.4647,.6939,.9011,1.1685,1.55,1.2552,1.716l.1066,.2044-.1193,.5876c-.1162,.5717-.1213,.5841-.1903,.4587-.1004-.1824-.1198-.0478-.026,.1802,.0622,.1514,.0704,.2663,.0438,.6193l-.0326,.4335-.2435-.5159c-.3543-.7508-1.1979-2.1315-1.6023-2.6226-.2769-.3363-.1624-.1048,.3434,.6946,.6362,1.0053,1.0028,1.6713,1.2793,2.3242l.2108,.4977-.0683,.854c-.0926,1.158-.0664,1.5822,.126,2.04,.1365,.3249,.3986,1.1882,.3711,1.2227-.0064,.008-.0713-.0668-.1428-.1647-.3307-.4524-.9719-1.1472-1.4408-1.5612-.2839-.2506-.7877-.7172-1.1279-1.0445-.7091-.6823-.978-.8644-1.6785-1.1373-.4477-.1744-.5409-.1945-.7745-.1668-.2523,.0299-.276,.0437-.4736,.2775-.1139,.1346-.2328,.3101-.2627,.3876l-.0546,.1415-.1595-.2778c-.0881-.1536-.3794-.553-.651-.8929-.7858-.9832-.9179-1.1654-1.0763-1.4847-.2689-.542-.3774-.9385-.474-1.7331l-.0897-.7379,.1244-.3247c.0693-.181,.205-.4549,.3064-.6186l.182-.2939,.239,.3592c.1311,.1971,.2679,.3638,.303,.3693,.0415,.0066,.0147-.0637-.0759-.1992-.0768-.1149-.1888-.3034-.2483-.4179-.1041-.2003-.1056-.2127-.0377-.31,.0404-.0579,.0831-.1028,.0995-.1048,.0158-.0019,.1055,.1292,.1989,.2909,.3427,.5928,.9518,1.4008,.9318,1.2361-.0012-.0096-.1296-.2193-.2857-.4666s-.3968-.6418-.5355-.8778c-.2507-.4265-.2516-.4295-.2008-.6295,.1087-.4275,.4322-.7722,.891-.9493h0Zm4.531,.7461c-.0627-.2893-.1223-.6548-.1335-.819l-.0203-.2965,.2015,.5563c.3127,.8634,.7313,1.716,1.2639,2.5741,.6939,1.1181,.7485,1.216,.7272,1.3046-.0136,.0565-.065,.0121-.1894-.1636-.0934-.1319-.3627-.4753-.5944-.7578-.7712-.9407-1.0579-1.4885-1.2549-2.398h0Zm7.0389-.3347l.3658-.2404,.6715-.0898c.9175-.1227,1.2384-.0794,2.5195,.3401,.2413,.079,.7618,.2466,1.1541,.3715,.3923,.125,.8613,.302,1.0399,.3924,.6491,.3287,1.5681,.9399,2.3805,1.5833,.9451,.7486,1.0619,.8885,1.6592,1.987,1.2623,2.3219,1.7557,3.809,2.0403,6.1492,.1513,1.2443,.1495,2.2198-.0058,3.1141-.1194,.6876-.8906,3.0283-1.248,3.7881-.4214,.8957-1.4207,2.5717-2.0199,3.3878-.2065,.2813-.4757,.6799-.6014,.8905-.3442,.5768-.3512,.5825-.8985,.7339l-.2041,.0565,.1195-.1802c.066-.0996,.3531-.5267,.6419-.955,.7138-1.0588,1.0823-1.6676,1.4494-2.3947,1.1967-2.3705,1.7071-4.4757,1.7411-7.1813,.0108-.8604-.073-2.2751-.1379-2.3265-.0671-.0531-.0706,.0792-.0249,.9596,.1237,2.3813-.1613,4.4585-.8968,6.5366-.5652,1.5969-1.1568,2.71-2.6252,4.9386-.193,.293-.3352,.5525-.3191,.5825,.0219,.0409-.064,.0643-.352,.0957-.5317,.058-.5976,.042-.7253-.1764-.0605-.1036-.0879-.1772-.0616-.1658,.0714,.0311,.0697-.1629-.0147-1.6941-.135-2.4508-.4307-4.3246-.6777-4.2954-.0258,.003-.0242,.0471,.0039,.1058,.1039,.217,.359,2.3092,.4488,3.6803,.0498,.7603,.1068,1.5501,.1264,1.7521l.0357,.3678-.2361-.4371c-.8209-1.5193-1.4847-2.7849-1.8174-3.4652-.3501-.7159-.4954-.962-.4766-.8072,.0257,.2107,1.3705,3.1195,1.9531,4.2242,.0857,.1626,.147,.3005,.1383,.3114-.0436,.0547-.7847-.7796-1.3884-1.5629-.7695-.9984-2.1881-3.0358-2.6696-3.8338-.0898-.1488-.1827-.2707-.2044-.2681q-.0575,.0068,.2021,.4765c.4275,.7734,1.6596,2.6159,2.5278,3.7798,.5251,.704,1.1567,1.3983,1.4987,1.6475,.3005,.2189,.4352,.3808,.3259,.3915-.1153,.0113-.6609-.0727-.7229-.1114-.2666-.1662-1.6704-1.6477-2.3535-2.4836-1.1979-1.4659-2.5179-3.3841-3.0436-4.4229-.4491-.8872-.5433-.8658-.121,.0276,.3274,.6926,.6443,1.2302,1.2887,2.1858,1.0648,1.5791,2.2556,3.0537,3.3232,4.1152,.1259,.1252-.1127-.0111-.5249-.2999-.9832-.6888-3.0805-2.7854-4.1209-4.1194-.2973-.3811-.5578-.7009-.5787-.7103-.1028-.0459,.0019,.1364,.376,.6546,.8454,1.171,2.2916,2.7394,3.4611,3.7535l.4,.3468-.3287-.1921c-.4476-.2616-1.5338-1.0844-1.9358-1.4664-.1793-.1704-.4927-.4598-.6928-.6399-.4942-.4448-.9194-.9452-1.7916-2.1087-.8875-1.1837-1.5767-2.2193-2.0821-3.1283l-.3766-.6773,.0152-.3162c.0209-.4365-.0402-.881-.1786-1.2986-.0634-.1914-.1742-.6792-.2448-1.0782-.0714-.4034-.1755-.8379-.2332-.9733-.1567-.368-.2172-1.0283-.2044-2.23,.0149-1.3968,.0491-2.0772,.1247-2.4816l.0618-.3306,.1835,.4655c.2542,.6446,.4209,.9865,1.3393,2.7467,.716,1.3724,2.0496,4.0048,2.722,5.3733,.2406,.4897,.3547,.6638,.3364,.5138-.0161-.1327-1.7699-3.7321-2.7869-5.7199-1.4209-2.777-1.4882-2.9292-1.5609-3.5266-.0557-.4584-.0528-.4944,.0644-.7915,.1686-.4274,.4423-.7884,.8095-1.0675,.3205-.2437,.3948-.2609,.4148-.096,.0198,.1623,.3693,1.0989,.7123,1.9087,.4663,1.1007,1.7765,3.8332,1.8347,3.8263,.06-.0071,.0893,.0647-.6776-1.6647-1.0001-2.2555-1.5284-3.5733-1.6748-4.1774-.0532-.2196-.0487-.2414,.0813-.3929,.339-.395,.6626-.6422,1.1256-.8597,.259-.1217,.5033-.2253,.5422-.2299,.1499-.0178,.6749,1.1425,.9795,2.1649,.1389,.4663,.2459,.6762,.215,.4219-.0527-.4334-.4632-1.6813-.7221-2.1953-.1242-.2466-.1413-.3094-.0944-.3476,.0327-.0267,.0742-.0486,.097-.0514,.0825-.0098,.6629,1.0332,1.3342,2.3975,.3356,.6822,.4257,.8322,.4668,.7774,.0516-.0691-1.066-2.478-1.4024-3.0228l-.1937-.3136,.2669-.242c.1456-.132,.4332-.3512,.6327-.4823h0Zm-13.7515,4.2801c.0097-.2669,.0413-.6101,.0705-.7679l.0529-.2853,.1034,.6166c.1706,1.017,.3939,1.4636,1.2731,2.5465,.2756,.3394,.6344,.8162,.7955,1.0573l.2936,.4391-.1166,.0935c-.0649,.0521-.1855,.1733-.272,.2735-.0866,.1003-.1634,.1722-.1733,.1622-.0098-.0098-.1491-.1684-.31-.353-.161-.1847-.298-.3087-.3052-.2761-.0071,.0323,.1157,.2387,.2708,.4551,.2721,.3797,.2817,.4017,.2312,.5351l-.0527,.1391-.3019-.3319c-.4269-.4691-.7014-.8957-.9956-1.5474-.2847-.6306-.4085-.9715-.4333-1.1932-.0132-.1185,.0138-.0858,.1334,.1614,.221,.4566,.4452,.8137,.4898,.7803,.0202-.0152-.0686-.2433-.1958-.5028-.1274-.2598-.3104-.7117-.4041-.9974-.1678-.5116-.1709-.5321-.1536-1.0049h0Zm.0686,1.3581c-.0182-.0333-.0209-.0719-.0065-.09,.0136-.017,.0283,.0099,.0318,.0583,.0038,.0527-.0067,.0659-.0253,.0318h0Zm3.3559,1.6755c.0017-.0827,.035-.1134,.1488-.1372,.0788-.0165,.1603-.0128,.1761,.0079,.0163,.0214,.0813,.1919,.1463,.3835,.2092,.617,.9287,2.0469,1.8278,3.6323,.306,.5395,.4406,.7307,.4778,.6786,.0095-.0133-.299-.6378-.6842-1.3849-.7746-1.5027-1.2793-2.5452-1.4318-2.9573l-.0989-.2673,.2521,.0797c.4728,.1494,.8341,.3897,1.4148,.941,.3065,.291,.8559,.7933,1.2136,1.1097,.5609,.4961,1.7159,1.7456,2.0777,2.2475,.0489,.0679,.0956,.2633,.1296,.5427,.0435,.358,.0379,.5177-.0313,.8872-.0737,.3934-.0759,.5205-.0175,1.0007,.1073,.8825,.3901,1.4641,1.3441,2.7639,1.0946,1.4914,1.8707,2.2628,3.0305,3.0121,.2543,.1642,.8357,.5773,1.2899,.9164,.4542,.3391,1.0686,.7567,1.3629,.9265,.5421,.3128,.5396,.3761-.0056,.1386-.6677-.2909-1.5-.7429-2.2592-1.2269-.4429-.2823-.829-.5052-.8546-.4933-.1224,.0567,2.578,1.7437,3.1094,1.9426,.1337,.05,.1217,.1146-.0135,.0731-.0466-.0143-.1268-.0267-.1693-.0262-.4553,.0059-1.927-.7097-3.4021-1.6543-.6183-.3959-1.1437-.7113-1.1671-.7004-.1657,.0768,1.7345,1.4532,2.6486,1.9185,.3302,.1681,.5928,.3101,.5862,.317-.0067,.007-.1111,.0095-.2372,.0058-.2624-.0078-.6043-.1705-1.4629-.6958-.6596-.4036-2.7859-2.0182-3.1701-2.4073-.2467-.2498-.3437-.3173-.3319-.2309,.0144,.1058,.6818,.7076,1.5326,1.382,.8362,.6628,1.5019,1.1401,2.1723,1.5576,.1721,.1071,.1701,.107-.1221-.0074-.8438-.3304-2.0343-.9403-2.5566-1.3097-.7837-.5543-1.7444-1.3514-2.4281-2.0146-.3947-.3829-.7381-.6921-.7649-.6889-.0603,.0071-.0465,.0232,.5237,.6112,.6589,.6794,1.2847,1.2326,2.0719,1.8316,.9771,.7434,2.0396,1.3036,3.7704,1.9878,.132,.0522,.1358,.0576,.0299,.043-.0669-.0092-.4119-.0833-.7721-.1658-.9855-.2256-2.2215-.8058-3.4233-1.6069-.4983-.3322-.5939-.3794-.5827-.2882,.0127,.1045,1.2042,.8574,1.9404,1.2262,.4924,.2466,.5526,.2952,.1842,.1485-.9338-.3719-1.4138-.6612-2.6354-1.5886-1.5728-1.194-2.919-2.4286-3.7511-3.4404-.4429-.5385-.5618-.7395-.8542-1.4445-.1313-.3166-.2955-.6905-.366-.8336-.2658-.5395-.4746-1.1352-.7573-2.1602-.1609-.5833-.2925-1.0702-.2929-1.0836-.0004-.0135,.1029,.1805,.2319,.4353,.4605,.9098,1.5192,2.5483,2.4883,3.8509,.6117,.8222,.6212,.8339,.6481,.8002,.0129-.0162-.4388-.7142-1.0061-1.555-1.4556-2.1573-1.9366-2.9718-2.3831-4.036q-.2814-.6709,.0586-1.4906c.0833-.2009,.2625-.4274,.5683-.7184,.0737-.0701,.1946-.251,.2716-.4063l.1388-.2799,.064,.1784c.3079,.8581,.4941,1.3144,.5344,1.3097,.0244-.0029,.0258-.0606,.003-.1288-.2606-.7796-.4374-1.3716-.4356-1.4587h0Zm5.9531,6.665c-.0438-.2561-.0711-.4699-.0601-.4712,.0109-.0013,.1517,.2389,.3132,.5342,.9276,1.6972,2.8586,4.2694,3.951,5.2633l.3619,.3292-.3075-.2027c-1.0775-.7102-1.9261-1.5614-3.0214-3.0306-.807-1.0825-1.1093-1.6743-1.2371-2.4223h0Zm16.1452,3.0054c.0214-.0557,.048-.0987,.0619-.1003,.0139-.0017,.0073,.039-.0154,.0948-.0227,.0558-.0492,.0988-.0619,.1003-.0127,.0015-.006-.0392,.0154-.0948h0Zm-7.778,5.2052c-.1031-.0852-.1294-.1287-.0814-.1343,.0652-.0077,.1707,.0684,.3535,.2549,.0704,.0718,.0683,.0758-.021,.0423-.0547-.0205-.1667-.0932-.251-.1629h0Zm-2.0522,.42c-.0552-.0776-.0441-.0856,.1506-.1086l.2102-.0249,.3056,.358c.3049,.3573,.8877,.8528,1.3651,1.1605l.2582,.1665-.2175-.0536c-.5646-.1391-1.1666-.5148-1.5811-.9869-.1832-.2086-.3536-.3883-.3813-.4022-.0269-.0135-.0778-.0639-.1097-.1088h0Zm.6902,.0047c-.0944-.1128-.0949-.1171-.0133-.1237,.151-.0123,.1853,.0103,1.1566,.7612,.5253,.4061,1.0314,.7817,1.13,.8385l.1786,.1029-.3228-.0703c-.5588-.1217-1.5663-.8355-2.1291-1.5085h0Zm1.3492,.6329c-.4598-.3476-.8146-.6342-.789-.6372,.0255-.003,.2202,.0569,.4314,.1328,.311,.1117,.4773,.2136,.8659,.5308,.2654,.2166,.6592,.4926,.8785,.6157,.3903,.2191,.3947,.2234,.2426,.2414-.2863,.0339-.7444-.2145-1.6294-.8836h0Zm3.965-.4734c.0845-.0704,.2672-.2209,.4019-.331l.2471-.202-.1004,.2112c-.4001,.8415-.7659,1.156-1.6865,1.4496-.6483,.2067-.6636,.2061-1.164-.0476-.3684-.1867-1.2305-.7907-1.1434-.801,.0146-.0017,.1565,.0318,.3143,.0742,.7843,.2108,2.2627,.1579,2.7401-.0979,.1307-.07,.3052-.1841,.3909-.2555h0Zm-2.9287,1.87c-.0016-.0131,.0118-.0211,.0335-.02,.3092,.0155,.8248-.0102,1.129-.0562,.3174-.048,.3706-.0465,.3085,.0085-.0404,.0358-.1521,.0971-.242,.1329-.2998,.1192-1.2125,.0709-1.2291-.0651h0Zm.7016,.9002c-.192-.5353-.1212-.5881,.1201-.0895,.5839,1.2064,1.265,2.4354,1.2921,2.3317,.0073-.0278-.081-.2251-.1976-.4416-.2131-.3955-1.0956-2.156-1.1004-2.1949-.0014-.012,.0372-.0266,.0859-.0323,.0664-.0078,.1018,.0322,.1417,.1604,.0793,.2545,.8243,1.798,1.1265,2.3335,.1479,.2621,.5313,.8937,.8503,1.4007,.8663,1.3767,1.8805,3.3487,2.3532,4.5755,.3933,1.0208,.5638,1.6405,.7258,2.6378,.1074,.6609,.1041,.6564-.1714-.2366-.1147-.3717-.3128-.9493-.4408-1.2853-.6443-1.6908-2.1953-5.1046-2.15-4.7323,.0032,.0264,.2256,.5358,.4926,1.1286,.5115,1.1352,1.3768,3.24,1.634,3.9741,.3336,.9526,.699,2.278,.8866,3.2166,.1675,.8379,.2141,1.1882,.317,2.385,.1445,1.6791,.2106,4.4989,.1362,5.8033-.0387,.6777-.2314,2.7877-.2327,2.5475-.0006-.1025,.0008-.6866,.0031-1.3024,.0041-1.1342-.0136-2.6489-.0385-3.2771-.0255-.6465-.6227-5.9893-.7743-6.9279-.1529-.9464-.4978-2.3237-.8196-3.2733-.4924-1.4527-1.1865-2.9243-2.3068-4.8909-.2458-.4315-.5325-.9513-.6375-1.1557-.7547-1.4696-1.1914-2.3644-1.2955-2.6545h0Zm6.275,18.642c-.0124-.6363-.0203-1.1998-.0175-1.2512,.012-.2178,.2265,1.665,.2743,2.4078,.1588,2.4672,.0645,4.0136-.4197,6.8832-.0685,.4061-.2473,1.4398-.3984,2.3036-.1511,.8638-.3522,2.0771-.4482,2.7036-.297,1.9395-.459,2.6562-.9722,4.3002-.7363,2.3591-1.0686,3.8766-1.16,5.2967-.0149,.232-.102,.7517-.1922,1.1477-.3038,1.3332-.3953,2.3054-.3487,3.7082,.0143,.4323,.0234,1.0225,.02,1.3041-.0186,1.5463,.1474,3.5477,.4637,5.5918,.4799,3.101,.7092,3.9019,2.2738,7.9418,1.3185,3.4047,2.1677,5.253,3.7667,8.1991,.1559,.2871,.2985,.5548,.3152,.5916,.0168,.0369-.1655-.2196-.4035-.5678-.2432-.3557-.6529-1.0543-.9316-1.5882-.274-.525-.7797-1.4578-1.1257-2.0767-.3461-.6189-.8355-1.5427-1.0896-2.0567-.2545-.5146-.5598-1.1299-.6809-1.3721-.1815-.363-.3259-.8051-.8334-2.552-.3371-1.1603-.7664-2.5771-.9523-3.1424-.1864-.567-.3865-1.2427-.4455-1.504-.2035-.9015-.2935-1.4285-.2597-1.5193,.0176-.0472,.0101-.1429-.0161-.2062-.1199-.2897-.373-3.1136-.4049-4.5181-.0431-1.8948,.2123-5.096,.5232-6.5589,.0744-.3501,.2038-1.118,.2879-1.7081,.2098-1.473,.3511-2.2991,.4783-2.798,.0594-.2329,.133-.6056,.1629-.8253,.0301-.2213,.1292-.6176,.2214-.8854,.2712-.788,1.0797-3.9276,1.2116-4.705,.0307-.181,.1283-.8854,.2161-1.5601s.2112-1.5182,.2733-1.8681c.1705-.9612,.2264-1.444,.2869-2.4742,.0302-.5158,.1157-1.7276,.1902-2.6974,.1545-2.0112,.166-2.3479,.1348-3.9443h0Zm-.4146,5.1997c-.0168-.029-.0232-.0814-.0138-.1135,.0094-.0321,.0238-.0072,.0312,.0539,.0074,.0611-.0006,.0886-.0174,.0596h0Zm-.0211,.2328c-.0181-.0333-.0209-.0719-.0064-.0901,.0136-.017,.0283,.0099,.0318,.0583,.0038,.0527-.0067,.0659-.0253,.0318h0Zm-.0105,.2825c-.0164-.0291-.0231-.0848-.0141-.1157,.0098-.0338,.0235-.0094,.0315,.0561,.008,.0655,.0004,.0914-.0174,.0596h0Zm-.0186,.2347c-.0156-.0292-.022-.0816-.0138-.1135s.0216-.007,.029,.0542c.0074,.0611,.0004,.0885-.0152,.0594h0Zm-.0186,.2347c-.0163-.0291-.0231-.0848-.0141-.1157,.0099-.0338,.0235-.0094,.0315,.0561,.008,.0655,.0004,.0914-.0175,.0596h0Zm-.3075,2.3814c.0966-.596,.2035-1.362,.2374-1.7022,.034-.3406,.0627-.5151,.0639-.3884,.0048,.5196-.1159,1.6524-.274,2.5701-.0918,.5333-.2406,1.4944-.3295,2.1294-.1801,1.2853-.2854,1.8097-.6454,3.2164-.1356,.5298-.3184,1.2433-.4085,1.594-.0891,.3471-.1697,.6297-.1778,.6233-.0536-.0416,.5026-2.7566,.7626-3.7218,.1382-.5132,.4574-2.1799,.5432-2.8367,.0288-.2202,.1315-.888,.2281-1.4841h0Zm-1.6652,11.5413c.0058-.0755,.0323-.2031,.0595-.286,.0363-.1106,.0452-.1192,.0342-.0328-.0081,.0632-.0354,.1946-.0595,.2861-.0385,.1463-.0431,.1507-.0342,.0328h0Z" style="fill:#b15026; stroke:#b15026; stroke-linecap:round; stroke-linejoin:round; stroke-width:.5px;"/><path d="M110.1648,4.0281c.7467,.8771,1.5796,2.0465,1.5476,2.173-.0383,.1517,.0068,.2073-1.1722-1.4468-.2853-.4002-.5906-.821-.6748-.9299-.2843-.3678-.0535-.2107,.2993,.2037h0Z" style="fill:#b15026; stroke:#b15026; stroke-linecap:round; stroke-linejoin:round; stroke-width:.5px;"/><path d="M112.2959,7.9965c.0216,.0405,.0408,.1037,.0449,.1475,.006,.0657-.0044,.0647-.0728-.0069-.0874-.0915-.1134-.1992-.0498-.2067,.0211-.0025,.0576,.0286,.0776,.0661h0Z" style="fill:#b15026; stroke:#b15026; stroke-linecap:round; stroke-linejoin:round; stroke-width:.5px;"/><path d="M112.6778,11.9062c.0771,.292,.088,.4236,.0358,.4298-.0492,.0058-.084-.0786-.169-.4096-.043-.1676-.0405-.2166,.0112-.2228,.0433-.0051,.0857,.0652,.1219,.2026h0Z" style="fill:#b15026; stroke:#b15026; stroke-linecap:round; stroke-linejoin:round; stroke-width:.5px;"/><path d="M112.8828,13.5427c.0684,.2709,.2714,2.589,.231,2.6391-.0164,.0204-.0338,.0276-.0436,.0181-.0408-.0395-.3201-2.8895-.2836-2.8938,.0196-.0023,.0626,.1033,.0962,.2366h0Z" style="fill:#b15026; stroke:#b15026; stroke-linecap:round; stroke-linejoin:round; stroke-width:.5px;"/><path d="M114.2357,18.6882c.0138,.1135-.091,.4537-.1417,.4596-.0245,.0029-.037-.0422-.0279-.1008,.0091-.0592,.0204-.1729,.0255-.2577,.0093-.1517,.1278-.2349,.1441-.1012h0Z" style="fill:#b15026; stroke:#b15026; stroke-linecap:round; stroke-linejoin:round; stroke-width:.5px;"/><path d="M101.1557,18.4844c.0738,.139,.2748,.6318,.4478,1.0985,.173,.4665,.5626,1.5167,.868,2.3398,.669,1.803,.8798,2.4109,1.3309,3.8372,.6615,2.0918,.9934,3.3073,.8187,2.9988-.0272-.048-.1959-.5614-.3754-1.1425-.5452-1.7645-1.2459-3.8506-1.7268-5.1411-.2513-.6744-.6512-1.7696-.8889-2.4347-.2369-.6629-.4885-1.3242-.557-1.4642-.1414-.2889-.1534-.3317-.0954-.3386,.0241-.0028,.1051,.1094,.1782,.2469h0Z" style="fill:#b15026; stroke:#b15026; stroke-linecap:round; stroke-linejoin:round; stroke-width:.5px;"/><path d="M104.2263,22.1136c.0643,.0913,.053,.3303-.0229,.4854-.066,.1349-.0907,.0329-.0656-.2712,.0222-.2683,.0326-.2935,.0884-.2142h0Z" style="fill:#b15026; stroke:#b15026; stroke-linecap:round; stroke-linejoin:round; stroke-width:.5px;"/><path d="M97.061,23.1076c.1648,.2108,.3424,.5687,.2991,.6029-.0326,.0257-.4996-.6013-.5097-.6842-.009-.0742,.1314-.02,.2106,.0814h0Z" style="fill:#b15026; stroke:#b15026; stroke-linecap:round; stroke-linejoin:round; stroke-width:.5px;"/><path d="M109.251,22.5022c.0514,.0634-.0241,.6671-.1091,.8721-.1347,.3249-.2044,.2943-.1191-.0524,.0404-.1642,.0863-.4253,.101-.5744,.0252-.2554,.0617-.3259,.1271-.2453h0Z" style="fill:#b15026; stroke:#b15026; stroke-linecap:round; stroke-linejoin:round; stroke-width:.5px;"/><path d="M106.3742,24.4635c.0633,.0502,.0698,.3017,.0172,.6623-.0967,.6624-.1854,.6759-.1336,.0202,.0194-.2459,.0291-.5041,.0216-.5738-.0132-.1225,.0239-.165,.0949-.1087h0Z" style="fill:#b15026; stroke:#b15026; stroke-linecap:round; stroke-linejoin:round; stroke-width:.5px;"/><path d="M108.4179,24.5184c.0728,.0894-.3837,1.9454-.7305,2.9696-.2702,.7981-1.0215,2.725-1.0645,2.73-.0975,.0115-.0108-.2866,.4707-1.619,.2893-.8004,.5714-1.6054,.6284-1.7927,.1606-.5283,.5934-2.1635,.5868-2.2174-.0085-.0698,.0688-.1198,.1091-.0705h0Z" style="fill:#b15026; stroke:#b15026; stroke-linecap:round; stroke-linejoin:round; stroke-width:.5px;"/><path d="M107.2185,26.0332c.0484,.0376,.0087,.4108-.1596,1.5025-.2547,1.651-.3678,2.0717-.74,2.7537-.2042,.374-.3226,.4949-.4526,.462-.0604-.0153-.0545-.0417,.032-.1427,.1536-.1793,.4358-.7684,.589-1.2294,.1215-.3658,.395-1.6721,.594-2.8382,.0895-.5244,.0941-.5413,.1372-.5078h0Z" style="fill:#b15026; stroke:#b15026; stroke-linecap:round; stroke-linejoin:round; stroke-width:.5px;"/><path d="M108.6933,26.1997c.0191,.1572-.684,1.7594-.7769,1.7704-.0266,.0031-.0453-.0035-.0469-.0166-.0049-.0399,.7057-1.7133,.7584-1.786,.0461-.0636,.0543-.0595,.0654,.0321h0Z" style="fill:#b15026; stroke:#b15026; stroke-linecap:round; stroke-linejoin:round; stroke-width:.5px;"/><path d="M106.3195,26.8438c.0697,.5808-.2887,3.2875-.4896,3.6984-.0996,.2037-.086-.0563,.0409-.7799,.1554-.8864,.2861-1.9267,.3292-2.6209,.0291-.4685,.083-.6025,.1195-.2976h0Z" style="fill:#b15026; stroke:#b15026; stroke-linecap:round; stroke-linejoin:round; stroke-width:.5px;"/><path d="M92.613,20.9811c.0618,.0768,.5186,.9252,.5246,.9743,.0128,.105-.098,.0027-.2594-.2395-.268-.4023-.388-.6577-.3375-.7189,.0235-.0285,.0563-.0357,.0723-.0159h0Z" style="fill:#b15026; stroke:#b15026; stroke-linecap:round; stroke-linejoin:round; stroke-width:.5px;"/><path d="M94.8329,25.9975c.1091,.1908,.0734,.2191-.0855,.0677-.153-.1458-.167-.1884-.066-.2003,.0396-.0047,.1064,.0538,.1515,.1326h0Z" style="fill:#b15026; stroke:#b15026; stroke-linecap:round; stroke-linejoin:round; stroke-width:.5px;"/><path d="M96.5022,26.9381c.2077,.2544,.2347,.3088,.1576,.318-.0677,.008-.419-.3756-.4318-.4715-.0193-.1445,.073-.0928,.2741,.1536h0Z" style="fill:#b15026; stroke:#b15026; stroke-linecap:round; stroke-linejoin:round; stroke-width:.5px;"/><path d="M94.3016,27.6946c.1365,.1078,.2066,.1912,.1792,.213-.0434,.0345-.4609-.2726-.4712-.3467-.0106-.0761,.0775-.0358,.292,.1337h0Z" style="fill:#b15026; stroke:#b15026; stroke-linecap:round; stroke-linejoin:round; stroke-width:.5px;"/></g><g><path d="M38.8254,47.0112c.0141,.1438,.064,.4442,.1109,.6685,.0471,.2248,.1051,.6588,.1296,.9687,.0407,.5167,.1629,1.302,.3001,1.9298q.0561,.2566-.0752,.5269c-.2586,.532-.276,1.7112-.035,2.3669,.2171,.5906,.8089,1.3661,1.6298,2.136,.222,.2082,.9434,.8259,1.5989,1.3692,1.3874,1.1499,1.4521,1.2104,2.0946,1.959,.8687,1.0123,1.4753,1.4772,2.4892,1.9079,.387,.1644,.5037,.1913,1.3289,.3072,1.7831,.2503,3.4302,.1289,5.9707-.4404,.549-.123,1.3418-.2956,1.7571-.3825,1.403-.2935,2.3848-.6761,4.0789-1.5898,.4199-.2264,.7656-.4102,.7705-.4095,.0049,.0007-.0644,.162-.1558,.3623-.0904,.1983-.2584,.6321-.3727,.9625-.2693,.7785-.3668,1.4053-.3765,2.4211-.004,.4236-.0328,1.1746-.0642,1.6765-.0314,.5019-.0542,1.3194-.0509,1.825,.0092,1.3915,.1684,1.9233,.9259,3.0925,.1931,.298,.4283,.705,.528,.9136,.1161,.2428,.2276,.4049,.3145,.4572,.0746,.0449,.1459,.0728,.1598,.0624,.0302-.0224-.044-.3704-.2228-1.0439-.1604-.6044-.3384-1.5107-.4-2.0371-.2049-1.7492,.2706-3.6751,1.3798-5.5891,.1371-.2366,.519-.8465,.8461-1.3513,.7518-1.1603,1.3745-2.1859,1.528-2.517l.1199-.2585,.7616,.1202,.7615,.1203-.1069,.5535c-.0591,.3059-.1931,.8434-.2997,1.2016-.3805,1.279-.4903,2.1811-.3841,3.1573,.0917,.8434,.3681,1.5074,.9067,2.1782,.608,.7572,.82,.7425,.8411-.0585,.0234-.8901,.2468-1.9952,.7657-3.7877,.2323-.8024,.2489-.8902,.3005-1.5878,.1178-1.5913,.1045-1.5043,.226-1.4873,.0608,.0085,.3229-.0065,.5834-.0336s.488-.047,.5062-.0444c.0182,.0026,.0868,.1321,.1523,.2879,.2179,.5176,1.386,3.0594,1.8742,4.0784,.2647,.5524,.6083,1.3004,.7675,1.6712,.4331,1.008,.6883,1.5091,1.4719,2.8894,.3945,.6949,1.1202,2.0671,1.6113,3.0466q1.442,2.8762,3.3217,5.5031c.2968,.4147,.7345,1.0504,.9783,1.4209,.2423,.3682,.7037,1.0538,1.0233,1.5206,.5244,.766,1.6326,2.5033,2.3153,3.6296,.3337,.5506,1.1085,2.1765,1.6398,3.4415,.226,.5381,.4992,1.1671,.608,1.4001,.3974,.8508,.9073,2.0746,1.0987,2.6371,.5245,1.5411,.9095,3.2501,1.1263,4.9994,.1731,1.3967,.2119,1.8049,.2783,2.9305,.0372,.6315,.0922,1.5113,.1218,1.9491,.0585,.8658,.05,1.8947-.0244,2.9591-.0259,.3695-.0457,.7939-.0444,.9487,.0013,.1541-.027,.9378-.0628,1.7412-.1063,2.3835-.1153,2.7602-.0899,3.7671,.0342,1.3595,.0859,1.7968,.3232,2.737,.3243,1.2847,.5301,1.7263,.7577,1.6261,.1154-.0508,.145-.2557,.0365-.2532-.0563,.0013-.1071-.0728-.165-.2408-.1509-.4375-.4468-1.7105-.4994-2.1487-.1019-.8483-.1199-2.8417-.0389-4.3004,.0254-.458,.0594-1.2819,.0754-1.8304s.037-1.2163,.0466-1.4836c.0584-1.6263,.0649-2.5809,.0222-3.2659-.0267-.4273-.075-1.1875-.1076-1.694-.2007-3.1106-.5469-5.2554-1.2361-7.6575-.2621-.9137-.4525-1.4271-.9486-2.5582-.2158-.4921-.6571-1.5091-.981-2.2608-.9451-2.1936-1.414-3.1286-2.2375-4.4626-.8017-1.2984-1.4796-2.3454-2.1259-3.2832-.2271-.3294-.5736-.8469-.7766-1.1594-.2016-.3105-.6774-1.0078-1.0573-1.5498-1.6094-2.2957-1.7533-2.5302-2.6264-4.2817-1.1307-2.2685-1.3735-2.7371-2.0444-3.9469-.8227-1.4835-.9976-1.8347-1.4884-2.9894-.3906-.9191-1.9714-4.2076-2.5116-5.225-.2982-.5615-.3575-.7298-.2373-.6732,.0301,.0142,.3031,.5625,.6063,1.2181,.5889,1.273,1.18,2.3871,1.2223,2.3035,.0138-.0273-.1376-.3946-.3351-.8132-.1991-.4217-.5611-1.2091-.8088-1.7591-.3971-.8819-.4389-1.0011-.365-1.0434,.1178-.0673,.2059-.0441,.1938,.0511-.0054,.043,.0405,.1811,.1014,.3052,.0614,.1248,.3415,.7697,.6236,1.4355s.5303,1.1875,.5525,1.1613c.0399-.0471,.8074,1.7079,1.2688,2.9008,.4741,1.2258,.7904,1.8795,1.5125,3.126,.5798,1.0008,.9314,1.5428,1.5853,2.4434,.9803,1.3502,1.3892,1.943,2.239,3.2458,.4409,.676,1.2073,1.804,1.6979,2.4991,1.4253,2.0196,1.6012,2.3079,2.911,4.7703,2.8085,5.28,3.1522,5.9802,3.9104,7.9664,.9479,2.4833,1.5075,4.6177,1.8533,7.0691,.326,2.3112,.3557,3.4211,.2185,8.1898-.0758,2.6365-.0923,4.0031-.0568,4.6911,.0555,1.0738,.2714,2.3748,.4136,2.4928,.1396,.1158,.1533-.0636,.071-.9324-.1422-1.4999-.1458-2.2235-.0315-6.3558,.1249-4.5173,.0966-5.7067-.185-7.7542-.3926-2.8549-.973-5.0401-2.1529-8.1061-.6605-1.7163-1.3959-3.2429-3.3846-7.0265-1.5451-2.9396-1.7655-3.3049-3.2896-5.4542-.3455-.4872-.9709-1.411-1.3954-2.0614-.9704-1.4865-1.2496-1.8928-2.2535-3.2789-.906-1.2509-1.3709-1.9728-2.0127-3.1252-.5311-.9535-.8196-1.5808-1.3062-2.8394-.2051-.5307-.5194-1.2964-.7002-1.7061-.4158-.9422-1.1646-2.718-1.3378-3.1725-.0734-.1924-.1819-.4424-.2434-.5605-.0599-.115-.1008-.22-.0887-.2278,.0122-.008,.1722-.0858,.3511-.1707,.4108-.195,1.1201-.7291,1.3645-1.0275,.2749-.3357,.4155-.6301,.662-1.3861,.1205-.3695,.2861-.85,.3659-1.0612,.0796-.2109,.169-.4622,.197-.5542,.0324-.1065,.0764-.1647,.1197-.1587,.0383,.0054,.1753-.045,.3114-.1146,.6575-.3361,1.4328-.4754,2.5607-.4602,.2072,.0028,1.1811,.0522,2.1589,.1094,2.1609,.1265,3.7983,.3306,4.6971,.5855,.6834,.1938,.8312,.2164,.8778,.1343,.0588-.1037-.031-.1992-.3796-.4042-.4922-.2893-1.1972-.5648-2.5062-.9791-.6502-.2058-1.4022-.4566-1.6753-.5588-.8543-.3196-1.9539-.6779-2.335-.761-.2619-.0571-.4529-.0705-.6686-.047-.9423,.1028-2.14,.641-2.7792,1.2489l-.1709,.1625-.013-.1284c-.0107-.1058,.0502-.2039,.3463-.5576,.3665-.4379,1.0122-1.1459,1.8347-2.012,.2531-.2665,.7184-.6906,1.0303-.9391,1.0759-.8572,1.5093-1.299,1.9949-2.034,.667-1.0096,1.2913-2.6257,1.4599-3.7791,.0426-.2916,.0839-.4374,.1369-.4826,.0947-.081,.3712-.6586,.5339-1.1154,.3089-.8671,.438-1.4797,.7446-3.5331,.2806-1.8793,.3003-2.0614,.3045-2.8042,.0121-2.1658-.13-2.9405-.8289-4.5179-.3097-.6991-.4817-.9569-1.2572-1.8852-.5068-.6066-.6805-.7684-1.0557-.9836-.3051-.1749-.3553-.2211-1.0653-.9796-.4371-.4669-.467-.5157-.7079-1.1536-.3719-.9849-.824-1.66-1.3476-2.0125-.1525-.1026-.4767-.269-.7147-.3667-.3998-.1641-.5108-.1891-1.3453-.303-1.0686-.1458-1.4944-.1442-2.2659,.0081-1.2915,.2549-2.1531,.9357-2.7622,2.1827-.2132,.4364-.6156,1.5689-.6553,1.8445-.0132,.0914-.0385,.1552-.0566,.1426-.3886-.2709-.756-.4825-1.0018-.5772-.5631-.2168-1.5032-.2216-2.0786-.0106-.3045,.1117-.4621,.2285-.6904,.5118l-.1704,.2115-.3653-.0583c-.773-.1233-1.7757-.3621-2.5987-.6188-.7583-.2365-.9341-.2759-1.4654-.3288-1.2384-.1232-2.395,.1832-3.3518,.888-.3554,.2618-.475,.3843-.7034,.7209-.4695,.6918-.6951,1.3192-1.005,2.7947-.1912,.9103-.2344,1.4778-.1401,1.8413,.0239,.0922,.0341,.1726,.0229,.1809-.0111,.0082-.1333-.0746-.2707-.1833-.357-.2824-.7907-.4802-1.77-.8073-1.2371-.4131-1.7376-.5485-2.3486-.6354-1.2042-.1713-2.0488,.0329-3.5875,.8676-1.06,.575-1.8983,1.2405-2.3798,1.8892-.2788,.3755-.3455,.6088-.3422,1.1956,.0016,.2756-.0031,.5436-.0104,.5937-.0097,.0677-.1663,.1543-.6019,.3333-.8471,.348-1.3349,.7149-1.7762,1.336-.7978,1.1227-1.1583,2.1945-1.1082,3.2955,.0402,.8832,.1704,1.5563,.5708,2.9493,.3844,1.3376,.6161,1.9566,.9441,2.5221,.1627,.2805,.2918,.5166,.2851,.5215-.0146,.0109-1.0474,.0322-2.1478,.0445-.8478,.0094-1.1115,.0381-1.3905,.1513-.3827,.1552-.5791,.5346-.5309,1.0255h0Zm.4811-.2122c.4353,.572,2.1963,1.9721,3.4776,2.7651,.7751,.4797,3.3975,1.9785,4.4339,2.5341,1.9893,1.0665,3.503,1.675,5.4727,2.2,.8531,.2274,2.9233,.5532,4.3056,.6776,.6178,.0556,1.1313,.1101,1.1397,.121,.0458,.0602-2.8265,.3051-3.5693,.3043-.9139-.001-.9457,.0016-.9567,.0774-.006,.0419,.1166,.0656,.4731,.0912,1.0206,.0734,1.401,.0572,3.6106-.1537,2.5703-.2453,2.6743-.25,3.3578-.1493,.3262,.048,.6343,.1067,.688,.131,.1407,.0637-2.0938,.688-2.6835,.7497-.2606,.0273-.2762,.1013-.0286,.136,.2823,.0396,.9227-.0917,2.1017-.4309,1.1884-.3419,1.4016-.3933,1.4974-.361,.0376,.0127-.2315,.1225-.5956,.243-.3638,.1204-1.0945,.3932-1.6156,.603-1.6014,.6451-1.9472,.7183-3.3161,.7027-2.4678-.0281-3,.0142-4.3771,.3482-.8445,.2048-2.2182,.4285-2.725,.4437-1.3303,.0399-3.6113-.3094-5.4491-.8344-.9593-.2741-1.4741-.5491-2.4789-1.3241-.9886-.7625-1.4039-1.1767-1.9746-1.9688l-.534-.7412-.0206-.3494c-.0339-.5733-.004-.9424,.105-1.2955,.0552-.1788,.1104-.3346,.1214-.3427,.0113-.0084,.0642,.0233,.1202,.0721,.3397,.2956,1.8909,1.1243,2.8676,1.5321,.6327,.2642,.6456,.2684,.6536,.2129,.0031-.0217-.2479-.154-.5607-.2955-.7019-.3177-1.5839-.7864-2.2916-1.218-.7904-.482-.7997-.4916-.8986-.923-.0474-.2065-.0908-.4298-.0979-.5023l-.0127-.1306,.2446,.208c.5178,.4403,1.9392,1.2579,2.9268,1.6836,.5849,.2521,1.4998,.5448,1.5622,.4997,.0248-.0179-.0748-.0744-.2206-.1252-1.3375-.4658-3.283-1.4998-4.1608-2.2115-.1572-.1274-.3041-.2345-.3259-.2376-.0661-.0093-.074-.0681-.1242-.9279-.0269-.4613-.07-.9162-.0959-1.0128-.0409-.1523-.1328-.7795-.1276-.8707,.0012-.0201,.0361,.0095,.0815,.0692h0Zm.1841-.4331c.2708-.1738,.4555-.1926,3.1347-.3188l1.0608-.05,.2853,.207c.7722,.5604,4.3179,2.4647,5.7372,3.0814,.1906,.0828,.3727,.1655,.4035,.1833,.0291,.0167,.0595,.0092,.063-.0156,.0038-.0265-.2748-.186-.6238-.3571-1.6021-.7856-5.5157-2.9632-5.5015-3.0612,.0057-.0399,.7764,.1418,1.1451,.27,.5078,.1765,1.5816,.7094,2.8024,1.3909,2.4584,1.3723,2.6093,1.4522,3.4464,1.8267,.3299,.1476,.7666,.37,.9688,.4936,.2979,.182,.4345,.237,.7149,.288,.4519,.0822,.548,.1402,.8573,.5176,.1406,.1715,.3756,.439,.5202,.592,.1445,.153,.2545,.2858,.2435,.294-.0112,.0083-.1627-.0273-.3397-.0798-.3972-.1178-.5076-.1331-.5165-.0715-.011,.076,.1927,.1623,.6746,.286l.4559,.117,.6988,.6178c.3833,.3389,.8673,.7457,1.0721,.9011,.207,.1571,.3708,.3008,.3677,.3226-.0061,.0422-2.6083-.3649-3.0425-.476-.2345-.06-.3397-.0168-.1771,.0728,.1446,.0797,2.1121,.4648,2.8856,.5649l.7912,.1024,.4385,.2374c.4301,.2329,1.2739,.5776,1.4924,.6095,.1918,.028,.0774,.0563-.4155,.1028-.3515,.0331-.4813,.0299-.5-.0121-.0292-.0656-.6636-.1609-3.4178-.5132-1.3351-.1708-1.7212-.2356-2.3298-.3911-2.7947-.7139-4.6497-1.538-8.6612-3.8481-1.6171-.9312-2.1231-1.2596-3.0959-2.0092-.9481-.7306-1.8509-1.5572-1.8334-1.6787,.0061-.0424,.0956-.1325,.1949-.1962h0Zm2.1537-8.0151l.0532-.1658,.2899,.3311c.9628,1.0997,2.2249,2.1798,3.4465,2.9497,.7883,.4968,2.3056,1.2355,2.1851,1.0639-.0153-.0218-.2799-.1639-.5909-.3174-1.7989-.8879-3.3857-2.1087-4.9158-3.782-.399-.4363-.3918-.3709-.1038-.9523,.0888-.1792,.2981-.5267,.4615-.7658,.3753-.5495,.796-.8788,1.4497-1.135,.2434-.0954,.5539-.2242,.6968-.2891l.2577-.117,.4305,.5979c.5408,.751,1.4075,1.7229,1.4852,1.6653,.0195-.0144-.2228-.3594-.5416-.7711-.3188-.4117-.73-.9821-.9192-1.275l-.3422-.53-.0028-.4046c-.0043-.618,.0413-.8566,.2122-1.1117,.0816-.1218,.1934-.2646,.246-.3141l.0964-.0908,.2035,.3572c.1842,.3235,1.0547,1.4513,1.1621,1.5056,.1099,.0556,.018-.1052-.401-.7015-.2494-.3548-.5291-.7972-.6212-.9822l-.1676-.3366,.1733-.1622c.4468-.4183,1.9413-1.2621,2.8465-1.6073l.2907-.1108,.4254,.5151c.3678,.4453,1.7699,2.3293,2.3234,3.1221,.0997,.1428,.1944,.2445,.2141,.2299,.0677-.0502-.8401-1.3838-1.9623-2.8827-.4199-.5609-.7601-1.0292-.758-1.0436,.0044-.0304,.7307-.1408,.7446-.1131,.2181,.4348,.8542,1.3201,.9158,1.2745,.0196-.0145-.0278-.1238-.1068-.2459-.4925-.7621-.5732-.8924-.6048-.9777-.0336-.0905-.0085-.0891,.7425,.0421,.426,.0744,.8441,.1669,.925,.2046,.1456,.0678,1.6265,1.4275,1.8527,1.701,.0882,.1066,.1134,.1187,.1222,.0583,.0066-.0458-.3026-.3839-.7758-.8484-.4338-.4258-.7801-.7768-.7718-.7824,.0257-.0174,1.8284,.5587,2.1132,.6753,.1606,.0658,.4407,.191,.6302,.2818l.3411,.1634,.1164,.6914c.1263,.7506,.2243,1.0682,.4653,1.5088,.3159,.5775,.9446,1.5451,1.4069,2.1651,.2625,.3522,.4671,.6455,.455,.6524-.0122,.0068-.2364,.1249-.4994,.263-.4677,.2454-.4789,.2485-.5514,.1513-.0696-.0933-.5375-1.0526-1.0884-2.2315-.2887-.6179-.4714-.9296-.5217-.8905-.016,.0125,.036,.1427,.1167,.2917,.0802,.1482,.3117,.6478,.515,1.1116,.2033,.4638,.4902,1.077,.6383,1.3643l.2691,.5219-.1417,.0775c-.3541,.1936-.7911,.5732-1.0173,.8834l-.2379,.3264-.405-.5477c-.2236-.3023-.4386-.5524-.48-.5582-.0938-.0132-.08,.011,.4114,.7196l.3822,.5511-.0963,.1841c-.052,.0993-.1021,.2242-.1089,.2712-.0084,.0581-.083,.1074-.224,.1479-.2772,.0798-.3671,.0611-.4983-.1038-.1432-.1799-.2745-.1619-.2598,.0356,.0099,.1321,.0056,.1346-.2238,.1329-.4634-.0034-.807,.1576-1.2761,.598-.1536,.1442-.4654,.3944-.6911,.5545-.6542,.464-.8603,.8356-.9836,1.7732-.115,.8748-.0196,1.8139,.3004,2.9558,.3576,1.2761,.9236,2.3939,1.8788,3.7104,.2225,.3066,.384,.5662,.3618,.5816-.0215,.0149-.0464,.0002-.0539-.032-.0079-.0341-.0536-.0653-.1066-.0727-.051-.0072-.3584-.1841-.6838-.3936-.3255-.2095-.8593-.5071-1.1877-.662-.3288-.1551-.8229-.4069-1.1009-.561-.2782-.1542-1.015-.5482-1.6427-.8785-2.5569-1.3454-3.7407-1.7709-4.991-1.7938-.2604-.0048-.4912-.0114-.5156-.0149s-.0674-.1027-.0962-.2223c-.0289-.12-.1189-.3676-.2024-.557-.1912-.4336-.4503-1.2446-.7933-2.4831-.3059-1.1045-.4875-2.0145-.5319-2.6641-.0303-.444,.0381-1.1575,.142-1.4813h0Zm-1.7116,15.4871c.4558,.71,.9897,1.2653,1.9314,2.0091,.6063,.4788,1.0073,.7535,1.475,1.0107,.8243,.4532,3.2935,1.045,5.2353,1.2549,1.542,.1666,2.2857,.1041,4.904-.412,.7279-.1435,1.1498-.1674,2.9779-.1686,2.2109-.0014,2.3348-.0249,4.1801-.7934,1.1688-.4867,2.0078-.7834,2.619-.9261,.5498-.1284,1.2561-.2349,1.5234-.2299l.2335,.0044-.1301,.075c-.0703,.0406-.2137,.1237-.312,.181-.3331,.194-1.5442,.7483-2.0729,.9487-.2869,.1087-.8988,.3469-1.3524,.5264-.4536,.1795-1.0415,.3922-1.2993,.4701-.5555,.1678-3.0158,.747-3.4862,.8206-.3593,.0563-.6744,.0339-.7114-.0505-.0187-.0426-.0388-.0465-.0804-.0157-.1189,.0881,.0289,.174,.3739,.2173,.2736,.0344,.4934,.0132,1.2556-.1209,1.9726-.347,2.9973-.5988,4.0424-.9933l.3238-.1223-.2345,.1588c-.3622,.2452-1.8044,1.0223-2.4849,1.3389-.9051,.4212-1.7356,.6705-3.1391,.9425-.6809,.1319-1.4616,.2877-1.7292,.345-2.769,.593-5.5148,.5988-6.9313,.0146-.8838-.3644-1.3088-.6651-2.3042-1.63-.3443-.3338-.9852-.9102-1.4187-1.276-.9633-.8129-1.7605-1.5375-2.2251-2.0223-.3522-.3676-1.0051-1.2114-1.229-1.5885-.1824-.3071-.1383-.2859,.0654,.0314h0Zm11.5338-10.7946c.2307,.5326,.5446,1.0183,1.2351,1.9114,2.217,2.8672,5.0833,5.648,7.4962,7.273,.8583,.5779,1.2737,.8144,2.9084,1.6552,1.2825,.6597,1.9722,.953,2.6258,1.1167l.5258,.1317-.3041-.014c-.5467-.0251-1.453-.1652-2.0876-.3225-1.1258-.2792-2.7151-.8201-3.2831-1.1176-.3474-.1819-.4319-.2041-.3646-.0957,.1145,.1845,1.6683,.8583,2.7799,1.2053,.7238,.226,.8619,.2984,.5065,.2654-.4041-.0375-.5298-.0729-1.3889-.3909-2.7184-1.0062-4.525-1.9273-5.624-2.8674-.3086-.264-.4025-.2325-.123,.0411,.8871,.8686,2.7131,1.8538,5.1881,2.7991,.6486,.2477,.713,.2799,.4409,.2206-.8124-.1773-1.9088-.5008-3.0057-.8869-1.1869-.4178-1.193-.4205-1.6811-.7682-.534-.3803-1.5172-1.2179-2.0529-1.7488-1.2408-1.2299-2.6929-3.2798-3.2458-4.5823-.5434-1.2799-.8485-2.8764-.7249-3.7927l.0459-.34,.1331,.3074h0Zm.0165-.8327c.0947-.265,.2506-.4388,.6363-.709,.1999-.1401,.4964-.3889,.6541-.5488,.5015-.5087,.7135-.598,1.3821-.5823l.2737,.0064,.3228,.4151c.6964,.8954,1.6353,1.9286,2.3779,2.6168,.6314,.5851,1.3111,1.1431,1.3767,1.1303,.0306-.006-.2419-.289-.607-.6302-.365-.3412-.8327-.799-1.0415-1.0193-.7971-.8413-2.1821-2.5118-2.1169-2.5534,.0216-.0138,.1328-.0465,.2445-.0721,.1862-.0425,.2095-.0392,.2559,.0359,.1067,.1727,1.5284,1.9204,2.2563,2.7736,.7009,.8215,.903,1.0188,.7593,.7411-.0558-.1079-2.1044-2.746-2.6441-3.4051l-.2833-.3459,.1746-.3441c.3408-.6716,.625-.9928,1.1364-1.2845l.2993-.1706,.1162,.1718c.1453,.2149,.2,.1791,.0837-.0549l-.0878-.1766,.5461-.2742c.4417-.2218,.5609-.2636,.6236-.2185,.1183,.0851,.2302,.0409,.2165-.0855-.0133-.1232,.1354-.2003,.8645-.4478,.8379-.2845,1.7372-.3739,2.3205-.2308,.4174,.1024,1.373,.5174,1.6016,.6954,.2536,.1976,1.1134,1.3313,1.4985,1.9761,.1669,.2794,.7835,1.3536,1.367,2.3816,1.3259,2.3359,1.2357,2.1832,1.2733,2.1565,.0493-.035-.5589-1.2301-1.3396-2.6322-1.0114-1.8165-1.4367-2.5123-1.9237-3.1474-.2349-.3064-.4035-.5465-.3735-.5319,.3072,.1487,1.0219,.4619,1.3212,.579,.2046,.08,.3792,.1533,.3842,.1613,.005,.008,.3762,.5858,.8217,1.2791,.4455,.6932,.8681,1.3665,.9354,1.4904,.1463,.2693,.2821,.3416,.181,.0965-.1487-.3607-.8704-1.5879-1.4834-2.5223-.1348-.2055-.1859-.3203-.1446-.3246,.0352-.0036,.272-.0442,.5263-.0903,.5733-.1039,.8387-.071,1.6367,.2024,.7851,.269,1.3049,.5219,1.8595,.9045,.5937,.4096,.9421,.7395,1.3587,1.2868,.5927,.7788,.9066,1.4998,1.0773,2.4742,.3015,1.7212,.3625,2.6551,.233,3.5681-.0828,.5838-.1399,.7932-.9127,3.3451l-.1561,.5155,.0934-.8485c.1213-1.1019,.1431-1.9608,.079-3.1113-.0257-.4607-.1102-.2065-.1185,.3565-.0229,1.5557-.2428,3.4012-.4957,4.1587-.1317,.3946-.5329,1.2712-.5634,1.2312-.0083-.0109,.0552-.2721,.141-.5798,.2443-.8757,.3247-1.9886,.2417-3.3461-.0348-.5689-.0803-1.3672-.1011-1.773-.0851-1.6598-.5301-3.2235-1.4218-4.9965-.7402-1.4719-.8784-1.7147-.8981-1.5784-.0031,.0215,.2467,.5565,.5538,1.1859,.3071,.6294,.6503,1.3759,.7608,1.6547,.4513,1.1382,.7624,2.513,.8099,3.5781,.1264,2.8381,.1254,3.2035-.0117,4.169-.091,.6413-.2139,1.1292-.4419,1.7545-.0801,.2197-.1947,.5746-.2533,.7839-.0586,.2094-.1182,.4181-.1318,.4612-.0138,.0436-.2076,.2706-.4352,.5096-.478,.5021-.4855,.5042-1.1404,.3312-1.3254-.3502-3.7295-1.3942-5.3979-2.3441-1.1983-.6822-2.6551-1.7349-3.4453-2.4896-.1899-.1814-.3617-.3224-.3779-.3101-.0991,.075,.8332,.9617,1.7811,1.6941,1.7163,1.3261,4.3533,2.7494,6.3701,3.4383,.3304,.1129,.5382,.2089,.5888,.272q.0782,.0976-.0365,.0815c-.0631-.0089-.5696-.1091-1.125-.2226-1.1684-.2388-1.4159-.3287-2.8064-1.02-2.424-1.205-3.3053-1.7376-4.7045-2.8437-.5873-.4643-1.8086-1.5382-2.5012-2.1993-1.3178-1.258-3.1285-3.2992-4.0275-4.5402-.5444-.7516-1.022-1.6719-.9519-1.8348,.0156-.0362,.0545-.1389,.0847-.2235h0Zm4.3989-12.6226c.4887-2.2365,1.114-3.074,2.6793-3.5884q.6192-.2034,.9961,.2113c.1807,.1988,.5524,.6596,.8326,1.032,.2802,.3725,.5096,.6496,.5138,.6207,.0202-.1397-.8745-1.3972-1.3513-1.8992l-.1563-.1646,.2562-.0285c.1627-.018,.5099,.008,.951,.0713,.5806,.0834,.8171,.141,1.4397,.3509,.4079,.1375,.9527,.2934,1.2042,.3445,.2526,.0514,.6933,.1562,.9794,.233,.2861,.0768,.536,.1419,.5554,.1446,.0344,.0048,.7969,1.3067,1.0716,1.8294,.0807,.1534,.1518,.2879,.1588,.2999,.0075,.0131,.0267,.0113,.0479-.0044,.0651-.0482-.3898-1.0408-.8441-1.8418-.1505-.2654-.1589-.3011-.085-.3628,.0442-.0369,.1395-.1514,.207-.2485,.0675-.0971,.1494-.1767,.178-.1727,.1726,.0243,.5861,.8596,.7135,1.4415,.0897,.4094,.1776,.4158,.1305,.0094-.0681-.5869-.3485-1.2797-.5973-1.4757l-.1415-.1115,.1227-.0701c.4441-.2538,1.5349-.2464,2.1815,.0146,.3233,.1305,1.2124,.7093,1.8274,1.1896,1.0345,.8079,1.364,1.2586,2.147,2.9364,.7631,1.635,.8896,1.9937,.9476,2.6869,.0233,.2787,.0179,.312-.0614,.3778-.0812,.0674-.0803,.0731,.0123,.0861,.0887,.0124,.0955,.0401,.0641,.2577l-.0352,.2438-.4044,.119c-1.1708,.3445-1.099,.31-1.9155,.9188-.6868,.512-1.8772,1.5019-2.1066,1.7518-.0839,.0913-.0872,.0855-.1016-.1786-.0376-.6893-.7682-5.0615-.848-5.0744-.0616-.0099-.0508,.1114,.0865,.9701,.0748,.468,.1831,1.2091,.2394,1.6392,.0563,.4298,.1476,1.1168,.2016,1.5184,.1689,1.254,.1569,1.426-.1309,1.8737-.0917,.1426-.2133,.3417-.2736,.4479l-.1087,.1913-.4132-.0536-.4132-.0536-.0321-.311c-.0426-.4137-.4042-2.1043-.5887-2.752-.1713-.6015-.4949-1.4597-.5535-1.4679-.0757-.0106-.0523,.1126,.1634,.8624,.2969,1.0322,.7967,3.6078,.7077,3.6472-.0336,.0149-.0526,.0496-.041,.0751,.0283,.0624-.329,.1492-.51,.1238-.0794-.0111-.1343-.0431-.1308-.0761,.0033-.0313-.1856-.5657-.4205-1.1894-.2352-.6247-.6491-1.7811-.9231-2.5791-.5079-1.4793-.7115-1.9899-.7747-1.9431-.0194,.0144,.024,.1833,.0967,.3755,.0722,.1913,.2437,.7249,.3788,1.1791,.297,.998,.5927,1.8776,1.0655,3.1698,.1953,.5338,.3472,.9806,.3361,.9888-.0111,.0082-.2034-.0728-.4265-.1798-.4043-.1937-.4065-.1957-.43-.3846-.0489-.3933-.685-2.2388-.7766-2.253-.0768-.0119-.034,.1449,.3352,1.2272,.2117,.6204,.3756,1.1301,.3659,1.1373-.0097,.0072-.5135-.2327-1.1185-.5328-1.5252-.7563-1.9635-.8645-3.0041-.7419-.4725,.0556-1.3739,.3166-1.903,.551l-.3271,.1449-.2886-.4092c-.8208-1.1635-1.5816-2.4319-1.7367-2.8954-.0454-.1356-.1411-.595-.2123-1.0181s-.1664-.8965-.2111-1.049c-.0569-.1939-.0728-.4055-.0529-.7003,.0302-.448,.0356-.4791,.255-1.4832h0Zm2.4278,25.491c.0341,.0191,.0207,.0282-.0325,.0221-.0487-.0056-.0757-.0208-.0583-.0326,.0185-.0126,.0574-.0081,.0908,.0105h0Zm.4363-1.058c.0341,.0191,.0207,.0282-.0325,.0221-.0487-.0056-.0758-.0208-.0583-.0326,.0186-.0126,.0575-.0081,.0908,.0105h0Zm.5299,.1965c.209,.0807,.2918,.1237,.1843,.0957-.2821-.0734-.6712-.22-.6149-.2317,.0281-.0059,.2216,.0553,.4306,.136h0Zm.5514,.1885c.032,.017,.0057,.023-.0605,.0137-.0662-.0093-.0907-.0224-.0564-.0301,.0314-.0071,.0877,.0008,.1169,.0164h0Zm.9381,5.0352c.116-.3435,.2857-.7803,.378-.9729,.1639-.342,.1775-.3563,.6317-.6648,.3594-.2441,1.5495-.9279,1.8067-1.038,.0233-.01,.0769,.0128,.1167,.0496,.068,.0631,.055,.0877-.1779,.3348-.7429,.7884-1.4669,1.7651-1.8608,2.5102-.5158,.9758-.9025,2.0383-1.078,2.9622-.0658,.3461-.1237,.6207-.1291,.6125-.0198-.0292-.0669-1.0265-.075-1.5873-.0106-.7295,.0985-1.3497,.3878-2.2063h0Zm.2917,2.3861c.3803-1.1547,.9084-2.2543,1.4547-3.0292,.4559-.6466,1.4224-1.8256,1.489-1.8163,.0662,.0093,.766,.2479,.7747,.2642,.0028,.0053-.1954,.3279-.4396,.7156-1.8334,2.9094-2.3806,3.9596-2.8422,5.4549-.4757,1.541-.5595,2.7694-.2971,4.3598,.0405,.2455,.0651,.4569,.0541,.4651-.0327,.0243-.2922-1.0004-.3756-1.4829-.0434-.2514-.1326-.8914-.1992-1.4293l-.1206-.9741,.1649-1.0028c.1214-.738,.2104-1.1407,.337-1.525h0Zm-.494,5.0473c.0719,.3699,.1407,.7145,.1533,.7677,.0395,.1676-.1731-.273-.223-.4621-.0536-.2029-.0951-.6863-.0742-.8632,.0074-.0626,.072,.1878,.144,.5576h0Zm3.5506-10.3949c.1042-.0357,.1074-.0335,.039,.0261-.0395,.0344-.0933,.0624-.1144,.0594-.0706-.0099-.0383-.0466,.0754-.0855h0Zm.4828-.1323c.1444,.081,1.1501,.2361,1.6032,.2472,.7223,.0177,2.0222-.0524,2.7045-.1459,.4823-.0661,1.3399-.2679,1.3469-.3169,.0081-.0559,.0577-.0571-.7185,.0179-1.1598,.1121-3.1528,.1451-3.94,.0652-.3772-.0383-.6861-.0816-.684-.0959,.0021-.0143,.1145-.0755,.2492-.1357,.3862-.1724,.8723-.2413,1.4203-.2014,.2822,.0205,.7486,.0074,1.1279-.0318,.3565-.0369,.678-.0597,.7164-.0508,.1612,.0371,.2311,.0208,.2423-.0566,.0067-.0462,.0836-.1114,.1744-.1477,.6307-.2522,.8722-.3975,1.103-.6634,.2509-.289,.4367-.5843,.4572-.7264,.0168-.1162,.7503-.7688,.8885-.7905,.2442-.0384,1.3463-.4017,1.5695-.5174l.2482-.1287-.1215,.2494c-.0674,.1383-.2184,.4534-.3391,.7074-.2809,.5913-.4512,.8277-.7904,1.0971-.4229,.3359-.7315,.6085-.7377,.6515-.0176,.1223,.2003,.0164,.6924-.3366,.6584-.4722,.8388-.7054,1.2128-1.5678,.3377-.7787,.4819-1.0151,.7543-1.2354l.2291-.1855-.0201,.1393c-.0329,.228-.2032,.7532-.3954,1.2192-.1004,.2435-.2863,.7393-.4153,1.1076-.172,.4911-.2881,.7457-.4406,.9663-.3856,.558-1.2573,1.1121-2.2188,1.4104-.4289,.1331-.476,.1323-.4754-.0077,.0002-.0577-.0369-.115-.0853-.1319-.0745-.0259-.0854-.0076-.0831,.1393l.0026,.1691-.2526,.0343c-.4317,.0587-.9025,.0764-1.4124,.0531-.6844-.0313-3.1095-.3198-3.5633-.4239l-.3748-.086,.1295-.1639c.0884-.1119,.1506-.1521,.1961-.1265h0Zm4.779-30.803c.5831-1.5126,.9294-2.0099,1.7756-2.5492,.8972-.5718,1.9085-.6829,3.6234-.3982,.9014,.1497,1.185,.2484,1.6677,.5805,.4392,.3022,.8233,.9075,1.1798,1.8592,.1177,.3141,.2556,.6447,.309,.7407,.0525,.0944,.1588,.3532,.2332,.5679,.0755,.2179,.2632,.621,.4194,.9006s.367,.6898,.471,.9167c.1036,.2258,.371,.7561,.5942,1.1783,.4261,.806,.6973,1.5239,.7834,2.0731,.0702,.4481,.0696,1.4799-.0012,2.2251l-.0592,.6224-.1991-.2426c-.2896-.3529-.6954-.6103-1.1302-.717-.4887-.1199-.6927-.223-1.175-.5937-.4864-.3738-.7531-.4909-1.1559-.5074-.5819-.0237-.8659,.0733-1.163,.3975l-.1839,.2007,.0223-.1545c.0123-.0854,.0232-.3632,.0242-.6206,.0082-1.9443,.005-2.886-.0097-2.9061-.0588-.0803-.0837,.0904-.1099,.753-.0159,.4029-.035,1.1365-.0425,1.6285-.0201,1.3341-.1282,1.9292-.3661,2.0168-.085,.0313-.086,.0028-.017-.485,.0863-.6097,.0686-1.1452-.0383-1.1602-.03-.0042-.045,.0514-.0393,.1455,.0203,.336-.0354,1.0985-.0968,1.3233-.0584,.2139-.0817,.2437-.2173,.2782-.0841,.0214-.2178,.0433-.2997,.049l-.1478,.0103,.1109-.6284c.0803-.4551,.1072-.7515,.0973-1.0745-.0176-.5774-.1499-1.8066-.2655-2.4668-.0973-.5555-.3118-1.4296-.3704-1.5088-.0958-.1297-.0799,.0509,.0631,.7151,.1605,.7452,.2926,1.7644,.3599,2.7776,.0298,.4486,.0177,.7642-.0541,1.407l-.0926,.8287-.1863,.0272c-.1012,.0147-.1887,.0227-.1916,.0175-.0029-.0053-.0808-.5554-.1727-1.2212s-.1758-1.2308-.186-1.2542c-.0112-.0256-.0368-.0292-.064-.009-.0388,.0287,.0609,1.0923,.2045,2.1829,.0256,.1946,.0409,.3562,.0342,.3601-.0067,.0039-.0597,.0237-.1166,.0435-.1191,.0415-.1141,.0751-.1063-.7233,.004-.4125-.1083-1.0011-.2681-1.4056-.1784-.4514-1.1148-2.3634-1.3432-2.7424-.4615-.7662-1.0496-1.3818-2.1334-2.2332-.2103-.1652-.3034-.2689-.2948-.3285,.0069-.0481,.1522-.4494,.3244-.896h0Zm-1.3521,12.5595c.09-.1048,.3051-.3724,.4732-.5887,.3268-.4204,.7492-.8186,1.7261-1.6275,1.1701-.9688,1.137-.9516,2.6778-1.3949,.7234-.2082,1.9651-.4322,1.9975-.3604,.013,.0288,.0684,.4271,.1235,.8879,.1896,1.5856,.3046,2.247,.3687,2.1215,.0293-.0573-.0889-1.7446-.1831-2.6151-.0557-.5141-.0536-.5644,.0251-.6227,.0706-.0523,.0916-.0509,.119,.0078,.0664,.1424,.233,.8233,.4589,1.8766,.3064,1.4288,.4206,2.0948,.4137,2.4121-.0031,.1417,.0108,.2749,.0305,.291,.0703,.0577,.0981-.4195,.0514-.8836-.0707-.7028-.5027-2.9398-.6789-3.5153l-.152-.4966,.1385-.247c.3325-.5929,.5074-.7052,1.1073-.7113,.2971-.003,.3475,.01,.701,.1813l.3808,.1845,.0938,.2752c.1347,.395,.2185,.9856,.2476,1.7447,.0272,.7085,.0144,2.6536-.0248,3.7674-.0312,.8884-.0293,.9997,.0178,1.0063,.0216,.003,.0489-.1264,.06-.2847,.1022-1.4646,.1573-3.7003,.1157-4.7007-.0263-.6344-.0936-1.1072-.2016-1.4185-.0778-.2241-.0751-.2468,.0211-.178,.0695,.0498,.415,.1814,1.0029,.3821,.5235,.1788,1.1418,.9091,1.0174,1.2017-.0267,.0629-.0126,.0985,.0496,.1247,.0595,.0251,.1211,.1747,.1951,.4737,.1405,.5685,.1803,.9625,.2261,2.2347,.0208,.5798,.0586,1.6116,.0839,2.2947,.0444,1.1965,.0416,1.2716-.0777,2.0855-.132,.9004-.2671,1.406-.6246,2.3374-.4708,1.2264-1.0916,2.1257-2.0434,2.9599-.1496,.1311-.1057,.0518,.2668-.4822,.7027-1.0073,1.1399-1.867,1.3597-2.6739,.1271-.4663,.1516-.619,.0915-.569-.0251,.0208-.0969,.2174-.1591,.4351-.2419,.8476-.5959,1.5508-1.2968,2.5761-.4515,.6606-.7815,1.0626-1.0984,1.3382-.1011,.088-.1839,.1748-.1885,.1978-.0045,.0227-.0783,.1067-.1648,.1878-.1462,.1369-.9569,1.016-1.8532,2.0094-.2063,.2286-.5121,.5833-.6831,.7924-.3277,.4006-.8616,.8427-1.3671,1.132-.4613,.264-.4931,.2621-.1562-.009,.9403-.7567,1.9492-1.9338,3.0924-3.6076,1.1598-1.6982,1.8867-2.9968,2.2889-4.0891,.2437-.6619,.1291-.5904-.1567,.0979-.4011,.9659-1.1438,2.2423-2.1454,3.6872-1.3468,1.9429-2.3401,3.0732-3.4013,3.8707-.493,.3705-.7793,.5279-1.1452,.6295l-.2767,.0769,.1924-.3972c.1068-.2204,.2351-.4366,.2883-.4859,1.483-1.3712,1.4584-1.332,2.4008-3.829,.1247-.3304,.4464-1.0699,.7175-1.6492,.9224-1.9713,.9676-2.0805,.8672-2.0946-.0733-.0103-.3426,.3561-.6036,.8213-.3413,.6085-1.0725,2.1723-1.3115,2.805-.5815,1.5395-.8412,2.113-1.1213,2.4764-.1545,.2004-.6493,.6989-.6911,.6964-.0466-.0028,.1621-.8018,.5402-2.0678,.7115-2.3829,.746-2.9013,.3612-5.4301-.2051-1.3479-.5768-2.2578-1.2841-3.143-.7602-.9515-2.008-1.8106-3.1659-2.1797-.1679-.0535-.3044-.1062-.3028-.117,.0016-.0109,.076-.1048,.1679-.2118h0Zm-1.4499,21.269c.2023-.7267,.3459-1.5029,.3132-1.6927-.0177-.1027-.007-.1034,.5553-.0375,.3144,.0368,.5806,.0732,.5895,.0805,.0088,.0073-.1032,.8539-.2483,1.8772-.2205,1.5546-.291,1.9529-.4248,2.4009-.2088,.6991-.2246,.8335-.1595,1.3589,.1157,.9357,.1332,1.1135,.1308,1.3286l-.0026,.2261-.1911-.2047c-.4561-.4887-.8552-1.3635-.9416-2.064-.1164-.9438-.0075-1.8843,.3792-3.2735h0Zm1.0852,2.6441c.2321-.8372,.3967-1.8231,.5524-3.3069l.102-.9717,.1279-.0131c.0686-.007,.1394,.0019,.1526,.0192,.0135,.0178-.0577,.5604-.1579,1.2037-.1476,.9475-.2265,1.3214-.4128,1.9562-.1264,.4309-.3028,1.0763-.391,1.4308-.0886,.3562-.1737,.656-.1897,.6685-.052,.0405,.0093-.2386,.2167-.9867h0Zm1.636-7.463c.1511-.1298,.1587-.1316,.0933-.0224-.0393,.0656-.089,.1163-.1109,.1132-.023-.0032-.0438,.0227-.0495,.0619-.0053,.0368-.0572,.084-.1141,.1039-.0948,.0331-.0988,.0295-.0438-.0395,.0327-.041,.136-.1408,.2249-.2172h0Zm1.8279-2.9479c.0127,.0168,.0088,.059-.0082,.0877-.0197,.0332-.0295,.0203-.0246-.0323,.0045-.0482,.0192-.0731,.0327-.0553h0Zm.1988-.7249c.0363-.0314-.0537,.4277-.1101,.5619-.032,.0762-.0242-.01,.0189-.2083,.0403-.1853,.0816-.3452,.0912-.3536h0Zm3.6439,1.0378c1.2259-.6561,2.4576-.7754,4.2146-.4082,.7517,.1571,1.6373,.3783,1.9078,.4767,.1198,.0435,.1254,.0406,.0584-.0302-.1783-.1883-1.5385-.54-2.7909-.7217-1.0981-.1593-1.5184-.1588-2.2561,.0028-.2371,.052-.4269,.0879-.4259,.0807,.0043-.03,.7238-.3048,1.0483-.4004,.9538-.2809,1.4344-.206,3.6108,.5627,.2383,.0842,.9294,.2984,1.5385,.4769,1.1577,.3393,2.0358,.6378,2.3219,.7892,.2217,.1173,.1467,.1068-.5163-.0728-.7756-.2101-3.052-.5657-4.3987-.6872-2.2356-.2017-3.1099-.1793-3.9497,.1013-.2838,.0948-.7692,.3406-.8089,.4096-.0563,.0978-.0807,.0064-.0418-.1569,.0411-.1726,.0732-.2005,.488-.4225h0Zm3.7018-25.2823c.377,.4211,.424,.4628,.8383,.7431,.3077,.2082,.4791,.3663,.7073,.6524,.1652,.2071,.4647,.5552,.6632,.7708,.399,.4333,.5614,.7048,.9746,1.6289,.3475,.7772,.4664,1.1204,.534,1.5407,.1427,.8874,.1665,2.2086,.0634,3.5132-.0745,.9419-.6269,3.976-.8942,4.9111-.105,.3673-.1948,.6901-.1987,.7139-.0221,.1358-.0514-.0916-.0916-.7102-.0446-.6859-.041-.7386,.1409-2.0766,.1837-1.3511,.26-2.3555,.2733-3.5992,.0067-.6209-.0635-.8752-.0931-.3373-.0831,1.5118-.2103,2.9894-.3211,3.7302l-.0748,.5003-.0762-.9168c-.1173-1.4111-.263-2.2645-.4871-2.8532-.0678-.1781-.0682-.2361-.0032-.4224,.1172-.3358,.1949-1.6915,.148-2.582-.0377-.7149-.2892-1.5774-.6968-2.3897-.1353-.2695-.4228-.8544-.6357-1.2929-.2129-.4385-.5216-1.0093-.6824-1.2617-.1616-.2537-.2937-.468-.2937-.4765,0-.0085,.093,.0884,.2055,.214h0Z" style="fill:#b15026; stroke:#b15026; stroke-linecap:round; stroke-linejoin:round; stroke-width:.5px;"/><path d="M88.9525,96.0707c.0294,.6215,.0905,3.1351,.0916,3.7659,.0021,1.2293-.0286,2.5143-.1047,4.3691-.1378,3.3607-.0926,4.0181,.407,5.9244,.1269,.4842,.2246,.9139,.2169,.9543-.0196,.1039,.129,.2766,.1956,.2273,.0672-.0497,.0561-.1165-.228-1.3778-.4442-1.9716-.4652-2.3749-.3197-6.1564,.1055-2.7434,.0601-5.8232-.1115-7.5485-.0192-.1937-.0412-.4154-.048-.4864-.007-.0721-.0343-.1209-.0608-.1091-.0552,.0247-.0569,.0437-.0383,.4371h0Z" style="fill:#b15026; stroke:#b15026; stroke-linecap:round; stroke-linejoin:round; stroke-width:.5px;"/><path d="M88.752,109.2872c.082,.7311,.3106,1.8589,.5272,2.6013,.0797,.2732,.1746,.3653,.246,.2388,.0192-.0339-.1065-.6345-.2791-1.3339-.1726-.6994-.3395-1.4537-.3706-1.6754-.0312-.222-.0793-.4144-.1071-.4281-.0703-.0346-.0736,.0874-.0164,.5973h0Z" style="fill:#b15026; stroke:#b15026; stroke-linecap:round; stroke-linejoin:round; stroke-width:.5px;"/><path d="M89.9645,110.3857c.0354,.1293,.059,.1527,.1182,.1167,.1289-.0783,.0223-.4667-.1121-.4086-.0562,.0243-.0579,.1025-.0061,.2919h0Z" style="fill:#b15026; stroke:#b15026; stroke-linecap:round; stroke-linejoin:round; stroke-width:.5px;"/><path d="M51.5641,51.5906c.1054,.0811,1.0236,.2087,1.0991,.1528,.0842-.0624-.0143-.0885-.5984-.1586-.5311-.0637-.59-.063-.5006,.0058h0Z" style="fill:#b15026; stroke:#b15026; stroke-linecap:round; stroke-linejoin:round; stroke-width:.5px;"/><path d="M41.6849,39.3952c.443,.5493,2.2103,2.0751,2.3702,2.0463,.0281-.0051-.2313-.2536-.5795-.5551-.3482-.3016-.8562-.7688-1.1349-1.0437-.6858-.6766-.6408-.6204-.5578-.6952,.058-.0523,.055-.0634-.0201-.0739-.0883-.0124-.2144,.0502-.2231,.1108-.002,.0141,.065,.1114,.1452,.2108h0Z" style="fill:#b15026; stroke:#b15026; stroke-linecap:round; stroke-linejoin:round; stroke-width:.5px;"/><path d="M58.3283,52.5152c.1409,.1158,.493,.3327,.5541,.3412,.0132,.0019,.0243-.0126,.0277-.0361,.0049-.034-.3292-.2773-.6518-.4749-.1423-.0871-.0909,.0373,.07,.1697h0Z" style="fill:#b15026; stroke:#b15026; stroke-linecap:round; stroke-linejoin:round; stroke-width:.5px;"/><path d="M62.8878,50.7465c.6314,.5229,1.1966,.8816,1.4436,.9163,.145,.0204,.1084-.0649-.0505-.1178-.2085-.0694-.7071-.4041-1.2438-.8349-.2502-.2008-.4736-.3659-.5005-.3696-.1248-.0175-.0349,.0864,.3511,.4061h0Z" style="fill:#b15026; stroke:#b15026; stroke-linecap:round; stroke-linejoin:round; stroke-width:.5px;"/><path d="M65.6096,49.0752c.1104,.2243,.2206,.3445,.2336,.2549,.0094-.0653-.2277-.5327-.2839-.5597-.0915-.0439-.0765,.0472,.0504,.3048h0Z" style="fill:#b15026; stroke:#b15026; stroke-linecap:round; stroke-linejoin:round; stroke-width:.5px;"/><path d="M65.4385,52.6963c.4176,.3475,1.413,.8162,2.4917,1.173,.361,.1194,.743,.2499,.8539,.2917,.3004,.1132,.3786,.0279,.4532-.4946,.1338-.9361,.1033-3.2638-.0472-3.6042-.0672-.1522-.0882-.0124-.0585,.3915,.055,.7495-.1231,3.1858-.2489,3.4028-.118,.2037-.2263,.1281-.2792-.1947-.0894-.5455-.7038-1.8034-.8338-1.7071-.0265,.0197,.0383,.2186,.1563,.4794,.2768,.6118,.5907,1.4051,.5639,1.425-.0282,.0209-1.2261-.4267-1.9096-.7134-.276-.1158-.682-.3181-.8947-.4459-.4309-.2589-.5562-.2607-.2471-.0034h0Z" style="fill:#b15026; stroke:#b15026; stroke-linecap:round; stroke-linejoin:round; stroke-width:.5px;"/><path d="M62.6141,35.4278c.0411,.1168,.0924,.213,.1123,.2107,.0465-.0053,.0438-.0289-.0362-.3111-.0367-.1295-.0834-.2181-.1059-.2014-.0561,.0415-.0539,.0635,.0299,.3018h0Z" style="fill:#b15026; stroke:#b15026; stroke-linecap:round; stroke-linejoin:round; stroke-width:.5px;"/><path d="M72.7679,29.3339c.0715,.3209,.0975,.3818,.1473,.3449,.0459-.034-.0906-.8388-.1435-.8463-.0738-.0104-.0753,.1804-.0038,.5014h0Z" style="fill:#b15026; stroke:#b15026; stroke-linecap:round; stroke-linejoin:round; stroke-width:.5px;"/><path d="M73.2027,26.1882c.053,.0074,.0871-.009,.075-.0361-.0128-.0289-.0508-.0538-.0905-.0593-.0397-.0056-.0712,.0095-.075,.0361-.0036,.0249,.0375,.0519,.0905,.0593h0Z" style="fill:#b15026; stroke:#b15026; stroke-linecap:round; stroke-linejoin:round; stroke-width:.5px;"/><path d="M75.3086,27.1945c.021,.1687,.0954,.0889,.128-.1375,.0239-.1654,.0163-.2279-.0267-.2208-.0618,.0103-.1193,.2136-.1013,.3583h0Z" style="fill:#b15026; stroke:#b15026; stroke-linecap:round; stroke-linejoin:round; stroke-width:.5px;"/><path d="M78.7432,43.1466c.0744,.0105,.1067-.065,.2875-.6703,.2049-.6863,.1993-.6605,.1443-.6682-.0571-.008-.1558,.2091-.3095,.6805-.1496,.4587-.1849,.6492-.1222,.658h0Z" style="fill:#b15026; stroke:#b15026; stroke-linecap:round; stroke-linejoin:round; stroke-width:.5px;"/></g><g><path d="M4.063,48.7555c-.1943,.0098-.4723,.0415-.6102,.0695-.3527,.0717-1.3452,.3719-2.1027,.6362-.5205,.1816-.6792,.2214-.8556,.2149-.2351-.0088-.3167,.0371-.1741,.0978,.0584,.0249,.0876,.0769,.0908,.1618,.0094,.2479,.2457,.41,1.9745,1.3545,1.0852,.5929,2.5495,1.5146,4.9931,3.1432,2.1192,1.4123,3.3352,2.174,3.9197,2.4554,.557,.2682,1.7491,.7143,2.7038,1.0118,.8907,.2776,1.4189,.5079,2.1219,.9254,.7982,.4739,1.2659,.8606,2.9828,2.4662,2.3982,2.2427,3.7723,3.3503,5.2213,4.2087l.9146,.5418,.3981,.4816c.2212,.2676,.6005,.8152,.8534,1.2322,.7182,1.1838,1.4129,2.1015,2.5289,3.3406,.5952,.6608,1.5369,1.6366,2.1342,2.2114l.4489,.4319-.3933-.2011c-1.9501-.9973-4.3374-1.5606-7.4633-1.7611-1.7948-.1151-2.8482-.0707-4.3677,.1839-2.329,.3904-4.6073,1.2531-7.6661,2.903-1.7897,.9654-4.8313,2.8275-4.9108,3.0064-.0195,.044-.0166,.1164,.0065,.1608,.0783,.1503,.2512,.1822,1.5165,.28,.3633,.0281,1.1339,.1427,1.7125,.2548,1.1696,.2266,1.8506,.2987,3.1519,.334,1.2269,.0332,1.7234,.0026,3.5643-.2198,3.384-.4088,4.7485-.729,6.0845-1.4275,1.5507-.8109,1.7866-.8393,3.6777-.4433,.48,.1005,1.0975,.2074,1.3799,.2389,.6456,.072,2.1017,.1385,2.8169,.1286,.6683-.0093,.883-.0353,2.1476-.2605,1.3699-.2439,1.7856-.2259,2.6907,.1162,.2101,.0794,.4124,.1283,.445,.1075,.0368-.0235,.2702,.0825,.6068,.2756,2.4171,1.3864,5.0929,2.3855,8.4345,3.1494,1.5189,.3472,1.5458,.3537,1.4367,.3473-.2183-.0129-1.4231,.0516-1.8509,.099-.68,.0753-1.527,.3161-2.3255,.6609-.8067,.3484-1.2388,.4973-2.3804,.8202-.4678,.1323-1.1665,.3438-1.5449,.4676-.4112,.1346-1.583,.4411-2.8952,.7574-4.0493,.9761-5.5593,1.3851-6.9406,1.88-.3632,.1301-.8596,.2819-1.0976,.3357-.6301,.1423-1.0394,.3056-1.0915,.4356-.0238,.0594-.0792,.1113-.1291,.1212-.0481,.0095-.0831,.0365-.0776,.0601,.0112,.049,.1346,.0692,.2564,.0421,.0468-.0104,.1769,.0143,.2819,.0536,.4035,.151,.7575,.1549,1.8371,.0205,.3999-.0498,.8571-.0972,1.0133-.105,.8358-.0419,3.1554-.1181,3.5967-.1182,1.3526-.0001,5.1437,.0971,6.4629,.1657,4.8097,.2501,6.7449,.0588,9.3617-.9254,1.5215-.5723,4.2558-1.8504,6.4604-3.0199,.2812-.1492,.6916-.361,.9073-.4683l.3939-.1959,.7497,.061c3.9207,.319,6.0684,.6084,7.8883,1.0629,2.3361,.5834,5.0263,1.7022,5.604,2.3306,.3216,.3499,.3546,.187,.0411-.203-.7782-.9681-4.4204-2.4071-7.57-2.9908-1.8458-.3421-3.4239-.5043-11.5497-1.1873-.2935-.0247-.5454-.0508-.557-.0578-.0632-.0381-.6371-.9495-.9141-1.4513-.39-.7068-.643-1.385-.9282-2.489-.1333-.5158-.2586-.9047-.3485-1.0809-.1919-.3767-.5953-.9403-1.5777-2.2046-.8898-1.1452-1.2611-1.654-1.754-2.4043-.5514-.8393-1.3307-1.8719-2.2308-2.9562-1.8635-2.2446-3.7724-4.3268-3.7923-4.1365-.0032,.0304,.1045,.157,.2384,.2805,.682,.6285,3.5488,4.1232,4.6339,5.6486,.185,.2601,.5752,.8411,.8716,1.298,.681,1.0494,.8836,1.3314,1.7644,2.456,1.4551,1.8577,1.6053,2.1041,1.8021,2.957,.1682,.7289,.568,1.9249,.7671,2.295,.0909,.169,.1692,.3311,.175,.3622,.037,.2015-3.5973-4.4234-4.6035-5.8582-.2844-.4055-.4054-.5239-.3678-.3598,.0081,.0354,.2108,.3678,.4501,.7382,1.446,2.2384,4.1383,5.7513,5.1909,6.7732l.0869,.0843-.3765-.0378c-.2619-.0264-.4248-.0724-.535-.1513-.0871-.0623-.4387-.317-.7806-.5654-.3426-.2489-1.3784-.9213-2.3052-1.4963-2.1988-1.3644-2.9527-1.9396-4.5414-3.4656-2.0078-1.9285-3.1074-3.3356-3.9127-5.0068-.2031-.4215-.226-.5042-.5552-1.9996-.2762-1.2548-.3795-1.6524-.5279-2.0327-.2377-.6088-.6029-1.3128-1.0334-1.9922-.1891-.2984-.5595-.8964-.8257-1.333-.2662-.4366-.6461-1.0244-.8467-1.3103-.3858-.5497-.6537-1.0251-.7852-1.3938l-.0805-.2255,.2244,.225c.3384,.3394,1.3147,1.191,1.6466,1.4364,.4337,.3206,1.5931,1.3897,2.1225,1.957,1.3916,1.4914,3.0477,3.7074,6.0566,8.1041,.3293,.4812,.5397,.7126,.5854,.644,.0114-.0171-.0416-.1205-.1198-.2338-.077-.1116-.3348-.5114-.5718-.8869-.8712-1.3801-2.2495-3.3758-3.2974-4.7742-1.1724-1.5646-1.8437-2.3895-2.6275-3.2284l-.1639-.1754,.2153,.1022c.2415,.1147,1.0443,.6315,1.4238,.9166,.324,.2434,.4435,.2307,.1929-.0204-.262-.2625-.9455-.7385-1.4836-1.033-.2508-.1372-.4902-.2848-.5267-.3246-.037-.0404-.3252-.2634-.6445-.4988-1.2302-.9071-1.4375-1.0656-1.8537-1.4173-.2332-.197-.6323-.5985-.8805-.8858-.49-.567-.5893-.6389-.6953-.503-.0551,.0707-.0463,.1408,.066,.526,.1601,.5493,.4443,1.1046,.9173,1.7927,.1991,.2896,.6052,.911,.9,1.3773s.7023,1.1117,.9031,1.4307c.8309,1.3194,1.0695,1.9301,1.478,3.782,.3345,1.5168,.3954,1.6963,.8564,2.5275,.8812,1.5885,1.8962,2.8233,3.9682,4.8276,1.6041,1.5517,2.3184,2.1117,4.5181,3.5422,1.1773,.7656,2.3651,1.5832,2.3452,1.6144-.0175,.0274-1.536-.202-2.4188-.3654-1.0832-.2005-3.158-.7017-4.1405-1.0001-3.3494-1.0174-6.0405-2.3663-8.6114-4.3164-.2711-.2056-.5497-.4237-.6141-.4808-.1449-.1283-.4067-.6217-.5905-1.1127-.174-.465-.1986-.7131-.1933-1.9539,.0021-.5008-.0274-1.1918-.0655-1.5339-.0408-.3666-.0587-.9268-.0434-1.363,.0332-.9466-.0436-1.4283-.3863-2.4249-.2903-.844-.5279-1.8569-.9174-3.9114-.3674-1.9377-.9457-4.4809-1.1981-5.2689-.312-.9741-.7747-2.1986-1.3592-3.5966-.2896-.6928-.6707-1.6447-.845-2.1108-.2816-.7532-.9174-2.2774-1.0942-2.6233-.0517-.1012-.0909-.124-.1792-.1043l-.1131,.0252,.1259,.6797c.1486,.8025,.1375,1.0152-.1157,2.2211-.3088,1.4708-.4574,2.5097-.4834,3.3804-.0254,.8526,.0218,2.1454,.1242,3.4029,.0562,.6907,.1106,1.7209,.1206,2.2857,.0298,1.6883,.0597,1.9474,.3926,3.4017,.3906,1.7064,.6964,2.5091,1.6703,4.3838,.7766,1.495,1.4972,2.5852,2.2102,3.3439,.2032,.2162,.4809,.5145,.6204,.6665,.1375,.1497,.3416,.3539,.4479,.448,.1993,.1765,.4036,.5081,.2148,.3488-.1627-.1373-1.3635-1.3462-1.9065-1.9195-1.266-1.3364-2.0882-2.3457-2.8442-3.4912l-.3709-.562-.2766-1.4215c-1.0679-5.4872-1.1299-5.707-2.1882-7.7666-1.2539-2.4401-1.9048-3.1685-5.0262-5.6243-1.6835-1.3245-2.749-1.9333-4.2038-2.4021-.6047-.1948-2.2037-.5839-2.9374-.7147-.4383-.0781-2.978-.373-4.1968-.4872-.6166-.0578-3.047-.0954-3.7788-.0584h0Zm-1.952,.6956c.788-.231,1.7963-.4517,2.1193-.4639,.743-.028,2.9562-.0186,3.4352,.0147,1.2445,.0864,4.0008,.387,4.7054,.5132,2.0775,.3719,3.5656,.8798,4.7983,1.6376,.825,.5071,2.9479,2.2106,4.028,3.2323,.6558,.6203,1.4273,1.551,1.8043,2.1766,.4324,.7178,1.1187,2.0814,1.5626,3.105,.2173,.5012,.2477,.6188,.9378,3.6341,.3927,1.7157,.7084,3.1131,.7026,3.1095-.045-.028-.6745-1.3193-.8882-1.8217-.1457-.3428-.4116-.9361-.5876-1.3117-.1761-.3755-.3724-.8191-.434-.9807-.1268-.3324-.187-.415-.226-.3103-.0394,.1059,.078,.5641,.2623,1.0235,.0916,.2281,.3076,.7857,.4815,1.2429,.1739,.4571,.3783,.9738,.4555,1.1517,.0767,.1768,.1448,.343,.1504,.3677,.0057,.0249-.17-.064-.3928-.1988-.2209-.1336-.6468-.3703-.9424-.5236-.5683-.2949-1.5686-1.0178-2.5143-1.8169-.772-.6524-.9819-.8542-2.3259-2.2363-1.4629-1.5044-1.8911-1.9033-2.523-2.3501-.8576-.6065-1.4827-.8996-2.6692-1.2519-1.8337-.5444-2.4787-.7817-3.4829-1.2812-1.2341-.6139-3.0632-1.7525-6.1766-3.8449-.4153-.2791-1.2805-.8042-1.9207-1.1657-1.5639-.8831-1.8471-1.0657-1.7904-1.1542,.035-.0547,.1071-.051,.3606,.0181,1.9739,.5384,2.5069,.6219,4.0144,.6285,2.9583,.0132,6.4288,.8951,10.1647,2.583,.6473,.2925,1.3337,.6128,1.5246,.7116,.6202,.3208,.4793,.0375-.1693-.3406-.5055-.2947-2.0021-.9808-2.7875-1.278-.9506-.3597-2.8243-.9584-3.6188-1.1564-.8453-.2106-1.9365-.4144-2.9836-.5571-.7717-.1052-1.0709-.1268-2.588-.1867-.8792-.0347-1.5633-.1417-2.6209-.41-.9216-.2338-.9315-.1965,.1348-.5091h0Zm25.4032,3.1458c-.1108-.665-.2594-1.4851-.3297-1.8199-.0733-.3488-.1031-.5648-.0697-.5051,.0755,.1348,.335,.7729,.5213,1.2814,.1601,.4372,.5,1.2681,1.0375,2.5368,1.076,2.5395,1.4414,3.8713,2.3159,8.4414,.4302,2.2483,.4991,2.5589,.7208,3.2474,.1354,.4206,.3167,1.0742,.4051,1.4605,.1533,.6698,.1593,.7331,.1418,1.5079-.0115,.5074,.01,1.014,.0576,1.3598,.0433,.3149,.0754,.9569,.0747,1.498-.0014,1.2219,.0329,1.5315,.213,1.9225,.0772,.1676,.1334,.3119,.126,.3236-.0074,.0116-.1412-.1849-.2983-.4385q-.302-.4872-.7227-1.9668c-.1422-.5002-.4-1.297-.5715-1.766-.6902-1.8884-.7679-2.1456-1.1777-3.8985-.3626-1.5511-.4478-1.8432-.5317-1.8245-.0167,.0037,.0294,.2774,.1017,.604,.0728,.3291,.2549,1.1649,.4055,1.8616,.1739,.8043,.339,1.4566,.4536,1.7923,.0992,.2906,.3354,.9756,.5254,1.5239,.3306,.9542,.7936,2.7335,.7351,2.825-.0111,.0173-.3445-.3606-.7381-.8364-.8697-1.0515-1.4822-2.0095-2.2427-3.508-.9722-1.9157-1.4193-3.1322-1.7364-4.7252-.2261-1.1357-.2472-1.3469-.2872-2.8707-.017-.6474-.0742-1.6965-.1274-2.3383-.1594-1.9209-.1662-3.4609-.0202-4.6341,.0796-.6398,.3596-2.2454,.4417-2.5326q.0371-.13,.0806,.0497c.0239,.0988,.1698,1.0148,.3242,2.0353,.1544,1.0204,.3611,2.3915,.4593,3.0464,.1974,1.3165,.3238,1.997,.7394,3.9826,.1875,.8959,.2994,1.3497,.3356,1.3615,.0856,.0278,.0666-.1212-.2177-1.7033-.2691-1.4979-.3566-2.0528-.7397-4.6857-.1118-.7685-.294-1.942-.4049-2.6078h0Zm-10.2306,20.0791c1.2697-.3824,2.9483-.6599,4.1345-.6834,1.8787-.0372,4.6611,.2564,6.3733,.6726,1.6549,.4022,3.5743,1.2201,4.7246,2.013,.1533,.1057,.4656,.3155,.6853,.4604,.2197,.1449,.5347,.3655,.6911,.484l.2875,.2177-.5811-.3028c-1.2607-.6569-1.9981-.9235-3.6268-1.3111-2.268-.5397-3.3351-.6357-6.2987-.5662-1.7409,.0408-2.64,.1651-5.1515,.7122-1.728,.3765-3.03,.7355-4.2726,1.1782-.4648,.1656-1.1557,.4038-1.5354,.5292-.3812,.126-1.0966,.3802-1.5974,.5677-.5008,.1875-1.1571,.4184-1.4653,.5157-.3078,.0971-.9095,.2989-1.3411,.4497-.44,.1538-.8441,.2724-.9228,.2709l-.14-.0026,.1537-.1272c.5577-.4615,3.0006-1.9642,4.5064-2.772,2.0634-1.1071,3.6381-1.7824,5.3762-2.306h0Zm-1.2096,2.5614c1.83-.5097,4.452-1.0612,5.7506-1.2094,.6659-.076,1.5241-.1094,2.9803-.1159,2.1456-.0096,3.2218,.1208,5.3627,.6496,1.516,.3745,2.3762,.7103,3.8188,1.4913q.8815,.4771,.4216,.4246c-.4536-.0519-.9565-.0064-1.9609,.1773-.9202,.1682-1.1414,.1841-2.221,.159-1.8698-.0434-2.6723-.1296-3.8838-.4173-1.0921-.2593-1.4819-.3049-1.9627-.2294-.4714,.074-.8986,.2468-1.6562,.6699-1.0462,.5842-1.2447,.6511-3.2495,1.0961-2.4701,.5483-4.3703,.8259-5.5715,.8139-1.3897-.0139-2.4422-.1484-3.9401-.5035-.5508-.1306-1.1996-.2581-1.4355-.2821-.2386-.0243-.4331-.0553-.4363-.0696-.0064-.0279,.4633-.1918,1.6884-.5895,.3828-.1243,.9704-.3291,1.3119-.4575,.34-.1278,1.0725-.3752,1.6267-.5494,.5542-.1742,1.2574-.406,1.5616-.5146,.3045-.1088,1.1118-.3532,1.7949-.5434h0Zm26.4864,6.7305c.6762-.2999,.8543-.3603,1.5604-.5296,.4375-.1049,.8609-.1961,.9385-.2023,.0774-.0062,.3115-.0266,.5175-.0451,1.0029-.0904,2.0819-.0833,2.8054,.0184,.3971,.0559,1.2215,.1559,1.8307,.2221,.9607,.1045,1.0876,.1285,.9529,.1802-1.7013,.6527-4.7875,1.6655-6.0271,1.9779-1.3237,.3337-3.0092,.5686-5.438,.7581-.5298,.0413-1.2077,.1061-1.5025,.1437-1.0923,.139-2.699,.3607-3.4198,.4717-.4061,.0626-1.0678,.1564-1.4628,.2073-.3966,.0511-1.1805,.1629-1.7414,.2481-.5609,.0853-1.3443,.204-1.7401,.2636-.3976,.0599-1.034,.1896-1.4212,.2895-.397,.1024-.6653,.1556-.6186,.1225,.1449-.1024,2.0508-.743,2.983-1.0025,.4961-.1381,2.2354-.5556,3.8639-.9276,2.6099-.5961,3.9887-.9368,5.8821-1.4535,.7421-.2025,1.1743-.3601,2.0372-.7427h0Zm-15.4471,4.5253c-.0882-.0261,1.7937-.4488,2.6512-.5955,.8189-.1401,2.5765-.4028,3.4553-.5165,.3973-.0514,1.0677-.1469,1.4869-.2118,.4193-.0649,.9737-.1447,1.2298-.177,.2572-.0324,.978-.1293,1.6071-.2159,.6286-.0866,1.733-.2052,2.4598-.2641,3.9032-.3164,4.8949-.487,7.4303-1.2776,1.6208-.5054,2.7627-.9206,4.1554-1.5106l.2999-.1271,1.8924,.1622c1.0395,.0891,1.9876,.1685,2.1035,.1761l.2111,.0138-.8326,.4154c-.4573,.2281-1.4136,.712-2.1214,1.0735-1.8412,.9403-3.9058,1.873-5.0235,2.2695-2.2046,.7821-4.1071,.9429-8.4146,.7111-3.3913-.1824-6.3999-.2543-8.4268-.2011q-1.8715,.0491-2.7935,.1733c-.8112,.1093-1.2388,.1413-1.3704,.1023h0Z" style="fill:#b15026; stroke:#b15026; stroke-linecap:round; stroke-linejoin:round; stroke-width:.5px;"/><path d="M19.2374,55.6282c.0605,.071,.3402,.3344,.6232,.587,1.2239,1.0921,2.072,2.1035,2.9145,3.4756,.4968,.809,.5633,.9427,.4903,.9862-.0563,.0336-.2489-.206-.8667-1.0782-1.0536-1.4874-1.4917-2.0256-2.5564-3.1406-.3265-.342-.6396-.6842-.6921-.7564-.1268-.1746-.0523-.2374,.0873-.0735h0Z" style="fill:#b15026; stroke:#b15026; stroke-linecap:round; stroke-linejoin:round; stroke-width:.5px;"/></g></g></g></svg>