<?xml version="1.0" encoding="UTF-8"?><svg id="Layer_1_copy" xmlns="http://www.w3.org/2000/svg" viewBox="0 0 120.4375 113.085"><g style="opacity:.5;"><g><path d="M14.1847,79.6626c.0169-.0292,.0974-.0869,.1751-.1257,.2606-.1298,.7182-.4983,1.1715-.9433,1.1817-1.1601,3.4917-3.547,3.8687-3.9974,.9997-1.1945,1.6423-2.1845,2.3949-3.6898,.5616-1.1232,1.8682-4.3608,2.0378-5.0494,.0156-.0635,.1967-.3629,.4017-.6644,.8886-1.3064,1.614-2.6421,2.2123-4.0734l.1193-.2855-.024,.2021c-.0132,.1115-.0481,.4024-.0777,.6488-.0884,.7355-.1034,1.4511-.0489,2.3433,.1114,1.8267,.2097,2.3126,.775,3.8307,.1482,.398,.4159,1.1707,.5932,1.712,.3232,.9866,.438,1.2529,.6419,1.4886,.1027,.1186,.1147,.1224,.1986,.0623,.1273-.0913,.2265-.3959,.3897-1.1972,.0791-.3886,.2686-1.229,.4222-1.8725,.9702-4.0652,1.0858-5.2101,.7478-7.4032-.1137-.7379-.2693-1.3558-.4874-1.9359-.2113-.562-.7821-1.6185-1.2158-2.2504-.2156-.3141-.4335-.6604-.4846-.7702-.1145-.2455-.1216-.5455-.0312-1.3117,.1564-1.3259,.3062-3.8031,.3555-5.881,.0509-2.1433,.0742-2.6218,.116-2.3822,.2145,1.2297,.3687,1.7573,.7709,2.638,.3628,.7944,.766,1.4954,1.3426,2.3342,.9558,1.3903,1.7499,2.318,2.2003,2.5704,.1174,.0658,.2751,.1822,.3547,.2618,.0803,.0803,.1588,.1432,.1784,.1431,.074-.0005,.1502-.2934,.1483-.5704-.0019-.2811-.2242-2.5724-.3111-3.2066-.0694-.5065-.1965-1.099-.4416-2.0593-.4089-1.6017-.6856-2.2297-1.5045-3.4143-.556-.8043-.8394-1.1817-1.2131-1.6156-.4608-.5351-.7199-.9764-.9539-1.625-.1343-.3723-.1352-.3795-.0874-.7073,.1928-1.3209,.5495-3.1188,.7232-3.6443,.1117-.3381,.5841-1.3004,.8772-1.787,.1342-.2228,.4494-.6531,.6994-.9549,.6474-.7814,.7064-.9213,.4697-1.1143-.2832-.231-.2899-.2296-.6258,.1265-.2763,.2929-.3431,.4024-.8653,1.4176-.3118,.6061-.611,1.237-.6663,1.4048-.2106,.6389-.7224,2.8633-1.0099,4.3887-.0421,.2234-.1169,.4908-.1672,.5974-.1604,.34-.5856,.6807-1.6383,1.3125-1.7519,1.0515-2.6866,1.7124-3.8622,2.7312-.748,.6482-1.9775,1.9608-2.6661,2.8463-.2796,.3596-1.5451,2.1911-1.7518,2.5353-.1415,.2356-.1688,.4236-.0669,.4609,.0902,.0331,2.1304-.4401,2.644-.6132,1.2024-.4052,2.6438-1.2015,3.6797-2.0327,.5889-.4725,1.0652-.9638,1.7407-1.7954,.8137-1.0018,1.1256-1.439,1.5001-2.1028l.1939-.3437,.0011,.1616c.0006,.0885-.015,.381-.0345,.6466-.037,.5047-.12,2.3015-.1821,3.9408-.0319,.8425-.1062,2.1205-.1774,3.0482-.0239,.3118-.0275,.3203-.1471,.353-.0681,.0186-.2468,.1333-.4019,.258-.3334,.2679-.423,.32-1.6161,.9397-1.0027,.5208-1.6513,.931-2.1981,1.3899-.6814,.5721-2.3175,2.3008-3.4991,3.6973-.3208,.3792-.7998,.9411-1.0587,1.2419-.6325,.7351-2.095,2.529-2.2609,2.7733-.4228,.6225,.1361,.7147,1.5175,.2504,1.1997-.4032,2.2483-.8861,3.4487-1.5881,1.9929-1.1655,3.1403-2.0349,3.937-2.9833,.4598-.5474,1.1898-1.6429,1.6015-2.4035,.3748-.6924,.3641-.7295,.1452,.503-.2278,1.2826-.5178,2.4973-.8205,3.4371-.5116,1.5879-1.4041,3.3756-2.5403,5.0874-.5899,.8887-.8175,1.1404-1.4453,1.5979-.9741,.7098-2.6968,2.1165-3.1591,2.5796-.5844,.5854-1.1802,1.4197-1.8495,2.5898-1.6567,2.8963-2.9526,5.4804-3.3507,6.6816-.1572,.4743-.1902,.882-.0813,1.0047,.0339,.0383,.0767,.1054,.0903,.1418,.0317,.0844,.0937,.0909,.138,.0145h0Zm-.054-.6383c.0878-.4244,.3677-1.0796,1.0347-2.4229,.5744-1.1566,1.8995-3.5942,2.6341-4.8456,.5079-.8651,1.0747-1.6516,1.5908-2.2072,.2007-.2161,1.4186-1.2646,2.0161-1.7356,.1696-.1337,.4694-.379,.671-.549,.4848-.4087,.5209-.4254,.3015-.1394-.1009,.1315-.5014,.6534-.8872,1.1561-.7657,.9976-1.0285,1.371-1.1916,1.6929-.2193,.4328-.1084,.397,.2557-.0825,.1567-.2063,.5702-.7135,.9194-1.1275,.3491-.4139,.8929-1.0761,1.2089-1.4718,.3149-.3945,.5795-.7142,.5859-.7079,.0394,.0392-1.3406,3.3059-1.7651,4.1782-1.0444,2.1459-1.8916,3.3298-3.8476,5.3767-2.5712,2.6907-2.7262,2.844-3.1471,3.114-.1574,.1009,.5623-1.0003,1.101-1.6848,.714-.9072,1.417-1.8906,2.0393-2.8526,.3349-.5177,.8801-1.3365,1.2093-1.8161,.7958-1.1594,.9337-1.3763,.9331-1.4681-.0003-.0423-.0197-.0649-.0432-.0503-.1256,.0783-1.5906,2.1308-2.3317,3.2668-.4634,.7103-1.2948,1.8898-1.8991,2.694-.2001,.2663-.5087,.7132-.6873,.9952-.1786,.282-.4082,.6429-.5113,.8036-.1513,.2357-.1926,.2773-.215,.2169-.0154-.0413-.0039-.1904,.0256-.333h0Zm13.1535-12.0164c-.1384-.3838-.2675-.833-.3191-1.1098-.2062-1.1067-.3176-3.0039-.2358-4.0151,.0906-1.1201,.7809-4.8745,.8443-4.5915,.0123,.0548,.0459,.4921,.0746,.969,.0527,.8761,.1064,1.3843,.2607,2.4644,.1196,.8372,.1739,1.5185,.2253,2.8263,.0283,.7192,.0766,1.3689,.1291,1.7343,.046,.3205,.128,.9764,.1816,1.4531,.1026,.9117,.1022,.9996-.0103,3.1318l-.0191,.3618-.4494-1.2898c-.2474-.7101-.5538-1.5796-.6819-1.9346h0Zm1.3327,2.1535c.022-.3887,.049-.9182,.0597-1.1738,.0195-.4632-.0601-1.7271-.1853-2.942-.0354-.3439-.0668-1.0037-.0699-1.4731-.0082-1.2223-.0599-1.8232-.3113-3.6183-.0483-.3445-.1284-1.1899-.178-1.8782-.0497-.6883-.11-1.4403-.1341-1.6708-.0241-.2307-.0342-.4287-.0225-.4404,.0116-.0116,.0214-.0021,.0216,.021,.0002,.0233,.1517,.2837,.3368,.5787,.387,.6169,.9523,1.7247,1.172,2.2969,.5497,1.4317,.8048,3.5073,.6169,5.0205-.0985,.7939-.4166,2.3496-.794,3.8833-.1858,.7553-.3794,1.5764-.4291,1.8207-.0502,.2466-.0978,.409-.1068,.3643-.0088-.0443,.002-.4001,.024-.7888h0Zm-11.521-6.141c.0998-.0917,1.4478-1.0342,2.3912-1.6719,.924-.6245,1.1632-.8184,1.0085-.8174-.1658,.0011-1.9346,1.128-3.1495,2.0064-.3105,.2246-.5698,.401-.5784,.3936-.0086-.0073,.1139-.1604,.2707-.3384,.1582-.1796,.515-.5978,.7971-.9343,.2802-.3343,.8522-1.0039,1.2673-1.4837,.4151-.4798,1.0233-1.1853,1.3476-1.5631,1.2716-1.4818,2.8301-3.0807,3.4716-3.5616,.5133-.3848,.9705-.6686,1.7516-1.0873,.3381-.1813,.7781-.4264,.9791-.5455,.3239-.1919,.4427-.2825,.8459-.6453,.1085-.0976,.1124-.0982,.113-.0165,.0003,.0461-.0276,.1128-.0614,.1466-.0328,.0328-.0618,.0928-.0615,.1274,.0012,.172-.535,1.0807-1.0323,1.7496-.9539,1.2831-2.1067,2.4015-5.4956,5.3313-.1319,.114-.2284,.2199-.2137,.2346,.0575,.0575,1.2897-.8821,2.5617-1.9534,.9346-.7872,2.2095-2.0065,2.7243-2.6055,.4367-.5083,.8587-1.0867,1.1644-1.5966l.2571-.4287-.0179,.2406c-.0097,.1312-.0267,.3753-.0373,.5369-.0189,.2878-.0325,.3196-.4699,1.0957-1.4579,2.5872-2.4798,3.6452-5.0975,5.2774-1.4875,.9275-2.2318,1.3079-3.4591,1.7678-.7547,.2828-1.4013,.4557-1.2769,.3414h0Zm10.4616-9.324c.0151-.1117,.036-.1981,.0455-.1888,.0098,.0096,.0062,.1096-.0082,.2251-.0144,.1155-.0346,.1994-.0455,.1888-.0106-.0103-.0069-.1134,.0082-.2251h0Zm5.053-1.1429c-.3364-.8949-.3705-1.0094-.5715-1.9161-.1547-.6978-.3876-1.3478-.7797-2.1763-.9131-1.9292-1.3329-2.8545-1.5612-3.4408-.3243-.8328-.5766-1.5713-.6767-1.9808-.076-.3111-.1853-1.1076-.1561-1.1378,.0083-.0085,.0381,.0536,.0665,.1381,.1135,.3387,.4728,.9395,.8135,1.3605,.4956,.6123,1.527,2.1325,1.8061,2.6621,.1273,.2416,.2951,.6174,.3752,.8401,.2483,.6909,.7258,2.5715,.8241,3.2456,.0552,.3782,.2943,2.595,.3331,3.0872l.0288,.3653-.0844-.0803c-.0471-.0448-.2315-.4717-.4176-.9668h0Zm-.7821-.2988c-1.1328-1.4507-1.9792-2.804-2.5259-4.0386-.2831-.6393-.3861-.9939-.6338-2.1811-.2571-1.2327-.2583-1.2756-.0927-3.3543l.0481-.6043,.0321,.3191c.0677,.6733,.2945,1.4793,.7433,2.6421,.3115,.807,.5973,1.4273,1.3641,2.9612,.8071,1.6144,.9759,2.0505,1.1992,3.0969,.0676,.317,.2127,.7873,.3731,1.2095,.3631,.9556,.3606,.9367,.0869,.6535-.1289-.1334-.3942-.4476-.5944-.704h0Zm-13.1173-1.3455c0-.0105,.0833-.0764,.1843-.1455,.1007-.0689,.3842-.2873,.6247-.4812,.2405-.1938,.6375-.4933,.875-.6598,.4348-.305,.5193-.4053,.3405-.4042-.1112,.0007-.9247,.5248-1.3863,.8931-.1784,.1424-.3075,.2328-.2895,.2028,.0805-.134,.868-1.2676,1.1116-1.6,.3331-.4547,.802-1.0133,1.4645-1.7447,.6437-.7107,.9963-1.0481,1.7487-1.6737,.9896-.8227,1.4431-1.1437,2.8724-2.0328,1.0175-.633,1.4705-.9359,1.6889-1.1294,.0969-.0858,.1855-.151,.194-.1427,.0087,.0085-.0398,.1484-.109,.3143-.0691,.1656-.1964,.5072-.2854,.7656-.089,.2583-.2631,.6561-.3902,.8913-.433,.8012-1.2744,1.534-3.468,3.0202-1.3666,.9259-2.2493,1.585-2.1615,1.6138,.0259,.0085,.1788-.0835,.3418-.2056,.4966-.372,1.2694-.8876,2.2481-1.4998,1.3787-.8624,2.1761-1.4586,2.7364-2.0456,.4038-.4231,.7898-1.1055,1.0092-1.7841,.0636-.1966,.1231-.3462,.1335-.3356,.0187,.0189-.1989,.967-.2891,1.26-.1418,.4603-.6271,1.1929-1.5869,2.3957-1.3622,1.7069-2.3484,2.5161-4.1947,3.4419-.9384,.4706-1.2792,.5884-2.6537,.9175-.4049,.0969-.7412,.1788-.7476,.182-.007,.0035-.0117-.0019-.0118-.0134h0Zm11.5684-15.5302c.0242-.0463,.0516-.0811,.0638-.0812,.0123,0,.0025,.0346-.0229,.0809s-.0527,.0811-.0638,.0812c-.0111,0-.0013-.0346,.0229-.081h0Zm.297-.5559c.1877-.3744,.7888-1.2705,.8722-1.3004,.0145-.0052,.0547,.0075,.086,.0271,.1038,.0652,.0128,.2204-.4626,.7891-.2587,.3095-.5192,.6451-.5762,.7424-.1814,.3097-.1439,.1895,.0806-.2583h0Z" style="fill:#b15026; stroke:#b15026; stroke-linecap:round; stroke-linejoin:round; stroke-width:.5px;"/><path d="M51.8885,54.2958c-.0481-.2207-1.0976-2.3325-1.3605-2.7377-.1304-.201-.625-.88-1.103-1.5144s-1.0292-1.3725-1.2291-1.6461c-.3681-.5036-1.0946-1.3946-1.4217-1.7434-.0985-.1051-.1759-.2001-.1719-.211,.0039-.0109,.1984-.0443,.4286-.0737,.9079-.116,2.4707-.4999,3.061-.752,.3093-.132,1.4999-.8664,1.7089-1.0541,.1143-.1026,.162-.2765,.1145-.4172-.0711-.2107-1.2247-1.0673-2.2781-1.6916-2.0795-1.2323-3.6406-1.8368-5.6659-2.1937-2.1025-.3706-3.6564-.3968-5.8795-.0994-.4144,.0555-1.3192,.1763-2.0114,.2687-1.4802,.1975-2.0693,.3024-3.4104,.6077-1.3231,.3011-1.5489,.3639-1.5759,.4384-.0361,.0994,.0206,.183,.1564,.231,.0698,.0246,.1249,.0667,.1249,.0952,0,.0312,.1232,.1058,.3158,.1913,.1962,.0871,.4106,.2178,.5665,.3452,.1371,.1121,.4365,.355,.6608,.5359,.2243,.181,.5363,.4615,.6886,.6193,.1529,.1584,.4776,.4702,.7203,.6917,.2431,.222,.9077,.8544,1.4778,1.4064,1.7563,1.7004,2.8024,2.5658,3.9279,3.2495,1.3683,.8312,5.5148,2.9863,7.4577,3.8762,1.3142,.6019,3.4116,1.4888,4.0975,1.7327,.4036,.1435,.439,.1497,.5232,.0919q.1139-.0783,.0772-.2465h0Zm-.869-.3438c-.202-.0871-.982-.4044-1.7343-.7055-2.7163-1.0873-4.5098-1.9299-6.8193-3.2041-.7455-.4113-2.1622-1.246-2.5628-1.51-.8099-.5338-2.1192-1.625-3.1356-2.6135-.7929-.7712-1.6526-1.5745-2.193-2.0492-.2827-.2483-.5902-.5305-.6867-.63-.0954-.0983-.2706-.2587-.3856-.3528-.1149-.0941-.2043-.1748-.1966-.1775,.0216-.0075,1.4821,.6986,1.9558,.9455,.2306,.1202,.892,.4985,1.475,.8437,1.3945,.8257,1.6092,.9272,2.7968,1.3219,1.072,.3563,1.4187,.4293,2.486,.5234,.7988,.0704,3.2309,.1472,3.9032,.1232l.2224-.008,.4008,.442c.2219,.2446,.5251,.5888,.6791,.7709,.3304,.3906,2.693,3.5262,2.952,3.9178,.1952,.2952,1.2443,2.4259,1.2231,2.4842-.008,.0219-.1582-.0263-.3803-.1221h0Zm.2748-9.5104c-.144,.0848-.3915,.2376-.543,.3353-.6709,.4328-1.0504,.5821-2.1531,.8465-.9121,.2188-1.5405,.3368-2.0318,.3818l-.3728,.0341-.4295-.4258c-1.5588-1.5456-2.9882-2.3804-5.7522-3.3593-1.1562-.4095-1.6185-.5298-2.7023-.7036-1.4759-.2366-2.1971-.2809-3.9591-.2429-.1712,.0037-.2846-.0045-.2544-.0183,.1502-.0687,1.5519-.2924,3.0474-.4864,3.4387-.4461,3.7117-.4721,4.8665-.465,2.0253,.0126,4.5189,.4931,6.0979,1.1752,1.418,.6125,2.9742,1.5222,4.0016,2.3392,.1961,.1559,.3797,.3007,.4123,.3249,.0874,.0651,.0631,.0933-.2276,.2644h0Zm-7.0988,1.6016c-2.715-.0638-3.4333-.1618-4.8469-.6613-.8056-.2847-1.0254-.3934-2.265-1.1209-1.4071-.8258-2.2095-1.228-4.3599-2.1852-.4137-.1841-.7719-.3517-.8003-.3743-.0824-.0657,.0533-.0668,2.705-.0226,1.0465,.0174,2.3035,.1707,3.5742,.4358,.7407,.1545,3.0299,.9652,3.8982,1.3805,1.1895,.5689,2.0248,1.1027,2.8176,1.8007,.6059,.5333,.8141,.7545,.7235,.7683-.0411,.0063-.6907-.0031-1.4465-.0209h0Z" style="fill:#b15026; stroke:#b15026; stroke-linecap:round; stroke-linejoin:round; stroke-width:.5px;"/><g><path d="M72.8111,74.1843c-.0132-.1258-.0586-.3883-.101-.5842-.0425-.1964-.0959-.5758-.1191-.8467-.0387-.4519-.1501-1.1382-.2739-1.6867q-.0506-.2242,.0627-.4614c.2231-.4669,.2314-1.4987,.0167-2.071-.1934-.5155-.7157-1.1906-1.4385-1.8594-.1955-.1808-.8302-.7172-1.4069-1.1888-1.2206-.9981-1.2776-1.0507-1.8441-1.702-.766-.8807-1.2994-1.284-2.189-1.655-.3395-.1416-.4418-.1645-1.1645-.2612-1.5615-.2088-3.0019-.0931-5.2212,.4195-.4796,.1108-1.1722,.2663-1.535,.3447-1.2257,.2648-2.0825,.6052-3.5593,1.4143-.366,.2005-.6674,.3632-.6717,.3627-.0043-.0006,.0554-.1421,.1342-.3179,.078-.174,.2224-.5545,.3204-.8443,.2311-.6826,.3127-1.2316,.3151-2.1203,.001-.3706,.0218-1.0279,.0463-1.4672,.0245-.4393,.0397-1.1547,.0338-1.597-.0162-1.2173-.1586-1.6817-.8283-2.7003-.1707-.2596-.3789-.6144-.4674-.7963-.103-.2118-.2015-.3529-.2778-.3982-.0655-.0389-.1281-.0628-.1402-.0537-.0263,.0198,.0407,.3238,.201,.9121,.1439,.5278,.3049,1.3198,.362,1.78,.1895,1.5292-.2152,3.2169-1.1744,4.8978-.1186,.2078-.4491,.7436-.7324,1.1871-.6509,1.0194-1.1897,1.9203-1.3221,2.2109l-.1034,.2269-.667-.1008-.667-.1009,.0902-.4849c.0499-.268,.164-.739,.2551-1.053,.3254-1.1212,.4161-1.9111,.3175-2.7645-.0852-.7374-.3309-1.3168-.8061-1.9005-.5364-.659-.7218-.6449-.7355,.056-.0152,.7789-.2042,1.747-.6476,3.3183-.1985,.7033-.2125,.7802-.2536,1.3909-.0937,1.3929-.0826,1.3167-.189,1.3025-.0532-.0071-.2824,.0076-.5102,.0327s-.4266,.0439-.4426,.0418c-.016-.0021-.0767-.1151-.135-.251-.1937-.4516-1.2305-2.6687-1.6638-3.5575-.2348-.4818-.5398-1.1343-.6813-1.4577-.3848-.8794-.6111-1.3163-1.3047-2.5195-.3492-.6057-.9923-1.8021-1.4276-2.6563q-1.2785-2.5082-2.9385-4.7957c-.2621-.3612-.6488-.9148-.8643-1.2376-.2142-.3208-.6219-.9179-.9042-1.3245-.4633-.6672-1.4431-2.1808-2.047-3.1623-.2952-.4798-.9826-1.8979-1.4549-3.0016-.2009-.4695-.4436-1.0182-.5402-1.2214-.3527-.7421-.806-1.8099-.9767-2.3009-.468-1.3453-.8148-2.8383-1.0148-4.3676-.1597-1.221-.196-1.5779-.2607-2.5623-.0363-.5523-.0896-1.3217-.118-1.7046-.0563-.7571-.0549-1.6574,.0039-2.589,.0205-.3234,.0353-.6948,.0333-.8303-.002-.1348,.0181-.8207,.0447-1.5237,.079-2.0859,.0846-2.4156,.0565-3.2964-.0379-1.1892-.0857-1.5715-.2989-2.3927-.2913-1.1222-.4739-1.5073-.6725-1.4184-.1006,.0451-.1253,.2246-.0305,.2217,.0493-.0015,.0941,.0631,.1458,.2097,.1346,.3819,.4009,1.494,.4496,1.8771,.0941,.7416,.1216,2.4855,.0593,3.7622-.0196,.4009-.0444,1.1219-.0552,1.6019s-.0252,1.0643-.032,1.2983c-.0416,1.4232-.0416,2.2584-.0003,2.8574,.0259,.3737,.0726,1.0386,.1041,1.4815,.1939,2.7203,.5094,4.5948,1.1264,6.6925,.2347,.7979,.4042,1.2459,.8449,2.2328,.1917,.4293,.5838,1.3166,.8715,1.9724,.8398,1.9137,1.2555,2.7292,1.9839,3.8915,.709,1.1314,1.3083,2.0435,1.8792,2.8603,.2006,.2869,.5068,.7377,.6863,1.0099,.1782,.2705,.5986,.8779,.9341,1.3498,1.4216,1.9993,1.5488,2.2037,2.323,3.7311,1.0026,1.9782,1.2178,2.3869,1.8118,3.4414,.7285,1.2932,.8836,1.5995,1.3197,2.6069,.3472,.8019,1.7495,3.6699,2.2281,4.557,.2642,.4896,.3171,.6365,.2116,.5877-.0265-.0122-.2685-.4904-.5376-1.0622-.5227-1.1104-1.0464-2.0817-1.0829-2.0084-.0119,.0239,.1227,.3445,.298,.7096,.1766,.3678,.498,1.0547,.7179,1.5344,.3526,.7693,.3899,.8734,.3255,.9108-.1026,.0596-.1799,.0398-.1699-.0436,.0045-.0376-.0365-.1582-.0905-.2664-.0544-.1088-.3033-.6714-.554-1.2524s-.4709-1.036-.4902-1.0129c-.0346,.0414-.7165-1.4896-1.1272-2.5307-.422-1.0698-.7025-1.6398-1.3417-2.7263-.5131-.8723-.824-1.3444-1.4013-2.1286-.8656-1.1757-1.2268-1.6919-1.978-2.8269-.3898-.5889-1.0669-1.5714-1.5002-2.1768-1.2588-1.7588-1.4145-2.01-2.5749-4.1569-2.4882-4.6034-2.793-5.214-3.468-6.9474-.8439-2.1672-1.3461-4.0314-1.663-6.1742-.2988-2.0202-.3313-2.9911-.2393-7.164,.0508-2.3071,.0573-3.5029,.0221-4.1046-.0549-.9391-.2514-2.0762-.3765-2.1786-.1229-.1005-.1337,.0565-.0566,.8162,.1332,1.3114,.1406,1.9445,.0649,5.5605-.0828,3.9529-.051,4.9934,.2074,6.7831,.3603,2.4955,.8809,4.404,1.9313,7.0797,.588,1.4978,1.2403,2.8292,3.0025,6.1281,1.3691,2.563,1.564,2.8813,2.9101,4.753,.3052,.4243,.8577,1.229,1.233,1.7955,.8577,1.295,1.1044,1.6489,1.9909,2.8558,.8,1.0892,1.211,1.7182,1.7793,2.7227,.4702,.8312,.7264,1.3784,1.1595,2.4768,.1826,.4631,.462,1.1313,.6226,1.4887,.3693,.822,1.0349,2.3713,1.1891,2.768,.0653,.1679,.1617,.386,.2163,.489,.0531,.1003,.0894,.1919,.079,.1988-.0106,.0071-.1502,.076-.3061,.1513-.3583,.173-.9757,.6443-1.1878,.9068-.2386,.2953-.3598,.5536-.571,1.2165-.1032,.324-.2453,.7453-.3139,.9306-.0684,.185-.1451,.4054-.1691,.486-.0278,.0934-.0659,.1445-.1038,.1395-.0335-.0045-.1531,.0404-.2718,.1021-.5733,.2978-1.2508,.4242-2.2377,.4173-.1813-.0013-1.0337-.0389-1.8895-.0833-1.8913-.0983-3.325-.2675-4.1129-.4854-.5991-.1657-.7285-.1846-.7687-.1125-.0508,.091,.0283,.1741,.3345,.3514,.4323,.2503,1.0508,.4873,2.1984,.8423,.57,.1763,1.2295,.3915,1.469,.4793,.7493,.2747,1.7135,.582,2.0473,.6525,.2295,.0485,.3967,.0591,.5852,.0373,.8238-.0954,1.8685-.5731,2.4242-1.1085l.1486-.1432,.0121,.1123c.01,.0925-.0428,.1787-.2997,.4899-.3181,.3852-.8788,1.0084-1.5934,1.7708-.2199,.2346-.6244,.6083-.8959,.8275-.9363,.7561-1.3129,1.1451-1.7334,1.7909-.5777,.8871-1.1144,2.3046-1.255,3.3147-.0356,.2553-.0709,.3831-.1169,.423-.0824,.0714-.3209,.5783-.4606,.9789-.2652,.7604-.3745,1.2971-.6307,3.0953-.2344,1.6458-.2506,1.8053-.2499,2.4552,.0022,1.8949,.1311,2.5719,.7518,3.948,.2751,.6099,.427,.8345,1.111,1.6422,.447,.5278,.5999,.6684,.9295,.8545,.268,.1513,.3122,.1914,.9378,.8509,.3852,.406,.4116,.4485,.6261,1.0052,.3312,.8596,.7307,1.4477,1.1909,1.7531,.134,.0889,.4187,.2327,.6275,.3168,.3507,.1413,.448,.1626,1.1788,.2574,.9357,.1214,1.3083,.1177,1.9824-.02,1.1284-.2304,1.8782-.831,2.4039-1.9254,.184-.3831,.5293-1.3761,.5625-1.6175,.011-.0801,.0328-.136,.0487-.1251,.3416,.2348,.6643,.4178,.8799,.4992,.4939,.1864,1.3164,.1853,1.8186-.0027,.2657-.0994,.4029-.2025,.601-.4517l.1478-.186,.3199,.0489c.6771,.1035,1.5557,.3066,2.2772,.5265,.6648,.2026,.8189,.2361,1.284,.2792,1.0842,.1007,2.0943-.174,2.9273-.7961,.3094-.2311,.4133-.3389,.6112-.6347,.4067-.608,.6004-1.1582,.8629-2.4509,.1619-.7975,.1964-1.2943,.1117-1.6118-.0215-.0805-.0309-.1508-.0211-.1581,.0096-.0072,.1171,.0645,.2379,.1588,.314,.2451,.6946,.4156,1.5533,.6962,1.0848,.3543,1.5235,.4699,2.0585,.5425,1.0546,.143,1.7923-.0405,3.1336-.7796,.924-.5091,1.6535-1.0961,2.071-1.6665,.2417-.3302,.2987-.5346,.2924-1.048-.003-.2411-.0005-.4756,.0056-.5195,.0081-.0593,.1446-.136,.5246-.295,.7391-.3093,1.1637-.6331,1.5462-1.179,.6914-.9868,1.0005-1.9266,.9502-2.8896-.0404-.7725-.1583-1.3606-.5167-2.5771-.3442-1.1681-.5505-1.7083-.8408-2.2012-.144-.2445-.2583-.4503-.2525-.4546,.0127-.0096,.9162-.0342,1.8788-.0512,.7417-.0131,.9723-.0397,1.2157-.1403,.3339-.138,.5035-.471,.4585-.9002h0Zm-.4197,.1884c-.3842-.4979-1.9331-1.7129-3.0588-2.3993-.681-.4153-2.9841-1.7115-3.8941-2.1918-1.7467-.9217-3.0746-1.4454-4.801-1.8935-.7478-.1941-2.5608-.4673-3.771-.5682-.5409-.0451-.9904-.0899-.9978-.0994-.0404-.0524,2.4711-.2831,3.121-.2866,.7996-.0044,.8274-.0068,.8365-.0732,.005-.0367-.1024-.0567-.4145-.0771-.8933-.0584-1.226-.0421-3.158,.1551-2.2473,.2293-2.3383,.234-2.9369,.1498-.2857-.0402-.5556-.0897-.6027-.1107-.1235-.0549,1.8278-.6139,2.3434-.6713,.2278-.0253,.241-.0902,.0243-.1192-.2472-.033-.8068,.0855-1.8363,.389-1.0377,.3059-1.224,.3521-1.3079,.3244-.033-.0109,.2019-.1085,.5197-.216,.3176-.1074,.9553-.3502,1.4099-.5368,1.3973-.5735,1.6993-.6396,2.8971-.6338,2.1592,.0105,2.6246-.0296,3.8274-.3297,.7376-.184,1.9382-.3876,2.3815-.4038,1.1636-.0425,3.1613,.25,4.7723,.6989,.8409,.2343,1.2929,.4719,2.1766,1.1443,.8694,.6615,1.2352,1.0215,1.7391,1.7112l.4715,.6454,.0201,.3055c.033,.5014,.009,.8245-.0843,1.134-.0473,.1567-.0946,.2933-.1042,.3005-.0098,.0074-.0563-.0201-.1056-.0624-.299-.2566-1.6609-.9729-2.5179-1.324-.5551-.2275-.5664-.2311-.5731-.1825-.0026,.019,.2178,.1333,.4923,.2553,.616,.2739,1.3904,.679,2.012,1.0525,.6944,.4172,.7026,.4255,.7916,.8024,.0426,.1804,.082,.3755,.0886,.4389l.0119,.1142-.2152-.1806c-.4556-.3822-1.704-1.0895-2.5706-1.4563-.5132-.2172-1.3154-.468-1.3697-.4283-.0216,.0158,.0659,.0647,.1937,.1082,1.1729,.3999,2.8812,1.2934,3.6533,1.911,.1383,.1106,.2674,.2035,.2865,.206,.0579,.0078,.0651,.0592,.1141,.8111,.0262,.4034,.0666,.8012,.0899,.8856,.0367,.133,.1208,.6812,.1168,.761-.0009,.0176-.0316-.0081-.0717-.0601h0Zm-.1585,.38c-.2359,.1536-.3974,.1711-2.7406,.2969l-.9278,.0498-.2508-.1795c-.6789-.4859-3.7922-2.1317-5.0376-2.6631-.1673-.0714-.3271-.1427-.3541-.158-.0256-.0145-.0521-.0077-.0551,.014-.0032,.0232,.2415,.1612,.5479,.3089,1.4063,.6781,4.8431,2.561,4.8312,2.6468-.0048,.0349-.6801-.1197-1.0035-.2297-.4453-.1515-1.3879-.6116-2.46-1.2009-2.1589-1.1865-2.2914-1.2556-3.026-1.5785-.2895-.1272-.6729-.3194-.8505-.4263-.2617-.1575-.3815-.2048-.6271-.2479-.3958-.0694-.4802-.1195-.7531-.4479-.124-.1493-.3312-.3819-.4586-.5149-.1273-.133-.2244-.2486-.2147-.2558,.0097-.0073,.1425,.023,.2977,.0679,.3482,.1008,.4449,.1135,.4523,.0596,.0092-.0665-.1695-.1409-.5919-.2464l-.3995-.0997-.615-.5365c-.3374-.2943-.7632-.6475-.9433-.7823-.182-.1363-.3262-.2611-.3236-.2801,.0051-.037,2.2841,.3043,2.6647,.399,.2055,.0512,.2973,.0127,.1545-.0647-.127-.0689-1.8506-.3946-2.5279-.4777l-.6928-.085-.385-.2052c-.3777-.2013-1.118-.498-1.3093-.5247-.1679-.0234-.0681-.0488,.3629-.0923,.3073-.031,.4209-.0289,.4375,.0078,.0259,.0572,.5816,.1369,2.9933,.4294,1.1691,.1418,1.5073,.1963,2.0407,.3288,2.4493,.6086,4.0771,1.319,7.6003,3.3172,1.4203,.8055,1.8649,1.0899,2.7204,1.7402,.8338,.6338,1.6285,1.3518,1.6139,1.4583-.0051,.0371-.0829,.1165-.1694,.1727h0Zm-1.8372,7.0248l-.0456,.1453-.2556-.288c-.8489-.9566-1.9593-1.8944-3.0327-2.561-.6926-.4301-2.0245-1.0678-1.918-.9183,.0135,.019,.2458,.1418,.5188,.2743,1.5791,.7665,2.9745,1.8255,4.323,3.2807,.3516,.3794,.345,.3222,.0964,.8325-.0766,.1573-.2578,.4625-.3993,.6726-.3251,.4829-.6912,.7734-1.2617,1.0013-.2124,.0849-.4833,.1993-.608,.2569l-.2248,.1039-.3802-.5206c-.4776-.654-1.2415-1.4993-1.3092-1.4485-.017,.0127,.197,.3132,.4784,.6716,.2813,.3584,.6444,.855,.8117,1.1102l.3025,.4617,.0048,.3539c.0074,.5406-.0311,.7497-.1791,.9738-.0707,.107-.1677,.2326-.2134,.2762l-.0838,.08-.1801-.3114c-.1631-.282-.9313-1.2637-1.0256-1.3106-.0965-.0481-.0151,.0921,.355,.6114,.2203,.309,.4676,.6944,.5493,.8558l.1486,.2936-.1507,.1429c-.3885,.3685-1.691,1.1153-2.481,1.4225l-.2537,.0986-.3752-.4482c-.3244-.3875-1.5622-2.0278-2.0511-2.7183-.0881-.1244-.1715-.2128-.1886-.1999-.059,.0443,.7431,1.2059,1.7337,2.5109,.3707,.4883,.671,.8961,.6693,.9087-.0037,.0267-.6384,.1273-.6508,.1032-.1934-.3792-.7551-1.1501-.8087-1.1098-.0171,.0128,.0251,.1082,.0949,.2146,.4354,.6639,.5067,.7775,.5349,.8519,.03,.079,.0079,.0779-.6499-.0326-.3731-.0627-.7395-.1412-.8105-.1737-.1278-.0585-1.4314-1.2396-1.6309-1.4776-.0778-.0928-.0999-.1032-.1072-.0503-.0055,.0401,.267,.3341,.6837,.7379,.3821,.3701,.6871,.6752,.6799,.6801-.0223,.0154-1.603-.4783-1.8528-.5788-.1409-.0566-.3867-.1646-.553-.2429l-.2994-.141-.1059-.6043c-.1149-.656-.2025-.9333-.4159-1.3174-.2798-.5034-.8355-1.3464-1.2436-1.8862-.2318-.3067-.4125-.5621-.4019-.5682,.0106-.006,.2061-.1107,.4354-.2329,.4077-.2174,.4175-.2202,.4816-.1355,.0615,.0813,.4765,.9178,.9653,1.9461,.2563,.539,.4179,.8106,.4617,.7761,.014-.011-.0324-.1247-.1038-.2546-.0711-.1292-.2765-.565-.4571-.9696-.1806-.4046-.4352-.9395-.5665-1.19l-.2385-.4551,.1235-.0686c.3087-.1714,.6888-.506,.8848-.7787l.2062-.2869,.3576,.4768c.1974,.2632,.387,.4808,.4233,.4856,.0822,.011,.0699-.01-.3642-.6272l-.3377-.48,.0832-.1616c.0449-.0872,.088-.1968,.0937-.2379,.007-.0508,.072-.0944,.1951-.1307,.242-.0714,.3208-.0555,.4366,.0879,.1264,.1566,.2412,.1401,.2271-.0326-.0094-.1155-.0057-.1177,.195-.1176,.4055,.0003,.7051-.1425,1.113-.5305,.1335-.127,.4049-.3477,.6014-.4891,.5696-.4097,.7477-.7359,.8501-1.557,.0955-.766,.0065-1.5871-.2802-2.5843-.3204-1.1144-.8222-2.0891-1.6656-3.2355-.1964-.267-.3393-.4932-.32-.5067,.0188-.0132,.0406-.0004,.0474,.0277,.0071,.0298,.0473,.0568,.0937,.063,.0447,.006,.3146,.159,.6006,.3405,.286,.1815,.7548,.4387,1.043,.5724,.2886,.1338,.7223,.3513,.9665,.4845,.2443,.1333,.8913,.4739,1.4424,.7592,2.2449,1.1624,3.2832,1.5279,4.3772,1.5409,.2279,.0027,.4299,.0072,.4512,.01s.0596,.0895,.0855,.1939c.026,.1048,.1062,.3209,.1804,.4861,.1698,.3783,.4013,1.0864,.7086,2.168,.2741,.9646,.4384,1.7597,.481,2.3278,.0291,.3883-.0265,1.0129-.1155,1.2968h0Zm1.4064-13.5595c-.403-.6186-.8733-1.1013-1.7016-1.7467-.5332-.4154-.8857-.6535-1.2965-.8758-.7238-.3918-2.8877-.8955-4.5878-1.0679-1.3501-.1369-2.0004-.078-4.2881,.3885-.636,.1297-1.005,.153-2.6044,.1645-1.9343,.0139-2.0426,.0352-3.6526,.718-1.0197,.4325-1.752,.6968-2.2859,.8252-.4803,.1155-1.0976,.2127-1.3315,.2098l-.2043-.0025,.1134-.0664c.0613-.0359,.1862-.1094,.2719-.1601,.2903-.1716,1.3467-.6635,1.808-.8419,.2504-.0968,.7843-.3086,1.1801-.4683,.3958-.1596,.9089-.3491,1.134-.4187,.485-.15,2.6342-.6708,3.0453-.7379,.314-.0513,.5898-.0335,.6227,.0401,.0166,.0372,.0342,.0405,.0704,.0133,.1035-.0777-.0263-.152-.3284-.188-.2396-.0285-.4317-.0088-1.0978,.1129-1.7238,.3149-2.6188,.541-3.5309,.8922l-.2826,.1088,.2042-.1402c.3155-.2166,1.5727-.9047,2.1662-1.1856,.7894-.3737,1.5145-.5965,2.7408-.8426,.595-.1193,1.2771-.2601,1.5108-.3118,2.4191-.5346,4.8214-.5554,6.0641-.0525,.7753,.3138,1.149,.5744,2.0255,1.4129,.3032,.29,.8673,.7907,1.2488,1.1083,.8476,.7057,1.5493,1.3351,1.9586,1.7566,.3103,.3196,.8865,1.0541,1.0846,1.3827,.1614,.2676,.1227,.2494-.0574-.0271h0Zm-10.0275,9.5102c-.205-.4647-.4824-.8878-1.0919-1.6652-1.9565-2.4958-4.4805-4.9124-6.6012-6.3203-.7543-.5007-1.1192-.7052-2.5543-1.4315-1.126-.5698-1.7311-.8225-2.3039-.962l-.4608-.1122,.2662,.0105c.4785,.0189,1.2722,.1362,1.8283,.2702,.9866,.2378,2.3802,.702,2.879,.959,.305,.1572,.379,.1761,.3196,.0816-.1012-.1608-1.4647-.7414-2.4392-1.0387-.6346-.1936-.7558-.2561-.4447-.2293,.3537,.0305,.4639,.0607,1.2174,.334,2.3842,.8647,3.9703,1.6603,4.9373,2.4765,.2715,.2292,.3535,.2012,.1074-.0367-.7813-.7549-2.3846-1.6064-4.5555-2.4193-.5689-.213-.6255-.2408-.387-.1905,.7118,.1505,1.6729,.4273,2.6349,.7588,1.0409,.3587,1.0462,.3611,1.4753,.6625,.4694,.3297,1.3346,1.0568,1.8064,1.5183,1.0928,1.0689,2.3753,2.8541,2.8667,3.9905,.4829,1.1167,.7593,2.5118,.6565,3.3141l-.0381,.2977-.1183-.2682h0Zm-.0095,.7286c-.0813,.2324-.2167,.3853-.5525,.624-.174,.1237-.432,.3431-.5691,.4839-.4357,.4479-.6207,.5273-1.2058,.5174l-.2395-.004-.2849-.3613c-.6145-.7794-1.442-1.678-2.0958-2.2758-.5559-.5083-1.1538-.9926-1.2111-.981-.0268,.0054,.2134,.2515,.5347,.5479,.3213,.2964,.7333,.6943,.9172,.8859,.7023,.7315,1.9239,2.1851,1.8671,2.2218-.0188,.0122-.1159,.0415-.2135,.0644-.1627,.0382-.1831,.0355-.2241-.03-.0943-.1505-1.3485-1.6714-1.9903-2.4137-.618-.7148-.796-.8862-.6687-.644,.0495,.0941,1.8573,2.3905,2.3334,2.964l.2499,.301-.1508,.3021c-.2943,.5896-.5409,.8722-.9867,1.1303l-.2608,.151-.1027-.1496c-.1284-.1872-.176-.1555-.0729,.0485l.0778,.154-.4762,.243c-.3852,.1966-.4892,.2338-.5443,.1947-.104-.0738-.2016-.0345-.1889,.0761,.0124,.1077-.1173,.176-.7537,.3968-.7315,.2537-1.5177,.3371-2.0289,.2152-.3658-.0872-1.2043-.4448-1.4053-.5992-.2231-.1714-.9819-1.1584-1.3227-1.7203-.1477-.2435-.6934-1.1798-1.21-2.0758-1.1737-2.0361-1.094-1.903-1.1267-1.8795-.0429,.0309,.4962,1.073,1.1875,2.2952,.8956,1.5834,1.2717,2.1898,1.7015,2.7426,.2074,.2667,.3563,.4758,.3299,.4633-.2697-.1284-.8967-.3982-1.1594-.499-.1794-.0689-.3326-.132-.3371-.139-.0044-.007-.3326-.5104-.7264-1.1143-.3939-.604-.7675-1.1906-.8271-1.2986-.1296-.2348-.2488-.2973-.159-.0834,.1322,.3147,.7708,1.3843,1.3126,2.1983,.1191,.179,.1646,.2792,.1284,.2831-.0308,.0034-.2377,.0403-.4599,.082-.5009,.0941-.7334,.0669-1.4331-.1678-.6885-.2309-1.1447-.4491-1.6322-.7807-.5219-.3549-.8286-.6416-1.1963-1.1181-.5231-.678-.802-1.307-.9571-2.1585-.2739-1.5042-.3328-2.3209-.2248-3.1204,.069-.5112,.1178-.6947,.7788-2.9319l.1335-.4519-.0767,.7429c-.0997,.9648-.1137,1.7163-.0508,2.7225,.0252,.4029,.0976,.18,.1016-.3125,.0109-1.3613,.1925-2.9771,.4093-3.6413,.1129-.346,.4587-1.1153,.4857-1.0804,.0073,.0095-.0467,.2383-.12,.5081-.2086,.7676-.2724,1.7417-.1918,2.9289,.0338,.4976,.0783,1.1957,.0989,1.5506,.0843,1.4516,.4827,2.8172,1.2733,4.3633,.6563,1.2835,.7786,1.4952,.795,1.3758,.0026-.0188-.2191-.4855-.4915-1.0344-.2723-.5489-.577-1.2001-.6754-1.4433-.4015-.9933-.6818-2.1943-.7296-3.1258-.1273-2.4824-.1285-2.802-.0143-3.6475,.0759-.5616,.1805-.9892,.3763-1.5376,.0688-.1927,.167-.5038,.217-.6873,.05-.1836,.101-.3665,.1126-.4043,.0118-.0383,.1801-.238,.3777-.4484,.4153-.442,.4218-.4439,.9958-.2963,1.1617,.2988,3.2711,1.1984,4.7364,2.02,1.0524,.59,2.3331,1.5027,3.029,2.1585,.1672,.1576,.3184,.28,.3325,.2692,.0862-.0662-.7346-.8366-1.5683-1.472-1.5094-1.1504-3.8249-2.3806-5.5934-2.9718-.2897-.0969-.4721-.1797-.5168-.2346q-.069-.0849,.0315-.0715c.0553,.0074,.499,.0922,.9856,.1883,1.0237,.2022,1.2407,.2795,2.4613,.8763,2.1279,1.0404,2.902,1.5014,4.1326,2.461,.5166,.4028,1.5914,1.3354,2.2012,1.9099,1.1603,1.0931,2.7565,2.8686,3.5504,3.9492,.4807,.6544,.904,1.4569,.8436,1.5998-.0134,.0318-.0469,.1218-.0728,.196h0Zm-3.7744,11.0687c-.4144,1.9595-.9566,2.6958-2.323,3.1548q-.5405,.1815-.8727-.1791c-.1592-.1729-.4872-.5739-.7345-.8982-.2473-.3243-.4497-.5654-.4532-.5401-.0168,.1224,.7733,1.2174,1.1935,1.6539l.1378,.1431-.224,.0264c-.1422,.0167-.4461-.0041-.8324-.057-.5085-.0696-.7157-.1187-1.2616-.2988-.3577-.118-.8353-.2512-1.0556-.2945-.2213-.0435-.6075-.1327-.8583-.1983-.2507-.0656-.4698-.1211-.4868-.1233-.0301-.004-.7049-1.1387-.9483-1.5944-.0715-.1338-.1345-.251-.1407-.2615-.0067-.0114-.0234-.0097-.0419,.0041-.0567,.0425,.3471,.9083,.7493,1.6066,.1332,.2314,.1408,.2625,.0765,.3169-.0385,.0325-.1212,.1333-.1796,.2186-.0584,.0854-.1297,.1554-.1547,.1521-.1511-.0202-.5178-.7487-.6327-1.2571-.0809-.3577-.1578-.3628-.1142-.0075,.063,.5131,.3124,1.1176,.5313,1.2877l.1244,.0967-.1069,.062c-.387,.2245-1.3414,.2244-1.9087-.0003-.2837-.1123-1.0649-.6136-1.6058-1.0304-.9098-.701-1.2007-1.0933-1.8957-2.5568-.6772-1.4261-.79-1.7392-.8449-2.3454-.022-.2437-.0175-.2728,.0515-.3309,.0706-.0594,.0699-.0644-.0113-.0753-.0777-.0104-.0838-.0345-.0576-.2251l.0293-.2135,.3531-.1064c1.0223-.3081,.9597-.2775,1.6705-.8148,.5979-.4519,1.6336-1.3248,1.8328-1.5447,.0729-.0804,.0758-.0753,.09,.1557,.0369,.6028,.7018,4.4239,.7717,4.4347,.054,.0083,.0438-.0977-.0814-.8482-.0682-.409-.1673-1.0568-.2191-1.4328-.0518-.3757-.1357-.9763-.1853-1.3273-.1552-1.0962-.1456-1.2467,.1035-1.6401,.0794-.1253,.1846-.3002,.2368-.3935l.094-.168,.3619,.0445,.3619,.0445,.0299,.2719c.0397,.3617,.366,1.8387,.5312,2.4043,.1534,.5252,.4416,1.2743,.4929,1.2811,.0662,.0089,.0451-.0988-.1481-.7536-.2659-.9013-.7183-3.1519-.6406-3.1869,.0293-.0132,.0457-.0437,.0354-.066-.0252-.0545,.287-.1324,.4454-.1112,.0696,.0093,.1177,.0369,.1149,.0658-.0027,.0274,.1657,.4939,.3749,1.0382,.2095,.5452,.5784,1.5546,.8228,2.2512,.4531,1.2913,.6342,1.7369,.6892,1.6956,.0169-.0127-.0221-.1602-.0868-.328-.0643-.167-.2174-.6328-.3384-1.0294-.2657-.8715-.5296-1.6393-.9508-2.7672-.174-.4659-.3095-.856-.2999-.8632,.0096-.0072,.1783,.0626,.3742,.1549,.3548,.1672,.3568,.1689,.3785,.334,.0451,.3438,.6124,1.9548,.6927,1.9667,.0673,.01,.0289-.127-.3005-1.0718-.1888-.5416-.3353-.9866-.3268-.9929,.0084-.0064,.4506,.2007,.9817,.4597,1.3389,.6529,1.7229,.7451,2.6327,.6319,.4131-.0514,1.2001-.2849,1.6617-.493l.2853-.1286,.2549,.3563c.7249,1.0132,1.398,2.1186,1.5364,2.5233,.0405,.1183,.127,.5198,.1917,.8895s.1509,.7834,.1909,.9165c.0509,.1694,.0661,.3544,.0504,.6124-.0238,.3921-.0284,.4194-.2144,1.2991h0Zm-2.2739-22.2883c-.03-.0165-.0183-.0246,.0283-.0195,.0426,.0047,.0664,.0177,.0512,.0282-.0162,.0111-.0502,.0074-.0795-.0087h0Zm-.3755,.9282c-.03-.0165-.0183-.0246,.0283-.0195,.0426,.0047,.0664,.0177,.0512,.0282-.0162,.0111-.0502,.0074-.0795-.0087h0Zm-.4648-.1689c-.1833-.0694-.256-.1066-.1618-.0827,.2472,.0626,.5885,.1887,.5393,.1992-.0246,.0053-.1942-.0471-.3775-.1165h0Zm-.4835-.1617c-.0281-.0147-.0051-.0201,.0528-.0123,.058,.0078,.0795,.019,.0496,.026-.0274,.0064-.0767-.0002-.1024-.0137h0Zm-.8504-4.3999c-.0995,.3012-.2454,.6843-.325,.8534-.1414,.3002-.1532,.3128-.5488,.5853-.313,.2156-1.3502,.8207-1.5745,.9185-.0203,.0089-.0674-.0107-.1024-.0427-.0599-.0548-.0486-.0764,.1537-.2939,.6454-.694,1.273-1.5527,1.6132-2.2069,.4455-.8567,.7776-1.7885,.9258-2.5978,.0555-.3032,.1045-.5437,.1094-.5367,.0175,.0254,.0645,.8977,.075,1.3883,.0135,.6381-.0782,1.1814-.3263,1.9325h0Zm-.2693-2.0859c-.326,1.0124-.7815,1.9775-1.2549,2.6586-.395,.5684-1.2337,1.6054-1.292,1.5976-.058-.0077-.6716-.2125-.6794-.2267-.0025-.0046,.169-.288,.3804-.6286,1.5869-2.5559,2.0595-3.4779,2.4546-4.7887,.4072-1.351,.4732-2.4261,.2343-3.8161-.0369-.2146-.0596-.3994-.05-.4066,.0285-.0214,.2616,.8736,.3373,1.2953,.0395,.2197,.1213,.7791,.1827,1.2493l.1112,.8515-.1384,.8783c-.1019,.6464-.1774,.9992-.2858,1.3361h0Zm.4025-4.4187c-.0651-.3232-.1273-.6244-.1386-.6708-.0356-.1464,.153,.2379,.1978,.4031,.0481,.1772,.0873,.5999,.07,.7548-.0061,.0548-.0641-.1639-.1292-.487h0Zm-3.0454,9.1148c-.0909,.0318-.0938,.0299-.0343-.0226,.0344-.0303,.0813-.0551,.0997-.0527,.0618,.0083,.0338,.0405-.0654,.0753h0Zm-.4216,.1185c-.1268-.07-1.0076-.2-1.4041-.2071-.6321-.0114-1.7689,.0574-2.3653,.1431-.4216,.0606-1.1707,.242-1.1766,.285-.0067,.0489-.0502,.0503,.6285-.0198,1.014-.1047,2.7575-.1449,3.4467-.0796,.3302,.0313,.6007,.0675,.599,.08-.0017,.0126-.0997,.0667-.2172,.1201-.3369,.153-.7617,.2161-1.2415,.1843-.247-.0164-.655-.0022-.9866,.0343-.3117,.0343-.5928,.0561-.6265,.0486-.1413-.0316-.2023-.0169-.2117,.0509-.0055,.0405-.0725,.0979-.1517,.1302-.5503,.2243-.7608,.3528-.9611,.5867-.2178,.2543-.3787,.5137-.3957,.6381-.014,.1017-.6519,.6769-.7727,.6967-.2134,.035-1.1755,.3592-1.3701,.4617l-.2164,.114,.1049-.2189c.0581-.1214,.1885-.398,.2925-.6209,.2422-.5189,.3899-.7267,.6851-.9644,.368-.2963,.6364-.5365,.6416-.5742,.0147-.1071-.1753-.0132-.6038,.2984-.5732,.4169-.7297,.6219-1.0518,1.3786-.2909,.6832-.4157,.8909-.6527,1.0852l-.1994,.1636,.0168-.122c.0274-.1996,.1734-.6601,.3388-1.0689,.0864-.2136,.2462-.6485,.3569-.9714,.1476-.4306,.2476-.6541,.3798-.848,.3341-.4904,1.0935-.9802,1.933-1.2467,.3745-.1189,.4157-.1185,.416,.004,.0001,.0505,.0329,.1004,.0754,.1149,.0653,.0222,.0748,.0061,.0719-.1224l-.0033-.148,.2208-.0315c.3773-.0538,.7891-.072,1.2354-.0545,.5989,.0235,2.7223,.262,3.12,.3505l.3284,.0731-.1123,.1442c-.0767,.0984-.1309,.1339-.1708,.1118h0Zm-4.0001,26.977c-.5013,1.3267-.8013,1.7638-1.5385,2.2404-.7816,.5054-1.6657,.6084-3.1677,.3691-.7895-.1258-1.0382-.2105-1.4625-.4984-.386-.2619-.7257-.7892-1.0432-1.6198-.1048-.2741-.2274-.5626-.2747-.6463-.0465-.0823-.141-.3081-.2074-.4955-.0673-.1902-.234-.5418-.3722-.7855s-.3251-.6015-.4175-.7993c-.092-.197-.329-.6594-.5268-1.0275-.3775-.7027-.6191-1.3293-.6976-1.8093-.064-.3917-.0696-1.2944-.012-1.9467l.0481-.5449,.1756,.2111c.2555,.3071,.612,.53,.9931,.6208,.4283,.1021,.6073,.1911,1.0315,.5127,.4277,.3243,.6618,.4252,1.0143,.4373,.5092,.0174,.7571-.0691,1.0152-.3544l.1598-.1767-.0186,.1353c-.0103,.0748-.0181,.3179-.0176,.5431,.0043,1.7011,.0125,2.525,.0255,2.5425,.0519,.07,.0727-.0796,.0917-.6594,.0116-.3526,.024-.9946,.0276-1.425,.0098-1.1673,.1008-1.6886,.3085-1.7666,.0742-.0279,.0753-.0029,.0177,.4242-.0719,.5339-.0533,1.0023,.0403,1.0148,.0263,.0035,.0391-.0452,.0336-.1275-.0198-.2938,.0245-.9613,.0769-1.1583,.0498-.1874,.07-.2137,.1885-.2446,.0735-.0192,.1903-.0391,.2619-.0446l.1293-.0099-.0934,.5505c-.0676,.3986-.0893,.6581-.0788,.9406,.0188,.5051,.1418,1.5797,.2468,2.1567,.0884,.4855,.2812,1.249,.3329,1.318,.0846,.1129,.0696-.045-.0594-.6252-.1448-.651-.2663-1.542-.3312-2.4281-.0287-.3923-.02-.6685,.039-1.2313l.0761-.7255,.1628-.0248c.0884-.0135,.165-.021,.1676-.0164,.0026,.0046,.0739,.4855,.1583,1.0675s.161,1.0758,.1701,1.0962c.0099,.0223,.0323,.0253,.056,.0075,.0338-.0253-.0597-.9553-.1917-1.9086-.0236-.1701-.0379-.3114-.032-.3149,.0059-.0034,.0521-.0211,.1018-.0387,.1039-.037,.0994-.0664,.0973,.6322-.0011,.3609,.1006,.8753,.2428,1.2283,.1588,.3939,.9892,2.0613,1.1912,2.3917,.4083,.6677,.9265,1.2029,1.8797,1.9416,.1849,.1434,.267,.2336,.2598,.2857-.0058,.0421-.1305,.3941-.2785,.7858h0Zm1.1092-10.9961c-.0781,.0922-.2647,.3276-.4106,.5178-.2835,.3697-.6506,.7205-1.5006,1.4338-1.018,.8543-.9892,.839-2.3346,1.2357-.6317,.1862-1.7167,.3893-1.7455,.3268-.0115-.0251-.0624-.3733-.1133-.7761-.1752-1.3862-.2797-1.9642-.335-1.854-.0253,.0503,.088,1.5259,.1756,2.2869,.0517,.4495,.0502,.4935-.0183,.545-.0614,.0461-.0798,.045-.1042-.0062-.059-.1242-.2087-.719-.4125-1.6392-.2765-1.2483-.3803-1.8303-.3761-2.108,.0019-.124-.0111-.2404-.0284-.2544-.0619-.0501-.0834,.3676-.0398,.7733,.066,.6145,.4571,2.5692,.6146,3.0717l.1359,.4336-.1198,.2169c-.2875,.5206-.4397,.6199-.9646,.6286-.2599,.0043-.3041-.0068-.6144-.1546l-.3343-.1592-.0837-.2402c-.1201-.3448-.1969-.8611-.2269-1.5251-.028-.6197-.0282-2.3216-.0005-3.2962,.0221-.7774,.0197-.8748-.0215-.8803-.0189-.0025-.042,.1109-.0508,.2495-.0808,1.282-.1159,3.2383-.0736,4.1133,.0268,.5549,.0884,.9682,.1848,1.2399,.0694,.1956,.0672,.2155-.0174,.1558-.0611-.0431-.3642-.1564-.8797-.3286-.4591-.1534-1.0043-.7888-.8972-1.0456,.023-.0552,.0104-.0863-.0441-.1088-.0522-.0216-.107-.1521-.1734-.4134-.1262-.4966-.1634-.841-.2109-1.9539-.0216-.5072-.0607-1.4097-.0869-2.0072-.0459-1.0466-.0439-1.1123,.0557-1.825,.1102-.7885,.2254-1.2317,.5327-2.0485,.4047-1.0757,.9426-1.866,1.7704-2.6013,.1301-.1156,.0922-.0459-.2306,.4234-.6089,.8853-.9863,1.64-1.1739,2.3471-.1084,.4087-.129,.5425-.0767,.4984,.0218-.0184,.0835-.1907,.1366-.3816,.2067-.7429,.5122-1.3602,1.1194-2.2613,.3911-.5805,.6775-.9341,.9531-1.177,.088-.0775,.1598-.154,.1637-.1742,.0038-.0199,.0678-.0938,.1431-.1653,.1271-.1206,.8313-.8944,1.6096-1.7687,.1792-.2012,.4446-.5133,.593-.6972,.2844-.3524,.7489-.7422,1.1894-.9982,.402-.2336,.4298-.2322,.1367,.007-.8182,.6674-1.694,1.703-2.6844,3.174-1.0048,1.4924-1.6331,2.6327-1.9785,3.5906-.2093,.5805-.1095,.5172,.1365-.0866,.3453-.8474,.9875-1.9683,1.8553-3.2382,1.1669-1.7075,2.0293-2.7022,2.953-3.4059,.4292-.327,.6787-.4663,.9982-.5573l.2417-.0689-.166,.3486c-.0921,.1934-.2031,.3833-.2494,.4267-1.2894,1.2081-1.2681,1.1737-2.078,3.3638-.1071,.2898-.3843,.9386-.6181,1.447-.7955,1.73-.8344,1.8257-.7464,1.8375,.0642,.0086,.2976-.3135,.5232-.722,.295-.5343,.9256-1.9067,1.1309-2.4616,.4997-1.3502,.7235-1.8535,.9665-2.173,.134-.1762,.5639-.6152,.6006-.6132,.0408,.0022-.1371,.7024-.4605,1.8122-.6085,2.0889-.6356,2.5426-.2841,4.7529,.1874,1.1781,.5179,1.972,1.1419,2.7425,.6707,.8281,1.7674,1.5727,2.7826,1.8889,.1472,.0459,.2669,.0912,.2656,.1006-.0013,.0095-.0659,.0922-.1456,.1863h0Zm1.1436-18.6166c-.1727,.6369-.2938,1.3169-.2641,1.4827,.0161,.0897,.0067,.0904-.4856,.036-.2753-.0304-.5084-.0607-.5162-.0671-.0078-.0064,.0852-.7476,.2062-1.6438,.1838-1.3614,.2431-1.7103,.3575-2.103,.1785-.6129,.1916-.7305,.1316-1.1898-.1067-.8179-.1231-.9735-.1222-1.1617l.0009-.1979,.1684,.178c.4019,.425,.7562,1.188,.836,1.8004,.1074,.8251,.0176,1.6485-.3125,2.8661h0Zm-.965-2.3071c-.1981,.7338-.3364,1.5973-.4638,2.8964l-.0835,.8507-.1119,.0122c-.0599,.0065-.1219-.0009-.1336-.0159-.0119-.0155,.0472-.4906,.1311-1.054,.1236-.8298,.1904-1.1574,.3497-1.7139,.1081-.3777,.2586-.9434,.3337-1.2541,.0755-.3121,.1481-.5749,.162-.5859,.0452-.0357-.0067,.2088-.1838,.8645h0Zm-1.3875,6.5388c-.1315,.1144-.1381,.116-.0815,.0202,.034-.0576,.0772-.1023,.0964-.0997,.0202,.0027,.0382-.0201,.0429-.0544,.0044-.0322,.0495-.0738,.0992-.0916,.0828-.0295,.0863-.0264,.0386,.0343-.0284,.0361-.1182,.124-.1955,.1913h0Zm-1.5819,2.5896c-.0112-.0146-.0081-.0516,.0066-.0768,.017-.0292,.0257-.0179,.0217,.0282-.0036,.0422-.0164,.0641-.0283,.0486h0Zm-.1697,.6354c-.0316,.0277,.0444-.3745,.093-.4923,.0276-.0668,.0212,.0087-.0153,.1824-.0342,.1624-.0693,.3025-.0777,.3099h0Zm-3.1941-.8871c-1.0687,.581-2.1456,.6924-3.685,.3812-.6586-.1332-1.4347-.3217-1.6719-.4061-.1051-.0374-.11-.0348-.0509,.0268,.1571,.1637,1.3492,.4637,2.446,.6155,.9617,.1331,1.3293,.1302,1.9739-.0154,.2071-.0468,.373-.0794,.3721-.073-.0036,.0263-.6315,.2708-.9148,.3563-.8329,.2512-1.2538,.1884-3.1624-.4717-.209-.0723-.8149-.2558-1.3489-.4084-1.0149-.2902-1.7849-.5463-2.0361-.6772-.1946-.1014-.129-.0926,.4521,.0607,.6798,.1794,2.6736,.4775,3.8525,.5761,1.9571,.1637,2.7219,.1391,3.455-.1112,.2477-.0846,.671-.3024,.7053-.363,.0487-.0859,.0705-.0061,.0375,.137-.0349,.1513-.0629,.1758-.4245,.3724h0Zm-3.0901,22.1407c-.3323-.3663-.3737-.4025-.7378-.6453-.2704-.1804-.4214-.3177-.6227-.5667-.1457-.1803-.4098-.4831-.5848-.6706-.3516-.3768-.4953-.6134-.8623-1.4195-.3086-.678-.4147-.9776-.4763-1.3449-.13-.7756-.1586-1.9313-.0761-3.0734,.0596-.8245,.5251-3.4822,.7535-4.3019,.0897-.3219,.1664-.6048,.1696-.6257,.0185-.1189,.0455,.0799,.0843,.6208,.043,.5998,.0402,.646-.1111,1.8176-.1528,1.1831-.2136,2.0623-.218,3.1505-.0022,.5432,.0607,.7653,.0834,.2946,.0638-1.3231,.1664-2.6166,.259-3.2654l.0625-.4381,.0721,.8017c.1109,1.2339,.2434,1.9797,.4429,2.4935,.0604,.1554,.0611,.2062,.0053,.3695-.1006,.2945-.1606,1.481-.1143,2.2598,.0372,.6253,.2623,1.3784,.6236,2.0867,.1199,.235,.375,.7451,.5638,1.1275,.1888,.3825,.4623,.8801,.6045,1.1,.1429,.221,.2597,.4077,.2597,.4152,0,.0074-.0819-.0768-.181-.1861h0Z" style="fill:#b15026; stroke:#b15026; stroke-linecap:round; stroke-linejoin:round; stroke-width:.5px;"/><path d="M28.6665,31.5488c-.0294-.5436-.0976-2.7424-.1023-3.2943-.0091-1.0755,.0103-2.2,.0659-3.8231,.1008-2.941,.0574-3.516-.3909-5.1809-.1139-.4229-.2018-.7983-.1954-.8337,.0166-.091-.1145-.2413-.1724-.1978-.0585,.0439-.0484,.1022,.2076,1.2041,.4002,1.7225,.4209,2.0752,.3159,5.3844-.0762,2.4008-.0183,5.0951,.1419,6.6035,.018,.1694,.0384,.3632,.0449,.4253,.0065,.063,.0307,.1056,.0538,.0951,.0482-.0219,.0495-.0385,.031-.3827h0Z" style="fill:#b15026; stroke:#b15026; stroke-linecap:round; stroke-linejoin:round; stroke-width:.5px;"/><path d="M28.7642,19.9845c-.076-.6391-.2826-1.6245-.4765-2.2728-.0714-.2386-.1549-.3186-.2166-.2076-.0166,.0298,.0969,.5545,.252,1.1654,.1551,.6109,.3055,1.2699,.3341,1.4637,.0286,.1941,.0718,.3621,.0962,.3739,.0617,.0299,.0639-.0769,.0109-.5227h0Z" style="fill:#b15026; stroke:#b15026; stroke-linecap:round; stroke-linejoin:round; stroke-width:.5px;"/><path d="M27.6969,19.0303c-.0317-.1129-.0525-.1332-.1041-.1014-.1123,.0692-.0168,.4084,.1005,.3568,.0491-.0216,.05-.09,.0036-.2554h0Z" style="fill:#b15026; stroke:#b15026; stroke-linecap:round; stroke-linejoin:round; stroke-width:.5px;"/><path d="M61.6391,70.2506c-.0927-.0703-.8968-.1767-.9625-.1274-.0733,.0551,.013,.0773,.5245,.1353,.465,.0527,.5166,.0518,.4379-.0079h0Z" style="fill:#b15026; stroke:#b15026; stroke-linecap:round; stroke-linejoin:round; stroke-width:.5px;"/><path d="M70.354,80.8639c-.3908-.4781-1.9459-1.8028-2.0857-1.7768-.0245,.0046,.2039,.2205,.5102,.4824,.3064,.2619,.7536,.6677,.999,.9066,.604,.588,.5643,.5392,.4921,.605-.0504,.0461-.0477,.0558,.018,.0645,.0773,.0103,.1873-.0452,.1945-.0982,.0017-.0123-.0575-.0971-.1283-.1836h0Z" style="fill:#b15026; stroke:#b15026; stroke-linecap:round; stroke-linejoin:round; stroke-width:.5px;"/><path d="M55.7156,69.4804c-.1239-.1005-.4332-.2882-.4868-.2954-.0116-.0016-.0212,.0111-.024,.0317-.0041,.0297,.2896,.2408,.5731,.4118,.125,.0754,.0794-.0332-.0623-.1481h0Z" style="fill:#b15026; stroke:#b15026; stroke-linecap:round; stroke-linejoin:round; stroke-width:.5px;"/><path d="M51.7369,71.0539c-.5555-.4539-1.0521-.7645-1.2684-.7934-.127-.017-.0945,.0574,.0449,.1028,.1828,.0595,.621,.3495,1.0931,.7234,.2201,.1743,.4165,.3174,.44,.3205,.1093,.0146,.0301-.0758-.3096-.3533h0Z" style="fill:#b15026; stroke:#b15026; stroke-linecap:round; stroke-linejoin:round; stroke-width:.5px;"/><path d="M49.3654,72.5317c-.0979-.1956-.1951-.3002-.2058-.2217-.0079,.0572,.2024,.4648,.2517,.488,.0803,.0379,.0667-.0417-.0459-.2664h0Z" style="fill:#b15026; stroke:#b15026; stroke-linecap:round; stroke-linejoin:round; stroke-width:.5px;"/><path d="M49.4938,69.3627c-.3674-.3017-1.2411-.706-2.1869-1.012-.3165-.1024-.6515-.2144-.7488-.2503-.2635-.0973-.3314-.0223-.3936,.4353-.1115,.8198-.0712,2.8561,.0625,3.1531,.0597,.1328,.0772,.0103,.0489-.3429-.0526-.6554,.089-2.788,.1977-2.9785,.102-.1789,.1973-.1134,.2455,.1687,.0814,.4768,.6263,1.5738,.7395,1.4888,.0231-.0173-.0348-.191-.1396-.4186-.2457-.5337-.5251-1.2259-.5017-1.2435,.0245-.0184,1.0753,.3663,1.6749,.6132,.2421,.0997,.5985,.2744,.7854,.385,.3785,.2241,.4882,.2249,.2163,.0016h0Z" style="fill:#b15026; stroke:#b15026; stroke-linecap:round; stroke-linejoin:round; stroke-width:.5px;"/><path d="M52.0663,84.4547c-.0367-.102-.082-.1858-.0995-.1837-.0407,.0049-.0381,.0255,.0335,.272,.0329,.1131,.0742,.1904,.0939,.1756,.0488-.0367,.0468-.0558-.0279-.2638h0Z" style="fill:#b15026; stroke:#b15026; stroke-linecap:round; stroke-linejoin:round; stroke-width:.5px;"/><path d="M43.2186,89.8443c-.0644-.2804-.0875-.3335-.1309-.3009-.04,.03,.0842,.7334,.1305,.7396,.0647,.0086,.0648-.1583,.0004-.4387h0Z" style="fill:#b15026; stroke:#b15026; stroke-linecap:round; stroke-linejoin:round; stroke-width:.5px;"/><path d="M42.8566,92.599c-.0464-.0062-.0761,.0083-.0654,.032,.0114,.0252,.0447,.0467,.0795,.0514,.0348,.0047,.0622-.0088,.0654-.032,.003-.0218-.0331-.0452-.0795-.0514h0Z" style="fill:#b15026; stroke:#b15026; stroke-linecap:round; stroke-linejoin:round; stroke-width:.5px;"/><path d="M41.0083,91.7306c-.0194-.1475-.084-.0772-.1112,.121-.0199,.1449-.0129,.1995,.0246,.193,.054-.0093,.1032-.1876,.0866-.314h0Z" style="fill:#b15026; stroke:#b15026; stroke-linecap:round; stroke-linejoin:round; stroke-width:.5px;"/><path d="M37.9096,77.7938c-.0652-.0087-.093,.0574-.2476,.5881-.1752,.6016-.1705,.579-.1223,.5854,.05,.0067,.1351-.1838,.2668-.5971,.1281-.4022,.158-.569,.1031-.5764h0Z" style="fill:#b15026; stroke:#b15026; stroke-linecap:round; stroke-linejoin:round; stroke-width:.5px;"/></g><g><path d="M103.2145,72.4595c.1699-.0097,.413-.039,.5334-.0643,.3082-.0647,1.1747-.3331,1.8359-.5686,.4543-.1618,.5929-.1976,.7473-.1929,.2057,.0063,.2768-.0343,.1518-.0866-.0512-.0214-.0771-.0668-.0804-.1411-.0097-.2168-.2174-.3573-1.7354-1.1738-.9529-.5125-2.2394-1.3106-4.387-2.7214-1.8624-1.2235-2.9307-1.883-3.4438-2.1258-.4889-.2315-1.5345-.6149-2.3715-.8698-.7809-.2378-1.2444-.4363-1.8619-.7975-.7011-.4101-1.1126-.7457-2.6241-2.1406-2.1114-1.9484-3.32-2.9096-4.5929-3.6524l-.8034-.4688-.3511-.419c-.1951-.2328-.5301-.7098-.7539-1.0731-.6353-1.0316-1.2485-1.8305-2.2321-2.9082-.5246-.5748-1.3543-1.4231-1.8802-1.9225l-.3953-.3753,.3453,.1737c1.712,.8613,3.804,1.3406,6.54,1.4981,1.571,.0905,2.4923,.0456,3.8202-.1859,2.0353-.3549,4.0236-1.1227,6.69-2.5837,1.5602-.8548,4.2103-2.5014,4.2788-2.6584,.0168-.0386,.0138-.1019-.0067-.1407-.0694-.1311-.2208-.158-1.3285-.2363-.318-.0225-.9929-.1184-1.4998-.2131-1.0246-.1915-1.6208-.2508-2.7595-.2742-1.0736-.022-1.5078,.0076-3.1171,.2126-2.9582,.377-4.1502,.6649-5.315,1.2837-1.3519,.7183-1.5582,.7445-3.215,.4088-.4205-.0852-.9614-.1752-1.2087-.2012-.5653-.0593-1.8396-.1091-2.4653-.0964-.5846,.0119-.7723,.0359-1.8774,.2402-1.1971,.2212-1.5609,.2079-2.3548-.0863-.1843-.0683-.3615-.1099-.39-.0915-.0321,.0208-.2369-.0707-.5326-.2377-2.1229-1.1991-4.4698-2.058-7.3979-2.7072-1.331-.2951-1.3545-.3006-1.259-.2957,.1911,.01,1.2448-.0533,1.6188-.0972,.5945-.0698,1.3341-.2853,2.0307-.5915,.7037-.3094,1.0809-.4422,2.0778-.7312,.4085-.1185,1.0186-.3075,1.3489-.4179,.359-.1201,1.3823-.3949,2.5285-.6792,3.537-.8772,4.8557-1.2437,6.0613-1.6845,.317-.1159,.7504-.2516,.9583-.3,.5504-.1281,.9075-.2734,.9524-.3873,.0205-.0521,.0686-.0979,.1123-.1068,.042-.0086,.0725-.0324,.0676-.053-.0101-.0428-.1182-.0598-.2246-.0354-.0409,.0094-.1548-.0115-.2469-.0453-.3539-.1298-.6636-.1312-1.6074-.0074-.3496,.0459-.7493,.0899-.8859,.0977-.731,.0415-2.7599,.1214-3.146,.124-1.1834,.0078-4.5008-.0555-5.6554-.108-4.2095-.1913-5.9015-.0129-8.1851,.8631-1.3278,.5094-3.7126,1.6433-5.6344,2.6791-.2451,.1321-.603,.3198-.791,.4149l-.3434,.1737-.6563-.0491c-3.4321-.2567-5.3128-.4975-6.9078-.8848-2.0473-.497-4.4075-1.4605-4.9166-2.007-.2835-.3043-.3113-.1616-.0348,.1778,.6865,.8426,3.8815,2.0807,6.6406,2.5733,1.6169,.2887,2.9985,.4216,10.1119,.9728,.257,.0199,.4775,.0413,.4877,.0474,.0555,.033,.563,.8271,.8083,1.2645,.3454,.6161,.5707,1.208,.8267,2.1723,.1196,.4505,.2316,.79,.3112,.9437,.1701,.3284,.5263,.8193,1.3933,1.9197,.7852,.9968,1.113,1.4399,1.5487,2.0935,.4874,.7311,1.1752,1.6301,1.9691,2.5736,1.6436,1.9531,3.3259,3.764,3.3422,3.5974,.0026-.0266-.0924-.1368-.2103-.244-.6004-.546-3.1291-3.5871-4.0874-4.9155-.1634-.2265-.5082-.7326-.7702-1.1306-.602-.9142-.7809-1.1598-1.5581-2.1387-1.284-1.617-1.4168-1.8317-1.594-2.5768-.1514-.6367-.5082-1.6808-.6847-2.0035-.0806-.1474-.15-.2887-.1552-.3159-.0336-.1761,3.1733,3.8495,4.062,5.099,.2512,.3531,.3577,.456,.3239,.3127-.0073-.0309-.1866-.3205-.3981-.6433-1.2783-1.9501-3.6544-5.0081-4.5814-5.8962l-.0765-.0733,.3296,.0309c.2293,.0216,.372,.0609,.469,.1293,.0766,.054,.3857,.2748,.6863,.4902,.3012,.2158,1.2114,.7981,2.0256,1.296,1.9317,1.1811,2.5947,1.6801,3.9936,3.0061,1.768,1.6757,2.7383,2.9005,3.4526,4.3581,.1802,.3676,.2007,.4398,.4975,1.7463,.249,1.0962,.3417,1.4435,.4738,1.7754,.2115,.5312,.5352,1.1451,.9158,1.7371,.1672,.26,.4948,.7811,.7303,1.1615,.2355,.3805,.5713,.8925,.7485,1.1416,.3407,.4787,.5779,.8932,.6952,1.215l.0717,.1968-.1976-.1956c-.2981-.295-1.1573-1.0345-1.4491-1.2473-.3813-.278-1.402-1.2067-1.8685-1.7-1.2263-1.2969-2.6882-3.2261-5.3465-7.0556-.2909-.4191-.4763-.6204-.516-.5601-.0099,.015,.0371,.1052,.1062,.2039,.068,.0972,.2959,.4455,.5055,.7727,.7703,1.2025,1.9879,2.9406,2.913,4.1581,1.0349,1.3621,1.6271,2.08,2.3177,2.8095l.1444,.1525-.189-.0882c-.212-.099-.9174-.5465-1.2511-.7938-.2849-.2111-.3894-.1993-.1687,.019,.2307,.2282,.8316,.6407,1.3041,.8953,.2202,.1186,.4305,.2464,.4627,.281,.0326,.0351,.2861,.2286,.5668,.4328,1.0816,.7866,1.2639,.9241,1.6302,1.2294,.2052,.171,.5567,.52,.7756,.7699,.432,.4933,.5193,.5556,.6113,.4361,.0478-.0621,.0397-.1234-.0608-.4598-.1433-.4796-.3952-.9639-.8131-1.5632-.1759-.2523-.5348-.7936-.7955-1.1998s-.621-.9686-.7986-1.2466c-.7347-1.1496-.947-1.6825-1.3153-3.3004-.3016-1.3251-.3559-1.4819-.7642-2.2064-.7803-1.3848-1.6756-2.4593-3.5002-4.201-1.4125-1.3484-2.0408-1.8343-3.9737-3.0732-1.0345-.6631-2.0786-1.3717-2.0613-1.399,.0152-.0241,1.345,.1679,2.1183,.3058,.9489,.1692,2.7671,.5958,3.6284,.8513,2.9364,.871,5.2987,2.0357,7.5595,3.7271,.2384,.1783,.4834,.3676,.5401,.4171,.1275,.1114,.3595,.5416,.5231,.9701,.155,.4058,.1779,.6227,.1806,1.7084,.0011,.4382,.0309,1.0426,.0663,1.3416,.0379,.3205,.0568,.8105,.046,1.1922-.0235,.8284,.0465,1.2494,.3523,2.1193,.2589,.7367,.4727,1.6216,.8257,3.4168,.3329,1.6932,.8538,3.9149,1.0792,4.6029,.2787,.8504,.6907,1.9191,1.2103,3.1389,.2575,.6045,.5965,1.4352,.7517,1.8419,.2508,.6574,.816,1.9872,.9728,2.2889,.0459,.0882,.0803,.108,.1574,.0903l.0988-.0227-.1141-.594c-.1347-.7013-.1263-.8874,.0882-1.9439,.2616-1.2885,.3854-2.1984,.403-2.9603,.0172-.7461-.0317-1.8769-.1286-2.9765-.0533-.604-.1069-1.505-.1189-1.9991-.036-1.4769-.0637-1.7035-.3635-2.9739-.3517-1.4907-.624-2.1912-1.4871-3.8258-.6882-1.3035-1.3251-2.2533-1.9533-2.913-.179-.188-.4238-.4474-.5467-.5795-.1212-.1302-.301-.3077-.3945-.3894-.1754-.1532-.3561-.4422-.19-.304,.1432,.1192,1.2008,1.17,1.6793,1.6685,1.1154,1.1619,1.8408,2.0403,2.5089,3.0382l.3278,.4896,.2504,1.2421c.9666,4.7946,1.022,4.9866,1.9601,6.7825,1.1114,2.1277,1.6852,2.7613,4.4305,4.892,1.4807,1.1492,2.4165,1.6758,3.692,2.0775,.5302,.167,1.9315,.4982,2.5741,.6085,.3839,.0659,2.6076,.3093,3.6747,.4023,.5398,.0471,2.6664,.066,3.3064,.0295h0Zm1.7037-.6197c-.688,.2066-1.5689,.4055-1.8514,.418-.6499,.0288-2.5862,.0332-3.0055,.0068-1.0893-.0685-3.5026-.3157-4.1198-.4221-1.8198-.3135-3.1247-.7493-4.2076-1.4053-.7248-.439-2.5921-1.9172-3.5431-2.8049-.5774-.5389-1.2579-1.3488-1.5913-1.894-.3826-.6255-.991-1.8146-1.3854-2.7077-.1931-.4373-.2203-.5399-.8419-3.1741-.3536-1.4988-.6381-2.7196-.6329-2.7165,.0396,.0243,.5979,1.1504,.7878,1.5887,.1295,.299,.3656,.8167,.5218,1.1442,.1562,.3275,.3306,.7145,.3855,.8555,.1129,.2901,.166,.362,.1995,.2702,.0339-.0929-.0716-.4931-.2355-.8939-.0815-.1991-.2737-.6857-.4286-1.0846-.1548-.399-.3367-.8498-.4053-1.005-.0682-.1542-.1287-.2993-.1338-.3209-.0051-.0217,.1491,.0551,.3448,.1717,.1941,.1156,.5681,.3202,.8276,.4527,.4989,.2548,1.3783,.8815,2.2105,1.5752,.6793,.5663,.8641,.7417,2.048,1.9432,1.2887,1.3078,1.6657,1.6544,2.2212,2.0417,.7539,.5257,1.3025,.7786,2.3426,1.08,1.6075,.4658,2.1732,.6697,3.0547,1.101,1.0833,.53,2.6903,1.5157,5.4265,3.3286,.365,.2418,1.125,.6963,1.6873,1.0089,1.3734,.7637,1.6223,.9218,1.5732,.9996-.0303,.048-.0934,.0453-.3156-.0137-1.7302-.4598-2.1969-.5297-3.5159-.527-2.5883,.0053-5.6298-.7464-8.9083-2.2017-.568-.2522-1.1704-.5285-1.3381-.6138-.5445-.2771-.4195-.0301,.1502,.297,.444,.2549,1.7574,.8467,2.4463,1.1022,.8338,.3092,2.4766,.8224,3.1729,.9911,.7408,.1794,1.6966,.3515,2.6136,.4703,.6758,.0876,.9377,.1048,2.2654,.1486,.7694,.0253,1.3686,.1151,2.2954,.3438,.8077,.1993,.8161,.1666-.115,.4462h0Zm-22.2438-2.607c.1008,.5812,.2357,1.2978,.2992,1.5903,.0662,.3048,.0935,.4935,.0639,.4415-.0668-.1175-.2977-.6743-.4636-1.1181-.1427-.3816-.4449-1.1066-.9226-2.2135-.9564-2.2157-1.2839-3.3788-2.0758-7.3721-.3896-1.9646-.4517-2.2359-.6497-2.8371-.121-.3672-.2834-.938-.363-1.2755-.1381-.5851-.1436-.6405-.1329-1.3184,.007-.444-.0147-.8871-.0584-1.1894-.0398-.2753-.0716-.8368-.0742-1.3102-.0059-1.0691-.0377-1.3397-.1977-1.6808-.0686-.1462-.1185-.2721-.1121-.2824,.0064-.0102,.1246,.161,.2636,.3819q.2671,.4245,.6438,1.7166c.1274,.4368,.3576,1.1325,.5104,1.5418,.615,1.6482,.6844,1.8728,1.0533,3.404,.3264,1.355,.4026,1.6101,.4759,1.5932,.0146-.0034-.0274-.2426-.0925-.5278-.0656-.2875-.2298-1.0177-.3657-1.6264-.1569-.7027-.3051-1.2724-.4074-1.5655-.0885-.2536-.2992-.8517-.4686-1.3302-.2949-.8329-.7104-2.387-.6597-2.4674,.0096-.0152,.3035,.3135,.6507,.7275,.7671,.915,1.3086,1.7496,1.9828,3.0563,.8619,1.6705,1.2601,2.7323,1.5469,4.1242,.2045,.9923,.2242,1.177,.2681,2.5099,.0187,.5663,.0749,1.4838,.1252,2.045,.1508,1.6797,.1657,3.027,.0449,4.0543-.0659,.5602-.3014,1.9666-.3715,2.2183q-.0317,.1139-.0708-.043c-.0215-.0863-.1545-.8869-.2956-1.7788-.1411-.8919-.33-2.0903-.4198-2.6627-.1805-1.1507-.295-1.7453-.6703-3.4801-.1693-.7827-.2699-1.1791-.3016-1.1892-.0751-.0239-.0575,.1064,.2004,1.489,.2442,1.309,.3241,1.794,.6747,4.0953,.1023,.6717,.2687,1.6974,.3696,2.2793h0Zm8.8328-17.6258c-1.1086,.3419-2.5756,.5942-3.6133,.6216-1.6435,.0433-4.0795-.1977-5.5799-.552-1.4502-.3424-3.1343-1.047-4.1454-1.7342-.1348-.0916-.4092-.2734-.6023-.3989-.1931-.1255-.4699-.3167-.6075-.4195l-.2528-.1888,.5102,.2616c1.1069,.5675,1.7536,.7966,3.1808,1.1263,1.9874,.4592,2.9216,.5371,5.514,.4594,1.5229-.0456,2.3088-.1595,4.5029-.6525,1.5096-.3392,2.6466-.6608,3.7312-1.0553,.4057-.1475,1.0088-.3599,1.3402-.4718,.3328-.1124,.9571-.3389,1.3943-.5058,.4371-.1669,1.0099-.3727,1.279-.4596,.2687-.0867,.794-.2667,1.1707-.4011,.3841-.1371,.7369-.2431,.8057-.2423l.1225,.0015-.1337,.1121c-.4853,.4069-2.6137,1.7356-3.9264,2.451-1.7988,.9804-3.1725,1.5803-4.6901,2.0482h0Zm1.0432-2.2479c-1.5981,.4564-3.8888,.9539-5.0241,1.091-.5822,.0703-1.3328,.1044-2.6068,.1184-1.8771,.0206-2.8194-.0872-4.6957-.5377-1.3285-.3189-2.0831-.6079-3.3499-1.2829q-.774-.4124-.3714-.369c.3971,.0428,.8369,.0001,1.7146-.1663,.8041-.1524,.9975-.1676,1.9422-.1518,1.6362,.0273,2.3388,.0981,3.4004,.3429,.957,.2206,1.2983,.2583,1.7185,.1894,.412-.0675,.7847-.2211,1.4451-.5956,.9119-.5171,1.0852-.5768,2.8366-.9776,2.1579-.4938,3.8188-.7476,4.8697-.7439,1.2159,.0042,2.1376,.1158,3.4502,.418,.4827,.1111,1.051,.2189,1.2576,.2386,.2089,.0199,.3792,.0459,.3822,.0584,.0057,.0244-.4042,.1705-1.4737,.5254-.3342,.1109-.8471,.2935-1.1451,.4077-.2967,.1137-.9362,.3344-1.42,.49-.4838,.1556-1.0977,.3624-1.3632,.4591-.2657,.0969-.9707,.3154-1.5672,.4857h0Zm-23.2126-5.7371c-.5898,.2662-.7453,.3201-1.3621,.4722-.3822,.0943-.752,.1765-.8199,.1823-.0677,.0058-.2724,.025-.4525,.0424-.8769,.0848-1.821,.0848-2.4546,0-.3477-.0466-1.0696-.1294-1.603-.1839-.8411-.0859-.9523-.1062-.8347-.1522,1.4846-.5808,4.1788-1.4845,5.2615-1.765,1.1562-.2995,2.6294-.5147,4.7533-.6943,.4633-.0392,1.056-.0998,1.3137-.1343,.9549-.1279,2.3593-.331,2.9892-.4323,.3549-.0571,.9333-.1429,1.2786-.1897,.3467-.047,1.0319-.1492,1.5221-.227,.4902-.0778,1.1749-.1861,1.5209-.2406,.3475-.0547,.9036-.1718,1.2417-.2614,.3467-.0919,.5812-.14,.5405-.1107-.1261,.0904-1.7899,.6617-2.604,.8941-.4332,.1237-1.9525,.4989-3.375,.8336-2.2799,.5365-3.4842,.8424-5.1377,1.3053-.6481,.1814-1.0252,.3217-1.778,.6615h0Zm13.4881-4.0475c.0773,.0223-1.5667,.4029-2.3161,.5362-.7156,.1272-2.2518,.3671-3.02,.4717-.3473,.0473-.9332,.1346-1.2997,.1938-.3664,.0592-.8511,.1322-1.075,.1619-.2248,.0298-.8549,.1187-1.4048,.1981-.5494,.0794-1.515,.1894-2.1505,.2451-3.4131,.2992-4.2797,.454-6.4933,1.1603-1.4151,.4515-2.4117,.8212-3.6267,1.3454l-.2617,.1129-1.6566-.1311c-.9099-.072-1.7399-.1361-1.8414-.1421l-.1847-.0109,.726-.3682c.3987-.2022,1.2325-.631,1.8497-.9514,1.6053-.8332,3.4062-1.6611,4.3818-2.0144,1.9242-.6968,3.5878-.8484,7.3577-.6703,2.9682,.1402,5.6007,.1859,7.3738,.1277q1.6371-.0536,2.443-.1676c.7091-.1003,1.083-.1307,1.1983-.0973h0Z" style="fill:#b15026; stroke:#b15026; stroke-linecap:round; stroke-linejoin:round; stroke-width:.5px;"/><path d="M89.898,66.5333c-.0533-.0618-.2996-.2907-.5487-.51-1.0772-.9485-1.8251-1.8285-2.5703-3.0241-.4394-.7049-.4983-.8215-.4347-.86,.049-.0297,.219,.1788,.7646,.9383,.9305,1.2953,1.317,1.7636,2.2551,2.7331,.2877,.2973,.5636,.5949,.61,.6578,.112,.1521,.0471,.2074-.076,.0648h0Z" style="fill:#b15026; stroke:#b15026; stroke-linecap:round; stroke-linejoin:round; stroke-width:.5px;"/></g></g></g></svg>