<?xml version="1.0" encoding="UTF-8"?><svg id="Layer_1" xmlns="http://www.w3.org/2000/svg" viewBox="0 0 158.9134 46.5874"><path d="M96.8919,27.5737c-.2115,0-.417-.0119-.6145-.0379-.7429-.0978-1.329-.3877-1.6952-.8388-.1687-.2074-.0676-.4731,.2267-.5924,.2931-.1187,.6693-.0486,.8384,.1605,.1891,.2323,.4606,.3651,.8548,.4171,1.8036,.234,5.264-1.317,6.5642-2.062,.9528-.5466,2.3513-1.4984,4.1217-2.7035,8.1686-5.5591,23.3684-15.9113,35.3388-13.929,5.8525,.9682,12.3711,4.0635,15.951,6.5296,.2431,.1673,.2479,.442,.0112,.6138-.2371,.1707-.6257,.1758-.8684,.0079-3.462-2.3847-9.7495-5.3754-15.3737-6.3057-11.3184-1.8737-26.2067,8.2631-34.207,13.7091-1.7916,1.2192-3.2065,2.1818-4.1997,2.7516-.0428,.0249-4.0609,2.2796-6.9484,2.2796Z" style="fill:#b15026; stroke:#b15026; stroke-linecap:round; stroke-linejoin:round; stroke-width:.5px;"/><g><path d="M53.616,26.5889c.2119,.1558,.2412,.3491,.0869,.5815h-.0586c-.7363,.8926-1.4346,1.6094-2.0928,2.1519-.8145,.6978-1.6484,1.2412-2.501,1.6284-.9307,.4272-1.9004,.6978-2.9082,.814-.2324,.0396-1.2207,.1167-2.9658,.2329h-.1162c.0381,.5435-.0195,1.0469-.1738,1.5122-.1172,.2715-.2529,.543-.4072,.814-.1943,.2715-.3887,.5044-.582,.6978-.2715,.2329-.5625,.4072-.8721,.5234-.4268,.1553-.833,.1553-1.2217,0-.2324-.0771-.4258-.2124-.5811-.4072-.1162-.1934-.2129-.4067-.291-.6396-.0381-.3096,0-.6587,.1162-1.0469,.1162-.2324,.2617-.4741,.4365-.7266,.1748-.252,.3779-.4746,.6104-.6689,.3486-.3101,.7754-.5234,1.2793-.6396-.0391-.271-.0967-.5615-.1738-.8726-.0781-.2324-.2041-.6777-.3779-1.3374-.1748-.6587-.3115-1.1724-.4072-1.541-.0967-.3682-.1943-.8433-.291-1.4248s-.125-1.124-.0869-1.6284c0-.5815,.0576-1.124,.1738-1.6284,.1553-.5815,.3291-1.085,.5234-1.5117,.4658-1.124,1.085-2.0156,1.8613-2.6753,.4648-.3872,.9688-.6777,1.5117-.8726,.1162,0,.2129-.019,.291-.0581h.291c.2324,0,.4453,.0581,.6396,.1748,.3486,.2324,.5811,.543,.6973,.9302,.0771,.272,.0771,.5815,0,.9307-.0391,.2324-.1162,.5044-.2324,.814-.1553,.4272-.3877,.8926-.6973,1.396-.8926,1.2793-1.9775,2.5977-3.2568,3.9546,.0381,.3877,.1162,.814,.2324,1.2793,.0381,.1943,.0967,.417,.1748,.6685,.0771,.2529,.1445,.4854,.2031,.6982,.0586,.2134,.1162,.4561,.1748,.7266,.0576,.272,.125,.5044,.2031,.6982,.0771,.4268,.1357,.7949,.1748,1.105l.1738-.0586c1.4346,0,2.3848-.0381,2.8496-.1162,1.0078-.1162,1.9189-.3579,2.7334-.7266,.8145-.3682,1.6084-.8818,2.3848-1.5415,.6973-.6587,1.3369-1.3564,1.9189-2.0933,.1543-.2329,.3389-.271,.5527-.1167Zm-12.4453,6.9209c.0957-.1548,.1738-.3203,.2324-.4946s.0869-.397,.0869-.6685c-.3105,.1162-.543,.2715-.6973,.4648-.1162,.1558-.2324,.3198-.3496,.4946-.1162,.1743-.1934,.3486-.2324,.5234-.0381,.1743-.0381,.3198,0,.436h.1162c.0391,0,.0977-.019,.1748-.0581,.0771-.0381,.1934-.1357,.3486-.291,.1162-.1162,.2227-.2515,.3203-.4067Zm.7266-10.1191c-.1162,.3882-.1738,.814-.1738,1.2793v.4653c1.0459-1.0078,1.957-2.1519,2.7324-3.4312,.2715-.4263,.4658-.8335,.582-1.2212,.0381-.2329,.0586-.4453,.0586-.6396,0-.2329-.04-.4072-.1172-.5234-.0391-.1162-.0967-.1748-.1738-.1748h-.1162c-.0391,.0391-.0781,.0586-.1162,.0586-.3115,.1943-.6211,.4458-.9307,.7559-.582,.5435-1.0469,1.2603-1.3955,2.1519-.1172,.2715-.2334,.6978-.3496,1.2793Z" style="fill:#b15026; stroke:#b15026; stroke-linecap:round; stroke-linejoin:round; stroke-width:.5px;"/><path d="M74.8416,26.502c.0957,.2524,.0088,.417-.2617,.4941v.0581c-2.0938,.6978-3.917,1.2412-5.4668,1.6284-2.2881,.5044-4.207,.7368-5.7578,.6978-1.125-.0771-2.0742-.2905-2.8496-.6396-.6973-.3096-1.2793-.7559-1.7441-1.3374-.1943,.6597-.4658,1.3374-.8145,2.0352-.4268,.9307-.9111,1.7837-1.4541,2.5591-.3877,.5435-.7559,.9307-1.1045,1.1631-.1553,.1162-.3105,.1943-.4658,.2324-.1162,.0391-.252,.0581-.4062,.0581-.1562,0-.3115-.0581-.4658-.1743-.0781-.0381-.1357-.0962-.1738-.1743l-.0586-.1162c-.0391-.0386-.0977-.0967-.1748-.1748-.0391-.1162-.0967-.2705-.1738-.4648-.1553-.4263-.2334-.9497-.2334-1.5703-.0381-.3872-.0381-.8916,0-1.5122,.0781-.6587,.1943-1.3755,.3496-2.1519-.0781-.0381-.1367-.0771-.1748-.1162-.3486-.3486-.3682-.7168-.0576-1.105h.0576c.0771-.0771,.1543-.2324,.2324-.4653,.1162-.1543,.2129-.3486,.291-.5815,.1543-.3486,.3096-.7559,.4648-1.2212v-.0581l.0586-.1162c.0771-.1934,.2422-.291,.4941-.291s.5039,.0977,.7559,.291c.252,.1943,.3389,.4072,.2617,.6396v.0581l-.0576,.1743-.1162,.3491-.1748,.6978-.291,1.3379c-.2324,.9692-.4072,1.8809-.5234,2.7329-.0781,.4272-.1162,.8726-.1162,1.3379-.0391,.5044-.0195,.9111,.0586,1.2212,0,.1162,.0186,.1943,.0576,.2324,.2715-.1543,.582-.4258,.9307-.814,.543-.6196,1.0469-1.396,1.5117-2.3262,.4658-.8916,.8145-1.7446,1.0469-2.5591-.3877-.8911-.5039-1.8408-.3486-2.8496,.0771-.2705,.1357-.5234,.1748-.7559,.0771-.1543,.1348-.271,.1738-.3491,.0381-.0771,.0674-.145,.0879-.2031,.0186-.0586,.0479-.1064,.0869-.1455,.0381-.0381,.0771-.0581,.1162-.0581l.0586-.0581h.1738c.0771,0,.1357,.02,.1748,.0581,.0381,0,.0771,.02,.1162,.0581,.0381,.0391,.0586,.0972,.0586,.1743l.0576,.1162v.1748c.0381,.1162,.0586,.2324,.0586,.3486,.0381,.272,.0576,.5234,.0576,.7563,.0381,.8921-.0781,1.8228-.3486,2.791,.3867,.6982,.9688,1.2217,1.7441,1.5703,.7363,.3491,1.6289,.5435,2.6758,.5815,1.5498,.0391,3.3916-.1934,5.5244-.6978,1.7061-.4263,3.5088-1.0078,5.4082-1.7446,.2334-.1162,.3975-.0483,.4951,.2036Zm-16.2549-1.3667c.0381-.4653,.0586-.9106,.0586-1.3374v0c-.0781,.4648-.0977,.9111-.0586,1.3374Z" style="fill:#b15026; stroke:#b15026; stroke-linecap:round; stroke-linejoin:round; stroke-width:.5px;"/><path d="M95.1658,26.4146c.1543,.1943,.1162,.3882-.1162,.5815-2.6748,2.0557-4.9434,3.0825-6.8037,3.0825-1.2412,0-2.6562-.6401-4.2461-1.9194-.3486,.1943-.7178,.3301-1.1045,.4072-.9697,.1943-1.9189,.1162-2.8496-.2324-.2715-.1167-.5625-.271-.8721-.4653-.8145,1.1631-1.6865,2.5396-2.6172,4.1289-.8535,1.4736-1.6484,2.9468-2.3848,4.4199-.2705,.543-.6396,1.2793-1.1045,2.2095-.5039,1.125-.8525,1.8813-1.0469,2.2681-.2324,.5044-.4844,1.0859-.7559,1.7446-.3486,1.0078-.6982,1.9775-1.0469,2.9082,0,.0381-.0195,.0581-.0586,.0581-.2324,.4648-.5811,.5815-1.0469,.3486-.3867-.1943-.5029-.5044-.3486-.9302v-.0581c1.2021-3.2178,2.54-6.9399,4.0127-11.166,.7373-2.1709,1.3574-4.0508,1.8613-5.6411,.0381-.0381,.1348-.3096,.291-.814h-.0586c-.4648-.1938-.6006-.5234-.4072-.9888v-.0581c.1543-.3101,.3486-.6587,.582-1.0469,.1543-.2705,.3096-.5615,.4648-.8721,.2324-.5034,.4844-1.1631,.7559-1.9775v-.0581c.1934-.4653,.543-.6196,1.0469-.4653,.3867,.1553,.543,.4463,.4648,.8726-.0391,.3105-.1357,.834-.29,1.5698-.1553,.5044-.3105,.9888-.4658,1.4541-.2324,.814-.5234,1.7646-.8721,2.8496-.5039,1.5903-1.1436,3.4702-1.9189,5.6411v.1162c1.4727-3.062,2.7715-5.5049,3.8965-7.3276-.1553-.1543-.2324-.2515-.2324-.2905-.0391-.0381-.0781-.0962-.1172-.1748-.0781-.2324,0-.3867,.2334-.4648,.3096-.1548,.6396-.271,.9883-.3491,.7754-1.124,1.5889-2.0356,2.4424-2.7334,.3486-.3096,.7363-.5815,1.1631-.814,.5039-.2329,1.0273-.3491,1.5703-.3491,.3096,0,.6201,.0781,.9307,.2329,.2705,.1553,.5029,.3687,.6982,.6396,.3486,.4268,.5615,.9502,.6396,1.5698,.0381,.5044-.0391,1.0278-.2334,1.5703-.1162,.2329-.2324,.4561-.3486,.6689-.1162,.2134-.2715,.417-.4648,.6104-.1943,.1948-.4072,.3882-.6396,.5815,.6191,.5044,1.1719,.8726,1.6572,1.105,.4844,.2329,1.1143,.3784,1.8896,.4365s1.6865-.1548,2.7334-.6396c1.0469-.4844,2.2295-1.2505,3.5479-2.2974,.2324-.1543,.4258-.1353,.5811,.0581Zm-14.7129,.8726c.7363,.1943,1.4336,.1943,2.0937,0,.0381-.0381,.0957-.0581,.1738-.0581-.8135-.5815-1.6279-.8726-2.4424-.8726-.1943,.2715-.3486,.5044-.4648,.6978,.2324,.0781,.4453,.1553,.6396,.2329Zm1.9189-3.0825c-.4648,.3491-.9502,.8345-1.4541,1.4541,.8145,.1162,1.6865,.5044,2.6172,1.1631,.3096-.1938,.5615-.4072,.7559-.6396,.1162-.1162,.2129-.252,.291-.4072,.0771-.1162,.1357-.2515,.1748-.4072,.1162-.3486,.1543-.6587,.1162-.9302,0-.271-.0977-.5234-.291-.7563-.1553-.1543-.3105-.2324-.4648-.2324-.4658-.0381-1.0469,.2134-1.7451,.7559Z" style="fill:#b15026; stroke:#b15026; stroke-linecap:round; stroke-linejoin:round; stroke-width:.5px;"/></g><path d="M58.5027,32.8091c.0889,.3936,.1338,.7959,.1338,1.208-.0176,.7153-.1611,1.4761-.4287,2.2812-.4658,1.3599-1.2354,2.6484-2.3086,3.8652-1.9512,2.2188-4.4824,3.686-7.5967,4.4023-2.7021,.644-5.6367,.6616-8.8037,.0537-1.4678-.2686-2.8818-.6982-4.2412-1.2886-1.3418-.5903-2.6133-1.3335-3.8115-2.228-1.1094-.8413-2.1924-1.8433-3.248-3.0063-.7871-.877-1.709-2.0308-2.7646-3.4624-1.5742-2.1294-2.4336-3.2925-2.5762-3.4893-.5732-.7158-1.1104-1.333-1.6113-1.8521-.3574,0-.6885-.0088-.9932-.0269-1.0195-.0894-1.9502-.2861-2.791-.5908-.4834,1.2173-.9219,2.2817-1.3154,3.1943-1.1455,2.7197-2.2637,5.0371-3.3555,6.9521-.6621,1.1631-1.3594,2.2451-2.0938,3.2476-.0537,.0894-.1162,.1748-.1875,.2554-.0713,.0801-.1475,.1743-.2285,.2817-.0801,.1074-.1387,.188-.1738,.2412-.0361,.0356-.0723,.0762-.1074,.1211-.0361,.0444-.0762,.0938-.1211,.1475s-.0762,.0894-.0938,.1074l-.1611,.188-.1611,.188c-.4473,.4829-.9482,.9214-1.5029,1.3149-.5371,.4116-1.1191,.7339-1.7451,.9663-.1611,.0713-.4834,.1699-.9658,.2954-.5195,.0894-.8506,.1431-.9932,.1611-.1074,0-.4482-.0093-1.0205-.0269-.0537,0-.1523-.0093-.2949-.0269-.1436-.0181-.2686-.0361-.376-.0537-.1074-.0181-.2061-.0449-.2949-.0806-.4834-.1074-1.1006-.3403-1.8525-.6978-.1611-.0898-.2051-.2148-.1338-.376,.0713-.1436,.1875-.188,.3486-.1343l.0273,.0269c.7158,.3042,1.2969,.501,1.7441,.5908,.0361,0,.3311,.0356,.8857,.1074h.9131c.1074-.0181,.4023-.0718,.8857-.1611,.4473-.1436,.7334-.2417,.8584-.2954,.5732-.2329,1.0918-.5366,1.5576-.9126,.5-.394,.9482-.8145,1.3418-1.2617l.1611-.1611,.1338-.1875c.0176-.0181,.0625-.0674,.1348-.1479,.0713-.0806,.125-.1475,.1611-.2012,.0176-.0181,.0977-.1255,.2412-.3223,.1426-.1968,.2412-.3486,.2949-.4561,.6982-.9844,1.3604-2.0493,1.9863-3.1943,1.4141-2.6128,2.9258-5.9858,4.5361-10.1191-.2324-.125-.4385-.2505-.6172-.376-.3398-.2148-.6533-.4468-.9395-.6978-.1787-.1787-.3135-.3223-.4023-.4297l-.1074-.1074c-.0537-.0537-.0986-.1069-.1348-.1606-.0889-.125-.1514-.2505-.1875-.376-.0537-.1968-.0537-.3848,0-.5635,.0713-.2324,.2148-.4028,.4297-.5103,.1426-.0713,.3037-.1074,.4834-.1074,.0713,0,.1426,.0093,.2148,.0269l.1338,.0269c.2324,.0181,.4199,.0449,.5635,.0806,.1611,.0361,.3486,.0806,.5635,.1343,.3398,.0898,.6807,.2061,1.0205,.3491,.1611-.4116,.3037-.8057,.4297-1.1812,1.1621-3.1138,2.0664-5.5024,2.7109-7.167,1.127-2.7915,2.165-5.1353,3.1133-7.0322,.6621-1.2886,1.3057-2.4067,1.9326-3.3555,.6445-1.0376,1.3242-1.9595,2.04-2.7646-1.0732-.3579-2.1475-.5991-3.2207-.7246-.7344-.0894-1.4502-.1343-2.1475-.1343-.6621,.0181-1.3779,.0718-2.1475,.1611-1.5391,.1968-2.8994,.6084-4.0801,1.2344-1.2881,.6982-2.2998,1.647-3.0332,2.8457-.8584,1.4136-1.1631,2.729-.9121,3.9453,.1426,.6807,.4561,1.2441,.9395,1.6914,.2324,.2324,.5,.4204,.8047,.5635,.2861,.1255,.5996,.2241,.9395,.2954,.6982,.1255,1.3779,.1343,2.04,.0269,.6621-.125,1.2881-.376,1.8789-.752,1.1631-.6978,2.0762-1.6909,2.7383-2.979,.0713-.125,.1787-.2148,.3223-.2686,.1426-.0537,.2764-.0444,.4023,.0269,.125,.0718,.2148,.1792,.2686,.3223s.0439,.2773-.0273,.4023c0,.0181-.0088,.0269-.0264,.0269l-.0273,.0537-.0264,.0269c-.0723,.2148-.1924,.5146-.3623,.8994-.1709,.3848-.291,.6753-.3623,.8721-.1611,.394-.2959,.7158-.4033,.9663-.0537,.1792-.0986,.3403-.1338,.4834l-.0537,.2144-.0273,.1074v.1611c-.0176,.1436-.085,.2598-.2012,.3491-.1162,.0898-.251,.1255-.4023,.1074-.1523-.0176-.2734-.0806-.3623-.188-.0898-.1074-.125-.2417-.1074-.4028,0-.0713,.0088-.1431,.0264-.2148,0-.0176,.0186-.0713,.0537-.1606,0-.0356,.0361-.1343,.1074-.2954,.0713-.1787,.1523-.3579,.2422-.5366-.3936,.3218-.7881,.5903-1.1816,.8052-1.4316,.8232-2.9434,1.0557-4.5361,.6978-.3936-.0894-.7607-.2148-1.1006-.376-.375-.1968-.707-.4292-.9932-.6978-.2861-.2861-.5186-.6079-.6973-.9663-.1973-.376-.3223-.7515-.376-1.1274-.1436-.7334-.0986-1.5029,.1338-2.3081,.1787-.7158,.4834-1.4136,.9131-2.0938,.7871-1.2705,1.8877-2.2725,3.3018-3.0063,1.2344-.6616,2.6475-1.0913,4.2402-1.2886,.8057-.1074,1.5391-.1606,2.2012-.1606,.7334-.0181,1.4766,.0176,2.2285,.1069,1.1982,.1436,2.3975,.4209,3.5967,.8325,.4111-.4473,.8496-.8594,1.3154-1.2349,.5361-.4297,1.082-.7959,1.6367-1.1006,1.1816-.644,2.4512-.9751,3.8115-.9932,.1787,0,.2773,.0898,.2959,.2686,0,.1787-.0898,.2773-.2686,.2949-.627,.0361-1.2305,.1392-1.8125,.3091-.5811,.1699-1.1406,.416-1.6768,.7378-.502,.2866-1.0029,.6445-1.5039,1.0737-.3037,.2686-.626,.582-.9658,.9395,1.3779,.5552,2.6299,1.2529,3.7578,2.0938,1.2705,.9126,2.3262,1.9688,3.167,3.1675,.9131,1.2705,1.5205,2.6396,1.8252,4.1064,.1436,.7163,.2148,1.4678,.2148,2.2549-.0176,.7339-.1074,1.4854-.2686,2.2549-.1611,.7158-.3848,1.4404-.6709,2.1738-.1611,.376-.3223,.7163-.4834,1.02-.1436,.3047-.3398,.6357-.5898,.9932-.7695,1.1455-1.8164,2.228-3.1406,3.248-1.1279,.8589-2.4072,1.6196-3.8389,2.2817-1.3955,.6621-2.8096,1.145-4.2402,1.4492-.8057,.1611-1.5752,.2686-2.3086,.3223,.3398,.4116,.7061,.8682,1.1006,1.3687,.1426,.1973,.9932,1.3872,2.5498,3.5703,1.0195,1.4131,1.9053,2.5586,2.6572,3.4355,1.002,1.145,2.04,2.1294,3.1133,2.9526,1.1455,.8945,2.3711,1.6279,3.6777,2.2012,1.3057,.5723,2.666,1.002,4.0801,1.2881,1.4492,.2861,2.8809,.4297,4.2949,.4297,1.5381,.0176,2.9609-.1343,4.2676-.4565,1.4854-.3579,2.8086-.8857,3.9727-1.5835,1.2705-.7515,2.3525-1.6641,3.248-2.7378,.9658-1.1455,1.6367-2.3716,2.0127-3.6772,.2148-.7163,.3037-1.3872,.2686-2.0132,0-.3584-.0449-.6802-.1348-.9663-.0898-.3042-.2236-.5728-.4023-.8052-.0898-.125-.1211-.2642-.0938-.4165,.0264-.1514,.0977-.2681,.2148-.3486,.1162-.0806,.25-.1118,.4023-.0942,.1523,.0181,.2725,.0898,.3623,.2148,0,.0181,.0088,.0269,.0273,.0269,.2148,.3584,.3662,.7515,.4561,1.1812Zm-42.0879-5.7979c.1426,.0898,.2861,.1792,.4297,.2686,.1074-.2686,.2148-.5459,.3213-.832-.3037-.125-.6084-.2236-.9121-.2954-.2148-.0537-.3848-.0894-.5098-.1074-.1074-.0356-.2783-.0713-.5098-.1074h-.0811l.0273,.0269,.0801,.1074c.0713,.0718,.1875,.188,.3486,.3491,.251,.2144,.5195,.4116,.8057,.5903Zm1.7441-.1343c-.0713,.1611-.1787,.439-.3213,.832,.6797,.251,1.4307,.4121,2.2539,.4834-.0176-.0176-.0352-.0356-.0537-.0537-.0176-.0176-.04-.0356-.0664-.0537-.0273-.0176-.0498-.0269-.0674-.0269-.5547-.4653-1.1367-.8589-1.7451-1.1812Zm.8057-2.1206c-.1074,.2866-.2686,.6982-.4834,1.2349,.7158,.376,1.3867,.8232,2.0137,1.3423,.3223,.2681,.6523,.5728,.9932,.9126,.9482-.0176,1.959-.1431,3.0332-.376,2.8271-.644,5.3857-1.8159,7.6768-3.5161,1.2168-.9302,2.2002-1.9233,2.9521-2.9795,.2324-.3223,.4111-.6172,.5371-.8857,.1611-.2861,.3125-.5996,.4561-.9395,.2861-.6621,.5098-1.3242,.6709-1.9863,.1611-.7153,.2598-1.4136,.2959-2.0938,.0176-.7153-.0361-1.4043-.1611-2.0669-.2686-1.3594-.8145-2.6479-1.6377-3.8652-.7695-1.1274-1.7451-2.147-2.9258-3.0601-1.0918-.8408-2.335-1.5386-3.7314-2.0933-.0352-.0176-.0625-.0269-.0801-.0269-.7344,.8413-1.4404,1.8164-2.1201,2.9258-.5732,.9487-1.1729,2.0576-1.7988,3.3281-.877,1.7715-1.8789,4.0981-3.0059,6.979-.2686,.6978-.5557,1.4492-.8594,2.2549-.3047,.8052-.6357,1.6865-.9932,2.6436-.3584,.9575-.6357,1.7139-.832,2.2681Z" style="fill:#b15026; stroke:#b15026; stroke-linecap:round; stroke-linejoin:round; stroke-width:.5px;"/></svg>