<?xml version="1.0" encoding="UTF-8"?><svg id="Layer_1" xmlns="http://www.w3.org/2000/svg" viewBox="0 0 413.1571 77.1688"><path d="M50.7166,35.8493c.2627-.2627,.5254-.2764,.79-.04,.2627,.2373,.2627,.4873,0,.75-.7383,.79-1.5273,1.4609-2.3682,2.0127-.8428,.5527-1.7109,1.1191-2.6045,1.6973-.8955,.5801-1.8037,1.1318-2.7236,1.6572-.9209,.5273-1.8545,1.0537-2.8018,1.5791-.1064,.0527-.1973,.1055-.2764,.1572-.0791,.0537-.1709,.1064-.2764,.1582,.3164,.7373,.6182,1.4736,.9082,2.21,.2881,.7373,.5645,1.4736,.8281,2.21,.3682,1.1582,.6572,2.3027,.8682,3.4336,.21,1.1318,.3682,2.3027,.4736,3.5127,.1055,2.1045-.0664,4.1162-.5127,6.0381-.4473,1.9199-1.1973,3.7744-2.249,5.5645-1.5273,2.4727-3.5791,4.5508-6.1572,6.2354-2.9473,1.8945-6.1299,3.1572-9.5498,3.7881-1.4746,.3164-3.0527,.4209-4.7363,.3164-2.2627-.1064-4.3936-.5273-6.3936-1.2637-1.2627-.5264-2.4736-1.1709-3.6299-1.9336-1.1582-.7627-2.1055-1.7236-2.8418-2.8809-.5801-.7891-1-1.7363-1.2627-2.8408-.2637-1.1582-.2637-2.2773,0-3.3545,.2627-1.0791,.6826-2.1055,1.2627-3.0791,.5781-.9736,1.2627-1.8818,2.0518-2.7227,.79-.8418,1.6309-1.6045,2.5264-2.2891,2.8408-2.1572,5.9189-3.9326,9.2344-5.3271,3.3154-1.3936,6.6025-2.8027,9.8662-4.2227,1.21-.5791,2.4336-1.1572,3.6699-1.7373,1.2363-.5781,2.459-1.1836,3.6709-1.8154-.0537-.1045-.0928-.1973-.1191-.2754-.0264-.0791-.0664-.1709-.1182-.2764-.2637-.5791-.54-1.1709-.8281-1.7764-.29-.6045-.5664-1.1445-.8291-1.6182-.2637-.5781-.5527-1.0771-.8682-1.499-.5801-.9473-1.1328-1.8945-1.6572-2.8418-.5273-.9473-1.0791-1.9199-1.6582-2.9209-.5791-1.0518-1.1318-2.1035-1.6572-3.1562-.5264-1.0527-1-2.1572-1.4209-3.3154-.6846-1.8945-.9746-3.7891-.8682-5.6826,0-1.1572,.1182-2.2617,.3555-3.3154,.2363-1.0518,.5645-2.1035,.9863-3.1572,.1582-.3154,.3154-.6436,.4736-.9863,.1582-.3418,.3154-.6709,.4736-.9863,0-.0527,.0127-.0918,.0391-.1191,.0264-.0254,.04-.0654,.04-.1182-.2646,0-.501,.0137-.7109,.0391-.2109,.0273-.4473,.04-.71,.04-.4219,.0527-.8564,.0791-1.3027,.0791-.4473,0-.8818,.0264-1.3018,.0791-.7373,.0527-1.4873,.0918-2.25,.1182-.7627,.0273-1.5127,.0918-2.249,.1973-.8428,.1055-1.6582,.2109-2.4473,.3154-.7891,.1064-1.6055,.2109-2.4463,.3154-1.2109,.2109-2.4209,.4873-3.6309,.8291-1.2109,.3428-2.3955,.8027-3.5518,1.3809-2.0527,1.1055-3.8418,2.5791-5.3672,4.4209-.4219,.5791-.8027,1.1445-1.1445,1.6963-.3428,.5527-.6455,1.1191-.9082,1.6973-.8418,1.6318-1.3682,3.2891-1.5781,4.9727-.1064,.5791-.1719,1.1445-.1973,1.6973-.0273,.5518-.0137,1.1182,.0391,1.6963,.1055,1.3691,.3945,2.6582,.8682,3.8682,.4736,1.2109,1.2363,2.2891,2.2891,3.2354,.5254,.4219,1.0518,.8037,1.5791,1.1445,.5254,.3428,1.1309,.5664,1.8154,.6709,.5254,.1064,1.0254,.1328,1.499,.0791,.4736-.0518,.9736-.1572,1.5-.3154,.2627-.1045,.5254-.1973,.7891-.2764,.2627-.0791,.5254-.1699,.7891-.2764,.2627-.1572,.5527-.1309,.8682,.0791,.2627,.1582,.2627,.29,0,.3945-1.4736,.7891-3.0264,1.1582-4.6562,1.1055-1.3164-.1582-2.4473-.5791-3.3945-1.2637-2.6836-1.6299-4.2617-3.9717-4.7354-7.0244-.2109-.9473-.3037-1.8945-.2764-2.8418,.0264-.9463,.1182-1.8936,.2764-2.8408s.3945-1.8555,.71-2.7236c.3164-.8682,.6836-1.748,1.1055-2.6436,2.2617-4.209,5.6035-7.0508,10.0244-8.5244,.8936-.3154,1.8145-.5781,2.7617-.7891,.9473-.21,1.9209-.3945,2.9209-.5527,.7363-.1045,1.46-.1973,2.1699-.2764,.7109-.0791,1.4336-.1699,2.1709-.2764l3.5518-.2363c.8945-.1055,1.8154-.1709,2.7627-.1973s1.8945-.0654,2.8418-.1191c.1045-.0518,.1572-.0908,.1572-.1182,0-.0254,.0264-.0654,.0791-.1182,.999-1.7363,2.2363-3.3945,3.71-4.9727,.8936-.8945,1.8154-1.709,2.7627-2.4473,.9473-.7354,1.999-1.3672,3.1572-1.8936,.7363-.3164,1.4854-.5791,2.249-.79,.7627-.209,1.5654-.2881,2.4072-.2363,1.2627,0,2.3408,.3691,3.2363,1.1045,.9473,.79,1.3936,1.7109,1.3418,2.7627-.0527,.79-.3428,1.4736-.8682,2.0527-.4736,.6846-1.0137,1.25-1.6182,1.6963-.6055,.4482-1.2764,.8291-2.0127,1.1445-.8418,.4219-1.6973,.75-2.5654,.9873-.8682,.2363-1.75,.4609-2.6436,.6709-1,.2109-1.9873,.3818-2.96,.5127-.9746,.1318-1.9609,.25-2.96,.3555-.1582,0-.3154,.0137-.4736,.0391-.1582,.0273-.3154,.04-.4736,.04s-.2363,.0527-.2363,.1572c-.6846,1.1582-1.2637,2.3418-1.7373,3.5518-.4727,1.2109-.8418,2.4746-1.1045,3.7891-.1064,.7373-.1719,1.499-.1973,2.2891-.0273,.7891,.0117,1.5527,.1182,2.2891,.1582,1.2627,.46,2.4863,.9082,3.6699,.4463,1.1836,.959,2.3281,1.5391,3.4336,.4736,.9473,.9727,1.8682,1.499,2.7627,.5254,.8945,1.0781,1.8145,1.6582,2.7617,.2627,.4219,.499,.8291,.71,1.2236,.21,.3945,.4463,.8027,.71,1.2236,.2627,.5264,.5,.9746,.7109,1.3418,.21,.3691,.4199,.7373,.6309,1.1045,.21,.3691,.3682,.6592,.4736,.8691,.1055,.1572,.1846,.3291,.2373,.5127,.0518,.1846,.1309,.3555,.2363,.5127,.2627-.1045,.5-.2363,.7109-.3945,.209-.1582,.4463-.2881,.71-.3945,.8408-.4736,1.6699-.9473,2.4863-1.4209,.8154-.4736,1.6436-.9727,2.4863-1.499,.7363-.4736,1.5-.96,2.2891-1.4609,.7891-.499,1.4727-1.1172,2.0518-1.8545Zm-9.7871,14.918c-.2637-1.0527-.5527-2.0918-.8682-3.1182s-.6846-2.0381-1.1045-3.0391c-1.3691,.7383-2.7236,1.4209-4.0654,2.0527-1.3418,.6309-2.6973,1.2363-4.0645,1.8154-1.79,.7373-3.5791,1.4736-5.3672,2.21-1.79,.7373-3.5518,1.5527-5.2881,2.4463-1.4746,.7373-2.9209,1.5273-4.3418,2.3682-1.4209,.8428-2.7891,1.7891-4.1045,2.8418-1.3682,1.1562-2.5527,2.4863-3.5518,3.9854-1,1.5-1.3418,3.1699-1.0254,5.0127,.209,1.3672,.749,2.6045,1.6182,3.709,.8682,1.1055,1.8545,2.0254,2.959,2.7627,1.21,.7891,2.499,1.3936,3.8682,1.8154,1.3672,.4209,2.7354,.6836,4.1045,.7891,1.5781,.1055,3.0781,0,4.499-.3154,3.1035-.5264,6.0244-1.6846,8.7607-3.4727,2.4199-1.5273,4.3672-3.5,5.8408-5.9199,1.6299-2.7363,2.5254-5.7363,2.6836-8.998,.1045-1.1572,.1045-2.3145,0-3.4727-.1064-1.1572-.29-2.3154-.5527-3.4727Zm-6.6299-40.4912h.1582c.6826-.1045,1.3535-.1973,2.0127-.2764,.6572-.0791,1.3281-.1699,2.0127-.2764,.8936-.1045,1.7617-.2627,2.6045-.4736,.8408-.209,1.6836-.4736,2.5254-.7891,.8945-.3154,1.7227-.71,2.4863-1.1836,.7627-.4736,1.4336-1.0781,2.0127-1.8154,.5781-.6836,.9473-1.4209,1.1055-2.21,0-.21-.0137-.4209-.04-.6318-.0273-.21-.1182-.4199-.2764-.6309-.2637-.21-.5791-.3682-.9473-.4736-.4209-.1055-.8682-.1582-1.3418-.1582-.4727,0-.9209,.0527-1.3418,.1582-1,.2637-1.9336,.6191-2.8018,1.0654-.8682,.4473-1.7236,.9609-2.5654,1.5391-1.0527,.8418-2.0254,1.75-2.9199,2.7227-.8955,.9746-1.7109,2.04-2.4473,3.1973l-.2363,.2363Z" style="fill:#b15026;"/><path d="M53.1629,41.6902c-.1064,.1582-.2109,.3037-.3164,.4336-.1055,.1328-.2109,.2764-.3154,.4346-.6846,.7891-1.3945,1.3945-2.1309,1.8154-.4736,.3154-1.0264,.3945-1.6572,.2363-.6836-.209-1.0781-.71-1.1846-1.499,0-.4209,.0273-.8018,.0791-1.1445,.0527-.3418,.1318-.6709,.2363-.9873,.5273-1.7881,1.3955-3.3936,2.6055-4.8145,.8408-.999,1.9727-1.4463,3.3936-1.3418,.1582,0,.3945,.0537,.71,.1582l.4736,.2363c.3682,.3691,.3955,.7637,.0791,1.1846-.1055,.1055-.2363,.1709-.3945,.1973-.1582,.0273-.29-.0127-.3945-.1191v-.2363c0-.1045,.0127-.1699,.0391-.1973,.0264-.0264,.04-.0908,.04-.1973,.0518-.1582,.0254-.2764-.0791-.3555-.1064-.0791-.2109-.0654-.3154,.04-.3691,.2109-.6846,.5-.9473,.8682-.6846,.7891-1.2627,1.6445-1.7363,2.5645-.4736,.9219-.8945,1.9082-1.2627,2.96-.1055,.2646-.1846,.54-.2373,.8291-.0518,.29-.1045,.5664-.1582,.8291,.0537,0,.0273,.0527-.0781,.1572l.3154-.1572c.7891-.4209,1.3936-.9199,1.8154-1.5,.4199-.5254,.8408-1.0518,1.2627-1.5781,.4209-.5254,.8408-1.0781,1.2627-1.6582,.3154-.5254,.7363-1.1309,1.2627-1.8154,.0518-.1045,.1582-.2363,.3164-.3945,.1572-.3154,.4199-.4199,.7891-.3154,.3154,.1055,.5254,.1846,.6309,.2363,.3682,.2109,.5,.5273,.3955,.9473-.1064,.3691-.2246,.7373-.3555,1.1055-.1318,.3682-.2764,.7373-.4346,1.1045-.4219,1.0537-.8555,2.0527-1.3018,3-.4482,.9463-.8818,1.9473-1.3027,2.999-.3154,.6309-.5791,1.2764-.7891,1.9336-.2109,.6582-.4219,1.3555-.6318,2.0918-.0527,.2109-.0781,.4082-.0781,.5918,0,.1846-.0273,.3555-.0791,.5127,0,.1064,.0117,.1719,.0391,.1973,.0264,.0273,.04,.0928,.04,.1982,.209-.1055,.3408-.1846,.3945-.2373,.4199-.2627,.7891-.5527,1.1045-.8682s.6572-.6318,1.0264-.9473c1.2627-1.21,2.498-2.4463,3.71-3.71,1.209-1.2627,2.4189-2.5254,3.6299-3.7881,.7363-.7363,1.4609-1.5,2.1709-2.2891,.7109-.7891,1.4336-1.5518,2.1709-2.2891,.2627-.2627,.499-.4854,.71-.6709,.21-.1836,.4463-.4072,.7109-.6709,.1045-.1045,.2627-.1045,.4736,0,.209,.1064,.3408,.2109,.3945,.3154,0,.1064-.0791,.2373-.2373,.3945l-1.499,1.5c-.3691,.4219-.7383,.8027-1.1055,1.1445-.3691,.3428-.7373,.7236-1.1055,1.1445-.8945,.9473-1.7891,1.8818-2.6836,2.8018-.8945,.9219-1.7891,1.8818-2.6836,2.8809-1.5781,1.6318-3.1836,3.2363-4.8145,4.8154-.3154,.4209-.71,.7627-1.1836,1.0254-.6846,.4736-1.3945,.501-2.1309,.0791-.5801-.3154-.9219-.8682-1.0264-1.6572-.0518-.8408,.0273-1.6836,.2363-2.5264,.21-.8936,.46-1.748,.75-2.5645,.2891-.8154,.6182-1.6182,.9873-2.4072,.1045-.1582,.1699-.3164,.1973-.4736,.0254-.1582,.0908-.3164,.1973-.4736v-.0791Z" style="fill:#b15026;"/><path d="M85.8377,36.7966c-.3154,.3682-.6055,.71-.8682,1.0254-.2637,.2646-.5264,.5664-.7891,.9082-.2637,.3428-.5264,.6445-.7891,.9072-.5273,.5801-1.04,1.1582-1.5391,1.7373-.501,.5791-.9873,1.1572-1.4609,1.7363-1,1.1045-2.0127,2.1582-3.0381,3.1572-1.0264,1-2.1445,1.9473-3.3545,2.8408-.4219,.3164-.8682,.6191-1.3418,.9082-.4736,.29-.9746,.5127-1.5,.6709-.6846,.2637-1.3418,.3154-1.9736,.1572-1.1045-.2627-1.6826-.8936-1.7363-1.8936-.1045-.4209-.1299-.8555-.0781-1.3027,.0527-.4463,.1318-.8809,.2363-1.3027,.2637-1.0518,.5801-2.0771,.9473-3.0781,.3672-.999,.7891-1.999,1.2627-2.999,.2627-.5254,.5127-1.0264,.75-1.5,.2363-.4736,.5391-.9199,.9072-1.3418v-.0781c-.2637-.0518-.6055-.1309-1.0254-.2373-.8955-.1582-1.5664-.3555-2.0127-.5918-.4463-.2373-.7764-.4346-.9873-.5918-.4199-.4209-.6963-.9199-.8281-1.5-.1309-.5781-.1709-1.1562-.1191-1.7363,.0537-1.6836,.7109-3.1572,1.9736-4.4199,.2627-.21,.5127-.3945,.75-.5527,.2363-.1582,.5127-.2881,.8291-.3945,.5781-.1045,1.1045,0,1.5781,.3154,.4736,.3164,.7617,.7891,.8682,1.4209,.1582,.7891,.0518,1.6572-.3154,2.6045-.3691,.8955-.8027,1.6846-1.3027,2.3682-.501,.6846-1.0391,1.3945-1.6182,2.1309,.4736,.1582,.96,.2764,1.4609,.3555,.499,.0791,.9863,.1973,1.46,.3555,.1572,0,.3418,.0664,.5527,.1973,.209,.1318,.3672,.25,.4727,.3545,.1582,.2646,.21,.5273,.1582,.79-.1582,.2637-.3037,.5518-.4336,.8682-.1328,.3154-.2764,.6055-.4346,.8682-.5264,1.0527-1.0137,2.1182-1.46,3.1963-.4482,1.0791-.8818,2.1982-1.3027,3.3545-.1055,.4219-.2109,.8428-.3154,1.2627-.1064,.4219-.1582,.8428-.1582,1.2627,0,.1582,.0518,.4482,.1582,.8691,0,.1572,.1045,.2363,.3154,.2363,.999-.1582,1.9209-.5781,2.7627-1.2627,2.3682-1.6309,4.5254-3.5518,6.4727-5.7617,.7891-.8945,1.5908-1.8018,2.4072-2.7236,.8145-.9199,1.6182-1.8271,2.4072-2.7227l1.5-1.7363,.1572-.1582c.0518-.0518,.1836-.0518,.3945,0,.1582,.1064,.2373,.2637,.2373,.4736,0,.1064-.0273,.1846-.0791,.2363-.0527,0-.0791,.0273-.0791,.0791,0,.0537-.0137,.0928-.0391,.1191-.0273,.0264-.04,.0664-.04,.1182Zm-17.4434-1.2627c.21-.2627,.4209-.5527,.6318-.8682,.21-.3164,.4199-.6318,.6309-.9473,.3682-.5254,.6973-1.0654,.9873-1.6182,.2881-.5527,.5391-1.1445,.75-1.7764,.2627-.6826,.2881-1.3418,.0781-1.9727-.1572-.21-.3428-.3164-.5518-.3164-.4219,.1064-.79,.2646-1.1055,.4736-.7373,.5801-1.3154,1.3691-1.7363,2.3682-.2627,.5801-.4346,1.1582-.5127,1.7363-.0791,.5801-.04,1.1582,.1182,1.7363,.0527,.2646,.1055,.501,.1572,.7109,.0537,.2109,.1855,.4219,.3955,.6309l.1572-.1572Z" style="fill:#b15026;"/><path d="M87.7312,41.6902c-.1055,.1582-.2109,.3037-.3154,.4336-.1064,.1328-.2109,.2764-.3154,.4346-.6846,.7891-1.3955,1.3945-2.1318,1.8154-.4736,.3154-1.0254,.3945-1.6572,.2363-.6836-.209-1.0781-.71-1.1836-1.499,0-.4209,.0264-.8018,.0781-1.1445,.0537-.3418,.1328-.6709,.2373-.9873,.5264-1.7881,1.3945-3.3936,2.6045-4.8145,.8408-.999,1.9736-1.4463,3.3945-1.3418,.1572,0,.3945,.0537,.71,.1582l.4736,.2363c.3672,.3691,.3945,.7637,.0791,1.1846-.1064,.1055-.2373,.1709-.3945,.1973-.1582,.0273-.29-.0127-.3955-.1191v-.2363c0-.1045,.0127-.1699,.04-.1973,.0254-.0264,.0391-.0908,.0391-.1973,.0518-.1582,.0264-.2764-.0791-.3555s-.21-.0654-.3154,.04c-.3682,.2109-.6846,.5-.9473,.8682-.6846,.7891-1.2627,1.6445-1.7363,2.5645-.4736,.9219-.8936,1.9082-1.2627,2.96-.1045,.2646-.1836,.54-.2363,.8291-.0518,.29-.1055,.5664-.1582,.8291,.0527,0,.0273,.0527-.0791,.1572l.3154-.1572c.79-.4209,1.3936-.9199,1.8154-1.5,.4209-.5254,.8418-1.0518,1.2627-1.5781,.4209-.5254,.8418-1.0781,1.2637-1.6582,.3154-.5254,.7363-1.1309,1.2627-1.8154,.0518-.1045,.1572-.2363,.3154-.3945,.1582-.3154,.4209-.4199,.7891-.3154,.3164,.1055,.5254,.1846,.6318,.2363,.3672,.2109,.499,.5273,.3945,.9473-.1064,.3691-.2246,.7373-.3555,1.1055-.1318,.3682-.2764,.7373-.4336,1.1045-.4219,1.0537-.8564,2.0527-1.3027,3-.4473,.9463-.8818,1.9473-1.3018,2.999-.3164,.6309-.5801,1.2764-.79,1.9336-.2109,.6582-.4209,1.3555-.6309,2.0918-.0527,.2109-.0791,.4082-.0791,.5918,0,.1846-.0273,.3555-.0791,.5127,0,.1064,.0127,.1719,.04,.1973,.0254,.0273,.0391,.0928,.0391,.1982,.21-.1055,.3418-.1846,.3945-.2373,.4209-.2627,.7891-.5527,1.1055-.8682,.3154-.3154,.6572-.6318,1.0254-.9473,1.2637-1.21,2.499-2.4463,3.71-3.71,1.21-1.2627,2.4199-2.5254,3.6309-3.7881,.7363-.7363,1.46-1.5,2.1709-2.2891,.71-.7891,1.4326-1.5518,2.1699-2.2891,.2627-.2627,.5-.4854,.7109-.6709,.209-.1836,.4463-.4072,.71-.6709,.1045-.1045,.2627-.1045,.4736,0,.21,.1064,.3418,.2109,.3945,.3154,0,.1064-.0791,.2373-.2363,.3945l-1.5,1.5c-.3691,.4219-.7373,.8027-1.1045,1.1445-.3691,.3428-.7383,.7236-1.1055,1.1445-.8955,.9473-1.7891,1.8818-2.6836,2.8018-.8955,.9219-1.7891,1.8818-2.6836,2.8809-1.5791,1.6318-3.1846,3.2363-4.8145,4.8154-.3164,.4209-.7109,.7627-1.1846,1.0254-.6846,.4736-1.3945,.501-2.1309,.0791-.5791-.3154-.9209-.8682-1.0264-1.6572-.0518-.8408,.0273-1.6836,.2373-2.5264,.21-.8936,.46-1.748,.75-2.5645,.2881-.8154,.6172-1.6182,.9863-2.4072,.1045-.1582,.1699-.3164,.1973-.4736,.0264-.1582,.0918-.3164,.1973-.4736v-.0791Z" style="fill:#b15026;"/><path d="M123.8015,6.8034c.1045,.6309,.0908,1.3418-.04,2.1309-.1318,.7891-.3291,1.5791-.5918,2.3682-.2637,.7891-.5527,1.5664-.8682,2.3281-.3154,.7637-.6318,1.4082-.9473,1.9336-.2109,.3164-.3945,.6191-.5527,.9082-.1572,.2891-.3154,.5654-.4736,.8281-1.5264,2.6318-3.0127,4.8418-4.459,6.6309-1.4482,1.7891-2.4346,2.9727-2.96,3.5518-1.0527,1.1572-2.2373,2.3672-3.5518,3.6299-1.3164,1.2637-2.7627,2.5791-4.3408,3.9473-.1582,.4736-.3164,.9736-.4736,1.499-.2646,1.001-.4736,2.1055-.6318,3.3154-.1055,.5791-.1846,1.1445-.2363,1.6973-.0537,.5518-.1064,1.1182-.1582,1.6963,0,.8955,.0791,1.7637,.2363,2.6055,.21,.6836,.4736,1.1836,.79,1.499,.3154,.2109,.6045,.2637,.8682,.1582,.2627-.1055,.5254-.21,.7891-.3154,.2627-.1055,.5254-.21,.7891-.3164,.6836-.3154,1.3418-.6963,1.9736-1.1445,.6309-.4463,1.2354-.9072,1.8154-1.3809,1.1045-.9473,2.1699-1.96,3.1963-3.0391,1.0264-1.0781,1.9854-2.1699,2.8809-3.2754,.2627-.3672,.5391-.71,.8291-1.0264,.2881-.3154,.5645-.6309,.8291-.9473,.3154-.4199,.71-.5254,1.1836-.3154,.0518,.0527,.0908,.1582,.1182,.3154,.0264,.1582-.1709,.501-.5918,1.0264-1.0537,1.2627-2.1055,2.5-3.1572,3.71-1.0537,1.2109-2.1582,2.3682-3.3154,3.4727-1.2109,1.2109-2.499,2.2373-3.8672,3.0781-.5264,.3154-1.0527,.5801-1.5781,.7891-.5273,.2109-1.0791,.3691-1.6582,.4736-.8955,.1582-1.6963,.0273-2.4072-.3945-.71-.4199-1.1963-1.0518-1.46-1.8945-.21-.7891-.3154-1.6572-.3154-2.6045,0-.7363,.0527-1.499,.1572-2.2891,.1064-.7891,.2373-1.5508,.3945-2.2881,.4219-2.1572,.9736-4.249,1.6582-6.2754,.6826-2.0254,1.3936-4.0381,2.1309-6.0381,.6836-1.8408,1.3936-3.6826,2.1309-5.5254,.7363-1.8408,1.5518-3.6826,2.4473-5.5244,.5254-1.1572,1.0908-2.2891,1.6963-3.3945,.6045-1.1045,1.2754-2.1826,2.0127-3.2354,.4209-.5791,.8418-1.1445,1.2637-1.6973,.4199-.5527,.8936-1.0654,1.4199-1.5391,.79-.6836,1.71-1.2363,2.7627-1.6582,.9473-.3154,1.7764-.2754,2.4863,.1191,.7109,.3945,1.1963,.9346,1.46,1.6182,.1055,.1055,.1709,.2363,.1973,.3945,.0264,.1572,.0654,.2891,.1191,.3945Zm-.9473,.9473c0-.7363-.1064-1.3936-.3154-1.9736-.2646-.5254-.6592-.7891-1.1846-.7891-.1572,.0527-.3291,.0791-.5127,.0791-.1855,0-.3291,.0527-.4346,.1572-1.2109,.3691-2.2891,1.0791-3.2354,2.1318-.8955,.9463-1.6855,1.9727-2.3682,3.0781-.6846,1.0527-1.29,2.1309-1.8154,3.2354-.5264,1.1055-1.0537,2.2373-1.5791,3.3945-.7373,1.6846-1.4336,3.3818-2.0908,5.0908-.6592,1.7109-1.2773,3.4336-1.8555,5.1699-.1055,.3154-.2637,.7773-.4736,1.3809-.2109,.6055-.4219,1.2236-.6309,1.8555-.2109,.6309-.3945,1.2227-.5527,1.7754s-.2637,.9082-.3154,1.0654c.3672-.3672,.7754-.7617,1.2227-1.1836,.4473-.4209,.8555-.8018,1.2236-1.1445,.3672-.3418,.6836-.6436,.9473-.9072l.4736-.4736c1.5254-1.5264,3.0645-3.1836,4.6172-4.9727,1.5518-1.7881,2.9072-3.6035,4.0654-5.4463,.4736-.7363,.8936-1.4209,1.2627-2.0518,1.1045-1.9463,2.0518-3.999,2.8408-6.1572,.21-.5254,.3818-1.0654,.5137-1.6182,.1309-.5518,.1973-1.1172,.1973-1.6963Z" style="fill:#b15026;"/><path d="M118.5115,46.5837l1.1846-.71c.7363-.5791,1.46-1.1572,2.1699-1.7373,.7109-.5781,1.4072-1.1562,2.0918-1.7363,1.2627-1.1045,2.5127-2.21,3.749-3.3145,1.2363-1.1055,2.4863-2.21,3.749-3.3154,.3164-.21,.6318-.1309,.9473,.2373,.1582,.1572,.1582,.2363,0,.2363-.0527,.1064-.1055,.1719-.1572,.1973-.0537,.0273-.1064,.0928-.1582,.1973-1.0537,.8955-2.0791,1.8154-3.0781,2.7627-1,.9473-2.0264,1.8682-3.0781,2.7627-.8428,.7373-1.6709,1.4736-2.4863,2.21-.8164,.7373-1.6455,1.4736-2.4863,2.21-.3154,.3154-.7373,.6055-1.2627,.8682-.6318,.4219-1.3281,.4609-2.0918,.1182-.7627-.3418-1.2236-1.0127-1.3818-2.0127-.1572-.6826-.1572-1.3672,0-2.0518,.3691-2.6309,1.2119-5.1309,2.5264-7.498l.2363-.2373c.21-.3154,.4736-.4736,.7891-.4736,.3164,0,.6045,.1582,.8691,.4736,.1572,.1582,.2363,.3428,.2363,.5527,0,.4219-.0273,.71-.0791,.8682-.3154,1.1045-.6582,2.1055-1.0264,2.999-.2637,.7373-.4863,1.5-.6709,2.2891-.1836,.7891-.3809,1.6055-.5918,2.4473-.0518,.2637-.0908,.5264-.1182,.7891-.0254,.2637,.0137,.5527,.1182,.8682Zm3-13.9707c-.5801-.1045-.9746-.2627-1.1846-.4736-.1572-.2627-.2109-.5127-.1572-.75,.0518-.2363,.1699-.4199,.3545-.5518,.1836-.1309,.3945-.1846,.6318-.1582,.2363,.0273,.46,.1455,.6709,.3555,.4209,.2637,.5781,.5791,.4736,.9473-.1064,.3682-.3691,.5791-.7891,.6309Z" style="fill:#b15026;"/><path d="M146.8465,35.8493c.2627-.2627,.5137-.2764,.75-.04,.2373,.2373,.2236,.4873-.0391,.75-3.5264,3.3154-7.499,5.7891-11.9189,7.4199-.1055,1.1582-.4219,2.1699-.9473,3.0381-.5264,.8691-1.2109,1.6719-2.0518,2.4082-.5801,.5264-1.2236,.9736-1.9336,1.3418-.7109,.3682-1.46,.5264-2.25,.4736-.4199,0-.8018-.0791-1.1445-.2373-.3408-.1582-.5918-.4209-.749-.7891-.2627-.4736-.3418-.9736-.2373-1.5,.0527-1.1045,.5801-1.999,1.5791-2.6836,.1572-.1572,.4473-.3418,.8682-.5527,.3682-.2627,.7373-.4736,1.1045-.6309,.3691-.1582,.7637-.3154,1.1836-.4736,.2646-.1045,.5791-.2236,.9473-.3555,.3682-.1309,.7363-.249,1.1055-.3555,.1045-.8408,.0908-1.6299-.04-2.3672-.1318-.7363-.25-1.3682-.3545-1.8945-.1064-.21-.1719-.4072-.1973-.5918-.0273-.1836-.0928-.3809-.1973-.5918-.2646-.7363-.501-1.4863-.7109-2.25-.209-.7617-.3945-1.5117-.5527-2.249-.1045-.6318-.0781-1.1846,.0791-1.6582,.1582-.4736,.3555-.8408,.5918-1.1045,.2373-.2627,.5928-.5527,1.0664-.8682h.1572c.3682-.1055,.75-.1309,1.1445-.0791,.3945,.0527,.7227,.2363,.9863,.5527,.2627,.3154,.3418,.8164,.2373,1.499-.0527,.1582-.0928,.3301-.1182,.5137-.0273,.1846-.0928,.3545-.1973,.5127-.1582,.3154-.3945,.7373-.7109,1.2627-.1055,.1582-.2246,.3164-.3545,.4736-.1328,.1582-.2764,.3154-.4346,.4736-.0527,.1064-.0791,.2109-.0791,.3154,.2627,.5801,.5,1.1445,.7109,1.6973,.209,.5527,.4463,1.1191,.71,1.6973,.2627,.6309,.46,1.25,.5918,1.8545,.1309,.6055,.2236,1.2236,.2764,1.8555v.0781c4.1562-1.5781,7.8662-3.8926,11.1289-6.9453Zm-13.8125,8.7607c-.4736,.1582-.8955,.3037-1.2627,.4346-.3672,.1318-.5781,.2246-.6318,.2764-.209,.0527-.5254,.1846-.9473,.3945-.7363,.3154-1.4199,.8164-2.0518,1.5-.2627,.3154-.5127,.6973-.75,1.1436-.2363,.4482-.3018,.8818-.1973,1.3027,.1064,.3691,.3037,.6191,.5918,.75,.29,.1318,.5918,.1455,.9082,.0391,.7373-.1045,1.3691-.4062,1.8945-.9072,.5264-.5,.9463-1.0391,1.2627-1.6182,.5781-.999,.9473-2.0254,1.1045-3.0781,0-.0518,.0264-.1055,.0791-.1582v-.0791Zm.0791-10.0234c.4209-.5254,.7617-1.0264,1.0264-1.5,.2627-.4209,.4199-.8291,.4736-1.2236,.0518-.3945-.0537-.7227-.3164-.9863-.1572-.1045-.3428-.0518-.5527,.1582l-.3154,.3154c0,.0527-.0137,.0791-.0391,.0791-.0273,0-.04,.0273-.04,.0791-.2109,.4219-.3291,.8281-.3545,1.2227-.0273,.3945-.0137,.8027,.0391,1.2236,0,.0527,.0127,.0928,.0391,.1182,.0264,.0273,.04,.0928,.04,.1973v.3164Z" style="fill:#b15026;"/></svg>